G04 #@! TF.GenerationSoftware,KiCad,Pcbnew,(5.1.2)-1*
G04 #@! TF.CreationDate,2019-08-03T00:37:11-03:00*
G04 #@! TF.ProjectId,Medidor,4d656469-646f-4722-9e6b-696361645f70,rev?*
G04 #@! TF.SameCoordinates,Original*
G04 #@! TF.FileFunction,Soldermask,Bot*
G04 #@! TF.FilePolarity,Negative*
%FSLAX46Y46*%
G04 Gerber Fmt 4.6, Leading zero omitted, Abs format (unit mm)*
G04 Created by KiCad (PCBNEW (5.1.2)-1) date 2019-08-03 00:37:11*
%MOMM*%
%LPD*%
G04 APERTURE LIST*
%ADD10C,0.100000*%
G04 APERTURE END LIST*
D10*
G36*
X87080380Y-129966776D02*
G01*
X87461093Y-130042504D01*
X87870749Y-130212189D01*
X88239429Y-130458534D01*
X88552966Y-130772071D01*
X88799311Y-131140751D01*
X88968996Y-131550407D01*
X89055500Y-131985296D01*
X89055500Y-132428704D01*
X88968996Y-132863593D01*
X88799311Y-133273249D01*
X88552966Y-133641929D01*
X88239429Y-133955466D01*
X87870749Y-134201811D01*
X87461093Y-134371496D01*
X87080380Y-134447224D01*
X87026205Y-134458000D01*
X86582795Y-134458000D01*
X86528620Y-134447224D01*
X86147907Y-134371496D01*
X85738251Y-134201811D01*
X85369571Y-133955466D01*
X85056034Y-133641929D01*
X84809689Y-133273249D01*
X84640004Y-132863593D01*
X84553500Y-132428704D01*
X84553500Y-131985296D01*
X84640004Y-131550407D01*
X84809689Y-131140751D01*
X85056034Y-130772071D01*
X85369571Y-130458534D01*
X85738251Y-130212189D01*
X86147907Y-130042504D01*
X86528620Y-129966776D01*
X86582795Y-129956000D01*
X87026205Y-129956000D01*
X87080380Y-129966776D01*
X87080380Y-129966776D01*
G37*
G36*
X140864880Y-129839776D02*
G01*
X141245593Y-129915504D01*
X141655249Y-130085189D01*
X142023929Y-130331534D01*
X142337466Y-130645071D01*
X142583811Y-131013751D01*
X142753496Y-131423407D01*
X142840000Y-131858296D01*
X142840000Y-132301704D01*
X142753496Y-132736593D01*
X142583811Y-133146249D01*
X142337466Y-133514929D01*
X142023929Y-133828466D01*
X141655249Y-134074811D01*
X141245593Y-134244496D01*
X140864880Y-134320224D01*
X140810705Y-134331000D01*
X140367295Y-134331000D01*
X140313120Y-134320224D01*
X139932407Y-134244496D01*
X139522751Y-134074811D01*
X139154071Y-133828466D01*
X138840534Y-133514929D01*
X138594189Y-133146249D01*
X138424504Y-132736593D01*
X138338000Y-132301704D01*
X138338000Y-131858296D01*
X138424504Y-131423407D01*
X138594189Y-131013751D01*
X138840534Y-130645071D01*
X139154071Y-130331534D01*
X139522751Y-130085189D01*
X139932407Y-129915504D01*
X140313120Y-129839776D01*
X140367295Y-129829000D01*
X140810705Y-129829000D01*
X140864880Y-129839776D01*
X140864880Y-129839776D01*
G37*
G36*
X107689000Y-133357000D02*
G01*
X104387000Y-133357000D01*
X104387000Y-131255000D01*
X107689000Y-131255000D01*
X107689000Y-133357000D01*
X107689000Y-133357000D01*
G37*
G36*
X122834500Y-132273000D02*
G01*
X121132500Y-132273000D01*
X121132500Y-130871000D01*
X122834500Y-130871000D01*
X122834500Y-132273000D01*
X122834500Y-132273000D01*
G37*
G36*
X127152500Y-132146000D02*
G01*
X125450500Y-132146000D01*
X125450500Y-130744000D01*
X127152500Y-130744000D01*
X127152500Y-132146000D01*
X127152500Y-132146000D01*
G37*
G36*
X99344564Y-128195389D02*
G01*
X99535833Y-128274615D01*
X99535835Y-128274616D01*
X99707973Y-128389635D01*
X99854365Y-128536027D01*
X99969385Y-128708167D01*
X100048611Y-128899436D01*
X100089000Y-129102484D01*
X100089000Y-129309516D01*
X100048611Y-129512564D01*
X99969385Y-129703833D01*
X99969384Y-129703835D01*
X99854365Y-129875973D01*
X99707973Y-130022365D01*
X99535835Y-130137384D01*
X99535834Y-130137385D01*
X99535833Y-130137385D01*
X99344564Y-130216611D01*
X99141516Y-130257000D01*
X98934484Y-130257000D01*
X98731436Y-130216611D01*
X98540167Y-130137385D01*
X98540166Y-130137385D01*
X98540165Y-130137384D01*
X98368027Y-130022365D01*
X98221635Y-129875973D01*
X98106616Y-129703835D01*
X98106615Y-129703833D01*
X98027389Y-129512564D01*
X97987000Y-129309516D01*
X97987000Y-129102484D01*
X98027389Y-128899436D01*
X98106615Y-128708167D01*
X98221635Y-128536027D01*
X98368027Y-128389635D01*
X98540165Y-128274616D01*
X98540167Y-128274615D01*
X98731436Y-128195389D01*
X98934484Y-128155000D01*
X99141516Y-128155000D01*
X99344564Y-128195389D01*
X99344564Y-128195389D01*
G37*
G36*
X113844564Y-128195389D02*
G01*
X114035833Y-128274615D01*
X114035835Y-128274616D01*
X114207973Y-128389635D01*
X114354365Y-128536027D01*
X114469385Y-128708167D01*
X114548611Y-128899436D01*
X114589000Y-129102484D01*
X114589000Y-129309516D01*
X114548611Y-129512564D01*
X114469385Y-129703833D01*
X114469384Y-129703835D01*
X114354365Y-129875973D01*
X114207973Y-130022365D01*
X114035835Y-130137384D01*
X114035834Y-130137385D01*
X114035833Y-130137385D01*
X113844564Y-130216611D01*
X113641516Y-130257000D01*
X113434484Y-130257000D01*
X113231436Y-130216611D01*
X113040167Y-130137385D01*
X113040166Y-130137385D01*
X113040165Y-130137384D01*
X112868027Y-130022365D01*
X112721635Y-129875973D01*
X112606616Y-129703835D01*
X112606615Y-129703833D01*
X112527389Y-129512564D01*
X112487000Y-129309516D01*
X112487000Y-129102484D01*
X112527389Y-128899436D01*
X112606615Y-128708167D01*
X112721635Y-128536027D01*
X112868027Y-128389635D01*
X113040165Y-128274616D01*
X113040167Y-128274615D01*
X113231436Y-128195389D01*
X113434484Y-128155000D01*
X113641516Y-128155000D01*
X113844564Y-128195389D01*
X113844564Y-128195389D01*
G37*
G36*
X113844564Y-125695389D02*
G01*
X114012620Y-125765000D01*
X114035835Y-125774616D01*
X114096274Y-125815000D01*
X114207973Y-125889635D01*
X114354365Y-126036027D01*
X114469385Y-126208167D01*
X114548611Y-126399436D01*
X114589000Y-126602484D01*
X114589000Y-126809516D01*
X114548611Y-127012564D01*
X114469385Y-127203833D01*
X114469384Y-127203835D01*
X114354365Y-127375973D01*
X114207973Y-127522365D01*
X114035835Y-127637384D01*
X114035834Y-127637385D01*
X114035833Y-127637385D01*
X113844564Y-127716611D01*
X113641516Y-127757000D01*
X113434484Y-127757000D01*
X113231436Y-127716611D01*
X113040167Y-127637385D01*
X113040166Y-127637385D01*
X113040165Y-127637384D01*
X112868027Y-127522365D01*
X112721635Y-127375973D01*
X112606616Y-127203835D01*
X112606615Y-127203833D01*
X112527389Y-127012564D01*
X112487000Y-126809516D01*
X112487000Y-126602484D01*
X112527389Y-126399436D01*
X112606615Y-126208167D01*
X112721635Y-126036027D01*
X112868027Y-125889635D01*
X112979726Y-125815000D01*
X113040165Y-125774616D01*
X113063380Y-125765000D01*
X113231436Y-125695389D01*
X113434484Y-125655000D01*
X113641516Y-125655000D01*
X113844564Y-125695389D01*
X113844564Y-125695389D01*
G37*
G36*
X141673395Y-123949546D02*
G01*
X141846466Y-124021234D01*
X141846467Y-124021235D01*
X142002227Y-124125310D01*
X142134690Y-124257773D01*
X142134691Y-124257775D01*
X142238766Y-124413534D01*
X142310454Y-124586605D01*
X142347000Y-124770333D01*
X142347000Y-124957667D01*
X142310454Y-125141395D01*
X142238766Y-125314466D01*
X142196622Y-125377539D01*
X142134690Y-125470227D01*
X142002227Y-125602690D01*
X141938331Y-125645384D01*
X141846466Y-125706766D01*
X141673395Y-125778454D01*
X141489667Y-125815000D01*
X141302333Y-125815000D01*
X141118605Y-125778454D01*
X140945534Y-125706766D01*
X140853669Y-125645384D01*
X140789773Y-125602690D01*
X140657310Y-125470227D01*
X140595378Y-125377539D01*
X140553234Y-125314466D01*
X140481546Y-125141395D01*
X140445000Y-124957667D01*
X140445000Y-124770333D01*
X140481546Y-124586605D01*
X140553234Y-124413534D01*
X140657309Y-124257775D01*
X140657310Y-124257773D01*
X140789773Y-124125310D01*
X140945533Y-124021235D01*
X140945534Y-124021234D01*
X141118605Y-123949546D01*
X141302333Y-123913000D01*
X141489667Y-123913000D01*
X141673395Y-123949546D01*
X141673395Y-123949546D01*
G37*
G36*
X138777552Y-123055331D02*
G01*
X138859627Y-123089328D01*
X138859629Y-123089329D01*
X138933496Y-123138686D01*
X138996314Y-123201504D01*
X139045167Y-123274616D01*
X139045672Y-123275373D01*
X139079669Y-123357448D01*
X139097000Y-123444579D01*
X139097000Y-123533421D01*
X139079669Y-123620552D01*
X139059159Y-123670066D01*
X139045671Y-123702629D01*
X139020825Y-123739813D01*
X138997254Y-123775090D01*
X138996314Y-123776496D01*
X138933496Y-123839314D01*
X138859629Y-123888671D01*
X138859628Y-123888672D01*
X138859627Y-123888672D01*
X138777552Y-123922669D01*
X138690421Y-123940000D01*
X138601580Y-123940000D01*
X138599171Y-123939521D01*
X138574787Y-123937120D01*
X138550401Y-123939522D01*
X138526952Y-123946636D01*
X138505342Y-123958187D01*
X138486400Y-123973733D01*
X138470855Y-123992675D01*
X138459304Y-124014286D01*
X138452191Y-124037735D01*
X138449790Y-124062121D01*
X138452192Y-124086507D01*
X138459306Y-124109956D01*
X138470856Y-124131565D01*
X138527385Y-124216167D01*
X138606611Y-124407436D01*
X138647000Y-124610484D01*
X138647000Y-124817516D01*
X138606611Y-125020564D01*
X138558222Y-125137385D01*
X138527384Y-125211835D01*
X138412365Y-125383973D01*
X138265973Y-125530365D01*
X138093835Y-125645384D01*
X138093834Y-125645385D01*
X138093833Y-125645385D01*
X137902564Y-125724611D01*
X137699516Y-125765000D01*
X137492484Y-125765000D01*
X137289436Y-125724611D01*
X137098167Y-125645385D01*
X137098166Y-125645385D01*
X137098165Y-125645384D01*
X136926027Y-125530365D01*
X136779635Y-125383973D01*
X136664616Y-125211835D01*
X136633778Y-125137385D01*
X136585389Y-125020564D01*
X136545000Y-124817516D01*
X136545000Y-124610484D01*
X136585389Y-124407436D01*
X136664615Y-124216167D01*
X136725324Y-124125310D01*
X136779635Y-124044027D01*
X136926027Y-123897635D01*
X137098165Y-123782616D01*
X137112940Y-123776496D01*
X137289436Y-123703389D01*
X137492484Y-123663000D01*
X137699516Y-123663000D01*
X137902565Y-123703389D01*
X138042047Y-123761164D01*
X138065496Y-123768277D01*
X138089882Y-123770679D01*
X138114269Y-123768277D01*
X138137717Y-123761164D01*
X138159328Y-123749613D01*
X138178270Y-123734067D01*
X138193815Y-123715125D01*
X138205366Y-123693515D01*
X138212479Y-123670066D01*
X138214881Y-123645680D01*
X138212479Y-123621294D01*
X138195000Y-123533421D01*
X138195000Y-123444579D01*
X138212331Y-123357448D01*
X138246328Y-123275373D01*
X138246834Y-123274616D01*
X138295686Y-123201504D01*
X138358504Y-123138686D01*
X138432371Y-123089329D01*
X138432373Y-123089328D01*
X138514448Y-123055331D01*
X138601579Y-123038000D01*
X138690421Y-123038000D01*
X138777552Y-123055331D01*
X138777552Y-123055331D01*
G37*
G36*
X118692791Y-124458285D02*
G01*
X118726769Y-124468593D01*
X118758090Y-124485334D01*
X118785539Y-124507861D01*
X118808066Y-124535310D01*
X118824807Y-124566631D01*
X118835115Y-124600609D01*
X118839200Y-124642090D01*
X118839200Y-125243310D01*
X118835115Y-125284791D01*
X118824807Y-125318769D01*
X118808066Y-125350090D01*
X118785539Y-125377539D01*
X118758090Y-125400066D01*
X118726769Y-125416807D01*
X118692791Y-125427115D01*
X118651310Y-125431200D01*
X117975090Y-125431200D01*
X117933609Y-125427115D01*
X117899631Y-125416807D01*
X117868310Y-125400066D01*
X117840861Y-125377539D01*
X117818334Y-125350090D01*
X117801593Y-125318769D01*
X117791285Y-125284791D01*
X117787200Y-125243310D01*
X117787200Y-124642090D01*
X117791285Y-124600609D01*
X117801593Y-124566631D01*
X117818334Y-124535310D01*
X117840861Y-124507861D01*
X117868310Y-124485334D01*
X117899631Y-124468593D01*
X117933609Y-124458285D01*
X117975090Y-124454200D01*
X118651310Y-124454200D01*
X118692791Y-124458285D01*
X118692791Y-124458285D01*
G37*
G36*
X99344564Y-123195389D02*
G01*
X99535833Y-123274615D01*
X99535835Y-123274616D01*
X99707973Y-123389635D01*
X99854365Y-123536027D01*
X99966193Y-123703389D01*
X99969385Y-123708167D01*
X100048611Y-123899436D01*
X100089000Y-124102484D01*
X100089000Y-124309516D01*
X100048611Y-124512564D01*
X99991352Y-124650799D01*
X99969384Y-124703835D01*
X99854365Y-124875973D01*
X99707973Y-125022365D01*
X99535835Y-125137384D01*
X99535834Y-125137385D01*
X99535833Y-125137385D01*
X99344564Y-125216611D01*
X99141516Y-125257000D01*
X98934484Y-125257000D01*
X98731436Y-125216611D01*
X98540167Y-125137385D01*
X98540166Y-125137385D01*
X98540165Y-125137384D01*
X98368027Y-125022365D01*
X98221635Y-124875973D01*
X98106616Y-124703835D01*
X98084648Y-124650799D01*
X98027389Y-124512564D01*
X97987000Y-124309516D01*
X97987000Y-124102484D01*
X98027389Y-123899436D01*
X98106615Y-123708167D01*
X98109808Y-123703389D01*
X98221635Y-123536027D01*
X98368027Y-123389635D01*
X98540165Y-123274616D01*
X98540167Y-123274615D01*
X98731436Y-123195389D01*
X98934484Y-123155000D01*
X99141516Y-123155000D01*
X99344564Y-123195389D01*
X99344564Y-123195389D01*
G37*
G36*
X114589000Y-125257000D02*
G01*
X112487000Y-125257000D01*
X112487000Y-123155000D01*
X114589000Y-123155000D01*
X114589000Y-125257000D01*
X114589000Y-125257000D01*
G37*
G36*
X127025500Y-124526000D02*
G01*
X125323500Y-124526000D01*
X125323500Y-123124000D01*
X127025500Y-123124000D01*
X127025500Y-124526000D01*
X127025500Y-124526000D01*
G37*
G36*
X122834500Y-124526000D02*
G01*
X121132500Y-124526000D01*
X121132500Y-123124000D01*
X122834500Y-123124000D01*
X122834500Y-124526000D01*
X122834500Y-124526000D01*
G37*
G36*
X118692791Y-122883285D02*
G01*
X118726769Y-122893593D01*
X118758090Y-122910334D01*
X118785539Y-122932861D01*
X118808066Y-122960310D01*
X118824807Y-122991631D01*
X118835115Y-123025609D01*
X118839200Y-123067090D01*
X118839200Y-123668310D01*
X118835115Y-123709791D01*
X118824807Y-123743769D01*
X118808066Y-123775090D01*
X118785539Y-123802539D01*
X118758090Y-123825066D01*
X118726769Y-123841807D01*
X118692791Y-123852115D01*
X118651310Y-123856200D01*
X117975090Y-123856200D01*
X117933609Y-123852115D01*
X117899631Y-123841807D01*
X117868310Y-123825066D01*
X117840861Y-123802539D01*
X117818334Y-123775090D01*
X117801593Y-123743769D01*
X117791285Y-123709791D01*
X117787200Y-123668310D01*
X117787200Y-123067090D01*
X117791285Y-123025609D01*
X117801593Y-122991631D01*
X117818334Y-122960310D01*
X117840861Y-122932861D01*
X117868310Y-122910334D01*
X117899631Y-122893593D01*
X117933609Y-122883285D01*
X117975090Y-122879200D01*
X118651310Y-122879200D01*
X118692791Y-122883285D01*
X118692791Y-122883285D01*
G37*
G36*
X86724442Y-121279518D02*
G01*
X86790627Y-121286037D01*
X86960466Y-121337557D01*
X87116991Y-121421222D01*
X87152729Y-121450552D01*
X87254186Y-121533814D01*
X87337448Y-121635271D01*
X87366778Y-121671009D01*
X87450443Y-121827534D01*
X87501963Y-121997373D01*
X87519359Y-122174000D01*
X87501963Y-122350627D01*
X87450443Y-122520466D01*
X87366778Y-122676991D01*
X87337448Y-122712729D01*
X87254186Y-122814186D01*
X87157427Y-122893593D01*
X87116991Y-122926778D01*
X86960466Y-123010443D01*
X86790627Y-123061963D01*
X86724442Y-123068482D01*
X86658260Y-123075000D01*
X86569740Y-123075000D01*
X86503558Y-123068482D01*
X86437373Y-123061963D01*
X86267534Y-123010443D01*
X86111009Y-122926778D01*
X86070573Y-122893593D01*
X85973814Y-122814186D01*
X85890552Y-122712729D01*
X85861222Y-122676991D01*
X85777557Y-122520466D01*
X85726037Y-122350627D01*
X85708641Y-122174000D01*
X85726037Y-121997373D01*
X85777557Y-121827534D01*
X85861222Y-121671009D01*
X85890552Y-121635271D01*
X85973814Y-121533814D01*
X86075271Y-121450552D01*
X86111009Y-121421222D01*
X86267534Y-121337557D01*
X86437373Y-121286037D01*
X86503558Y-121279518D01*
X86569740Y-121273000D01*
X86658260Y-121273000D01*
X86724442Y-121279518D01*
X86724442Y-121279518D01*
G37*
G36*
X107689000Y-122157000D02*
G01*
X104387000Y-122157000D01*
X104387000Y-120055000D01*
X107689000Y-120055000D01*
X107689000Y-122157000D01*
X107689000Y-122157000D01*
G37*
G36*
X86724442Y-118739518D02*
G01*
X86790627Y-118746037D01*
X86960466Y-118797557D01*
X87116991Y-118881222D01*
X87152729Y-118910552D01*
X87254186Y-118993814D01*
X87337448Y-119095271D01*
X87366778Y-119131009D01*
X87450443Y-119287534D01*
X87501963Y-119457373D01*
X87519359Y-119634000D01*
X87501963Y-119810627D01*
X87450443Y-119980466D01*
X87366778Y-120136991D01*
X87337448Y-120172729D01*
X87254186Y-120274186D01*
X87152729Y-120357448D01*
X87116991Y-120386778D01*
X86960466Y-120470443D01*
X86790627Y-120521963D01*
X86724443Y-120528481D01*
X86658260Y-120535000D01*
X86569740Y-120535000D01*
X86503557Y-120528481D01*
X86437373Y-120521963D01*
X86267534Y-120470443D01*
X86111009Y-120386778D01*
X86075271Y-120357448D01*
X85973814Y-120274186D01*
X85890552Y-120172729D01*
X85861222Y-120136991D01*
X85777557Y-119980466D01*
X85726037Y-119810627D01*
X85708641Y-119634000D01*
X85726037Y-119457373D01*
X85777557Y-119287534D01*
X85861222Y-119131009D01*
X85890552Y-119095271D01*
X85973814Y-118993814D01*
X86075271Y-118910552D01*
X86111009Y-118881222D01*
X86267534Y-118797557D01*
X86437373Y-118746037D01*
X86503558Y-118739518D01*
X86569740Y-118733000D01*
X86658260Y-118733000D01*
X86724442Y-118739518D01*
X86724442Y-118739518D01*
G37*
G36*
X137902564Y-116253389D02*
G01*
X138093833Y-116332615D01*
X138093835Y-116332616D01*
X138157731Y-116375310D01*
X138265973Y-116447635D01*
X138412365Y-116594027D01*
X138527385Y-116766167D01*
X138606611Y-116957436D01*
X138647000Y-117160484D01*
X138647000Y-117367516D01*
X138606611Y-117570564D01*
X138527385Y-117761833D01*
X138470856Y-117846435D01*
X138459305Y-117868046D01*
X138452192Y-117891495D01*
X138449790Y-117915881D01*
X138452192Y-117940267D01*
X138459305Y-117963716D01*
X138470856Y-117985327D01*
X138486401Y-118004269D01*
X138505343Y-118019814D01*
X138526954Y-118031365D01*
X138550403Y-118038478D01*
X138574789Y-118040880D01*
X138599171Y-118038479D01*
X138601580Y-118038000D01*
X138690421Y-118038000D01*
X138777552Y-118055331D01*
X138859627Y-118089328D01*
X138859629Y-118089329D01*
X138933496Y-118138686D01*
X138996314Y-118201504D01*
X139045163Y-118274610D01*
X139045672Y-118275373D01*
X139079669Y-118357448D01*
X139097000Y-118444579D01*
X139097000Y-118533421D01*
X139079669Y-118620552D01*
X139045672Y-118702627D01*
X139045671Y-118702629D01*
X138996314Y-118776496D01*
X138933496Y-118839314D01*
X138859629Y-118888671D01*
X138859628Y-118888672D01*
X138859627Y-118888672D01*
X138777552Y-118922669D01*
X138690421Y-118940000D01*
X138601579Y-118940000D01*
X138514448Y-118922669D01*
X138432373Y-118888672D01*
X138432372Y-118888672D01*
X138432371Y-118888671D01*
X138358504Y-118839314D01*
X138295686Y-118776496D01*
X138246329Y-118702629D01*
X138246328Y-118702627D01*
X138212331Y-118620552D01*
X138195000Y-118533421D01*
X138195000Y-118444579D01*
X138212479Y-118356706D01*
X138214881Y-118332320D01*
X138212479Y-118307934D01*
X138205366Y-118284485D01*
X138193815Y-118262874D01*
X138178270Y-118243932D01*
X138159328Y-118228387D01*
X138137717Y-118216836D01*
X138114268Y-118209723D01*
X138089882Y-118207321D01*
X138065496Y-118209723D01*
X138042047Y-118216836D01*
X137902565Y-118274611D01*
X137699516Y-118315000D01*
X137492484Y-118315000D01*
X137289436Y-118274611D01*
X137098167Y-118195385D01*
X137098166Y-118195385D01*
X137098165Y-118195384D01*
X136926027Y-118080365D01*
X136779635Y-117933973D01*
X136664616Y-117761835D01*
X136664615Y-117761833D01*
X136585389Y-117570564D01*
X136545000Y-117367516D01*
X136545000Y-117160484D01*
X136585389Y-116957436D01*
X136664615Y-116766167D01*
X136779635Y-116594027D01*
X136926027Y-116447635D01*
X137034269Y-116375310D01*
X137098165Y-116332616D01*
X137098167Y-116332615D01*
X137289436Y-116253389D01*
X137492484Y-116213000D01*
X137699516Y-116213000D01*
X137902564Y-116253389D01*
X137902564Y-116253389D01*
G37*
G36*
X141673395Y-116199546D02*
G01*
X141846466Y-116271234D01*
X141923818Y-116322919D01*
X142002227Y-116375310D01*
X142134690Y-116507773D01*
X142134691Y-116507775D01*
X142238766Y-116663534D01*
X142310454Y-116836605D01*
X142347000Y-117020333D01*
X142347000Y-117207667D01*
X142310454Y-117391395D01*
X142238766Y-117564466D01*
X142187081Y-117641818D01*
X142134690Y-117720227D01*
X142002227Y-117852690D01*
X141979245Y-117868046D01*
X141846466Y-117956766D01*
X141673395Y-118028454D01*
X141489667Y-118065000D01*
X141302333Y-118065000D01*
X141118605Y-118028454D01*
X140945534Y-117956766D01*
X140812755Y-117868046D01*
X140789773Y-117852690D01*
X140657310Y-117720227D01*
X140604919Y-117641818D01*
X140553234Y-117564466D01*
X140481546Y-117391395D01*
X140445000Y-117207667D01*
X140445000Y-117020333D01*
X140481546Y-116836605D01*
X140553234Y-116663534D01*
X140657309Y-116507775D01*
X140657310Y-116507773D01*
X140789773Y-116375310D01*
X140868182Y-116322919D01*
X140945534Y-116271234D01*
X141118605Y-116199546D01*
X141302333Y-116163000D01*
X141489667Y-116163000D01*
X141673395Y-116199546D01*
X141673395Y-116199546D01*
G37*
G36*
X87515000Y-117995000D02*
G01*
X85713000Y-117995000D01*
X85713000Y-116193000D01*
X87515000Y-116193000D01*
X87515000Y-117995000D01*
X87515000Y-117995000D01*
G37*
G36*
X125892754Y-112264318D02*
G01*
X126266011Y-112418926D01*
X126266013Y-112418927D01*
X126601936Y-112643384D01*
X126887616Y-112929064D01*
X127112074Y-113264989D01*
X127266682Y-113638246D01*
X127345500Y-114034493D01*
X127345500Y-114438507D01*
X127266682Y-114834754D01*
X127112074Y-115208011D01*
X127112073Y-115208013D01*
X126887616Y-115543936D01*
X126601936Y-115829616D01*
X126266013Y-116054073D01*
X126266012Y-116054074D01*
X126266011Y-116054074D01*
X125892754Y-116208682D01*
X125496507Y-116287500D01*
X125092493Y-116287500D01*
X124696246Y-116208682D01*
X124322989Y-116054074D01*
X124322988Y-116054074D01*
X124322987Y-116054073D01*
X123987064Y-115829616D01*
X123701384Y-115543936D01*
X123476927Y-115208013D01*
X123476926Y-115208011D01*
X123322318Y-114834754D01*
X123243500Y-114438507D01*
X123243500Y-114034493D01*
X123322318Y-113638246D01*
X123476926Y-113264989D01*
X123701384Y-112929064D01*
X123987064Y-112643384D01*
X124322987Y-112418927D01*
X124322989Y-112418926D01*
X124696246Y-112264318D01*
X125092493Y-112185500D01*
X125496507Y-112185500D01*
X125892754Y-112264318D01*
X125892754Y-112264318D01*
G37*
G36*
X102642754Y-112264318D02*
G01*
X103016011Y-112418926D01*
X103016013Y-112418927D01*
X103351936Y-112643384D01*
X103637616Y-112929064D01*
X103862074Y-113264989D01*
X104016682Y-113638246D01*
X104095500Y-114034493D01*
X104095500Y-114438507D01*
X104016682Y-114834754D01*
X103862074Y-115208011D01*
X103862073Y-115208013D01*
X103637616Y-115543936D01*
X103351936Y-115829616D01*
X103016013Y-116054073D01*
X103016012Y-116054074D01*
X103016011Y-116054074D01*
X102642754Y-116208682D01*
X102246507Y-116287500D01*
X101842493Y-116287500D01*
X101446246Y-116208682D01*
X101072989Y-116054074D01*
X101072988Y-116054074D01*
X101072987Y-116054073D01*
X100737064Y-115829616D01*
X100451384Y-115543936D01*
X100226927Y-115208013D01*
X100226926Y-115208011D01*
X100072318Y-114834754D01*
X99993500Y-114438507D01*
X99993500Y-114034493D01*
X100072318Y-113638246D01*
X100226926Y-113264989D01*
X100451384Y-112929064D01*
X100737064Y-112643384D01*
X101072987Y-112418927D01*
X101072989Y-112418926D01*
X101446246Y-112264318D01*
X101842493Y-112185500D01*
X102246507Y-112185500D01*
X102642754Y-112264318D01*
X102642754Y-112264318D01*
G37*
G36*
X130459378Y-109065197D02*
G01*
X130512150Y-109075694D01*
X130611570Y-109116875D01*
X130701046Y-109176661D01*
X130777139Y-109252754D01*
X130836925Y-109342230D01*
X130878106Y-109441650D01*
X130899100Y-109547194D01*
X130899100Y-109654806D01*
X130878106Y-109760350D01*
X130836925Y-109859770D01*
X130777139Y-109949246D01*
X130701046Y-110025339D01*
X130611570Y-110085125D01*
X130512150Y-110126306D01*
X130459378Y-110136803D01*
X130406607Y-110147300D01*
X130298993Y-110147300D01*
X130246222Y-110136803D01*
X130193450Y-110126306D01*
X130094030Y-110085125D01*
X130004554Y-110025339D01*
X129928461Y-109949246D01*
X129868675Y-109859770D01*
X129827494Y-109760350D01*
X129806500Y-109654806D01*
X129806500Y-109547194D01*
X129827494Y-109441650D01*
X129868675Y-109342230D01*
X129928461Y-109252754D01*
X130004554Y-109176661D01*
X130094030Y-109116875D01*
X130193450Y-109075694D01*
X130246222Y-109065197D01*
X130298993Y-109054700D01*
X130406607Y-109054700D01*
X130459378Y-109065197D01*
X130459378Y-109065197D01*
G37*
G36*
X135539378Y-108049197D02*
G01*
X135592150Y-108059694D01*
X135691570Y-108100875D01*
X135781046Y-108160661D01*
X135857139Y-108236754D01*
X135916925Y-108326230D01*
X135958106Y-108425650D01*
X135979100Y-108531194D01*
X135979100Y-108638806D01*
X135958106Y-108744350D01*
X135916925Y-108843770D01*
X135857139Y-108933246D01*
X135781046Y-109009339D01*
X135691570Y-109069125D01*
X135592150Y-109110306D01*
X135559125Y-109116875D01*
X135486607Y-109131300D01*
X135378993Y-109131300D01*
X135306475Y-109116875D01*
X135273450Y-109110306D01*
X135174030Y-109069125D01*
X135084554Y-109009339D01*
X135008461Y-108933246D01*
X134948675Y-108843770D01*
X134907494Y-108744350D01*
X134886500Y-108638806D01*
X134886500Y-108531194D01*
X134907494Y-108425650D01*
X134948675Y-108326230D01*
X135008461Y-108236754D01*
X135084554Y-108160661D01*
X135174030Y-108100875D01*
X135273450Y-108059694D01*
X135326222Y-108049197D01*
X135378993Y-108038700D01*
X135486607Y-108038700D01*
X135539378Y-108049197D01*
X135539378Y-108049197D01*
G37*
G36*
X130459378Y-107033197D02*
G01*
X130512150Y-107043694D01*
X130611570Y-107084875D01*
X130701046Y-107144661D01*
X130777139Y-107220754D01*
X130836925Y-107310230D01*
X130878106Y-107409650D01*
X130899100Y-107515194D01*
X130899100Y-107622806D01*
X130878106Y-107728350D01*
X130836925Y-107827770D01*
X130777139Y-107917246D01*
X130701046Y-107993339D01*
X130611570Y-108053125D01*
X130512150Y-108094306D01*
X130479125Y-108100875D01*
X130406607Y-108115300D01*
X130298993Y-108115300D01*
X130226475Y-108100875D01*
X130193450Y-108094306D01*
X130094030Y-108053125D01*
X130004554Y-107993339D01*
X129928461Y-107917246D01*
X129868675Y-107827770D01*
X129827494Y-107728350D01*
X129806500Y-107622806D01*
X129806500Y-107515194D01*
X129827494Y-107409650D01*
X129868675Y-107310230D01*
X129928461Y-107220754D01*
X130004554Y-107144661D01*
X130094030Y-107084875D01*
X130193450Y-107043694D01*
X130246222Y-107033197D01*
X130298993Y-107022700D01*
X130406607Y-107022700D01*
X130459378Y-107033197D01*
X130459378Y-107033197D01*
G37*
G36*
X89482687Y-105298196D02*
G01*
X89719453Y-105396268D01*
X89719455Y-105396269D01*
X89932539Y-105538647D01*
X90113753Y-105719861D01*
X90256132Y-105932947D01*
X90354204Y-106169713D01*
X90404200Y-106421061D01*
X90404200Y-106677339D01*
X90354204Y-106928687D01*
X90289508Y-107084876D01*
X90256131Y-107165455D01*
X90113753Y-107378539D01*
X89932539Y-107559753D01*
X89719455Y-107702131D01*
X89719454Y-107702132D01*
X89719453Y-107702132D01*
X89482687Y-107800204D01*
X89231339Y-107850200D01*
X88975061Y-107850200D01*
X88723713Y-107800204D01*
X88486947Y-107702132D01*
X88486946Y-107702132D01*
X88486945Y-107702131D01*
X88273861Y-107559753D01*
X88092647Y-107378539D01*
X87950269Y-107165455D01*
X87916892Y-107084876D01*
X87852196Y-106928687D01*
X87802200Y-106677339D01*
X87802200Y-106421061D01*
X87852196Y-106169713D01*
X87950268Y-105932947D01*
X88092647Y-105719861D01*
X88273861Y-105538647D01*
X88486945Y-105396269D01*
X88486947Y-105396268D01*
X88723713Y-105298196D01*
X88975061Y-105248200D01*
X89231339Y-105248200D01*
X89482687Y-105298196D01*
X89482687Y-105298196D01*
G37*
G36*
X89533487Y-100348996D02*
G01*
X89770253Y-100447068D01*
X89770255Y-100447069D01*
X89983339Y-100589447D01*
X90164553Y-100770661D01*
X90306932Y-100983747D01*
X90405004Y-101220513D01*
X90455000Y-101471861D01*
X90455000Y-101728139D01*
X90405004Y-101979487D01*
X90306932Y-102216253D01*
X90306931Y-102216255D01*
X90164553Y-102429339D01*
X89983339Y-102610553D01*
X89770255Y-102752931D01*
X89770254Y-102752932D01*
X89770253Y-102752932D01*
X89533487Y-102851004D01*
X89282139Y-102901000D01*
X89025861Y-102901000D01*
X88774513Y-102851004D01*
X88537747Y-102752932D01*
X88537746Y-102752932D01*
X88537745Y-102752931D01*
X88324661Y-102610553D01*
X88143447Y-102429339D01*
X88001069Y-102216255D01*
X88001068Y-102216253D01*
X87902996Y-101979487D01*
X87853000Y-101728139D01*
X87853000Y-101471861D01*
X87902996Y-101220513D01*
X88001068Y-100983747D01*
X88143447Y-100770661D01*
X88324661Y-100589447D01*
X88537745Y-100447069D01*
X88537747Y-100447068D01*
X88774513Y-100348996D01*
X89025861Y-100299000D01*
X89282139Y-100299000D01*
X89533487Y-100348996D01*
X89533487Y-100348996D01*
G37*
G36*
X87080380Y-89136276D02*
G01*
X87461093Y-89212004D01*
X87870749Y-89381689D01*
X88239429Y-89628034D01*
X88552966Y-89941571D01*
X88799311Y-90310251D01*
X88968996Y-90719907D01*
X89055500Y-91154796D01*
X89055500Y-91598204D01*
X88968996Y-92033093D01*
X88799311Y-92442749D01*
X88552966Y-92811429D01*
X88239429Y-93124966D01*
X87870749Y-93371311D01*
X87461093Y-93540996D01*
X87080380Y-93616724D01*
X87026205Y-93627500D01*
X86582795Y-93627500D01*
X86528620Y-93616724D01*
X86147907Y-93540996D01*
X85738251Y-93371311D01*
X85369571Y-93124966D01*
X85056034Y-92811429D01*
X84809689Y-92442749D01*
X84640004Y-92033093D01*
X84553500Y-91598204D01*
X84553500Y-91154796D01*
X84640004Y-90719907D01*
X84809689Y-90310251D01*
X85056034Y-89941571D01*
X85369571Y-89628034D01*
X85738251Y-89381689D01*
X86147907Y-89212004D01*
X86528620Y-89136276D01*
X86582795Y-89125500D01*
X87026205Y-89125500D01*
X87080380Y-89136276D01*
X87080380Y-89136276D01*
G37*
G36*
X140674380Y-89009276D02*
G01*
X141055093Y-89085004D01*
X141464749Y-89254689D01*
X141833429Y-89501034D01*
X142146966Y-89814571D01*
X142393311Y-90183251D01*
X142562996Y-90592907D01*
X142649500Y-91027796D01*
X142649500Y-91471204D01*
X142562996Y-91906093D01*
X142393311Y-92315749D01*
X142146966Y-92684429D01*
X141833429Y-92997966D01*
X141464749Y-93244311D01*
X141055093Y-93413996D01*
X140674380Y-93489724D01*
X140620205Y-93500500D01*
X140176795Y-93500500D01*
X140122620Y-93489724D01*
X139741907Y-93413996D01*
X139332251Y-93244311D01*
X138963571Y-92997966D01*
X138650034Y-92684429D01*
X138403689Y-92315749D01*
X138234004Y-91906093D01*
X138147500Y-91471204D01*
X138147500Y-91027796D01*
X138234004Y-90592907D01*
X138403689Y-90183251D01*
X138650034Y-89814571D01*
X138963571Y-89501034D01*
X139332251Y-89254689D01*
X139741907Y-89085004D01*
X140122620Y-89009276D01*
X140176795Y-88998500D01*
X140620205Y-88998500D01*
X140674380Y-89009276D01*
X140674380Y-89009276D01*
G37*
G36*
X125892754Y-88514318D02*
G01*
X126266011Y-88668926D01*
X126266013Y-88668927D01*
X126601936Y-88893384D01*
X126887616Y-89179064D01*
X127086466Y-89476663D01*
X127112074Y-89514989D01*
X127266682Y-89888246D01*
X127345500Y-90284493D01*
X127345500Y-90688507D01*
X127266682Y-91084754D01*
X127112074Y-91458011D01*
X127112073Y-91458013D01*
X126887616Y-91793936D01*
X126601936Y-92079616D01*
X126266013Y-92304073D01*
X126266012Y-92304074D01*
X126266011Y-92304074D01*
X125892754Y-92458682D01*
X125496507Y-92537500D01*
X125092493Y-92537500D01*
X124696246Y-92458682D01*
X124322989Y-92304074D01*
X124322988Y-92304074D01*
X124322987Y-92304073D01*
X123987064Y-92079616D01*
X123701384Y-91793936D01*
X123476927Y-91458013D01*
X123476926Y-91458011D01*
X123322318Y-91084754D01*
X123243500Y-90688507D01*
X123243500Y-90284493D01*
X123322318Y-89888246D01*
X123476926Y-89514989D01*
X123502535Y-89476663D01*
X123701384Y-89179064D01*
X123987064Y-88893384D01*
X124322987Y-88668927D01*
X124322989Y-88668926D01*
X124696246Y-88514318D01*
X125092493Y-88435500D01*
X125496507Y-88435500D01*
X125892754Y-88514318D01*
X125892754Y-88514318D01*
G37*
G36*
X102642754Y-88514318D02*
G01*
X103016011Y-88668926D01*
X103016013Y-88668927D01*
X103351936Y-88893384D01*
X103637616Y-89179064D01*
X103836466Y-89476663D01*
X103862074Y-89514989D01*
X104016682Y-89888246D01*
X104095500Y-90284493D01*
X104095500Y-90688507D01*
X104016682Y-91084754D01*
X103862074Y-91458011D01*
X103862073Y-91458013D01*
X103637616Y-91793936D01*
X103351936Y-92079616D01*
X103016013Y-92304073D01*
X103016012Y-92304074D01*
X103016011Y-92304074D01*
X102642754Y-92458682D01*
X102246507Y-92537500D01*
X101842493Y-92537500D01*
X101446246Y-92458682D01*
X101072989Y-92304074D01*
X101072988Y-92304074D01*
X101072987Y-92304073D01*
X100737064Y-92079616D01*
X100451384Y-91793936D01*
X100226927Y-91458013D01*
X100226926Y-91458011D01*
X100072318Y-91084754D01*
X99993500Y-90688507D01*
X99993500Y-90284493D01*
X100072318Y-89888246D01*
X100226926Y-89514989D01*
X100252535Y-89476663D01*
X100451384Y-89179064D01*
X100737064Y-88893384D01*
X101072987Y-88668927D01*
X101072989Y-88668926D01*
X101446246Y-88514318D01*
X101842493Y-88435500D01*
X102246507Y-88435500D01*
X102642754Y-88514318D01*
X102642754Y-88514318D01*
G37*
G36*
X109028142Y-89416281D02*
G01*
X109173914Y-89476662D01*
X109173916Y-89476663D01*
X109305108Y-89564322D01*
X109416678Y-89675892D01*
X109504337Y-89807084D01*
X109504338Y-89807086D01*
X109564719Y-89952858D01*
X109595500Y-90107607D01*
X109595500Y-90265393D01*
X109564719Y-90420142D01*
X109504338Y-90565914D01*
X109504337Y-90565916D01*
X109416678Y-90697108D01*
X109305108Y-90808678D01*
X109173916Y-90896337D01*
X109173915Y-90896338D01*
X109173914Y-90896338D01*
X109028142Y-90956719D01*
X108873393Y-90987500D01*
X108715607Y-90987500D01*
X108560858Y-90956719D01*
X108415086Y-90896338D01*
X108415085Y-90896338D01*
X108415084Y-90896337D01*
X108283892Y-90808678D01*
X108172322Y-90697108D01*
X108084663Y-90565916D01*
X108084662Y-90565914D01*
X108024281Y-90420142D01*
X107993500Y-90265393D01*
X107993500Y-90107607D01*
X108024281Y-89952858D01*
X108084662Y-89807086D01*
X108084663Y-89807084D01*
X108172322Y-89675892D01*
X108283892Y-89564322D01*
X108415084Y-89476663D01*
X108415086Y-89476662D01*
X108560858Y-89416281D01*
X108715607Y-89385500D01*
X108873393Y-89385500D01*
X109028142Y-89416281D01*
X109028142Y-89416281D01*
G37*
G36*
X121528142Y-89416281D02*
G01*
X121673914Y-89476662D01*
X121673916Y-89476663D01*
X121805108Y-89564322D01*
X121916678Y-89675892D01*
X122004337Y-89807084D01*
X122004338Y-89807086D01*
X122064719Y-89952858D01*
X122095500Y-90107607D01*
X122095500Y-90265393D01*
X122064719Y-90420142D01*
X122004338Y-90565914D01*
X122004337Y-90565916D01*
X121916678Y-90697108D01*
X121805108Y-90808678D01*
X121673916Y-90896337D01*
X121673915Y-90896338D01*
X121673914Y-90896338D01*
X121528142Y-90956719D01*
X121373393Y-90987500D01*
X121215607Y-90987500D01*
X121060858Y-90956719D01*
X120915086Y-90896338D01*
X120915085Y-90896338D01*
X120915084Y-90896337D01*
X120783892Y-90808678D01*
X120672322Y-90697108D01*
X120584663Y-90565916D01*
X120584662Y-90565914D01*
X120524281Y-90420142D01*
X120493500Y-90265393D01*
X120493500Y-90107607D01*
X120524281Y-89952858D01*
X120584662Y-89807086D01*
X120584663Y-89807084D01*
X120672322Y-89675892D01*
X120783892Y-89564322D01*
X120915084Y-89476663D01*
X120915086Y-89476662D01*
X121060858Y-89416281D01*
X121215607Y-89385500D01*
X121373393Y-89385500D01*
X121528142Y-89416281D01*
X121528142Y-89416281D01*
G37*
G36*
X119028142Y-89416281D02*
G01*
X119173914Y-89476662D01*
X119173916Y-89476663D01*
X119305108Y-89564322D01*
X119416678Y-89675892D01*
X119504337Y-89807084D01*
X119504338Y-89807086D01*
X119564719Y-89952858D01*
X119595500Y-90107607D01*
X119595500Y-90265393D01*
X119564719Y-90420142D01*
X119504338Y-90565914D01*
X119504337Y-90565916D01*
X119416678Y-90697108D01*
X119305108Y-90808678D01*
X119173916Y-90896337D01*
X119173915Y-90896338D01*
X119173914Y-90896338D01*
X119028142Y-90956719D01*
X118873393Y-90987500D01*
X118715607Y-90987500D01*
X118560858Y-90956719D01*
X118415086Y-90896338D01*
X118415085Y-90896338D01*
X118415084Y-90896337D01*
X118283892Y-90808678D01*
X118172322Y-90697108D01*
X118084663Y-90565916D01*
X118084662Y-90565914D01*
X118024281Y-90420142D01*
X117993500Y-90265393D01*
X117993500Y-90107607D01*
X118024281Y-89952858D01*
X118084662Y-89807086D01*
X118084663Y-89807084D01*
X118172322Y-89675892D01*
X118283892Y-89564322D01*
X118415084Y-89476663D01*
X118415086Y-89476662D01*
X118560858Y-89416281D01*
X118715607Y-89385500D01*
X118873393Y-89385500D01*
X119028142Y-89416281D01*
X119028142Y-89416281D01*
G37*
G36*
X116528142Y-89416281D02*
G01*
X116673914Y-89476662D01*
X116673916Y-89476663D01*
X116805108Y-89564322D01*
X116916678Y-89675892D01*
X117004337Y-89807084D01*
X117004338Y-89807086D01*
X117064719Y-89952858D01*
X117095500Y-90107607D01*
X117095500Y-90265393D01*
X117064719Y-90420142D01*
X117004338Y-90565914D01*
X117004337Y-90565916D01*
X116916678Y-90697108D01*
X116805108Y-90808678D01*
X116673916Y-90896337D01*
X116673915Y-90896338D01*
X116673914Y-90896338D01*
X116528142Y-90956719D01*
X116373393Y-90987500D01*
X116215607Y-90987500D01*
X116060858Y-90956719D01*
X115915086Y-90896338D01*
X115915085Y-90896338D01*
X115915084Y-90896337D01*
X115783892Y-90808678D01*
X115672322Y-90697108D01*
X115584663Y-90565916D01*
X115584662Y-90565914D01*
X115524281Y-90420142D01*
X115493500Y-90265393D01*
X115493500Y-90107607D01*
X115524281Y-89952858D01*
X115584662Y-89807086D01*
X115584663Y-89807084D01*
X115672322Y-89675892D01*
X115783892Y-89564322D01*
X115915084Y-89476663D01*
X115915086Y-89476662D01*
X116060858Y-89416281D01*
X116215607Y-89385500D01*
X116373393Y-89385500D01*
X116528142Y-89416281D01*
X116528142Y-89416281D01*
G37*
G36*
X114028142Y-89416281D02*
G01*
X114173914Y-89476662D01*
X114173916Y-89476663D01*
X114305108Y-89564322D01*
X114416678Y-89675892D01*
X114504337Y-89807084D01*
X114504338Y-89807086D01*
X114564719Y-89952858D01*
X114595500Y-90107607D01*
X114595500Y-90265393D01*
X114564719Y-90420142D01*
X114504338Y-90565914D01*
X114504337Y-90565916D01*
X114416678Y-90697108D01*
X114305108Y-90808678D01*
X114173916Y-90896337D01*
X114173915Y-90896338D01*
X114173914Y-90896338D01*
X114028142Y-90956719D01*
X113873393Y-90987500D01*
X113715607Y-90987500D01*
X113560858Y-90956719D01*
X113415086Y-90896338D01*
X113415085Y-90896338D01*
X113415084Y-90896337D01*
X113283892Y-90808678D01*
X113172322Y-90697108D01*
X113084663Y-90565916D01*
X113084662Y-90565914D01*
X113024281Y-90420142D01*
X112993500Y-90265393D01*
X112993500Y-90107607D01*
X113024281Y-89952858D01*
X113084662Y-89807086D01*
X113084663Y-89807084D01*
X113172322Y-89675892D01*
X113283892Y-89564322D01*
X113415084Y-89476663D01*
X113415086Y-89476662D01*
X113560858Y-89416281D01*
X113715607Y-89385500D01*
X113873393Y-89385500D01*
X114028142Y-89416281D01*
X114028142Y-89416281D01*
G37*
G36*
X111528142Y-89416281D02*
G01*
X111673914Y-89476662D01*
X111673916Y-89476663D01*
X111805108Y-89564322D01*
X111916678Y-89675892D01*
X112004337Y-89807084D01*
X112004338Y-89807086D01*
X112064719Y-89952858D01*
X112095500Y-90107607D01*
X112095500Y-90265393D01*
X112064719Y-90420142D01*
X112004338Y-90565914D01*
X112004337Y-90565916D01*
X111916678Y-90697108D01*
X111805108Y-90808678D01*
X111673916Y-90896337D01*
X111673915Y-90896338D01*
X111673914Y-90896338D01*
X111528142Y-90956719D01*
X111373393Y-90987500D01*
X111215607Y-90987500D01*
X111060858Y-90956719D01*
X110915086Y-90896338D01*
X110915085Y-90896338D01*
X110915084Y-90896337D01*
X110783892Y-90808678D01*
X110672322Y-90697108D01*
X110584663Y-90565916D01*
X110584662Y-90565914D01*
X110524281Y-90420142D01*
X110493500Y-90265393D01*
X110493500Y-90107607D01*
X110524281Y-89952858D01*
X110584662Y-89807086D01*
X110584663Y-89807084D01*
X110672322Y-89675892D01*
X110783892Y-89564322D01*
X110915084Y-89476663D01*
X110915086Y-89476662D01*
X111060858Y-89416281D01*
X111215607Y-89385500D01*
X111373393Y-89385500D01*
X111528142Y-89416281D01*
X111528142Y-89416281D01*
G37*
G36*
X106528142Y-89416281D02*
G01*
X106673914Y-89476662D01*
X106673916Y-89476663D01*
X106805108Y-89564322D01*
X106916678Y-89675892D01*
X107004337Y-89807084D01*
X107004338Y-89807086D01*
X107064719Y-89952858D01*
X107095500Y-90107607D01*
X107095500Y-90265393D01*
X107064719Y-90420142D01*
X107004338Y-90565914D01*
X107004337Y-90565916D01*
X106916678Y-90697108D01*
X106805108Y-90808678D01*
X106673916Y-90896337D01*
X106673915Y-90896338D01*
X106673914Y-90896338D01*
X106528142Y-90956719D01*
X106373393Y-90987500D01*
X106215607Y-90987500D01*
X106060858Y-90956719D01*
X105915086Y-90896338D01*
X105915085Y-90896338D01*
X105915084Y-90896337D01*
X105783892Y-90808678D01*
X105672322Y-90697108D01*
X105584663Y-90565916D01*
X105584662Y-90565914D01*
X105524281Y-90420142D01*
X105493500Y-90265393D01*
X105493500Y-90107607D01*
X105524281Y-89952858D01*
X105584662Y-89807086D01*
X105584663Y-89807084D01*
X105672322Y-89675892D01*
X105783892Y-89564322D01*
X105915084Y-89476663D01*
X105915086Y-89476662D01*
X106060858Y-89416281D01*
X106215607Y-89385500D01*
X106373393Y-89385500D01*
X106528142Y-89416281D01*
X106528142Y-89416281D01*
G37*
M02*
