G04 #@! TF.GenerationSoftware,KiCad,Pcbnew,(5.1.2)-1*
G04 #@! TF.CreationDate,2019-08-02T22:36:28-03:00*
G04 #@! TF.ProjectId,Medidor,4d656469-646f-4722-9e6b-696361645f70,rev?*
G04 #@! TF.SameCoordinates,Original*
G04 #@! TF.FileFunction,Paste,Bot*
G04 #@! TF.FilePolarity,Positive*
%FSLAX46Y46*%
G04 Gerber Fmt 4.6, Leading zero omitted, Abs format (unit mm)*
G04 Created by KiCad (PCBNEW (5.1.2)-1) date 2019-08-02 22:36:28*
%MOMM*%
%LPD*%
G04 APERTURE LIST*
%ADD10C,0.100000*%
%ADD11C,0.590000*%
%ADD12C,0.875000*%
%ADD13R,1.600000X1.300000*%
G04 APERTURE END LIST*
D10*
G36*
X121979958Y-119690510D02*
G01*
X121994276Y-119692634D01*
X122008317Y-119696151D01*
X122021946Y-119701028D01*
X122035031Y-119707217D01*
X122047447Y-119714658D01*
X122059073Y-119723281D01*
X122069798Y-119733002D01*
X122079519Y-119743727D01*
X122088142Y-119755353D01*
X122095583Y-119767769D01*
X122101772Y-119780854D01*
X122106649Y-119794483D01*
X122110166Y-119808524D01*
X122112290Y-119822842D01*
X122113000Y-119837300D01*
X122113000Y-120132300D01*
X122112290Y-120146758D01*
X122110166Y-120161076D01*
X122106649Y-120175117D01*
X122101772Y-120188746D01*
X122095583Y-120201831D01*
X122088142Y-120214247D01*
X122079519Y-120225873D01*
X122069798Y-120236598D01*
X122059073Y-120246319D01*
X122047447Y-120254942D01*
X122035031Y-120262383D01*
X122021946Y-120268572D01*
X122008317Y-120273449D01*
X121994276Y-120276966D01*
X121979958Y-120279090D01*
X121965500Y-120279800D01*
X121620500Y-120279800D01*
X121606042Y-120279090D01*
X121591724Y-120276966D01*
X121577683Y-120273449D01*
X121564054Y-120268572D01*
X121550969Y-120262383D01*
X121538553Y-120254942D01*
X121526927Y-120246319D01*
X121516202Y-120236598D01*
X121506481Y-120225873D01*
X121497858Y-120214247D01*
X121490417Y-120201831D01*
X121484228Y-120188746D01*
X121479351Y-120175117D01*
X121475834Y-120161076D01*
X121473710Y-120146758D01*
X121473000Y-120132300D01*
X121473000Y-119837300D01*
X121473710Y-119822842D01*
X121475834Y-119808524D01*
X121479351Y-119794483D01*
X121484228Y-119780854D01*
X121490417Y-119767769D01*
X121497858Y-119755353D01*
X121506481Y-119743727D01*
X121516202Y-119733002D01*
X121526927Y-119723281D01*
X121538553Y-119714658D01*
X121550969Y-119707217D01*
X121564054Y-119701028D01*
X121577683Y-119696151D01*
X121591724Y-119692634D01*
X121606042Y-119690510D01*
X121620500Y-119689800D01*
X121965500Y-119689800D01*
X121979958Y-119690510D01*
X121979958Y-119690510D01*
G37*
D11*
X121793000Y-119984800D03*
D10*
G36*
X121979958Y-120660510D02*
G01*
X121994276Y-120662634D01*
X122008317Y-120666151D01*
X122021946Y-120671028D01*
X122035031Y-120677217D01*
X122047447Y-120684658D01*
X122059073Y-120693281D01*
X122069798Y-120703002D01*
X122079519Y-120713727D01*
X122088142Y-120725353D01*
X122095583Y-120737769D01*
X122101772Y-120750854D01*
X122106649Y-120764483D01*
X122110166Y-120778524D01*
X122112290Y-120792842D01*
X122113000Y-120807300D01*
X122113000Y-121102300D01*
X122112290Y-121116758D01*
X122110166Y-121131076D01*
X122106649Y-121145117D01*
X122101772Y-121158746D01*
X122095583Y-121171831D01*
X122088142Y-121184247D01*
X122079519Y-121195873D01*
X122069798Y-121206598D01*
X122059073Y-121216319D01*
X122047447Y-121224942D01*
X122035031Y-121232383D01*
X122021946Y-121238572D01*
X122008317Y-121243449D01*
X121994276Y-121246966D01*
X121979958Y-121249090D01*
X121965500Y-121249800D01*
X121620500Y-121249800D01*
X121606042Y-121249090D01*
X121591724Y-121246966D01*
X121577683Y-121243449D01*
X121564054Y-121238572D01*
X121550969Y-121232383D01*
X121538553Y-121224942D01*
X121526927Y-121216319D01*
X121516202Y-121206598D01*
X121506481Y-121195873D01*
X121497858Y-121184247D01*
X121490417Y-121171831D01*
X121484228Y-121158746D01*
X121479351Y-121145117D01*
X121475834Y-121131076D01*
X121473710Y-121116758D01*
X121473000Y-121102300D01*
X121473000Y-120807300D01*
X121473710Y-120792842D01*
X121475834Y-120778524D01*
X121479351Y-120764483D01*
X121484228Y-120750854D01*
X121490417Y-120737769D01*
X121497858Y-120725353D01*
X121506481Y-120713727D01*
X121516202Y-120703002D01*
X121526927Y-120693281D01*
X121538553Y-120684658D01*
X121550969Y-120677217D01*
X121564054Y-120671028D01*
X121577683Y-120666151D01*
X121591724Y-120662634D01*
X121606042Y-120660510D01*
X121620500Y-120659800D01*
X121965500Y-120659800D01*
X121979958Y-120660510D01*
X121979958Y-120660510D01*
G37*
D11*
X121793000Y-120954800D03*
D10*
G36*
X120267291Y-120594653D02*
G01*
X120288526Y-120597803D01*
X120309350Y-120603019D01*
X120329562Y-120610251D01*
X120348968Y-120619430D01*
X120367381Y-120630466D01*
X120384624Y-120643254D01*
X120400530Y-120657670D01*
X120414946Y-120673576D01*
X120427734Y-120690819D01*
X120438770Y-120709232D01*
X120447949Y-120728638D01*
X120455181Y-120748850D01*
X120460397Y-120769674D01*
X120463547Y-120790909D01*
X120464600Y-120812350D01*
X120464600Y-121249850D01*
X120463547Y-121271291D01*
X120460397Y-121292526D01*
X120455181Y-121313350D01*
X120447949Y-121333562D01*
X120438770Y-121352968D01*
X120427734Y-121371381D01*
X120414946Y-121388624D01*
X120400530Y-121404530D01*
X120384624Y-121418946D01*
X120367381Y-121431734D01*
X120348968Y-121442770D01*
X120329562Y-121451949D01*
X120309350Y-121459181D01*
X120288526Y-121464397D01*
X120267291Y-121467547D01*
X120245850Y-121468600D01*
X119733350Y-121468600D01*
X119711909Y-121467547D01*
X119690674Y-121464397D01*
X119669850Y-121459181D01*
X119649638Y-121451949D01*
X119630232Y-121442770D01*
X119611819Y-121431734D01*
X119594576Y-121418946D01*
X119578670Y-121404530D01*
X119564254Y-121388624D01*
X119551466Y-121371381D01*
X119540430Y-121352968D01*
X119531251Y-121333562D01*
X119524019Y-121313350D01*
X119518803Y-121292526D01*
X119515653Y-121271291D01*
X119514600Y-121249850D01*
X119514600Y-120812350D01*
X119515653Y-120790909D01*
X119518803Y-120769674D01*
X119524019Y-120748850D01*
X119531251Y-120728638D01*
X119540430Y-120709232D01*
X119551466Y-120690819D01*
X119564254Y-120673576D01*
X119578670Y-120657670D01*
X119594576Y-120643254D01*
X119611819Y-120630466D01*
X119630232Y-120619430D01*
X119649638Y-120610251D01*
X119669850Y-120603019D01*
X119690674Y-120597803D01*
X119711909Y-120594653D01*
X119733350Y-120593600D01*
X120245850Y-120593600D01*
X120267291Y-120594653D01*
X120267291Y-120594653D01*
G37*
D12*
X119989600Y-121031100D03*
D10*
G36*
X120267291Y-119019653D02*
G01*
X120288526Y-119022803D01*
X120309350Y-119028019D01*
X120329562Y-119035251D01*
X120348968Y-119044430D01*
X120367381Y-119055466D01*
X120384624Y-119068254D01*
X120400530Y-119082670D01*
X120414946Y-119098576D01*
X120427734Y-119115819D01*
X120438770Y-119134232D01*
X120447949Y-119153638D01*
X120455181Y-119173850D01*
X120460397Y-119194674D01*
X120463547Y-119215909D01*
X120464600Y-119237350D01*
X120464600Y-119674850D01*
X120463547Y-119696291D01*
X120460397Y-119717526D01*
X120455181Y-119738350D01*
X120447949Y-119758562D01*
X120438770Y-119777968D01*
X120427734Y-119796381D01*
X120414946Y-119813624D01*
X120400530Y-119829530D01*
X120384624Y-119843946D01*
X120367381Y-119856734D01*
X120348968Y-119867770D01*
X120329562Y-119876949D01*
X120309350Y-119884181D01*
X120288526Y-119889397D01*
X120267291Y-119892547D01*
X120245850Y-119893600D01*
X119733350Y-119893600D01*
X119711909Y-119892547D01*
X119690674Y-119889397D01*
X119669850Y-119884181D01*
X119649638Y-119876949D01*
X119630232Y-119867770D01*
X119611819Y-119856734D01*
X119594576Y-119843946D01*
X119578670Y-119829530D01*
X119564254Y-119813624D01*
X119551466Y-119796381D01*
X119540430Y-119777968D01*
X119531251Y-119758562D01*
X119524019Y-119738350D01*
X119518803Y-119717526D01*
X119515653Y-119696291D01*
X119514600Y-119674850D01*
X119514600Y-119237350D01*
X119515653Y-119215909D01*
X119518803Y-119194674D01*
X119524019Y-119173850D01*
X119531251Y-119153638D01*
X119540430Y-119134232D01*
X119551466Y-119115819D01*
X119564254Y-119098576D01*
X119578670Y-119082670D01*
X119594576Y-119068254D01*
X119611819Y-119055466D01*
X119630232Y-119044430D01*
X119649638Y-119035251D01*
X119669850Y-119028019D01*
X119690674Y-119022803D01*
X119711909Y-119019653D01*
X119733350Y-119018600D01*
X120245850Y-119018600D01*
X120267291Y-119019653D01*
X120267291Y-119019653D01*
G37*
D12*
X119989600Y-119456100D03*
D13*
X121983500Y-123825000D03*
X126174500Y-123825000D03*
X126301500Y-131445000D03*
X121983500Y-131572000D03*
M02*
