G04 #@! TF.GenerationSoftware,KiCad,Pcbnew,(5.1.2)-1*
G04 #@! TF.CreationDate,2019-08-02T22:36:28-03:00*
G04 #@! TF.ProjectId,Medidor,4d656469-646f-4722-9e6b-696361645f70,rev?*
G04 #@! TF.SameCoordinates,Original*
G04 #@! TF.FileFunction,Legend,Top*
G04 #@! TF.FilePolarity,Positive*
%FSLAX46Y46*%
G04 Gerber Fmt 4.6, Leading zero omitted, Abs format (unit mm)*
G04 Created by KiCad (PCBNEW (5.1.2)-1) date 2019-08-02 22:36:28*
%MOMM*%
%LPD*%
G04 APERTURE LIST*
%ADD10C,0.120000*%
%ADD11C,0.300000*%
%ADD12C,0.400000*%
%ADD13C,0.150000*%
G04 APERTURE END LIST*
D10*
X121309458Y-119253000D02*
G75*
G03X121309458Y-119253000I-341958J0D01*
G01*
X143351250Y-109537500D02*
X142779750Y-109537500D01*
X142240000Y-111506000D02*
X141668500Y-111506000D01*
X142176500Y-109537500D02*
X141605000Y-109537500D01*
X143383000Y-111506000D02*
X142811500Y-111506000D01*
X142303500Y-112522000D02*
X142303500Y-111506000D01*
X142748000Y-109537500D02*
X142748000Y-108521500D01*
X142748000Y-112522000D02*
X142748000Y-111506000D01*
X139383000Y-112521500D02*
X143383000Y-112521500D01*
X139383000Y-108521500D02*
X143383000Y-108521500D01*
X143383000Y-108521500D02*
X143383000Y-112521500D01*
D11*
X85026642Y-99961000D02*
X84883785Y-99889571D01*
X84669500Y-99889571D01*
X84455214Y-99961000D01*
X84312357Y-100103857D01*
X84240928Y-100246714D01*
X84169500Y-100532428D01*
X84169500Y-100746714D01*
X84240928Y-101032428D01*
X84312357Y-101175285D01*
X84455214Y-101318142D01*
X84669500Y-101389571D01*
X84812357Y-101389571D01*
X85026642Y-101318142D01*
X85098071Y-101246714D01*
X85098071Y-100746714D01*
X84812357Y-100746714D01*
X85740928Y-101389571D02*
X85740928Y-99889571D01*
X86598071Y-101389571D01*
X86598071Y-99889571D01*
X87312357Y-101389571D02*
X87312357Y-99889571D01*
X87669500Y-99889571D01*
X87883785Y-99961000D01*
X88026642Y-100103857D01*
X88098071Y-100246714D01*
X88169500Y-100532428D01*
X88169500Y-100746714D01*
X88098071Y-101032428D01*
X88026642Y-101175285D01*
X87883785Y-101318142D01*
X87669500Y-101389571D01*
X87312357Y-101389571D01*
D10*
X134797800Y-107315000D02*
X134797800Y-107950000D01*
X134162800Y-107315000D02*
X134797800Y-107315000D01*
X114238721Y-100332000D02*
X114564279Y-100332000D01*
X114238721Y-99312000D02*
X114564279Y-99312000D01*
X129143500Y-113310000D02*
X129143500Y-114510000D01*
X129143500Y-117830000D02*
X129143500Y-116630000D01*
X132599063Y-117830000D02*
X129143500Y-117830000D01*
X132599063Y-113310000D02*
X129143500Y-113310000D01*
X133663500Y-114374437D02*
X133663500Y-114510000D01*
X133663500Y-116765563D02*
X133663500Y-116630000D01*
X133663500Y-116765563D02*
X132599063Y-117830000D01*
X133663500Y-114374437D02*
X132599063Y-113310000D01*
X134403500Y-117130000D02*
X133903500Y-117130000D01*
X134153500Y-117380000D02*
X134153500Y-116880000D01*
X134322000Y-130207000D02*
X134322000Y-129707000D01*
X134572000Y-129957000D02*
X134072000Y-129957000D01*
X133832000Y-127201437D02*
X132767563Y-126137000D01*
X133832000Y-129592563D02*
X132767563Y-130657000D01*
X133832000Y-129592563D02*
X133832000Y-129457000D01*
X133832000Y-127201437D02*
X133832000Y-127337000D01*
X132767563Y-126137000D02*
X129312000Y-126137000D01*
X132767563Y-130657000D02*
X129312000Y-130657000D01*
X129312000Y-130657000D02*
X129312000Y-129457000D01*
X129312000Y-126137000D02*
X129312000Y-127337000D01*
X117794500Y-98168779D02*
X117794500Y-97843221D01*
X116774500Y-98168779D02*
X116774500Y-97843221D01*
X117264500Y-100141000D02*
X116714500Y-100141000D01*
X122934500Y-106361000D02*
X122934500Y-105811000D01*
X122384500Y-106361000D02*
X122934500Y-106361000D01*
X116714500Y-106361000D02*
X116714500Y-105811000D01*
X117264500Y-106361000D02*
X116714500Y-106361000D01*
X122934500Y-100141000D02*
X122934500Y-100691000D01*
X122384500Y-100141000D02*
X122934500Y-100141000D01*
X141605000Y-112059000D02*
X143225000Y-112059000D01*
X143225000Y-108839000D02*
X143230600Y-112059000D01*
X141605000Y-108839000D02*
X143225000Y-108839000D01*
X141605000Y-108839000D02*
X141605000Y-112059000D01*
X94842400Y-104273878D02*
X94842400Y-103756722D01*
X93422400Y-104273878D02*
X93422400Y-103756722D01*
X127361000Y-95948500D02*
X127361000Y-99268500D01*
X124841000Y-99268500D02*
X127361000Y-99268500D01*
X124841000Y-95948500D02*
X124841000Y-99268500D01*
X124841000Y-95948500D02*
X127361000Y-95948500D01*
X123571000Y-104724200D02*
X123571000Y-102793800D01*
X125806200Y-104724200D02*
X123571000Y-104724200D01*
X125806200Y-102793800D02*
X125806200Y-104724200D01*
X123571000Y-102793800D02*
X125806200Y-102793800D01*
D12*
X134835000Y-118990500D02*
G75*
G03X134835000Y-118990500I-200000J0D01*
G01*
D13*
X138796000Y-125139000D02*
X140196000Y-125139000D01*
X142596000Y-125139000D02*
X142746000Y-125139000D01*
X142746000Y-125139000D02*
X142746000Y-124839000D01*
X142746000Y-124839000D02*
X143196000Y-124839000D01*
X143196000Y-117139000D02*
X142746000Y-117139000D01*
X142746000Y-117139000D02*
X142746000Y-116839000D01*
X142746000Y-116839000D02*
X142596000Y-116839000D01*
X140196000Y-116839000D02*
X138796000Y-116839000D01*
X136621000Y-122064000D02*
X136621000Y-122789000D01*
X136621000Y-122789000D02*
X137046000Y-122789000D01*
X137046000Y-122789000D02*
X137046000Y-123514000D01*
X137046000Y-119189000D02*
X137046000Y-118464000D01*
D10*
X89103200Y-101549200D02*
X89103200Y-106549200D01*
D13*
X128204933Y-100560142D02*
X128157314Y-100607761D01*
X128014457Y-100655380D01*
X127919219Y-100655380D01*
X127776361Y-100607761D01*
X127681123Y-100512523D01*
X127633504Y-100417285D01*
X127585885Y-100226809D01*
X127585885Y-100083952D01*
X127633504Y-99893476D01*
X127681123Y-99798238D01*
X127776361Y-99703000D01*
X127919219Y-99655380D01*
X128014457Y-99655380D01*
X128157314Y-99703000D01*
X128204933Y-99750619D01*
X129062076Y-99988714D02*
X129062076Y-100655380D01*
X128823980Y-99607761D02*
X128585885Y-100322047D01*
X129204933Y-100322047D01*
X135201066Y-109955080D02*
X135201066Y-110669366D01*
X135153447Y-110812223D01*
X135058209Y-110907461D01*
X134915352Y-110955080D01*
X134820114Y-110955080D01*
X136201066Y-110955080D02*
X135629638Y-110955080D01*
X135915352Y-110955080D02*
X135915352Y-109955080D01*
X135820114Y-110097938D01*
X135724876Y-110193176D01*
X135629638Y-110240795D01*
X125733142Y-94550666D02*
X125780761Y-94598285D01*
X125828380Y-94741142D01*
X125828380Y-94836380D01*
X125780761Y-94979238D01*
X125685523Y-95074476D01*
X125590285Y-95122095D01*
X125399809Y-95169714D01*
X125256952Y-95169714D01*
X125066476Y-95122095D01*
X124971238Y-95074476D01*
X124876000Y-94979238D01*
X124828380Y-94836380D01*
X124828380Y-94741142D01*
X124876000Y-94598285D01*
X124923619Y-94550666D01*
X125828380Y-93598285D02*
X125828380Y-94169714D01*
X125828380Y-93884000D02*
X124828380Y-93884000D01*
X124971238Y-93979238D01*
X125066476Y-94074476D01*
X125114095Y-94169714D01*
X128500142Y-96559666D02*
X128547761Y-96607285D01*
X128595380Y-96750142D01*
X128595380Y-96845380D01*
X128547761Y-96988238D01*
X128452523Y-97083476D01*
X128357285Y-97131095D01*
X128166809Y-97178714D01*
X128023952Y-97178714D01*
X127833476Y-97131095D01*
X127738238Y-97083476D01*
X127643000Y-96988238D01*
X127595380Y-96845380D01*
X127595380Y-96750142D01*
X127643000Y-96607285D01*
X127690619Y-96559666D01*
X127690619Y-96178714D02*
X127643000Y-96131095D01*
X127595380Y-96035857D01*
X127595380Y-95797761D01*
X127643000Y-95702523D01*
X127690619Y-95654904D01*
X127785857Y-95607285D01*
X127881095Y-95607285D01*
X128023952Y-95654904D01*
X128595380Y-96226333D01*
X128595380Y-95607285D01*
X119038642Y-96496166D02*
X119086261Y-96543785D01*
X119133880Y-96686642D01*
X119133880Y-96781880D01*
X119086261Y-96924738D01*
X118991023Y-97019976D01*
X118895785Y-97067595D01*
X118705309Y-97115214D01*
X118562452Y-97115214D01*
X118371976Y-97067595D01*
X118276738Y-97019976D01*
X118181500Y-96924738D01*
X118133880Y-96781880D01*
X118133880Y-96686642D01*
X118181500Y-96543785D01*
X118229119Y-96496166D01*
X118133880Y-96162833D02*
X118133880Y-95543785D01*
X118514833Y-95877119D01*
X118514833Y-95734261D01*
X118562452Y-95639023D01*
X118610071Y-95591404D01*
X118705309Y-95543785D01*
X118943404Y-95543785D01*
X119038642Y-95591404D01*
X119086261Y-95639023D01*
X119133880Y-95734261D01*
X119133880Y-96019976D01*
X119086261Y-96115214D01*
X119038642Y-96162833D01*
X98258333Y-101256242D02*
X98210714Y-101303861D01*
X98067857Y-101351480D01*
X97972619Y-101351480D01*
X97829761Y-101303861D01*
X97734523Y-101208623D01*
X97686904Y-101113385D01*
X97639285Y-100922909D01*
X97639285Y-100780052D01*
X97686904Y-100589576D01*
X97734523Y-100494338D01*
X97829761Y-100399100D01*
X97972619Y-100351480D01*
X98067857Y-100351480D01*
X98210714Y-100399100D01*
X98258333Y-100446719D01*
X99163095Y-100351480D02*
X98686904Y-100351480D01*
X98639285Y-100827671D01*
X98686904Y-100780052D01*
X98782142Y-100732433D01*
X99020238Y-100732433D01*
X99115476Y-100780052D01*
X99163095Y-100827671D01*
X99210714Y-100922909D01*
X99210714Y-101161004D01*
X99163095Y-101256242D01*
X99115476Y-101303861D01*
X99020238Y-101351480D01*
X98782142Y-101351480D01*
X98686904Y-101303861D01*
X98639285Y-101256242D01*
X112037833Y-99290142D02*
X111990214Y-99337761D01*
X111847357Y-99385380D01*
X111752119Y-99385380D01*
X111609261Y-99337761D01*
X111514023Y-99242523D01*
X111466404Y-99147285D01*
X111418785Y-98956809D01*
X111418785Y-98813952D01*
X111466404Y-98623476D01*
X111514023Y-98528238D01*
X111609261Y-98433000D01*
X111752119Y-98385380D01*
X111847357Y-98385380D01*
X111990214Y-98433000D01*
X112037833Y-98480619D01*
X112371166Y-98385380D02*
X113037833Y-98385380D01*
X112609261Y-99385380D01*
X113711833Y-108053142D02*
X113664214Y-108100761D01*
X113521357Y-108148380D01*
X113426119Y-108148380D01*
X113283261Y-108100761D01*
X113188023Y-108005523D01*
X113140404Y-107910285D01*
X113092785Y-107719809D01*
X113092785Y-107576952D01*
X113140404Y-107386476D01*
X113188023Y-107291238D01*
X113283261Y-107196000D01*
X113426119Y-107148380D01*
X113521357Y-107148380D01*
X113664214Y-107196000D01*
X113711833Y-107243619D01*
X114283261Y-107576952D02*
X114188023Y-107529333D01*
X114140404Y-107481714D01*
X114092785Y-107386476D01*
X114092785Y-107338857D01*
X114140404Y-107243619D01*
X114188023Y-107196000D01*
X114283261Y-107148380D01*
X114473738Y-107148380D01*
X114568976Y-107196000D01*
X114616595Y-107243619D01*
X114664214Y-107338857D01*
X114664214Y-107386476D01*
X114616595Y-107481714D01*
X114568976Y-107529333D01*
X114473738Y-107576952D01*
X114283261Y-107576952D01*
X114188023Y-107624571D01*
X114140404Y-107672190D01*
X114092785Y-107767428D01*
X114092785Y-107957904D01*
X114140404Y-108053142D01*
X114188023Y-108100761D01*
X114283261Y-108148380D01*
X114473738Y-108148380D01*
X114568976Y-108100761D01*
X114616595Y-108053142D01*
X114664214Y-107957904D01*
X114664214Y-107767428D01*
X114616595Y-107672190D01*
X114568976Y-107624571D01*
X114473738Y-107576952D01*
X122919333Y-97425642D02*
X122871714Y-97473261D01*
X122728857Y-97520880D01*
X122633619Y-97520880D01*
X122490761Y-97473261D01*
X122395523Y-97378023D01*
X122347904Y-97282785D01*
X122300285Y-97092309D01*
X122300285Y-96949452D01*
X122347904Y-96758976D01*
X122395523Y-96663738D01*
X122490761Y-96568500D01*
X122633619Y-96520880D01*
X122728857Y-96520880D01*
X122871714Y-96568500D01*
X122919333Y-96616119D01*
X123395523Y-97520880D02*
X123586000Y-97520880D01*
X123681238Y-97473261D01*
X123728857Y-97425642D01*
X123824095Y-97282785D01*
X123871714Y-97092309D01*
X123871714Y-96711357D01*
X123824095Y-96616119D01*
X123776476Y-96568500D01*
X123681238Y-96520880D01*
X123490761Y-96520880D01*
X123395523Y-96568500D01*
X123347904Y-96616119D01*
X123300285Y-96711357D01*
X123300285Y-96949452D01*
X123347904Y-97044690D01*
X123395523Y-97092309D01*
X123490761Y-97139928D01*
X123681238Y-97139928D01*
X123776476Y-97092309D01*
X123824095Y-97044690D01*
X123871714Y-96949452D01*
X115482642Y-103893857D02*
X115530261Y-103941476D01*
X115577880Y-104084333D01*
X115577880Y-104179571D01*
X115530261Y-104322428D01*
X115435023Y-104417666D01*
X115339785Y-104465285D01*
X115149309Y-104512904D01*
X115006452Y-104512904D01*
X114815976Y-104465285D01*
X114720738Y-104417666D01*
X114625500Y-104322428D01*
X114577880Y-104179571D01*
X114577880Y-104084333D01*
X114625500Y-103941476D01*
X114673119Y-103893857D01*
X115577880Y-102941476D02*
X115577880Y-103512904D01*
X115577880Y-103227190D02*
X114577880Y-103227190D01*
X114720738Y-103322428D01*
X114815976Y-103417666D01*
X114863595Y-103512904D01*
X114577880Y-102322428D02*
X114577880Y-102227190D01*
X114625500Y-102131952D01*
X114673119Y-102084333D01*
X114768357Y-102036714D01*
X114958833Y-101989095D01*
X115196928Y-101989095D01*
X115387404Y-102036714D01*
X115482642Y-102084333D01*
X115530261Y-102131952D01*
X115577880Y-102227190D01*
X115577880Y-102322428D01*
X115530261Y-102417666D01*
X115482642Y-102465285D01*
X115387404Y-102512904D01*
X115196928Y-102560523D01*
X114958833Y-102560523D01*
X114768357Y-102512904D01*
X114673119Y-102465285D01*
X114625500Y-102417666D01*
X114577880Y-102322428D01*
X95536642Y-110148642D02*
X95489023Y-110196261D01*
X95346166Y-110243880D01*
X95250928Y-110243880D01*
X95108071Y-110196261D01*
X95012833Y-110101023D01*
X94965214Y-110005785D01*
X94917595Y-109815309D01*
X94917595Y-109672452D01*
X94965214Y-109481976D01*
X95012833Y-109386738D01*
X95108071Y-109291500D01*
X95250928Y-109243880D01*
X95346166Y-109243880D01*
X95489023Y-109291500D01*
X95536642Y-109339119D01*
X96489023Y-110243880D02*
X95917595Y-110243880D01*
X96203309Y-110243880D02*
X96203309Y-109243880D01*
X96108071Y-109386738D01*
X96012833Y-109481976D01*
X95917595Y-109529595D01*
X97441404Y-110243880D02*
X96869976Y-110243880D01*
X97155690Y-110243880D02*
X97155690Y-109243880D01*
X97060452Y-109386738D01*
X96965214Y-109481976D01*
X96869976Y-109529595D01*
X125744142Y-118213142D02*
X125696523Y-118260761D01*
X125553666Y-118308380D01*
X125458428Y-118308380D01*
X125315571Y-118260761D01*
X125220333Y-118165523D01*
X125172714Y-118070285D01*
X125125095Y-117879809D01*
X125125095Y-117736952D01*
X125172714Y-117546476D01*
X125220333Y-117451238D01*
X125315571Y-117356000D01*
X125458428Y-117308380D01*
X125553666Y-117308380D01*
X125696523Y-117356000D01*
X125744142Y-117403619D01*
X126696523Y-118308380D02*
X126125095Y-118308380D01*
X126410809Y-118308380D02*
X126410809Y-117308380D01*
X126315571Y-117451238D01*
X126220333Y-117546476D01*
X126125095Y-117594095D01*
X127077476Y-117403619D02*
X127125095Y-117356000D01*
X127220333Y-117308380D01*
X127458428Y-117308380D01*
X127553666Y-117356000D01*
X127601285Y-117403619D01*
X127648904Y-117498857D01*
X127648904Y-117594095D01*
X127601285Y-117736952D01*
X127029857Y-118308380D01*
X127648904Y-118308380D01*
X128135142Y-102084142D02*
X128087523Y-102131761D01*
X127944666Y-102179380D01*
X127849428Y-102179380D01*
X127706571Y-102131761D01*
X127611333Y-102036523D01*
X127563714Y-101941285D01*
X127516095Y-101750809D01*
X127516095Y-101607952D01*
X127563714Y-101417476D01*
X127611333Y-101322238D01*
X127706571Y-101227000D01*
X127849428Y-101179380D01*
X127944666Y-101179380D01*
X128087523Y-101227000D01*
X128135142Y-101274619D01*
X129087523Y-102179380D02*
X128516095Y-102179380D01*
X128801809Y-102179380D02*
X128801809Y-101179380D01*
X128706571Y-101322238D01*
X128611333Y-101417476D01*
X128516095Y-101465095D01*
X129420857Y-101179380D02*
X130039904Y-101179380D01*
X129706571Y-101560333D01*
X129849428Y-101560333D01*
X129944666Y-101607952D01*
X129992285Y-101655571D01*
X130039904Y-101750809D01*
X130039904Y-101988904D01*
X129992285Y-102084142D01*
X129944666Y-102131761D01*
X129849428Y-102179380D01*
X129563714Y-102179380D01*
X129468476Y-102131761D01*
X129420857Y-102084142D01*
X112053642Y-119357657D02*
X112101261Y-119405276D01*
X112148880Y-119548133D01*
X112148880Y-119643371D01*
X112101261Y-119786228D01*
X112006023Y-119881466D01*
X111910785Y-119929085D01*
X111720309Y-119976704D01*
X111577452Y-119976704D01*
X111386976Y-119929085D01*
X111291738Y-119881466D01*
X111196500Y-119786228D01*
X111148880Y-119643371D01*
X111148880Y-119548133D01*
X111196500Y-119405276D01*
X111244119Y-119357657D01*
X112148880Y-118405276D02*
X112148880Y-118976704D01*
X112148880Y-118690990D02*
X111148880Y-118690990D01*
X111291738Y-118786228D01*
X111386976Y-118881466D01*
X111434595Y-118976704D01*
X111482214Y-117548133D02*
X112148880Y-117548133D01*
X111101261Y-117786228D02*
X111815547Y-118024323D01*
X111815547Y-117405276D01*
X108815142Y-128046857D02*
X108862761Y-128094476D01*
X108910380Y-128237333D01*
X108910380Y-128332571D01*
X108862761Y-128475428D01*
X108767523Y-128570666D01*
X108672285Y-128618285D01*
X108481809Y-128665904D01*
X108338952Y-128665904D01*
X108148476Y-128618285D01*
X108053238Y-128570666D01*
X107958000Y-128475428D01*
X107910380Y-128332571D01*
X107910380Y-128237333D01*
X107958000Y-128094476D01*
X108005619Y-128046857D01*
X108910380Y-127094476D02*
X108910380Y-127665904D01*
X108910380Y-127380190D02*
X107910380Y-127380190D01*
X108053238Y-127475428D01*
X108148476Y-127570666D01*
X108196095Y-127665904D01*
X107910380Y-126189714D02*
X107910380Y-126665904D01*
X108386571Y-126713523D01*
X108338952Y-126665904D01*
X108291333Y-126570666D01*
X108291333Y-126332571D01*
X108338952Y-126237333D01*
X108386571Y-126189714D01*
X108481809Y-126142095D01*
X108719904Y-126142095D01*
X108815142Y-126189714D01*
X108862761Y-126237333D01*
X108910380Y-126332571D01*
X108910380Y-126570666D01*
X108862761Y-126665904D01*
X108815142Y-126713523D01*
X134659642Y-132532357D02*
X134707261Y-132579976D01*
X134754880Y-132722833D01*
X134754880Y-132818071D01*
X134707261Y-132960928D01*
X134612023Y-133056166D01*
X134516785Y-133103785D01*
X134326309Y-133151404D01*
X134183452Y-133151404D01*
X133992976Y-133103785D01*
X133897738Y-133056166D01*
X133802500Y-132960928D01*
X133754880Y-132818071D01*
X133754880Y-132722833D01*
X133802500Y-132579976D01*
X133850119Y-132532357D01*
X134754880Y-131579976D02*
X134754880Y-132151404D01*
X134754880Y-131865690D02*
X133754880Y-131865690D01*
X133897738Y-131960928D01*
X133992976Y-132056166D01*
X134040595Y-132151404D01*
X133754880Y-130722833D02*
X133754880Y-130913309D01*
X133802500Y-131008547D01*
X133850119Y-131056166D01*
X133992976Y-131151404D01*
X134183452Y-131199023D01*
X134564404Y-131199023D01*
X134659642Y-131151404D01*
X134707261Y-131103785D01*
X134754880Y-131008547D01*
X134754880Y-130818071D01*
X134707261Y-130722833D01*
X134659642Y-130675214D01*
X134564404Y-130627595D01*
X134326309Y-130627595D01*
X134231071Y-130675214D01*
X134183452Y-130722833D01*
X134135833Y-130818071D01*
X134135833Y-131008547D01*
X134183452Y-131103785D01*
X134231071Y-131151404D01*
X134326309Y-131199023D01*
X116306880Y-98172666D02*
X116306880Y-98648857D01*
X115306880Y-98648857D01*
X116306880Y-97315523D02*
X116306880Y-97886952D01*
X116306880Y-97601238D02*
X115306880Y-97601238D01*
X115449738Y-97696476D01*
X115544976Y-97791714D01*
X115592595Y-97886952D01*
X116566880Y-95607166D02*
X116566880Y-96083357D01*
X115566880Y-96083357D01*
X115662119Y-95321452D02*
X115614500Y-95273833D01*
X115566880Y-95178595D01*
X115566880Y-94940500D01*
X115614500Y-94845261D01*
X115662119Y-94797642D01*
X115757357Y-94750023D01*
X115852595Y-94750023D01*
X115995452Y-94797642D01*
X116566880Y-95369071D01*
X116566880Y-94750023D01*
X117991166Y-99383380D02*
X117991166Y-98383380D01*
X118324500Y-99097666D01*
X118657833Y-98383380D01*
X118657833Y-99383380D01*
X119705452Y-99288142D02*
X119657833Y-99335761D01*
X119514976Y-99383380D01*
X119419738Y-99383380D01*
X119276880Y-99335761D01*
X119181642Y-99240523D01*
X119134023Y-99145285D01*
X119086404Y-98954809D01*
X119086404Y-98811952D01*
X119134023Y-98621476D01*
X119181642Y-98526238D01*
X119276880Y-98431000D01*
X119419738Y-98383380D01*
X119514976Y-98383380D01*
X119657833Y-98431000D01*
X119705452Y-98478619D01*
X120134023Y-98383380D02*
X120134023Y-99192904D01*
X120181642Y-99288142D01*
X120229261Y-99335761D01*
X120324500Y-99383380D01*
X120514976Y-99383380D01*
X120610214Y-99335761D01*
X120657833Y-99288142D01*
X120705452Y-99192904D01*
X120705452Y-98383380D01*
X121705452Y-99383380D02*
X121134023Y-99383380D01*
X121419738Y-99383380D02*
X121419738Y-98383380D01*
X121324500Y-98526238D01*
X121229261Y-98621476D01*
X121134023Y-98669095D01*
X109792333Y-105708380D02*
X109459000Y-105232190D01*
X109220904Y-105708380D02*
X109220904Y-104708380D01*
X109601857Y-104708380D01*
X109697095Y-104756000D01*
X109744714Y-104803619D01*
X109792333Y-104898857D01*
X109792333Y-105041714D01*
X109744714Y-105136952D01*
X109697095Y-105184571D01*
X109601857Y-105232190D01*
X109220904Y-105232190D01*
X110173285Y-104803619D02*
X110220904Y-104756000D01*
X110316142Y-104708380D01*
X110554238Y-104708380D01*
X110649476Y-104756000D01*
X110697095Y-104803619D01*
X110744714Y-104898857D01*
X110744714Y-104994095D01*
X110697095Y-105136952D01*
X110125666Y-105708380D01*
X110744714Y-105708380D01*
X109492180Y-101588866D02*
X109015990Y-101922200D01*
X109492180Y-102160295D02*
X108492180Y-102160295D01*
X108492180Y-101779342D01*
X108539800Y-101684104D01*
X108587419Y-101636485D01*
X108682657Y-101588866D01*
X108825514Y-101588866D01*
X108920752Y-101636485D01*
X108968371Y-101684104D01*
X109015990Y-101779342D01*
X109015990Y-102160295D01*
X108492180Y-101255533D02*
X108492180Y-100636485D01*
X108873133Y-100969819D01*
X108873133Y-100826961D01*
X108920752Y-100731723D01*
X108968371Y-100684104D01*
X109063609Y-100636485D01*
X109301704Y-100636485D01*
X109396942Y-100684104D01*
X109444561Y-100731723D01*
X109492180Y-100826961D01*
X109492180Y-101112676D01*
X109444561Y-101207914D01*
X109396942Y-101255533D01*
X142263833Y-102496880D02*
X141930500Y-102020690D01*
X141692404Y-102496880D02*
X141692404Y-101496880D01*
X142073357Y-101496880D01*
X142168595Y-101544500D01*
X142216214Y-101592119D01*
X142263833Y-101687357D01*
X142263833Y-101830214D01*
X142216214Y-101925452D01*
X142168595Y-101973071D01*
X142073357Y-102020690D01*
X141692404Y-102020690D01*
X143120976Y-101496880D02*
X142930500Y-101496880D01*
X142835261Y-101544500D01*
X142787642Y-101592119D01*
X142692404Y-101734976D01*
X142644785Y-101925452D01*
X142644785Y-102306404D01*
X142692404Y-102401642D01*
X142740023Y-102449261D01*
X142835261Y-102496880D01*
X143025738Y-102496880D01*
X143120976Y-102449261D01*
X143168595Y-102401642D01*
X143216214Y-102306404D01*
X143216214Y-102068309D01*
X143168595Y-101973071D01*
X143120976Y-101925452D01*
X143025738Y-101877833D01*
X142835261Y-101877833D01*
X142740023Y-101925452D01*
X142692404Y-101973071D01*
X142644785Y-102068309D01*
X140041333Y-107957880D02*
X139708000Y-107481690D01*
X139469904Y-107957880D02*
X139469904Y-106957880D01*
X139850857Y-106957880D01*
X139946095Y-107005500D01*
X139993714Y-107053119D01*
X140041333Y-107148357D01*
X140041333Y-107291214D01*
X139993714Y-107386452D01*
X139946095Y-107434071D01*
X139850857Y-107481690D01*
X139469904Y-107481690D01*
X140612761Y-107386452D02*
X140517523Y-107338833D01*
X140469904Y-107291214D01*
X140422285Y-107195976D01*
X140422285Y-107148357D01*
X140469904Y-107053119D01*
X140517523Y-107005500D01*
X140612761Y-106957880D01*
X140803238Y-106957880D01*
X140898476Y-107005500D01*
X140946095Y-107053119D01*
X140993714Y-107148357D01*
X140993714Y-107195976D01*
X140946095Y-107291214D01*
X140898476Y-107338833D01*
X140803238Y-107386452D01*
X140612761Y-107386452D01*
X140517523Y-107434071D01*
X140469904Y-107481690D01*
X140422285Y-107576928D01*
X140422285Y-107767404D01*
X140469904Y-107862642D01*
X140517523Y-107910261D01*
X140612761Y-107957880D01*
X140803238Y-107957880D01*
X140898476Y-107910261D01*
X140946095Y-107862642D01*
X140993714Y-107767404D01*
X140993714Y-107576928D01*
X140946095Y-107481690D01*
X140898476Y-107434071D01*
X140803238Y-107386452D01*
X109601833Y-123515380D02*
X109268500Y-123039190D01*
X109030404Y-123515380D02*
X109030404Y-122515380D01*
X109411357Y-122515380D01*
X109506595Y-122563000D01*
X109554214Y-122610619D01*
X109601833Y-122705857D01*
X109601833Y-122848714D01*
X109554214Y-122943952D01*
X109506595Y-122991571D01*
X109411357Y-123039190D01*
X109030404Y-123039190D01*
X110078023Y-123515380D02*
X110268500Y-123515380D01*
X110363738Y-123467761D01*
X110411357Y-123420142D01*
X110506595Y-123277285D01*
X110554214Y-123086809D01*
X110554214Y-122705857D01*
X110506595Y-122610619D01*
X110458976Y-122563000D01*
X110363738Y-122515380D01*
X110173261Y-122515380D01*
X110078023Y-122563000D01*
X110030404Y-122610619D01*
X109982785Y-122705857D01*
X109982785Y-122943952D01*
X110030404Y-123039190D01*
X110078023Y-123086809D01*
X110173261Y-123134428D01*
X110363738Y-123134428D01*
X110458976Y-123086809D01*
X110506595Y-123039190D01*
X110554214Y-122943952D01*
X113418880Y-122245357D02*
X112942690Y-122578690D01*
X113418880Y-122816785D02*
X112418880Y-122816785D01*
X112418880Y-122435833D01*
X112466500Y-122340595D01*
X112514119Y-122292976D01*
X112609357Y-122245357D01*
X112752214Y-122245357D01*
X112847452Y-122292976D01*
X112895071Y-122340595D01*
X112942690Y-122435833D01*
X112942690Y-122816785D01*
X113418880Y-121292976D02*
X113418880Y-121864404D01*
X113418880Y-121578690D02*
X112418880Y-121578690D01*
X112561738Y-121673928D01*
X112656976Y-121769166D01*
X112704595Y-121864404D01*
X112418880Y-120673928D02*
X112418880Y-120578690D01*
X112466500Y-120483452D01*
X112514119Y-120435833D01*
X112609357Y-120388214D01*
X112799833Y-120340595D01*
X113037928Y-120340595D01*
X113228404Y-120388214D01*
X113323642Y-120435833D01*
X113371261Y-120483452D01*
X113418880Y-120578690D01*
X113418880Y-120673928D01*
X113371261Y-120769166D01*
X113323642Y-120816785D01*
X113228404Y-120864404D01*
X113037928Y-120912023D01*
X112799833Y-120912023D01*
X112609357Y-120864404D01*
X112514119Y-120816785D01*
X112466500Y-120769166D01*
X112418880Y-120673928D01*
X111450380Y-132763357D02*
X110974190Y-133096690D01*
X111450380Y-133334785D02*
X110450380Y-133334785D01*
X110450380Y-132953833D01*
X110498000Y-132858595D01*
X110545619Y-132810976D01*
X110640857Y-132763357D01*
X110783714Y-132763357D01*
X110878952Y-132810976D01*
X110926571Y-132858595D01*
X110974190Y-132953833D01*
X110974190Y-133334785D01*
X111450380Y-131810976D02*
X111450380Y-132382404D01*
X111450380Y-132096690D02*
X110450380Y-132096690D01*
X110593238Y-132191928D01*
X110688476Y-132287166D01*
X110736095Y-132382404D01*
X111450380Y-130858595D02*
X111450380Y-131430023D01*
X111450380Y-131144309D02*
X110450380Y-131144309D01*
X110593238Y-131239547D01*
X110688476Y-131334785D01*
X110736095Y-131430023D01*
X110243880Y-130690857D02*
X109767690Y-131024190D01*
X110243880Y-131262285D02*
X109243880Y-131262285D01*
X109243880Y-130881333D01*
X109291500Y-130786095D01*
X109339119Y-130738476D01*
X109434357Y-130690857D01*
X109577214Y-130690857D01*
X109672452Y-130738476D01*
X109720071Y-130786095D01*
X109767690Y-130881333D01*
X109767690Y-131262285D01*
X110243880Y-129738476D02*
X110243880Y-130309904D01*
X110243880Y-130024190D02*
X109243880Y-130024190D01*
X109386738Y-130119428D01*
X109481976Y-130214666D01*
X109529595Y-130309904D01*
X109339119Y-129357523D02*
X109291500Y-129309904D01*
X109243880Y-129214666D01*
X109243880Y-128976571D01*
X109291500Y-128881333D01*
X109339119Y-128833714D01*
X109434357Y-128786095D01*
X109529595Y-128786095D01*
X109672452Y-128833714D01*
X110243880Y-129405142D01*
X110243880Y-128786095D01*
X99893380Y-130858357D02*
X99417190Y-131191690D01*
X99893380Y-131429785D02*
X98893380Y-131429785D01*
X98893380Y-131048833D01*
X98941000Y-130953595D01*
X98988619Y-130905976D01*
X99083857Y-130858357D01*
X99226714Y-130858357D01*
X99321952Y-130905976D01*
X99369571Y-130953595D01*
X99417190Y-131048833D01*
X99417190Y-131429785D01*
X99893380Y-129905976D02*
X99893380Y-130477404D01*
X99893380Y-130191690D02*
X98893380Y-130191690D01*
X99036238Y-130286928D01*
X99131476Y-130382166D01*
X99179095Y-130477404D01*
X99226714Y-129048833D02*
X99893380Y-129048833D01*
X98845761Y-129286928D02*
X99560047Y-129525023D01*
X99560047Y-128905976D01*
X96131142Y-102623880D02*
X95797809Y-102147690D01*
X95559714Y-102623880D02*
X95559714Y-101623880D01*
X95940666Y-101623880D01*
X96035904Y-101671500D01*
X96083523Y-101719119D01*
X96131142Y-101814357D01*
X96131142Y-101957214D01*
X96083523Y-102052452D01*
X96035904Y-102100071D01*
X95940666Y-102147690D01*
X95559714Y-102147690D01*
X97083523Y-102623880D02*
X96512095Y-102623880D01*
X96797809Y-102623880D02*
X96797809Y-101623880D01*
X96702571Y-101766738D01*
X96607333Y-101861976D01*
X96512095Y-101909595D01*
X97988285Y-101623880D02*
X97512095Y-101623880D01*
X97464476Y-102100071D01*
X97512095Y-102052452D01*
X97607333Y-102004833D01*
X97845428Y-102004833D01*
X97940666Y-102052452D01*
X97988285Y-102100071D01*
X98035904Y-102195309D01*
X98035904Y-102433404D01*
X97988285Y-102528642D01*
X97940666Y-102576261D01*
X97845428Y-102623880D01*
X97607333Y-102623880D01*
X97512095Y-102576261D01*
X97464476Y-102528642D01*
X95836642Y-106116380D02*
X95503309Y-105640190D01*
X95265214Y-106116380D02*
X95265214Y-105116380D01*
X95646166Y-105116380D01*
X95741404Y-105164000D01*
X95789023Y-105211619D01*
X95836642Y-105306857D01*
X95836642Y-105449714D01*
X95789023Y-105544952D01*
X95741404Y-105592571D01*
X95646166Y-105640190D01*
X95265214Y-105640190D01*
X96789023Y-106116380D02*
X96217595Y-106116380D01*
X96503309Y-106116380D02*
X96503309Y-105116380D01*
X96408071Y-105259238D01*
X96312833Y-105354476D01*
X96217595Y-105402095D01*
X97646166Y-105116380D02*
X97455690Y-105116380D01*
X97360452Y-105164000D01*
X97312833Y-105211619D01*
X97217595Y-105354476D01*
X97169976Y-105544952D01*
X97169976Y-105925904D01*
X97217595Y-106021142D01*
X97265214Y-106068761D01*
X97360452Y-106116380D01*
X97550928Y-106116380D01*
X97646166Y-106068761D01*
X97693785Y-106021142D01*
X97741404Y-105925904D01*
X97741404Y-105687809D01*
X97693785Y-105592571D01*
X97646166Y-105544952D01*
X97550928Y-105497333D01*
X97360452Y-105497333D01*
X97265214Y-105544952D01*
X97217595Y-105592571D01*
X97169976Y-105687809D01*
X93838733Y-107071180D02*
X93505400Y-106594990D01*
X93267304Y-107071180D02*
X93267304Y-106071180D01*
X93648257Y-106071180D01*
X93743495Y-106118800D01*
X93791114Y-106166419D01*
X93838733Y-106261657D01*
X93838733Y-106404514D01*
X93791114Y-106499752D01*
X93743495Y-106547371D01*
X93648257Y-106594990D01*
X93267304Y-106594990D01*
X94791114Y-107071180D02*
X94219685Y-107071180D01*
X94505400Y-107071180D02*
X94505400Y-106071180D01*
X94410161Y-106214038D01*
X94314923Y-106309276D01*
X94219685Y-106356895D01*
X126198380Y-95361023D02*
X127198380Y-94694357D01*
X126198380Y-94694357D02*
X127198380Y-95361023D01*
X127198380Y-93789595D02*
X127198380Y-94361023D01*
X127198380Y-94075309D02*
X126198380Y-94075309D01*
X126341238Y-94170547D01*
X126436476Y-94265785D01*
X126484095Y-94361023D01*
X89344595Y-130992880D02*
X89344595Y-131802404D01*
X89392214Y-131897642D01*
X89439833Y-131945261D01*
X89535071Y-131992880D01*
X89725547Y-131992880D01*
X89820785Y-131945261D01*
X89868404Y-131897642D01*
X89916023Y-131802404D01*
X89916023Y-130992880D01*
X90820785Y-130992880D02*
X90630309Y-130992880D01*
X90535071Y-131040500D01*
X90487452Y-131088119D01*
X90392214Y-131230976D01*
X90344595Y-131421452D01*
X90344595Y-131802404D01*
X90392214Y-131897642D01*
X90439833Y-131945261D01*
X90535071Y-131992880D01*
X90725547Y-131992880D01*
X90820785Y-131945261D01*
X90868404Y-131897642D01*
X90916023Y-131802404D01*
X90916023Y-131564309D01*
X90868404Y-131469071D01*
X90820785Y-131421452D01*
X90725547Y-131373833D01*
X90535071Y-131373833D01*
X90439833Y-131421452D01*
X90392214Y-131469071D01*
X90344595Y-131564309D01*
X131770380Y-122673976D02*
X130770380Y-122673976D01*
X131722761Y-122673976D02*
X131770380Y-122769214D01*
X131770380Y-122959690D01*
X131722761Y-123054928D01*
X131675142Y-123102547D01*
X131579904Y-123150166D01*
X131294190Y-123150166D01*
X131198952Y-123102547D01*
X131151333Y-123054928D01*
X131103714Y-122959690D01*
X131103714Y-122769214D01*
X131151333Y-122673976D01*
X131722761Y-121769214D02*
X131770380Y-121864452D01*
X131770380Y-122054928D01*
X131722761Y-122150166D01*
X131675142Y-122197785D01*
X131579904Y-122245404D01*
X131294190Y-122245404D01*
X131198952Y-122197785D01*
X131151333Y-122150166D01*
X131103714Y-122054928D01*
X131103714Y-121864452D01*
X131151333Y-121769214D01*
X131770380Y-120816833D02*
X131770380Y-121388261D01*
X131770380Y-121102547D02*
X130770380Y-121102547D01*
X130913238Y-121197785D01*
X131008476Y-121293023D01*
X131056095Y-121388261D01*
X101981095Y-108165380D02*
X101981095Y-108974904D01*
X102028714Y-109070142D01*
X102076333Y-109117761D01*
X102171571Y-109165380D01*
X102362047Y-109165380D01*
X102457285Y-109117761D01*
X102504904Y-109070142D01*
X102552523Y-108974904D01*
X102552523Y-108165380D01*
X103552523Y-109165380D02*
X102981095Y-109165380D01*
X103266809Y-109165380D02*
X103266809Y-108165380D01*
X103171571Y-108308238D01*
X103076333Y-108403476D01*
X102981095Y-108451095D01*
X135398380Y-122227095D02*
X136207904Y-122227095D01*
X136303142Y-122179476D01*
X136350761Y-122131857D01*
X136398380Y-122036619D01*
X136398380Y-121846142D01*
X136350761Y-121750904D01*
X136303142Y-121703285D01*
X136207904Y-121655666D01*
X135398380Y-121655666D01*
X136350761Y-121227095D02*
X136398380Y-121084238D01*
X136398380Y-120846142D01*
X136350761Y-120750904D01*
X136303142Y-120703285D01*
X136207904Y-120655666D01*
X136112666Y-120655666D01*
X136017428Y-120703285D01*
X135969809Y-120750904D01*
X135922190Y-120846142D01*
X135874571Y-121036619D01*
X135826952Y-121131857D01*
X135779333Y-121179476D01*
X135684095Y-121227095D01*
X135588857Y-121227095D01*
X135493619Y-121179476D01*
X135446000Y-121131857D01*
X135398380Y-121036619D01*
X135398380Y-120798523D01*
X135446000Y-120655666D01*
X136398380Y-119703285D02*
X136398380Y-120274714D01*
X136398380Y-119989000D02*
X135398380Y-119989000D01*
X135541238Y-120084238D01*
X135636476Y-120179476D01*
X135684095Y-120274714D01*
X90638380Y-106463885D02*
X90638380Y-105892457D01*
X91638380Y-106178171D02*
X90638380Y-106178171D01*
X91114571Y-105559123D02*
X91114571Y-105225790D01*
X91638380Y-105082933D02*
X91638380Y-105559123D01*
X90638380Y-105559123D01*
X90638380Y-105082933D01*
X91638380Y-104082933D02*
X91162190Y-104416266D01*
X91638380Y-104654361D02*
X90638380Y-104654361D01*
X90638380Y-104273409D01*
X90686000Y-104178171D01*
X90733619Y-104130552D01*
X90828857Y-104082933D01*
X90971714Y-104082933D01*
X91066952Y-104130552D01*
X91114571Y-104178171D01*
X91162190Y-104273409D01*
X91162190Y-104654361D01*
X91638380Y-103130552D02*
X91638380Y-103701980D01*
X91638380Y-103416266D02*
X90638380Y-103416266D01*
X90781238Y-103511504D01*
X90876476Y-103606742D01*
X90924095Y-103701980D01*
M02*
