G04 #@! TF.GenerationSoftware,KiCad,Pcbnew,(5.1.2)-1*
G04 #@! TF.CreationDate,2019-08-02T22:36:28-03:00*
G04 #@! TF.ProjectId,Medidor,4d656469-646f-4722-9e6b-696361645f70,rev?*
G04 #@! TF.SameCoordinates,Original*
G04 #@! TF.FileFunction,Copper,L2,Bot*
G04 #@! TF.FilePolarity,Positive*
%FSLAX46Y46*%
G04 Gerber Fmt 4.6, Leading zero omitted, Abs format (unit mm)*
G04 Created by KiCad (PCBNEW (5.1.2)-1) date 2019-08-02 22:36:28*
%MOMM*%
%LPD*%
G04 APERTURE LIST*
%ADD10C,4.400000*%
%ADD11C,4.000000*%
%ADD12C,1.500000*%
%ADD13C,0.100000*%
%ADD14C,0.590000*%
%ADD15C,0.875000*%
%ADD16C,2.000000*%
%ADD17R,3.200000X2.000000*%
%ADD18R,2.000000X2.000000*%
%ADD19R,1.600000X1.300000*%
%ADD20C,1.800000*%
%ADD21R,1.700000X1.700000*%
%ADD22O,1.700000X1.700000*%
%ADD23C,2.500000*%
%ADD24C,0.600000*%
%ADD25C,0.800000*%
%ADD26C,0.600000*%
%ADD27C,0.200000*%
%ADD28C,0.254000*%
G04 APERTURE END LIST*
D10*
X140589000Y-132080000D03*
X140398500Y-91249500D03*
X86804500Y-132207000D03*
X86804500Y-91376500D03*
D11*
X125294500Y-90486500D03*
D12*
X121294500Y-90186500D03*
X118794500Y-90186500D03*
X116294500Y-90186500D03*
X113794500Y-90186500D03*
X111294500Y-90186500D03*
X108794500Y-90186500D03*
X106294500Y-90186500D03*
D11*
X102044500Y-90486500D03*
X125294500Y-114236500D03*
X102044500Y-114236500D03*
D13*
G36*
X121979958Y-119690510D02*
G01*
X121994276Y-119692634D01*
X122008317Y-119696151D01*
X122021946Y-119701028D01*
X122035031Y-119707217D01*
X122047447Y-119714658D01*
X122059073Y-119723281D01*
X122069798Y-119733002D01*
X122079519Y-119743727D01*
X122088142Y-119755353D01*
X122095583Y-119767769D01*
X122101772Y-119780854D01*
X122106649Y-119794483D01*
X122110166Y-119808524D01*
X122112290Y-119822842D01*
X122113000Y-119837300D01*
X122113000Y-120132300D01*
X122112290Y-120146758D01*
X122110166Y-120161076D01*
X122106649Y-120175117D01*
X122101772Y-120188746D01*
X122095583Y-120201831D01*
X122088142Y-120214247D01*
X122079519Y-120225873D01*
X122069798Y-120236598D01*
X122059073Y-120246319D01*
X122047447Y-120254942D01*
X122035031Y-120262383D01*
X122021946Y-120268572D01*
X122008317Y-120273449D01*
X121994276Y-120276966D01*
X121979958Y-120279090D01*
X121965500Y-120279800D01*
X121620500Y-120279800D01*
X121606042Y-120279090D01*
X121591724Y-120276966D01*
X121577683Y-120273449D01*
X121564054Y-120268572D01*
X121550969Y-120262383D01*
X121538553Y-120254942D01*
X121526927Y-120246319D01*
X121516202Y-120236598D01*
X121506481Y-120225873D01*
X121497858Y-120214247D01*
X121490417Y-120201831D01*
X121484228Y-120188746D01*
X121479351Y-120175117D01*
X121475834Y-120161076D01*
X121473710Y-120146758D01*
X121473000Y-120132300D01*
X121473000Y-119837300D01*
X121473710Y-119822842D01*
X121475834Y-119808524D01*
X121479351Y-119794483D01*
X121484228Y-119780854D01*
X121490417Y-119767769D01*
X121497858Y-119755353D01*
X121506481Y-119743727D01*
X121516202Y-119733002D01*
X121526927Y-119723281D01*
X121538553Y-119714658D01*
X121550969Y-119707217D01*
X121564054Y-119701028D01*
X121577683Y-119696151D01*
X121591724Y-119692634D01*
X121606042Y-119690510D01*
X121620500Y-119689800D01*
X121965500Y-119689800D01*
X121979958Y-119690510D01*
X121979958Y-119690510D01*
G37*
D14*
X121793000Y-119984800D03*
D13*
G36*
X121979958Y-120660510D02*
G01*
X121994276Y-120662634D01*
X122008317Y-120666151D01*
X122021946Y-120671028D01*
X122035031Y-120677217D01*
X122047447Y-120684658D01*
X122059073Y-120693281D01*
X122069798Y-120703002D01*
X122079519Y-120713727D01*
X122088142Y-120725353D01*
X122095583Y-120737769D01*
X122101772Y-120750854D01*
X122106649Y-120764483D01*
X122110166Y-120778524D01*
X122112290Y-120792842D01*
X122113000Y-120807300D01*
X122113000Y-121102300D01*
X122112290Y-121116758D01*
X122110166Y-121131076D01*
X122106649Y-121145117D01*
X122101772Y-121158746D01*
X122095583Y-121171831D01*
X122088142Y-121184247D01*
X122079519Y-121195873D01*
X122069798Y-121206598D01*
X122059073Y-121216319D01*
X122047447Y-121224942D01*
X122035031Y-121232383D01*
X122021946Y-121238572D01*
X122008317Y-121243449D01*
X121994276Y-121246966D01*
X121979958Y-121249090D01*
X121965500Y-121249800D01*
X121620500Y-121249800D01*
X121606042Y-121249090D01*
X121591724Y-121246966D01*
X121577683Y-121243449D01*
X121564054Y-121238572D01*
X121550969Y-121232383D01*
X121538553Y-121224942D01*
X121526927Y-121216319D01*
X121516202Y-121206598D01*
X121506481Y-121195873D01*
X121497858Y-121184247D01*
X121490417Y-121171831D01*
X121484228Y-121158746D01*
X121479351Y-121145117D01*
X121475834Y-121131076D01*
X121473710Y-121116758D01*
X121473000Y-121102300D01*
X121473000Y-120807300D01*
X121473710Y-120792842D01*
X121475834Y-120778524D01*
X121479351Y-120764483D01*
X121484228Y-120750854D01*
X121490417Y-120737769D01*
X121497858Y-120725353D01*
X121506481Y-120713727D01*
X121516202Y-120703002D01*
X121526927Y-120693281D01*
X121538553Y-120684658D01*
X121550969Y-120677217D01*
X121564054Y-120671028D01*
X121577683Y-120666151D01*
X121591724Y-120662634D01*
X121606042Y-120660510D01*
X121620500Y-120659800D01*
X121965500Y-120659800D01*
X121979958Y-120660510D01*
X121979958Y-120660510D01*
G37*
D14*
X121793000Y-120954800D03*
D13*
G36*
X120267291Y-120594653D02*
G01*
X120288526Y-120597803D01*
X120309350Y-120603019D01*
X120329562Y-120610251D01*
X120348968Y-120619430D01*
X120367381Y-120630466D01*
X120384624Y-120643254D01*
X120400530Y-120657670D01*
X120414946Y-120673576D01*
X120427734Y-120690819D01*
X120438770Y-120709232D01*
X120447949Y-120728638D01*
X120455181Y-120748850D01*
X120460397Y-120769674D01*
X120463547Y-120790909D01*
X120464600Y-120812350D01*
X120464600Y-121249850D01*
X120463547Y-121271291D01*
X120460397Y-121292526D01*
X120455181Y-121313350D01*
X120447949Y-121333562D01*
X120438770Y-121352968D01*
X120427734Y-121371381D01*
X120414946Y-121388624D01*
X120400530Y-121404530D01*
X120384624Y-121418946D01*
X120367381Y-121431734D01*
X120348968Y-121442770D01*
X120329562Y-121451949D01*
X120309350Y-121459181D01*
X120288526Y-121464397D01*
X120267291Y-121467547D01*
X120245850Y-121468600D01*
X119733350Y-121468600D01*
X119711909Y-121467547D01*
X119690674Y-121464397D01*
X119669850Y-121459181D01*
X119649638Y-121451949D01*
X119630232Y-121442770D01*
X119611819Y-121431734D01*
X119594576Y-121418946D01*
X119578670Y-121404530D01*
X119564254Y-121388624D01*
X119551466Y-121371381D01*
X119540430Y-121352968D01*
X119531251Y-121333562D01*
X119524019Y-121313350D01*
X119518803Y-121292526D01*
X119515653Y-121271291D01*
X119514600Y-121249850D01*
X119514600Y-120812350D01*
X119515653Y-120790909D01*
X119518803Y-120769674D01*
X119524019Y-120748850D01*
X119531251Y-120728638D01*
X119540430Y-120709232D01*
X119551466Y-120690819D01*
X119564254Y-120673576D01*
X119578670Y-120657670D01*
X119594576Y-120643254D01*
X119611819Y-120630466D01*
X119630232Y-120619430D01*
X119649638Y-120610251D01*
X119669850Y-120603019D01*
X119690674Y-120597803D01*
X119711909Y-120594653D01*
X119733350Y-120593600D01*
X120245850Y-120593600D01*
X120267291Y-120594653D01*
X120267291Y-120594653D01*
G37*
D15*
X119989600Y-121031100D03*
D13*
G36*
X120267291Y-119019653D02*
G01*
X120288526Y-119022803D01*
X120309350Y-119028019D01*
X120329562Y-119035251D01*
X120348968Y-119044430D01*
X120367381Y-119055466D01*
X120384624Y-119068254D01*
X120400530Y-119082670D01*
X120414946Y-119098576D01*
X120427734Y-119115819D01*
X120438770Y-119134232D01*
X120447949Y-119153638D01*
X120455181Y-119173850D01*
X120460397Y-119194674D01*
X120463547Y-119215909D01*
X120464600Y-119237350D01*
X120464600Y-119674850D01*
X120463547Y-119696291D01*
X120460397Y-119717526D01*
X120455181Y-119738350D01*
X120447949Y-119758562D01*
X120438770Y-119777968D01*
X120427734Y-119796381D01*
X120414946Y-119813624D01*
X120400530Y-119829530D01*
X120384624Y-119843946D01*
X120367381Y-119856734D01*
X120348968Y-119867770D01*
X120329562Y-119876949D01*
X120309350Y-119884181D01*
X120288526Y-119889397D01*
X120267291Y-119892547D01*
X120245850Y-119893600D01*
X119733350Y-119893600D01*
X119711909Y-119892547D01*
X119690674Y-119889397D01*
X119669850Y-119884181D01*
X119649638Y-119876949D01*
X119630232Y-119867770D01*
X119611819Y-119856734D01*
X119594576Y-119843946D01*
X119578670Y-119829530D01*
X119564254Y-119813624D01*
X119551466Y-119796381D01*
X119540430Y-119777968D01*
X119531251Y-119758562D01*
X119524019Y-119738350D01*
X119518803Y-119717526D01*
X119515653Y-119696291D01*
X119514600Y-119674850D01*
X119514600Y-119237350D01*
X119515653Y-119215909D01*
X119518803Y-119194674D01*
X119524019Y-119173850D01*
X119531251Y-119153638D01*
X119540430Y-119134232D01*
X119551466Y-119115819D01*
X119564254Y-119098576D01*
X119578670Y-119082670D01*
X119594576Y-119068254D01*
X119611819Y-119055466D01*
X119630232Y-119044430D01*
X119649638Y-119035251D01*
X119669850Y-119028019D01*
X119690674Y-119022803D01*
X119711909Y-119019653D01*
X119733350Y-119018600D01*
X120245850Y-119018600D01*
X120267291Y-119019653D01*
X120267291Y-119019653D01*
G37*
D15*
X119989600Y-119456100D03*
D16*
X99038000Y-129206000D03*
X99038000Y-124206000D03*
D17*
X106038000Y-132306000D03*
X106038000Y-121106000D03*
D16*
X113538000Y-129206000D03*
X113538000Y-126706000D03*
D18*
X113538000Y-124206000D03*
D19*
X121983500Y-123825000D03*
X126174500Y-123825000D03*
X126301500Y-131445000D03*
X121983500Y-131572000D03*
D16*
X137596000Y-124714000D03*
X137596000Y-117264000D03*
D20*
X141396000Y-124864000D03*
X141396000Y-117114000D03*
D21*
X86614000Y-117094000D03*
D22*
X86614000Y-119634000D03*
X86614000Y-122174000D03*
D23*
X89154000Y-101600000D03*
X89103200Y-106549200D03*
D24*
X116268500Y-108966000D03*
D25*
X114744500Y-98361500D03*
X122745500Y-97599500D03*
D24*
X132207000Y-111887000D03*
X133350000Y-111887000D03*
X134556500Y-111887000D03*
X135763000Y-111887000D03*
X135763000Y-112776000D03*
X132207000Y-112839500D03*
X133350000Y-112839500D03*
X134620000Y-112839500D03*
X135763000Y-113728500D03*
X110553500Y-122618500D03*
X110617000Y-126047500D03*
X102235000Y-130302000D03*
X134556500Y-113919000D03*
X133794500Y-113538000D03*
X135255000Y-114363500D03*
X135255000Y-114363500D03*
X132143500Y-113982500D03*
X135128000Y-113474500D03*
X135178800Y-106934000D03*
X109524800Y-108204000D03*
X99314000Y-109931200D03*
X107645200Y-103733600D03*
X118719600Y-119430800D03*
X126339600Y-106527600D03*
X124612400Y-107696000D03*
X124663200Y-119837200D03*
X120205500Y-101663500D03*
X120840500Y-101663500D03*
X118808500Y-101663500D03*
X118173500Y-101663500D03*
X119507000Y-101663500D03*
X121475500Y-101663500D03*
X120840500Y-102298500D03*
X121475500Y-102298500D03*
X119507000Y-102298500D03*
X120205500Y-102298500D03*
X118808500Y-102298500D03*
X118173500Y-102298500D03*
X120205500Y-102933500D03*
X121475500Y-102933500D03*
X119507000Y-102933500D03*
X118808500Y-102933500D03*
X120840500Y-102933500D03*
X118173500Y-102933500D03*
X118808500Y-103568500D03*
X118173500Y-103568500D03*
X120840500Y-103568500D03*
X119507000Y-103568500D03*
X121475500Y-103568500D03*
X120205500Y-103568500D03*
X121475500Y-104203500D03*
X120840500Y-104203500D03*
X119507000Y-104203500D03*
X118173500Y-104203500D03*
X120205500Y-104203500D03*
X118808500Y-104203500D03*
X119507000Y-104838500D03*
X120840500Y-104838500D03*
X120205500Y-104838500D03*
X121475500Y-104838500D03*
X118808500Y-104838500D03*
X118173500Y-104838500D03*
X127952500Y-102616000D03*
X128905000Y-102616000D03*
X129794000Y-102616000D03*
X132524500Y-102616000D03*
X131635500Y-102616000D03*
X130683000Y-102616000D03*
X135255000Y-102616000D03*
X133413500Y-102616000D03*
X134366000Y-102616000D03*
X136144000Y-102616000D03*
X137096500Y-102616000D03*
X137985500Y-102616000D03*
X139827000Y-102616000D03*
X140716000Y-102616000D03*
X138874500Y-102616000D03*
X133413500Y-104902000D03*
X129794000Y-104902000D03*
X134366000Y-104902000D03*
X128905000Y-104902000D03*
X135255000Y-104902000D03*
X132524500Y-104902000D03*
X130683000Y-104902000D03*
X127952500Y-104902000D03*
X131635500Y-104902000D03*
X139827000Y-104902000D03*
X137096500Y-104902000D03*
X137985500Y-104902000D03*
X136144000Y-104902000D03*
X138874500Y-104902000D03*
X127063500Y-102616000D03*
X127063500Y-104902000D03*
X126174500Y-105092500D03*
X126174500Y-102616000D03*
X140525500Y-105600500D03*
X140525500Y-106489500D03*
X140525500Y-107378500D03*
X139827000Y-107950000D03*
X138874500Y-107950000D03*
X138874500Y-108839000D03*
X138874500Y-109728000D03*
X138874500Y-110617000D03*
X138874500Y-111506000D03*
X138874500Y-112395000D03*
X138874500Y-113220500D03*
X139763500Y-113220500D03*
X140716000Y-113220500D03*
X141668500Y-113220500D03*
X142684500Y-113284000D03*
X141541500Y-103060500D03*
X142176500Y-103695500D03*
X143002000Y-104013000D03*
X142811500Y-105981500D03*
X142811500Y-106870500D03*
X128651000Y-89535000D03*
X129921000Y-90297000D03*
X131127500Y-89535000D03*
X132461000Y-90297000D03*
X135890000Y-89535000D03*
X133413500Y-89535000D03*
X134683500Y-90297000D03*
X141935200Y-101346000D03*
X142049500Y-98361500D03*
X142049500Y-99885500D03*
X139598400Y-99872800D03*
X139446000Y-96901000D03*
X140652500Y-97599500D03*
X141986000Y-96901000D03*
X139509500Y-98361500D03*
X141986000Y-95377000D03*
X140652500Y-96139000D03*
X139446000Y-95377000D03*
X140652500Y-94742000D03*
X139446000Y-94043500D03*
X141986000Y-94043500D03*
X131127500Y-91122500D03*
X140716000Y-99123500D03*
X140716000Y-100584000D03*
X128714500Y-91186000D03*
X133502400Y-90982800D03*
X131622800Y-107086400D03*
X133553200Y-99822000D03*
X135940800Y-99415600D03*
X136004300Y-96583500D03*
X133464300Y-96583500D03*
X133400800Y-92265500D03*
X135940800Y-92265500D03*
X135940800Y-95123000D03*
X134670800Y-98806000D03*
X135940800Y-93599000D03*
X133400800Y-93599000D03*
X134607300Y-92964000D03*
X136004300Y-98107500D03*
X133464300Y-98107500D03*
X133400800Y-95123000D03*
X134607300Y-95821500D03*
X131216400Y-98806000D03*
X131102100Y-92405200D03*
X132499100Y-97548700D03*
X131165600Y-96786700D03*
X132334000Y-99415600D03*
X131102100Y-95262700D03*
X129959100Y-96024700D03*
X130048000Y-97840800D03*
X132499100Y-96024700D03*
X132435600Y-94564200D03*
X132435600Y-93040200D03*
X129895600Y-93040200D03*
X131102100Y-93802200D03*
X132435600Y-91706700D03*
X137210800Y-97332800D03*
X137210800Y-95872300D03*
X137147300Y-94348300D03*
X137147300Y-92887800D03*
X138366500Y-93446600D03*
X138430000Y-97891600D03*
X138430000Y-96431100D03*
X138366500Y-94907100D03*
X137248900Y-99682300D03*
X137363200Y-101396800D03*
X138582400Y-100736400D03*
X138442700Y-99021900D03*
X132295900Y-101257100D03*
X129032000Y-98653600D03*
X129032000Y-100698300D03*
X131216400Y-100888800D03*
X130048000Y-100126800D03*
X135940800Y-100380800D03*
X135940800Y-101396800D03*
X133464300Y-101358700D03*
X99314000Y-93573600D03*
X101955600Y-93370400D03*
X100634800Y-92760800D03*
X99314000Y-96012000D03*
X100634800Y-95199200D03*
X101955600Y-95808800D03*
X101955600Y-97942400D03*
X99314000Y-98145600D03*
X100634800Y-97332800D03*
X101955600Y-99872800D03*
X99314000Y-100076000D03*
X100634800Y-99263200D03*
X99314000Y-101955600D03*
X100634800Y-101142800D03*
X101955600Y-101752400D03*
X86410800Y-94538800D03*
X85090000Y-95351600D03*
X86410800Y-96316800D03*
X85090000Y-97129600D03*
X86410800Y-98044000D03*
X85090000Y-98856800D03*
X90017600Y-96367600D03*
X88849200Y-94538800D03*
X88849200Y-96316800D03*
X90017600Y-94589600D03*
X88849200Y-98044000D03*
X90017600Y-97586800D03*
X92506800Y-96469200D03*
X95148400Y-97129600D03*
X93827600Y-95656400D03*
X95148400Y-95351600D03*
X92506800Y-98196400D03*
X93827600Y-93878400D03*
X92506800Y-94691200D03*
X93827600Y-97383600D03*
X93827600Y-92252800D03*
X92506800Y-91287600D03*
X95148400Y-91998800D03*
X93827600Y-90474800D03*
X95148400Y-90220800D03*
X92506800Y-93065600D03*
X95148400Y-93726000D03*
X90017600Y-91186000D03*
X90017600Y-89408000D03*
X90017600Y-92913200D03*
X92506800Y-89611200D03*
X86410800Y-102463600D03*
X85090000Y-103276400D03*
X86410800Y-101600000D03*
X85090000Y-100634800D03*
X86410800Y-99822000D03*
X85090000Y-102412800D03*
X86410800Y-100685600D03*
X85090000Y-101498400D03*
X85090000Y-104140000D03*
X86410800Y-103327200D03*
X86410800Y-104343200D03*
X85140800Y-99618800D03*
X85039200Y-107797600D03*
X85090000Y-105003600D03*
X85039200Y-108661200D03*
X86360000Y-108712000D03*
X86360000Y-106984800D03*
X86360000Y-106070400D03*
X86360000Y-107848400D03*
X85039200Y-106883200D03*
X85039200Y-106019600D03*
X86360000Y-105206800D03*
X85039200Y-109524800D03*
X86360000Y-114198400D03*
X86360000Y-110693200D03*
X85039200Y-111506000D03*
X86360000Y-112471200D03*
X85039200Y-113284000D03*
X87426800Y-111963200D03*
X87426800Y-110185200D03*
X88392000Y-111353600D03*
X88392000Y-113080800D03*
X88392000Y-109575600D03*
X87426800Y-113690400D03*
X88392000Y-114960400D03*
X91389200Y-114147600D03*
X91795600Y-120396000D03*
X91186000Y-122682000D03*
X89357200Y-110693200D03*
X89357200Y-112471200D03*
X89357200Y-114198400D03*
X89357200Y-116078000D03*
X91389200Y-110439200D03*
X91389200Y-112217200D03*
X84886800Y-124409200D03*
X93116400Y-112217200D03*
X93116400Y-110439200D03*
X93268800Y-120904000D03*
X93014800Y-122224800D03*
X95605600Y-120396000D03*
X94234000Y-121564400D03*
X94234000Y-119837200D03*
X94488000Y-111252000D03*
X94386400Y-110083600D03*
X93624400Y-109321600D03*
X90424000Y-121615200D03*
X90017600Y-123952000D03*
X90322400Y-114960400D03*
X90322400Y-113080800D03*
X90322400Y-111353600D03*
X90322400Y-109575600D03*
X92252800Y-109575600D03*
X92252800Y-121716800D03*
X92252800Y-113080800D03*
X92252800Y-111353600D03*
X87731600Y-98653600D03*
X87731600Y-95148400D03*
X87731600Y-96926400D03*
X91338400Y-95199200D03*
X91338400Y-96977200D03*
X91338400Y-91795600D03*
X91338400Y-93522800D03*
X91338400Y-90017600D03*
X96570800Y-91338400D03*
X96570800Y-89560400D03*
X96570800Y-93065600D03*
X96570800Y-94691200D03*
X97942400Y-92049600D03*
X97942400Y-93776800D03*
X97942400Y-97180400D03*
X97942400Y-90271600D03*
X97942400Y-95402400D03*
X96570800Y-99110800D03*
X98196400Y-98602800D03*
X96570800Y-102463600D03*
X96570800Y-100838000D03*
X98094800Y-101650800D03*
X98094800Y-99923600D03*
X96570800Y-97078800D03*
X103428800Y-97332800D03*
X103428800Y-92760800D03*
X103428800Y-99263200D03*
X103428800Y-95199200D03*
X103428800Y-101142800D03*
X104800400Y-95707200D03*
X104800400Y-97840800D03*
X104800400Y-93268800D03*
X106172000Y-97129600D03*
X106172000Y-94996000D03*
X106172000Y-92557600D03*
X107543600Y-96418400D03*
X107543600Y-91846400D03*
X107543600Y-94284800D03*
X109220000Y-93522800D03*
X109220000Y-95199200D03*
X109220000Y-91744800D03*
X128625600Y-93040200D03*
X128689100Y-94500700D03*
X134670800Y-101549200D03*
X134772400Y-100177600D03*
X134670800Y-91592400D03*
X134607300Y-94361000D03*
X134670800Y-97345500D03*
X128778000Y-96418400D03*
X139649200Y-101447600D03*
X93014800Y-123291600D03*
X93014800Y-126746000D03*
X93014800Y-124968000D03*
X95504000Y-122021600D03*
X94183200Y-122834400D03*
X96824800Y-123494800D03*
X96824800Y-125120400D03*
X95504000Y-127152400D03*
X96824800Y-126898400D03*
X95504000Y-125425200D03*
X95504000Y-123647200D03*
X94183200Y-124460000D03*
X94183200Y-126238000D03*
X91795600Y-128676400D03*
X92964000Y-131622800D03*
X94284800Y-127406400D03*
X94284800Y-129032000D03*
X95605600Y-130505200D03*
X92964000Y-129844800D03*
X91795600Y-132130800D03*
X94284800Y-132537200D03*
X91795600Y-130352800D03*
X95605600Y-132283200D03*
X94284800Y-130810000D03*
X92964000Y-128219200D03*
X95605600Y-128879600D03*
X98094800Y-130759200D03*
X98094800Y-134162800D03*
X96774000Y-132689600D03*
X98094800Y-132384800D03*
X96774000Y-130911600D03*
X90678000Y-128168400D03*
X90678000Y-131572000D03*
X89357200Y-130098800D03*
X90678000Y-129794000D03*
X89357200Y-128320800D03*
X92913200Y-132892800D03*
X94234000Y-133807200D03*
X93116400Y-134366000D03*
X91795600Y-133451600D03*
X96520000Y-134366000D03*
X95199200Y-133451600D03*
X91643200Y-126949200D03*
X91643200Y-125171200D03*
X90271600Y-126796800D03*
X84886800Y-125882400D03*
X84886800Y-127457200D03*
X90271600Y-125526800D03*
X91795600Y-123901200D03*
X97485200Y-120904000D03*
X96723200Y-121666000D03*
X117652800Y-124307600D03*
X120243600Y-126441200D03*
X120142000Y-124714000D03*
X116433600Y-126238000D03*
X118922800Y-128371600D03*
X118922800Y-124968000D03*
X120243600Y-128066800D03*
X118922800Y-126593600D03*
X117602000Y-127406400D03*
X117602000Y-125780800D03*
X116433600Y-127914400D03*
X116281200Y-124510800D03*
X118872000Y-129489200D03*
X120192800Y-132588000D03*
X120091200Y-129235200D03*
X116382800Y-130759200D03*
X117551200Y-131927600D03*
X117551200Y-130302000D03*
X118872000Y-132892800D03*
X116382800Y-132435600D03*
X118872000Y-131114800D03*
X116230400Y-129032000D03*
X120192800Y-130962400D03*
X117602000Y-128828800D03*
X117652800Y-132943600D03*
X116484400Y-133451600D03*
X118059200Y-133959600D03*
X120700800Y-134112000D03*
X121920000Y-134061200D03*
X119278400Y-134010400D03*
X122885200Y-134010400D03*
X124104400Y-134061200D03*
X126746000Y-134112000D03*
X125526800Y-134162800D03*
X130454400Y-134264400D03*
X127812800Y-134112000D03*
X131673600Y-134213600D03*
X129032000Y-134162800D03*
X132130800Y-132842000D03*
X129489200Y-132791200D03*
X128270000Y-132740400D03*
X130911600Y-132892800D03*
X129489200Y-131521200D03*
X130911600Y-131622800D03*
X128270000Y-131470400D03*
X132130800Y-131572000D03*
X133400800Y-134061200D03*
X136499600Y-131470400D03*
X135280400Y-132791200D03*
X134975600Y-131572000D03*
X136194800Y-130251200D03*
X133096000Y-132842000D03*
X137617200Y-130657600D03*
X139496800Y-129387600D03*
X140716000Y-128066800D03*
X138988800Y-128066800D03*
X137109200Y-129336800D03*
X140208000Y-126746000D03*
X139446000Y-105867200D03*
X139446000Y-106832400D03*
X138531600Y-106781600D03*
X138531600Y-105816400D03*
X137414000Y-105765600D03*
X137515600Y-106680000D03*
X137871200Y-107899200D03*
X137871200Y-108966000D03*
X137871200Y-110185200D03*
X137871200Y-113385600D03*
X137871200Y-111099600D03*
X137871200Y-112166400D03*
X137007600Y-112826800D03*
X137007600Y-113893600D03*
X137007600Y-114960400D03*
X138023600Y-114960400D03*
X137972800Y-114198400D03*
X139192000Y-114198400D03*
X139192000Y-115062000D03*
X140360400Y-115062000D03*
X140360400Y-114147600D03*
X141681200Y-114198400D03*
X141681200Y-115062000D03*
X142646400Y-114604800D03*
X118516400Y-120548400D03*
X116027200Y-121818400D03*
X117195600Y-122986800D03*
X117195600Y-121361200D03*
X116027200Y-123494800D03*
X118516400Y-122174000D03*
X115874800Y-120091200D03*
X117246400Y-119888000D03*
X118872000Y-123596400D03*
X128066800Y-119481600D03*
X128066800Y-120751600D03*
X128066800Y-123850400D03*
X128066800Y-122580400D03*
X128066800Y-126238000D03*
X128066800Y-124968000D03*
X122377200Y-125831600D03*
X122377200Y-127101600D03*
X124053600Y-125780800D03*
X124053600Y-127050800D03*
X125831600Y-127050800D03*
X125831600Y-125780800D03*
X122326400Y-129743200D03*
X122326400Y-128473200D03*
X124053600Y-129743200D03*
X124053600Y-128473200D03*
X125730000Y-129895600D03*
X125730000Y-128625600D03*
X85902800Y-125120400D03*
X85902800Y-128168400D03*
X85902800Y-126593600D03*
X87020400Y-127508000D03*
X87020400Y-125933200D03*
X87020400Y-124460000D03*
X88290400Y-126441200D03*
X88290400Y-124968000D03*
X88290400Y-128016000D03*
X84886800Y-128676400D03*
X85902800Y-129387600D03*
X87020400Y-128727200D03*
X88290400Y-129235200D03*
X89357200Y-126085600D03*
X92659200Y-119075200D03*
X93675200Y-118008400D03*
X95554800Y-119024400D03*
X96926400Y-109880400D03*
X98298000Y-110439200D03*
X95707200Y-110490000D03*
X93218000Y-113893600D03*
X93218000Y-115824000D03*
X91186000Y-115874800D03*
X91186000Y-117754400D03*
X92151200Y-116636800D03*
X94945200Y-113893600D03*
X92151200Y-114757200D03*
X90220800Y-116636800D03*
X94081600Y-114757200D03*
X94081600Y-113030000D03*
X95859600Y-111455200D03*
X97078800Y-110845600D03*
X95402400Y-112776000D03*
X94792800Y-117043200D03*
X95859600Y-115976400D03*
X96266000Y-118160800D03*
X99720400Y-134112000D03*
X100939600Y-134162800D03*
X103581200Y-134213600D03*
X104546400Y-134162800D03*
X105765600Y-134213600D03*
X102362000Y-134264400D03*
X113284000Y-134315200D03*
X108458000Y-134264400D03*
X107238800Y-134213600D03*
X111099600Y-134315200D03*
X112064800Y-134264400D03*
X109880400Y-134366000D03*
X114858800Y-134264400D03*
X116230400Y-134366000D03*
X117246400Y-134264400D03*
X108051600Y-99212400D03*
X106984800Y-100228400D03*
X105714800Y-101295200D03*
X106832400Y-101854000D03*
X108305600Y-100990400D03*
X120192800Y-91871800D03*
X121399300Y-92633800D03*
X123634500Y-92633800D03*
X122428000Y-91871800D03*
X120091200Y-93395800D03*
X121297700Y-94157800D03*
X122478800Y-93345000D03*
X123685300Y-94107000D03*
X125018800Y-93294200D03*
X126225300Y-94056200D03*
X119888000Y-94869000D03*
X121094500Y-95631000D03*
X122123200Y-94869000D03*
X123088400Y-95707200D03*
X119888000Y-95986600D03*
X121094500Y-96748600D03*
D26*
X116268500Y-108966000D02*
X116268500Y-99885500D01*
X116268500Y-99885500D02*
X114744500Y-98361500D01*
X114744500Y-98361500D02*
X121983500Y-98361500D01*
X121983500Y-98361500D02*
X122745500Y-97599500D01*
X121793000Y-119984800D02*
X121793000Y-117881400D01*
X110553500Y-122052815D02*
X110591600Y-122014715D01*
X110553500Y-122618500D02*
X110553500Y-122052815D01*
X110591600Y-122014715D02*
X110591600Y-117957600D01*
X110617000Y-125481815D02*
X109474000Y-124338815D01*
X110617000Y-126047500D02*
X110617000Y-125481815D01*
X109474000Y-124338815D02*
X109474000Y-118059200D01*
X102235000Y-130302000D02*
X102235000Y-118186200D01*
X135478799Y-106634001D02*
X135945601Y-106634001D01*
X135178800Y-106934000D02*
X135478799Y-106634001D01*
X135945601Y-106634001D02*
X136804400Y-107492800D01*
X136804400Y-110845600D02*
X135763000Y-111887000D01*
X136804400Y-107492800D02*
X136804400Y-110845600D01*
X111294500Y-91247160D02*
X111302800Y-91255460D01*
X111294500Y-90186500D02*
X111294500Y-91247160D01*
X111302800Y-91255460D02*
X111302800Y-112826800D01*
X118794500Y-91247160D02*
X117585660Y-92456000D01*
X118794500Y-90186500D02*
X118794500Y-91247160D01*
X113564000Y-92456000D02*
X111294500Y-90186500D01*
X117585660Y-92456000D02*
X113564000Y-92456000D01*
X109524800Y-108204000D02*
X109524800Y-112217200D01*
X99314000Y-109931200D02*
X99314000Y-112166400D01*
X107645200Y-103733600D02*
X107645200Y-111963200D01*
D27*
X119989600Y-119456100D02*
X118744900Y-119456100D01*
X118744900Y-119456100D02*
X118719600Y-119430800D01*
X126339600Y-106527600D02*
X126039601Y-106827599D01*
X126039601Y-106827599D02*
X125171200Y-107696000D01*
X125171200Y-107696000D02*
X124612400Y-107696000D01*
X126174500Y-123825000D02*
X126174500Y-121348500D01*
X126174500Y-121348500D02*
X124663200Y-119837200D01*
X121716700Y-121031100D02*
X121793000Y-120954800D01*
X119989600Y-121031100D02*
X121716700Y-121031100D01*
D28*
G36*
X136207500Y-116929897D02*
G01*
X136169000Y-117123453D01*
X136169000Y-117404547D01*
X136207500Y-117598103D01*
X136207500Y-118364613D01*
X97092645Y-118553878D01*
X97133326Y-113997461D01*
X99617500Y-113997461D01*
X99617500Y-114475539D01*
X99710768Y-114944430D01*
X99893721Y-115386115D01*
X100159326Y-115783622D01*
X100497378Y-116121674D01*
X100894885Y-116387279D01*
X101336570Y-116570232D01*
X101805461Y-116663500D01*
X102283539Y-116663500D01*
X102752430Y-116570232D01*
X103194115Y-116387279D01*
X103591622Y-116121674D01*
X103929674Y-115783622D01*
X104195279Y-115386115D01*
X104378232Y-114944430D01*
X104471500Y-114475539D01*
X104471500Y-113997461D01*
X122867500Y-113997461D01*
X122867500Y-114475539D01*
X122960768Y-114944430D01*
X123143721Y-115386115D01*
X123409326Y-115783622D01*
X123747378Y-116121674D01*
X124144885Y-116387279D01*
X124586570Y-116570232D01*
X125055461Y-116663500D01*
X125533539Y-116663500D01*
X126002430Y-116570232D01*
X126444115Y-116387279D01*
X126841622Y-116121674D01*
X127179674Y-115783622D01*
X127445279Y-115386115D01*
X127628232Y-114944430D01*
X127721500Y-114475539D01*
X127721500Y-113997461D01*
X127628232Y-113528570D01*
X127445279Y-113086885D01*
X127179674Y-112689378D01*
X126841622Y-112351326D01*
X126444115Y-112085721D01*
X126002430Y-111902768D01*
X125533539Y-111809500D01*
X125055461Y-111809500D01*
X124586570Y-111902768D01*
X124144885Y-112085721D01*
X123747378Y-112351326D01*
X123409326Y-112689378D01*
X123143721Y-113086885D01*
X122960768Y-113528570D01*
X122867500Y-113997461D01*
X104471500Y-113997461D01*
X104378232Y-113528570D01*
X104195279Y-113086885D01*
X103929674Y-112689378D01*
X103591622Y-112351326D01*
X103194115Y-112085721D01*
X102752430Y-111902768D01*
X102283539Y-111809500D01*
X101805461Y-111809500D01*
X101336570Y-111902768D01*
X100894885Y-112085721D01*
X100497378Y-112351326D01*
X100159326Y-112689378D01*
X99893721Y-113086885D01*
X99710768Y-113528570D01*
X99617500Y-113997461D01*
X97133326Y-113997461D01*
X97153871Y-111696500D01*
X136207500Y-111696500D01*
X136207500Y-116929897D01*
X136207500Y-116929897D01*
G37*
X136207500Y-116929897D02*
X136169000Y-117123453D01*
X136169000Y-117404547D01*
X136207500Y-117598103D01*
X136207500Y-118364613D01*
X97092645Y-118553878D01*
X97133326Y-113997461D01*
X99617500Y-113997461D01*
X99617500Y-114475539D01*
X99710768Y-114944430D01*
X99893721Y-115386115D01*
X100159326Y-115783622D01*
X100497378Y-116121674D01*
X100894885Y-116387279D01*
X101336570Y-116570232D01*
X101805461Y-116663500D01*
X102283539Y-116663500D01*
X102752430Y-116570232D01*
X103194115Y-116387279D01*
X103591622Y-116121674D01*
X103929674Y-115783622D01*
X104195279Y-115386115D01*
X104378232Y-114944430D01*
X104471500Y-114475539D01*
X104471500Y-113997461D01*
X122867500Y-113997461D01*
X122867500Y-114475539D01*
X122960768Y-114944430D01*
X123143721Y-115386115D01*
X123409326Y-115783622D01*
X123747378Y-116121674D01*
X124144885Y-116387279D01*
X124586570Y-116570232D01*
X125055461Y-116663500D01*
X125533539Y-116663500D01*
X126002430Y-116570232D01*
X126444115Y-116387279D01*
X126841622Y-116121674D01*
X127179674Y-115783622D01*
X127445279Y-115386115D01*
X127628232Y-114944430D01*
X127721500Y-114475539D01*
X127721500Y-113997461D01*
X127628232Y-113528570D01*
X127445279Y-113086885D01*
X127179674Y-112689378D01*
X126841622Y-112351326D01*
X126444115Y-112085721D01*
X126002430Y-111902768D01*
X125533539Y-111809500D01*
X125055461Y-111809500D01*
X124586570Y-111902768D01*
X124144885Y-112085721D01*
X123747378Y-112351326D01*
X123409326Y-112689378D01*
X123143721Y-113086885D01*
X122960768Y-113528570D01*
X122867500Y-113997461D01*
X104471500Y-113997461D01*
X104378232Y-113528570D01*
X104195279Y-113086885D01*
X103929674Y-112689378D01*
X103591622Y-112351326D01*
X103194115Y-112085721D01*
X102752430Y-111902768D01*
X102283539Y-111809500D01*
X101805461Y-111809500D01*
X101336570Y-111902768D01*
X100894885Y-112085721D01*
X100497378Y-112351326D01*
X100159326Y-112689378D01*
X99893721Y-113086885D01*
X99710768Y-113528570D01*
X99617500Y-113997461D01*
X97133326Y-113997461D01*
X97153871Y-111696500D01*
X136207500Y-111696500D01*
X136207500Y-116929897D01*
D27*
G36*
X86548571Y-88878430D02*
G01*
X86075277Y-88972574D01*
X85620306Y-89161029D01*
X85210843Y-89434624D01*
X84862624Y-89782843D01*
X84589029Y-90192306D01*
X84400574Y-90647277D01*
X84304500Y-91130272D01*
X84304500Y-91622728D01*
X84400574Y-92105723D01*
X84589029Y-92560694D01*
X84862624Y-92970157D01*
X85210843Y-93318376D01*
X85620306Y-93591971D01*
X86075277Y-93780426D01*
X86558272Y-93876500D01*
X87050728Y-93876500D01*
X87533723Y-93780426D01*
X87988694Y-93591971D01*
X88398157Y-93318376D01*
X88746376Y-92970157D01*
X89019971Y-92560694D01*
X89208426Y-92105723D01*
X89304500Y-91622728D01*
X89304500Y-91130272D01*
X89208426Y-90647277D01*
X89019971Y-90192306D01*
X88746376Y-89782843D01*
X88398157Y-89434624D01*
X87988694Y-89161029D01*
X87533723Y-88972574D01*
X87065993Y-88879536D01*
X100370313Y-88907995D01*
X100257973Y-89020335D01*
X100006266Y-89397041D01*
X99832887Y-89815615D01*
X99744500Y-90259970D01*
X99744500Y-90713030D01*
X99832887Y-91157385D01*
X100006266Y-91575959D01*
X100257973Y-91952665D01*
X100578335Y-92273027D01*
X100955041Y-92524734D01*
X101373615Y-92698113D01*
X101817970Y-92786500D01*
X102271030Y-92786500D01*
X102715385Y-92698113D01*
X103133959Y-92524734D01*
X103510665Y-92273027D01*
X103831027Y-91952665D01*
X104082734Y-91575959D01*
X104256113Y-91157385D01*
X104344500Y-90713030D01*
X104344500Y-90259970D01*
X104309316Y-90083084D01*
X105244500Y-90083084D01*
X105244500Y-90289916D01*
X105284850Y-90492774D01*
X105364002Y-90683862D01*
X105478911Y-90855836D01*
X105625164Y-91002089D01*
X105797138Y-91116998D01*
X105988226Y-91196150D01*
X106191084Y-91236500D01*
X106397916Y-91236500D01*
X106600774Y-91196150D01*
X106791862Y-91116998D01*
X106963836Y-91002089D01*
X107110089Y-90855836D01*
X107224998Y-90683862D01*
X107304150Y-90492774D01*
X107344500Y-90289916D01*
X107344500Y-90083084D01*
X107744500Y-90083084D01*
X107744500Y-90289916D01*
X107784850Y-90492774D01*
X107864002Y-90683862D01*
X107978911Y-90855836D01*
X108125164Y-91002089D01*
X108297138Y-91116998D01*
X108488226Y-91196150D01*
X108691084Y-91236500D01*
X108897916Y-91236500D01*
X109100774Y-91196150D01*
X109291862Y-91116998D01*
X109463836Y-91002089D01*
X109610089Y-90855836D01*
X109724998Y-90683862D01*
X109804150Y-90492774D01*
X109844500Y-90289916D01*
X109844500Y-90083084D01*
X109804150Y-89880226D01*
X109724998Y-89689138D01*
X109610089Y-89517164D01*
X109463836Y-89370911D01*
X109291862Y-89256002D01*
X109100774Y-89176850D01*
X108897916Y-89136500D01*
X108691084Y-89136500D01*
X108488226Y-89176850D01*
X108297138Y-89256002D01*
X108125164Y-89370911D01*
X107978911Y-89517164D01*
X107864002Y-89689138D01*
X107784850Y-89880226D01*
X107744500Y-90083084D01*
X107344500Y-90083084D01*
X107304150Y-89880226D01*
X107224998Y-89689138D01*
X107110089Y-89517164D01*
X106963836Y-89370911D01*
X106791862Y-89256002D01*
X106600774Y-89176850D01*
X106397916Y-89136500D01*
X106191084Y-89136500D01*
X105988226Y-89176850D01*
X105797138Y-89256002D01*
X105625164Y-89370911D01*
X105478911Y-89517164D01*
X105364002Y-89689138D01*
X105284850Y-89880226D01*
X105244500Y-90083084D01*
X104309316Y-90083084D01*
X104256113Y-89815615D01*
X104082734Y-89397041D01*
X103831027Y-89020335D01*
X103725864Y-88915172D01*
X120722770Y-88951529D01*
X120680736Y-88967753D01*
X120622138Y-88999073D01*
X120552920Y-89227131D01*
X121294500Y-89968711D01*
X122036080Y-89227131D01*
X121966862Y-88999073D01*
X121865063Y-88953973D01*
X123570687Y-88957621D01*
X123507973Y-89020335D01*
X123256266Y-89397041D01*
X123082887Y-89815615D01*
X122994500Y-90259970D01*
X122994500Y-90713030D01*
X123082887Y-91157385D01*
X123256266Y-91575959D01*
X123507973Y-91952665D01*
X123828335Y-92273027D01*
X124205041Y-92524734D01*
X124623615Y-92698113D01*
X125067970Y-92786500D01*
X125521030Y-92786500D01*
X125965385Y-92698113D01*
X126383959Y-92524734D01*
X126760665Y-92273027D01*
X127081027Y-91952665D01*
X127332734Y-91575959D01*
X127506113Y-91157385D01*
X127594500Y-90713030D01*
X127594500Y-90259970D01*
X127506113Y-89815615D01*
X127332734Y-89397041D01*
X127081027Y-89020335D01*
X127025703Y-88965011D01*
X139317454Y-88991304D01*
X139214306Y-89034029D01*
X138804843Y-89307624D01*
X138456624Y-89655843D01*
X138183029Y-90065306D01*
X137994574Y-90520277D01*
X137898500Y-91003272D01*
X137898500Y-91495728D01*
X137994574Y-91978723D01*
X138183029Y-92433694D01*
X138456624Y-92843157D01*
X138804843Y-93191376D01*
X139214306Y-93464971D01*
X139669277Y-93653426D01*
X140152272Y-93749500D01*
X140644728Y-93749500D01*
X141127723Y-93653426D01*
X141582694Y-93464971D01*
X141992157Y-93191376D01*
X142340376Y-92843157D01*
X142613971Y-92433694D01*
X142802426Y-91978723D01*
X142898500Y-91495728D01*
X142898500Y-91003272D01*
X142802426Y-90520277D01*
X142613971Y-90065306D01*
X142340376Y-89655843D01*
X141992157Y-89307624D01*
X141582694Y-89034029D01*
X141490770Y-88995953D01*
X143067634Y-88999326D01*
X143159053Y-89134483D01*
X143232886Y-89309494D01*
X143272091Y-89499248D01*
X143277001Y-89667278D01*
X143277001Y-108421500D01*
X139319000Y-108421500D01*
X139299491Y-108423421D01*
X139280732Y-108429112D01*
X139263443Y-108438353D01*
X139248289Y-108450789D01*
X139235853Y-108465943D01*
X139226612Y-108483232D01*
X139220921Y-108501991D01*
X139219000Y-108521500D01*
X139219000Y-112522000D01*
X139220921Y-112541509D01*
X139226612Y-112560268D01*
X139235853Y-112577557D01*
X139248289Y-112592711D01*
X139263443Y-112605147D01*
X139280732Y-112614388D01*
X139299491Y-112620079D01*
X139319000Y-112622000D01*
X143277000Y-112622000D01*
X143277000Y-133939175D01*
X143277022Y-133939403D01*
X143277290Y-134147213D01*
X143240634Y-134333595D01*
X143168476Y-134509307D01*
X143118857Y-134584198D01*
X87067261Y-134703711D01*
X87533723Y-134610926D01*
X87988694Y-134422471D01*
X88398157Y-134148876D01*
X88746376Y-133800657D01*
X89019971Y-133391194D01*
X89208426Y-132936223D01*
X89304500Y-132453228D01*
X89304500Y-131960772D01*
X89208426Y-131477777D01*
X89137274Y-131306000D01*
X104136549Y-131306000D01*
X104136549Y-133306000D01*
X104142341Y-133364810D01*
X104159496Y-133421360D01*
X104187353Y-133473477D01*
X104224842Y-133519158D01*
X104270523Y-133556647D01*
X104322640Y-133584504D01*
X104379190Y-133601659D01*
X104438000Y-133607451D01*
X107638000Y-133607451D01*
X107696810Y-133601659D01*
X107753360Y-133584504D01*
X107805477Y-133556647D01*
X107851158Y-133519158D01*
X107888647Y-133473477D01*
X107916504Y-133421360D01*
X107933659Y-133364810D01*
X107939451Y-133306000D01*
X107939451Y-131306000D01*
X107933659Y-131247190D01*
X107916504Y-131190640D01*
X107888647Y-131138523D01*
X107851158Y-131092842D01*
X107805477Y-131055353D01*
X107753360Y-131027496D01*
X107696810Y-131010341D01*
X107638000Y-131004549D01*
X104438000Y-131004549D01*
X104379190Y-131010341D01*
X104322640Y-131027496D01*
X104270523Y-131055353D01*
X104224842Y-131092842D01*
X104187353Y-131138523D01*
X104159496Y-131190640D01*
X104142341Y-131247190D01*
X104136549Y-131306000D01*
X89137274Y-131306000D01*
X89019971Y-131022806D01*
X88746376Y-130613343D01*
X88398157Y-130265124D01*
X87988694Y-129991529D01*
X87533723Y-129803074D01*
X87050728Y-129707000D01*
X86558272Y-129707000D01*
X86075277Y-129803074D01*
X85620306Y-129991529D01*
X85210843Y-130265124D01*
X84862624Y-130613343D01*
X84589029Y-131022806D01*
X84400574Y-131477777D01*
X84304500Y-131960772D01*
X84304500Y-132453228D01*
X84400574Y-132936223D01*
X84589029Y-133391194D01*
X84862624Y-133800657D01*
X85210843Y-134148876D01*
X85620306Y-134422471D01*
X86075277Y-134610926D01*
X86547313Y-134704820D01*
X84190741Y-134709845D01*
X84150369Y-134669857D01*
X84043947Y-134512517D01*
X83984710Y-134372104D01*
X83999313Y-129077961D01*
X97738000Y-129077961D01*
X97738000Y-129334039D01*
X97787958Y-129585196D01*
X97885955Y-129821781D01*
X98028224Y-130034702D01*
X98209298Y-130215776D01*
X98422219Y-130358045D01*
X98658804Y-130456042D01*
X98909961Y-130506000D01*
X99166039Y-130506000D01*
X99417196Y-130456042D01*
X99653781Y-130358045D01*
X99866702Y-130215776D01*
X100047776Y-130034702D01*
X100190045Y-129821781D01*
X100288042Y-129585196D01*
X100338000Y-129334039D01*
X100338000Y-129077961D01*
X100288042Y-128826804D01*
X100190045Y-128590219D01*
X100047776Y-128377298D01*
X99866702Y-128196224D01*
X99653781Y-128053955D01*
X99417196Y-127955958D01*
X99166039Y-127906000D01*
X98909961Y-127906000D01*
X98658804Y-127955958D01*
X98422219Y-128053955D01*
X98209298Y-128196224D01*
X98028224Y-128377298D01*
X97885955Y-128590219D01*
X97787958Y-128826804D01*
X97738000Y-129077961D01*
X83999313Y-129077961D01*
X84009613Y-125344199D01*
X98117590Y-125344199D01*
X98217181Y-125597762D01*
X98504472Y-125731154D01*
X98812265Y-125805934D01*
X99128735Y-125819230D01*
X99441716Y-125770531D01*
X99739184Y-125661708D01*
X99858819Y-125597762D01*
X99958410Y-125344199D01*
X99038000Y-124423789D01*
X98117590Y-125344199D01*
X84009613Y-125344199D01*
X84012503Y-124296735D01*
X97424770Y-124296735D01*
X97473469Y-124609716D01*
X97582292Y-124907184D01*
X97646238Y-125026819D01*
X97899801Y-125126410D01*
X98820211Y-124206000D01*
X99255789Y-124206000D01*
X100176199Y-125126410D01*
X100429762Y-125026819D01*
X100563154Y-124739528D01*
X100637934Y-124431735D01*
X100651230Y-124115265D01*
X100602531Y-123802284D01*
X100493708Y-123504816D01*
X100429762Y-123385181D01*
X100176199Y-123285590D01*
X99255789Y-124206000D01*
X98820211Y-124206000D01*
X97899801Y-123285590D01*
X97646238Y-123385181D01*
X97512846Y-123672472D01*
X97438066Y-123980265D01*
X97424770Y-124296735D01*
X84012503Y-124296735D01*
X84018359Y-122174000D01*
X85458436Y-122174000D01*
X85480640Y-122399439D01*
X85546398Y-122616215D01*
X85653184Y-122815997D01*
X85796893Y-122991107D01*
X85972003Y-123134816D01*
X86171785Y-123241602D01*
X86388561Y-123307360D01*
X86557508Y-123324000D01*
X86670492Y-123324000D01*
X86839439Y-123307360D01*
X87056215Y-123241602D01*
X87255997Y-123134816D01*
X87337655Y-123067801D01*
X98117590Y-123067801D01*
X99038000Y-123988211D01*
X99958410Y-123067801D01*
X99858819Y-122814238D01*
X99571528Y-122680846D01*
X99263735Y-122606066D01*
X98947265Y-122592770D01*
X98634284Y-122641469D01*
X98336816Y-122750292D01*
X98217181Y-122814238D01*
X98117590Y-123067801D01*
X87337655Y-123067801D01*
X87431107Y-122991107D01*
X87574816Y-122815997D01*
X87681602Y-122616215D01*
X87747360Y-122399439D01*
X87769564Y-122174000D01*
X87747360Y-121948561D01*
X87681602Y-121731785D01*
X87574816Y-121532003D01*
X87431107Y-121356893D01*
X87255997Y-121213184D01*
X87056215Y-121106398D01*
X86839439Y-121040640D01*
X86670492Y-121024000D01*
X86557508Y-121024000D01*
X86388561Y-121040640D01*
X86171785Y-121106398D01*
X85972003Y-121213184D01*
X85796893Y-121356893D01*
X85653184Y-121532003D01*
X85546398Y-121731785D01*
X85480640Y-121948561D01*
X85458436Y-122174000D01*
X84018359Y-122174000D01*
X84030028Y-117944000D01*
X85153058Y-117944000D01*
X85164797Y-118063189D01*
X85199563Y-118177797D01*
X85256020Y-118283421D01*
X85331999Y-118376001D01*
X85424579Y-118451980D01*
X85530203Y-118508437D01*
X85644811Y-118543203D01*
X85764000Y-118554942D01*
X86217638Y-118552489D01*
X86171785Y-118566398D01*
X85972003Y-118673184D01*
X85796893Y-118816893D01*
X85653184Y-118992003D01*
X85546398Y-119191785D01*
X85480640Y-119408561D01*
X85458436Y-119634000D01*
X85480640Y-119859439D01*
X85546398Y-120076215D01*
X85653184Y-120275997D01*
X85796893Y-120451107D01*
X85972003Y-120594816D01*
X86171785Y-120701602D01*
X86388561Y-120767360D01*
X86557508Y-120784000D01*
X86670492Y-120784000D01*
X86839439Y-120767360D01*
X87056215Y-120701602D01*
X87255997Y-120594816D01*
X87431107Y-120451107D01*
X87574816Y-120275997D01*
X87681602Y-120076215D01*
X87747360Y-119859439D01*
X87769564Y-119634000D01*
X87747360Y-119408561D01*
X87681602Y-119191785D01*
X87574816Y-118992003D01*
X87431107Y-118816893D01*
X87261779Y-118677929D01*
X96564516Y-118677929D01*
X96572568Y-118761433D01*
X96595693Y-118836360D01*
X96632991Y-118905335D01*
X96683029Y-118965708D01*
X96743884Y-119015159D01*
X96813217Y-119051788D01*
X96888363Y-119074187D01*
X96966435Y-119081495D01*
X101635001Y-119058905D01*
X101635000Y-130242905D01*
X101635000Y-130361095D01*
X101640779Y-130390149D01*
X101643682Y-130419620D01*
X101652279Y-130447960D01*
X101658058Y-130477014D01*
X101669393Y-130504380D01*
X101677990Y-130532720D01*
X101691951Y-130558839D01*
X101703287Y-130586207D01*
X101719744Y-130610836D01*
X101733704Y-130636954D01*
X101752494Y-130659849D01*
X101768950Y-130684478D01*
X101789892Y-130705420D01*
X101808683Y-130728317D01*
X101831581Y-130747109D01*
X101852522Y-130768050D01*
X101877147Y-130784504D01*
X101900045Y-130803296D01*
X101926168Y-130817259D01*
X101950793Y-130833713D01*
X101978156Y-130845047D01*
X102004279Y-130859010D01*
X102032623Y-130867608D01*
X102059986Y-130878942D01*
X102089037Y-130884721D01*
X102117379Y-130893318D01*
X102146852Y-130896221D01*
X102175905Y-130902000D01*
X102205526Y-130902000D01*
X102235000Y-130904903D01*
X102264474Y-130902000D01*
X102294095Y-130902000D01*
X102323149Y-130896221D01*
X102352620Y-130893318D01*
X102380960Y-130884721D01*
X102410014Y-130878942D01*
X102437380Y-130867607D01*
X102465720Y-130859010D01*
X102491839Y-130845049D01*
X102519207Y-130833713D01*
X102543836Y-130817256D01*
X102569954Y-130803296D01*
X102580062Y-130795000D01*
X125200049Y-130795000D01*
X125200049Y-132095000D01*
X125205841Y-132153810D01*
X125222996Y-132210360D01*
X125250853Y-132262477D01*
X125288342Y-132308158D01*
X125334023Y-132345647D01*
X125386140Y-132373504D01*
X125442690Y-132390659D01*
X125501500Y-132396451D01*
X127101500Y-132396451D01*
X127160310Y-132390659D01*
X127216860Y-132373504D01*
X127268977Y-132345647D01*
X127314658Y-132308158D01*
X127352147Y-132262477D01*
X127380004Y-132210360D01*
X127397159Y-132153810D01*
X127402951Y-132095000D01*
X127402951Y-131833772D01*
X138089000Y-131833772D01*
X138089000Y-132326228D01*
X138185074Y-132809223D01*
X138373529Y-133264194D01*
X138647124Y-133673657D01*
X138995343Y-134021876D01*
X139404806Y-134295471D01*
X139859777Y-134483926D01*
X140342772Y-134580000D01*
X140835228Y-134580000D01*
X141318223Y-134483926D01*
X141773194Y-134295471D01*
X142182657Y-134021876D01*
X142530876Y-133673657D01*
X142804471Y-133264194D01*
X142992926Y-132809223D01*
X143089000Y-132326228D01*
X143089000Y-131833772D01*
X142992926Y-131350777D01*
X142804471Y-130895806D01*
X142530876Y-130486343D01*
X142182657Y-130138124D01*
X141773194Y-129864529D01*
X141318223Y-129676074D01*
X140835228Y-129580000D01*
X140342772Y-129580000D01*
X139859777Y-129676074D01*
X139404806Y-129864529D01*
X138995343Y-130138124D01*
X138647124Y-130486343D01*
X138373529Y-130895806D01*
X138185074Y-131350777D01*
X138089000Y-131833772D01*
X127402951Y-131833772D01*
X127402951Y-130795000D01*
X127397159Y-130736190D01*
X127380004Y-130679640D01*
X127352147Y-130627523D01*
X127314658Y-130581842D01*
X127268977Y-130544353D01*
X127216860Y-130516496D01*
X127160310Y-130499341D01*
X127101500Y-130493549D01*
X125501500Y-130493549D01*
X125442690Y-130499341D01*
X125386140Y-130516496D01*
X125334023Y-130544353D01*
X125288342Y-130581842D01*
X125250853Y-130627523D01*
X125222996Y-130679640D01*
X125205841Y-130736190D01*
X125200049Y-130795000D01*
X102580062Y-130795000D01*
X102592849Y-130784506D01*
X102617478Y-130768050D01*
X102638420Y-130747108D01*
X102661317Y-130728317D01*
X102680109Y-130705419D01*
X102701050Y-130684478D01*
X102717504Y-130659853D01*
X102736296Y-130636955D01*
X102750259Y-130610832D01*
X102766713Y-130586207D01*
X102778047Y-130558844D01*
X102792010Y-130532721D01*
X102800608Y-130504377D01*
X102811942Y-130477014D01*
X102817721Y-130447963D01*
X102826318Y-130419621D01*
X102829221Y-130390148D01*
X102835000Y-130361095D01*
X102835000Y-129077961D01*
X112238000Y-129077961D01*
X112238000Y-129334039D01*
X112287958Y-129585196D01*
X112385955Y-129821781D01*
X112528224Y-130034702D01*
X112709298Y-130215776D01*
X112922219Y-130358045D01*
X113158804Y-130456042D01*
X113409961Y-130506000D01*
X113666039Y-130506000D01*
X113917196Y-130456042D01*
X114153781Y-130358045D01*
X114366702Y-130215776D01*
X114547776Y-130034702D01*
X114690045Y-129821781D01*
X114788042Y-129585196D01*
X114838000Y-129334039D01*
X114838000Y-129077961D01*
X114788042Y-128826804D01*
X114690045Y-128590219D01*
X114547776Y-128377298D01*
X114366702Y-128196224D01*
X114281330Y-128139180D01*
X114358819Y-128097762D01*
X114458410Y-127844199D01*
X113538000Y-126923789D01*
X112617590Y-127844199D01*
X112717181Y-128097762D01*
X112799473Y-128135971D01*
X112709298Y-128196224D01*
X112528224Y-128377298D01*
X112385955Y-128590219D01*
X112287958Y-128826804D01*
X112238000Y-129077961D01*
X102835000Y-129077961D01*
X102835000Y-126796735D01*
X111924770Y-126796735D01*
X111973469Y-127109716D01*
X112082292Y-127407184D01*
X112146238Y-127526819D01*
X112399801Y-127626410D01*
X113320211Y-126706000D01*
X113755789Y-126706000D01*
X114676199Y-127626410D01*
X114929762Y-127526819D01*
X115063154Y-127239528D01*
X115137934Y-126931735D01*
X115151230Y-126615265D01*
X115102531Y-126302284D01*
X114993708Y-126004816D01*
X114929762Y-125885181D01*
X114676199Y-125785590D01*
X113755789Y-126706000D01*
X113320211Y-126706000D01*
X112399801Y-125785590D01*
X112146238Y-125885181D01*
X112012846Y-126172472D01*
X111938066Y-126480265D01*
X111924770Y-126796735D01*
X102835000Y-126796735D01*
X102835000Y-120106000D01*
X104136549Y-120106000D01*
X104136549Y-122106000D01*
X104142341Y-122164810D01*
X104159496Y-122221360D01*
X104187353Y-122273477D01*
X104224842Y-122319158D01*
X104270523Y-122356647D01*
X104322640Y-122384504D01*
X104379190Y-122401659D01*
X104438000Y-122407451D01*
X107638000Y-122407451D01*
X107696810Y-122401659D01*
X107753360Y-122384504D01*
X107805477Y-122356647D01*
X107851158Y-122319158D01*
X107888647Y-122273477D01*
X107916504Y-122221360D01*
X107933659Y-122164810D01*
X107939451Y-122106000D01*
X107939451Y-120106000D01*
X107933659Y-120047190D01*
X107916504Y-119990640D01*
X107888647Y-119938523D01*
X107851158Y-119892842D01*
X107805477Y-119855353D01*
X107753360Y-119827496D01*
X107696810Y-119810341D01*
X107638000Y-119804549D01*
X104438000Y-119804549D01*
X104379190Y-119810341D01*
X104322640Y-119827496D01*
X104270523Y-119855353D01*
X104224842Y-119892842D01*
X104187353Y-119938523D01*
X104159496Y-119990640D01*
X104142341Y-120047190D01*
X104136549Y-120106000D01*
X102835000Y-120106000D01*
X102835000Y-119053099D01*
X108874001Y-119023878D01*
X108874000Y-124309341D01*
X108871097Y-124338815D01*
X108874000Y-124368288D01*
X108882682Y-124456435D01*
X108916990Y-124569535D01*
X108972704Y-124673769D01*
X109047683Y-124765132D01*
X109070586Y-124783928D01*
X110017000Y-125730343D01*
X110017000Y-126106595D01*
X110022779Y-126135649D01*
X110025682Y-126165120D01*
X110034279Y-126193460D01*
X110040058Y-126222514D01*
X110051393Y-126249880D01*
X110059990Y-126278220D01*
X110073951Y-126304339D01*
X110085287Y-126331707D01*
X110101744Y-126356336D01*
X110115704Y-126382454D01*
X110134494Y-126405349D01*
X110150950Y-126429978D01*
X110171892Y-126450920D01*
X110190683Y-126473817D01*
X110213581Y-126492609D01*
X110234522Y-126513550D01*
X110259147Y-126530004D01*
X110282045Y-126548796D01*
X110308168Y-126562759D01*
X110332793Y-126579213D01*
X110360156Y-126590547D01*
X110386279Y-126604510D01*
X110414623Y-126613108D01*
X110441986Y-126624442D01*
X110471037Y-126630221D01*
X110499379Y-126638818D01*
X110528852Y-126641721D01*
X110557905Y-126647500D01*
X110587526Y-126647500D01*
X110617000Y-126650403D01*
X110646474Y-126647500D01*
X110676095Y-126647500D01*
X110705149Y-126641721D01*
X110734620Y-126638818D01*
X110762960Y-126630221D01*
X110792014Y-126624442D01*
X110819380Y-126613107D01*
X110847720Y-126604510D01*
X110873839Y-126590549D01*
X110901207Y-126579213D01*
X110925836Y-126562756D01*
X110951954Y-126548796D01*
X110974849Y-126530006D01*
X110999478Y-126513550D01*
X111020420Y-126492608D01*
X111043317Y-126473817D01*
X111062109Y-126450919D01*
X111083050Y-126429978D01*
X111099504Y-126405353D01*
X111118296Y-126382455D01*
X111132259Y-126356332D01*
X111148713Y-126331707D01*
X111160047Y-126304344D01*
X111174010Y-126278221D01*
X111182608Y-126249877D01*
X111193942Y-126222514D01*
X111199721Y-126193463D01*
X111208318Y-126165121D01*
X111211221Y-126135648D01*
X111217000Y-126106595D01*
X111217000Y-125511288D01*
X111219903Y-125481814D01*
X111208318Y-125364194D01*
X111197879Y-125329781D01*
X111174010Y-125251094D01*
X111118296Y-125146860D01*
X111043317Y-125055498D01*
X111020419Y-125036706D01*
X110074000Y-124090288D01*
X110074000Y-122980849D01*
X110087450Y-123000978D01*
X110108392Y-123021920D01*
X110127183Y-123044817D01*
X110150081Y-123063609D01*
X110171022Y-123084550D01*
X110195647Y-123101004D01*
X110218545Y-123119796D01*
X110244668Y-123133759D01*
X110269293Y-123150213D01*
X110296656Y-123161547D01*
X110322779Y-123175510D01*
X110351123Y-123184108D01*
X110378486Y-123195442D01*
X110407537Y-123201221D01*
X110435879Y-123209818D01*
X110465352Y-123212721D01*
X110494405Y-123218500D01*
X110524026Y-123218500D01*
X110553500Y-123221403D01*
X110582974Y-123218500D01*
X110612595Y-123218500D01*
X110641649Y-123212721D01*
X110671120Y-123209818D01*
X110683706Y-123206000D01*
X112236549Y-123206000D01*
X112236549Y-125206000D01*
X112242341Y-125264810D01*
X112259496Y-125321360D01*
X112287353Y-125373477D01*
X112324842Y-125419158D01*
X112370523Y-125456647D01*
X112422640Y-125484504D01*
X112479190Y-125501659D01*
X112538000Y-125507451D01*
X112641293Y-125507451D01*
X112617590Y-125567801D01*
X113538000Y-126488211D01*
X114458410Y-125567801D01*
X114434707Y-125507451D01*
X114538000Y-125507451D01*
X114596810Y-125501659D01*
X114653360Y-125484504D01*
X114705477Y-125456647D01*
X114751158Y-125419158D01*
X114788647Y-125373477D01*
X114816504Y-125321360D01*
X114833659Y-125264810D01*
X114839451Y-125206000D01*
X114839451Y-123206000D01*
X114836398Y-123175000D01*
X120882049Y-123175000D01*
X120882049Y-124475000D01*
X120887841Y-124533810D01*
X120904996Y-124590360D01*
X120932853Y-124642477D01*
X120970342Y-124688158D01*
X121016023Y-124725647D01*
X121068140Y-124753504D01*
X121124690Y-124770659D01*
X121183500Y-124776451D01*
X122783500Y-124776451D01*
X122842310Y-124770659D01*
X122898860Y-124753504D01*
X122950977Y-124725647D01*
X122996658Y-124688158D01*
X123034147Y-124642477D01*
X123062004Y-124590360D01*
X123079159Y-124533810D01*
X123084951Y-124475000D01*
X123084951Y-123175000D01*
X123079159Y-123116190D01*
X123062004Y-123059640D01*
X123034147Y-123007523D01*
X122996658Y-122961842D01*
X122950977Y-122924353D01*
X122898860Y-122896496D01*
X122842310Y-122879341D01*
X122783500Y-122873549D01*
X121183500Y-122873549D01*
X121124690Y-122879341D01*
X121068140Y-122896496D01*
X121016023Y-122924353D01*
X120970342Y-122961842D01*
X120932853Y-123007523D01*
X120904996Y-123059640D01*
X120887841Y-123116190D01*
X120882049Y-123175000D01*
X114836398Y-123175000D01*
X114833659Y-123147190D01*
X114816504Y-123090640D01*
X114788647Y-123038523D01*
X114751158Y-122992842D01*
X114705477Y-122955353D01*
X114653360Y-122927496D01*
X114596810Y-122910341D01*
X114538000Y-122904549D01*
X112538000Y-122904549D01*
X112479190Y-122910341D01*
X112422640Y-122927496D01*
X112370523Y-122955353D01*
X112324842Y-122992842D01*
X112287353Y-123038523D01*
X112259496Y-123090640D01*
X112242341Y-123147190D01*
X112236549Y-123206000D01*
X110683706Y-123206000D01*
X110699460Y-123201221D01*
X110728514Y-123195442D01*
X110755880Y-123184107D01*
X110784220Y-123175510D01*
X110810339Y-123161549D01*
X110837707Y-123150213D01*
X110862336Y-123133756D01*
X110888454Y-123119796D01*
X110911349Y-123101006D01*
X110935978Y-123084550D01*
X110956920Y-123063608D01*
X110979817Y-123044817D01*
X110998609Y-123021919D01*
X111019550Y-123000978D01*
X111036004Y-122976353D01*
X111054796Y-122953455D01*
X111068759Y-122927332D01*
X111085213Y-122902707D01*
X111096547Y-122875344D01*
X111110510Y-122849221D01*
X111119108Y-122820877D01*
X111130442Y-122793514D01*
X111136221Y-122764463D01*
X111144818Y-122736121D01*
X111147721Y-122706648D01*
X111153500Y-122677595D01*
X111153500Y-122229316D01*
X111171361Y-122170435D01*
X111182919Y-122132335D01*
X111194503Y-122014715D01*
X111191600Y-121985239D01*
X111191600Y-119012664D01*
X118323719Y-118978153D01*
X118253550Y-119048322D01*
X118187887Y-119146593D01*
X118142658Y-119255786D01*
X118119600Y-119371705D01*
X118119600Y-119489895D01*
X118142658Y-119605814D01*
X118187887Y-119715007D01*
X118253550Y-119813278D01*
X118337122Y-119896850D01*
X118435393Y-119962513D01*
X118544586Y-120007742D01*
X118660505Y-120030800D01*
X118778695Y-120030800D01*
X118894614Y-120007742D01*
X119003807Y-119962513D01*
X119102078Y-119896850D01*
X119142828Y-119856100D01*
X119247341Y-119856100D01*
X119252747Y-119873922D01*
X119300819Y-119963858D01*
X119365512Y-120042688D01*
X119444342Y-120107381D01*
X119534278Y-120155453D01*
X119631864Y-120185055D01*
X119733350Y-120195051D01*
X120245850Y-120195051D01*
X120347336Y-120185055D01*
X120444922Y-120155453D01*
X120534858Y-120107381D01*
X120613688Y-120042688D01*
X120678381Y-119963858D01*
X120726453Y-119873922D01*
X120756055Y-119776336D01*
X120766051Y-119674850D01*
X120766051Y-119237350D01*
X120756055Y-119135864D01*
X120726453Y-119038278D01*
X120688200Y-118966712D01*
X121193000Y-118964270D01*
X121193000Y-119707435D01*
X121180175Y-119749714D01*
X121171549Y-119837300D01*
X121171549Y-120132300D01*
X121180175Y-120219886D01*
X121205723Y-120304106D01*
X121247211Y-120381724D01*
X121303044Y-120449756D01*
X121327467Y-120469800D01*
X121303044Y-120489844D01*
X121247211Y-120557876D01*
X121208072Y-120631100D01*
X120731859Y-120631100D01*
X120726453Y-120613278D01*
X120678381Y-120523342D01*
X120613688Y-120444512D01*
X120534858Y-120379819D01*
X120444922Y-120331747D01*
X120347336Y-120302145D01*
X120245850Y-120292149D01*
X119733350Y-120292149D01*
X119631864Y-120302145D01*
X119534278Y-120331747D01*
X119444342Y-120379819D01*
X119365512Y-120444512D01*
X119300819Y-120523342D01*
X119252747Y-120613278D01*
X119223145Y-120710864D01*
X119213149Y-120812350D01*
X119213149Y-121249850D01*
X119223145Y-121351336D01*
X119252747Y-121448922D01*
X119300819Y-121538858D01*
X119365512Y-121617688D01*
X119444342Y-121682381D01*
X119534278Y-121730453D01*
X119631864Y-121760055D01*
X119733350Y-121770051D01*
X120245850Y-121770051D01*
X120347336Y-121760055D01*
X120444922Y-121730453D01*
X120534858Y-121682381D01*
X120613688Y-121617688D01*
X120678381Y-121538858D01*
X120726453Y-121448922D01*
X120731859Y-121431100D01*
X121316867Y-121431100D01*
X121371076Y-121475589D01*
X121448694Y-121517077D01*
X121532914Y-121542625D01*
X121620500Y-121551251D01*
X121965500Y-121551251D01*
X122053086Y-121542625D01*
X122137306Y-121517077D01*
X122214924Y-121475589D01*
X122282956Y-121419756D01*
X122338789Y-121351724D01*
X122380277Y-121274106D01*
X122405825Y-121189886D01*
X122414451Y-121102300D01*
X122414451Y-120807300D01*
X122405825Y-120719714D01*
X122380277Y-120635494D01*
X122338789Y-120557876D01*
X122282956Y-120489844D01*
X122258533Y-120469800D01*
X122282956Y-120449756D01*
X122338789Y-120381724D01*
X122380277Y-120304106D01*
X122405825Y-120219886D01*
X122414451Y-120132300D01*
X122414451Y-119837300D01*
X122408622Y-119778105D01*
X124063200Y-119778105D01*
X124063200Y-119896295D01*
X124086258Y-120012214D01*
X124131487Y-120121407D01*
X124197150Y-120219678D01*
X124280722Y-120303250D01*
X124378993Y-120368913D01*
X124488186Y-120414142D01*
X124604105Y-120437200D01*
X124697515Y-120437200D01*
X125774501Y-121514187D01*
X125774500Y-122873549D01*
X125374500Y-122873549D01*
X125315690Y-122879341D01*
X125259140Y-122896496D01*
X125207023Y-122924353D01*
X125161342Y-122961842D01*
X125123853Y-123007523D01*
X125095996Y-123059640D01*
X125078841Y-123116190D01*
X125073049Y-123175000D01*
X125073049Y-124475000D01*
X125078841Y-124533810D01*
X125095996Y-124590360D01*
X125123853Y-124642477D01*
X125161342Y-124688158D01*
X125207023Y-124725647D01*
X125259140Y-124753504D01*
X125315690Y-124770659D01*
X125374500Y-124776451D01*
X126974500Y-124776451D01*
X127033310Y-124770659D01*
X127089860Y-124753504D01*
X127141977Y-124725647D01*
X127187658Y-124688158D01*
X127225147Y-124642477D01*
X127253004Y-124590360D01*
X127254338Y-124585961D01*
X136296000Y-124585961D01*
X136296000Y-124842039D01*
X136345958Y-125093196D01*
X136443955Y-125329781D01*
X136586224Y-125542702D01*
X136767298Y-125723776D01*
X136980219Y-125866045D01*
X137216804Y-125964042D01*
X137467961Y-126014000D01*
X137724039Y-126014000D01*
X137975196Y-125964042D01*
X138211781Y-125866045D01*
X138424702Y-125723776D01*
X138605776Y-125542702D01*
X138748045Y-125329781D01*
X138846042Y-125093196D01*
X138896000Y-124842039D01*
X138896000Y-124745810D01*
X140196000Y-124745810D01*
X140196000Y-124982190D01*
X140242116Y-125214027D01*
X140332574Y-125432413D01*
X140463899Y-125628955D01*
X140631045Y-125796101D01*
X140827587Y-125927426D01*
X141045973Y-126017884D01*
X141277810Y-126064000D01*
X141514190Y-126064000D01*
X141746027Y-126017884D01*
X141964413Y-125927426D01*
X142160955Y-125796101D01*
X142328101Y-125628955D01*
X142459426Y-125432413D01*
X142549884Y-125214027D01*
X142596000Y-124982190D01*
X142596000Y-124745810D01*
X142549884Y-124513973D01*
X142459426Y-124295587D01*
X142328101Y-124099045D01*
X142160955Y-123931899D01*
X141964413Y-123800574D01*
X141746027Y-123710116D01*
X141514190Y-123664000D01*
X141277810Y-123664000D01*
X141045973Y-123710116D01*
X140827587Y-123800574D01*
X140631045Y-123931899D01*
X140463899Y-124099045D01*
X140332574Y-124295587D01*
X140242116Y-124513973D01*
X140196000Y-124745810D01*
X138896000Y-124745810D01*
X138896000Y-124585961D01*
X138846042Y-124334804D01*
X138780266Y-124176006D01*
X138850182Y-124162099D01*
X138977574Y-124109332D01*
X139092224Y-124032726D01*
X139189726Y-123935224D01*
X139266332Y-123820574D01*
X139319099Y-123693182D01*
X139346000Y-123557944D01*
X139346000Y-123420056D01*
X139319099Y-123284818D01*
X139266332Y-123157426D01*
X139189726Y-123042776D01*
X139092224Y-122945274D01*
X138977574Y-122868668D01*
X138850182Y-122815901D01*
X138714944Y-122789000D01*
X138577056Y-122789000D01*
X138441818Y-122815901D01*
X138314426Y-122868668D01*
X138199776Y-122945274D01*
X138102274Y-123042776D01*
X138025668Y-123157426D01*
X137972901Y-123284818D01*
X137946000Y-123420056D01*
X137946000Y-123458151D01*
X137724039Y-123414000D01*
X137467961Y-123414000D01*
X137216804Y-123463958D01*
X136980219Y-123561955D01*
X136767298Y-123704224D01*
X136586224Y-123885298D01*
X136443955Y-124098219D01*
X136345958Y-124334804D01*
X136296000Y-124585961D01*
X127254338Y-124585961D01*
X127270159Y-124533810D01*
X127275951Y-124475000D01*
X127275951Y-123175000D01*
X127270159Y-123116190D01*
X127253004Y-123059640D01*
X127225147Y-123007523D01*
X127187658Y-122961842D01*
X127141977Y-122924353D01*
X127089860Y-122896496D01*
X127033310Y-122879341D01*
X126974500Y-122873549D01*
X126574500Y-122873549D01*
X126574500Y-121368146D01*
X126576435Y-121348500D01*
X126568712Y-121270086D01*
X126563954Y-121254402D01*
X126545840Y-121194686D01*
X126508697Y-121125197D01*
X126495826Y-121109514D01*
X126471235Y-121079549D01*
X126471233Y-121079547D01*
X126458711Y-121064289D01*
X126443453Y-121051767D01*
X125263200Y-119871515D01*
X125263200Y-119778105D01*
X125240142Y-119662186D01*
X125194913Y-119552993D01*
X125129250Y-119454722D01*
X125045678Y-119371150D01*
X124947407Y-119305487D01*
X124838214Y-119260258D01*
X124722295Y-119237200D01*
X124604105Y-119237200D01*
X124488186Y-119260258D01*
X124378993Y-119305487D01*
X124280722Y-119371150D01*
X124197150Y-119454722D01*
X124131487Y-119552993D01*
X124086258Y-119662186D01*
X124063200Y-119778105D01*
X122408622Y-119778105D01*
X122405825Y-119749714D01*
X122393000Y-119707436D01*
X122393000Y-118958463D01*
X136336435Y-118890995D01*
X136412536Y-118883314D01*
X136487573Y-118860552D01*
X136556728Y-118823588D01*
X136617343Y-118773843D01*
X136667088Y-118713228D01*
X136704052Y-118644073D01*
X136726814Y-118569036D01*
X136734500Y-118491000D01*
X136734500Y-118240978D01*
X136767298Y-118273776D01*
X136980219Y-118416045D01*
X137216804Y-118514042D01*
X137467961Y-118564000D01*
X137724039Y-118564000D01*
X137946000Y-118519849D01*
X137946000Y-118557944D01*
X137972901Y-118693182D01*
X138025668Y-118820574D01*
X138102274Y-118935224D01*
X138199776Y-119032726D01*
X138314426Y-119109332D01*
X138441818Y-119162099D01*
X138577056Y-119189000D01*
X138714944Y-119189000D01*
X138850182Y-119162099D01*
X138977574Y-119109332D01*
X139092224Y-119032726D01*
X139189726Y-118935224D01*
X139266332Y-118820574D01*
X139319099Y-118693182D01*
X139346000Y-118557944D01*
X139346000Y-118420056D01*
X139319099Y-118284818D01*
X139266332Y-118157426D01*
X139189726Y-118042776D01*
X139092224Y-117945274D01*
X138977574Y-117868668D01*
X138850182Y-117815901D01*
X138780266Y-117801994D01*
X138846042Y-117643196D01*
X138896000Y-117392039D01*
X138896000Y-117135961D01*
X138868123Y-116995810D01*
X140196000Y-116995810D01*
X140196000Y-117232190D01*
X140242116Y-117464027D01*
X140332574Y-117682413D01*
X140463899Y-117878955D01*
X140631045Y-118046101D01*
X140827587Y-118177426D01*
X141045973Y-118267884D01*
X141277810Y-118314000D01*
X141514190Y-118314000D01*
X141746027Y-118267884D01*
X141964413Y-118177426D01*
X142160955Y-118046101D01*
X142328101Y-117878955D01*
X142459426Y-117682413D01*
X142549884Y-117464027D01*
X142596000Y-117232190D01*
X142596000Y-116995810D01*
X142549884Y-116763973D01*
X142459426Y-116545587D01*
X142328101Y-116349045D01*
X142160955Y-116181899D01*
X141964413Y-116050574D01*
X141746027Y-115960116D01*
X141514190Y-115914000D01*
X141277810Y-115914000D01*
X141045973Y-115960116D01*
X140827587Y-116050574D01*
X140631045Y-116181899D01*
X140463899Y-116349045D01*
X140332574Y-116545587D01*
X140242116Y-116763973D01*
X140196000Y-116995810D01*
X138868123Y-116995810D01*
X138846042Y-116884804D01*
X138748045Y-116648219D01*
X138605776Y-116435298D01*
X138424702Y-116254224D01*
X138211781Y-116111955D01*
X137975196Y-116013958D01*
X137724039Y-115964000D01*
X137467961Y-115964000D01*
X137216804Y-116013958D01*
X136980219Y-116111955D01*
X136767298Y-116254224D01*
X136734500Y-116287022D01*
X136734500Y-111764028D01*
X137207819Y-111290709D01*
X137230717Y-111271917D01*
X137305696Y-111180555D01*
X137361410Y-111076321D01*
X137395718Y-110963221D01*
X137404400Y-110875074D01*
X137407303Y-110845601D01*
X137404400Y-110816127D01*
X137404400Y-107522273D01*
X137407303Y-107492799D01*
X137395718Y-107375179D01*
X137380393Y-107324660D01*
X137361410Y-107262079D01*
X137305696Y-107157845D01*
X137230717Y-107066483D01*
X137207820Y-107047692D01*
X136390714Y-106230587D01*
X136371918Y-106207684D01*
X136280556Y-106132705D01*
X136176322Y-106076991D01*
X136063222Y-106042683D01*
X135975075Y-106034001D01*
X135945601Y-106031098D01*
X135916127Y-106034001D01*
X135508273Y-106034001D01*
X135478799Y-106031098D01*
X135449325Y-106034001D01*
X135361178Y-106042683D01*
X135248078Y-106076991D01*
X135143844Y-106132705D01*
X135052482Y-106207684D01*
X135033686Y-106230587D01*
X134796325Y-106467948D01*
X134796322Y-106467950D01*
X134712750Y-106551522D01*
X134696289Y-106576158D01*
X134677505Y-106599046D01*
X134663548Y-106625157D01*
X134647087Y-106649793D01*
X134635749Y-106677166D01*
X134621791Y-106703279D01*
X134613195Y-106731616D01*
X134601858Y-106758986D01*
X134596078Y-106788042D01*
X134587482Y-106816380D01*
X134584579Y-106845851D01*
X134578800Y-106874905D01*
X134578800Y-106904526D01*
X134575897Y-106934000D01*
X134578800Y-106963474D01*
X134578800Y-106993095D01*
X134584579Y-107022149D01*
X134587482Y-107051620D01*
X134596078Y-107079958D01*
X134601858Y-107109014D01*
X134613195Y-107136384D01*
X134621791Y-107164721D01*
X134635749Y-107190834D01*
X134647087Y-107218207D01*
X134663548Y-107242843D01*
X134677505Y-107268954D01*
X134696288Y-107291841D01*
X134712750Y-107316478D01*
X134733701Y-107337429D01*
X134752484Y-107360316D01*
X134775371Y-107379099D01*
X134796322Y-107400050D01*
X134820959Y-107416512D01*
X134843846Y-107435295D01*
X134869957Y-107449252D01*
X134894593Y-107465713D01*
X134921966Y-107477051D01*
X134948079Y-107491009D01*
X134976416Y-107499605D01*
X135003786Y-107510942D01*
X135032842Y-107516722D01*
X135061180Y-107525318D01*
X135090651Y-107528221D01*
X135119705Y-107534000D01*
X135149326Y-107534000D01*
X135178800Y-107536903D01*
X135208274Y-107534000D01*
X135237895Y-107534000D01*
X135266949Y-107528221D01*
X135296420Y-107525318D01*
X135324758Y-107516722D01*
X135353814Y-107510942D01*
X135381184Y-107499605D01*
X135409521Y-107491009D01*
X135435634Y-107477051D01*
X135463007Y-107465713D01*
X135487643Y-107449252D01*
X135513754Y-107435295D01*
X135536642Y-107416511D01*
X135561278Y-107400050D01*
X135644850Y-107316478D01*
X135644852Y-107316475D01*
X135712200Y-107249127D01*
X136204400Y-107741328D01*
X136204400Y-108387524D01*
X136197537Y-108353020D01*
X136137586Y-108208284D01*
X136050550Y-108078026D01*
X135939774Y-107967250D01*
X135809516Y-107880214D01*
X135664780Y-107820263D01*
X135511130Y-107789700D01*
X135354470Y-107789700D01*
X135200820Y-107820263D01*
X135056084Y-107880214D01*
X134925826Y-107967250D01*
X134815050Y-108078026D01*
X134728014Y-108208284D01*
X134668063Y-108353020D01*
X134637500Y-108506670D01*
X134637500Y-108663330D01*
X134668063Y-108816980D01*
X134728014Y-108961716D01*
X134815050Y-109091974D01*
X134925826Y-109202750D01*
X135056084Y-109289786D01*
X135200820Y-109349737D01*
X135354470Y-109380300D01*
X135511130Y-109380300D01*
X135664780Y-109349737D01*
X135809516Y-109289786D01*
X135939774Y-109202750D01*
X136050550Y-109091974D01*
X136137586Y-108961716D01*
X136197537Y-108816980D01*
X136204400Y-108782476D01*
X136204401Y-110597071D01*
X135631973Y-111169500D01*
X111902800Y-111169500D01*
X111902800Y-98292556D01*
X114044500Y-98292556D01*
X114044500Y-98430444D01*
X114071401Y-98565682D01*
X114124168Y-98693074D01*
X114200774Y-98807724D01*
X114298276Y-98905226D01*
X114412926Y-98981832D01*
X114540318Y-99034599D01*
X114576211Y-99041739D01*
X115668501Y-100134030D01*
X115668500Y-108906905D01*
X115668500Y-109025095D01*
X115674279Y-109054149D01*
X115677182Y-109083620D01*
X115685779Y-109111960D01*
X115691558Y-109141014D01*
X115702893Y-109168380D01*
X115711490Y-109196720D01*
X115725451Y-109222839D01*
X115736787Y-109250207D01*
X115753244Y-109274836D01*
X115767204Y-109300954D01*
X115785994Y-109323849D01*
X115802450Y-109348478D01*
X115823392Y-109369420D01*
X115842183Y-109392317D01*
X115865081Y-109411109D01*
X115886022Y-109432050D01*
X115910647Y-109448504D01*
X115933545Y-109467296D01*
X115959668Y-109481259D01*
X115984293Y-109497713D01*
X116011656Y-109509047D01*
X116037779Y-109523010D01*
X116066123Y-109531608D01*
X116093486Y-109542942D01*
X116122537Y-109548721D01*
X116150879Y-109557318D01*
X116180352Y-109560221D01*
X116209405Y-109566000D01*
X116239026Y-109566000D01*
X116268500Y-109568903D01*
X116297974Y-109566000D01*
X116327595Y-109566000D01*
X116356649Y-109560221D01*
X116386120Y-109557318D01*
X116414460Y-109548721D01*
X116443514Y-109542942D01*
X116470880Y-109531607D01*
X116499220Y-109523010D01*
X116499856Y-109522670D01*
X129557500Y-109522670D01*
X129557500Y-109679330D01*
X129588063Y-109832980D01*
X129648014Y-109977716D01*
X129735050Y-110107974D01*
X129845826Y-110218750D01*
X129976084Y-110305786D01*
X130120820Y-110365737D01*
X130274470Y-110396300D01*
X130431130Y-110396300D01*
X130584780Y-110365737D01*
X130729516Y-110305786D01*
X130859774Y-110218750D01*
X130970550Y-110107974D01*
X131057586Y-109977716D01*
X131117537Y-109832980D01*
X131148100Y-109679330D01*
X131148100Y-109522670D01*
X131117537Y-109369020D01*
X131057586Y-109224284D01*
X130970550Y-109094026D01*
X130859774Y-108983250D01*
X130729516Y-108896214D01*
X130584780Y-108836263D01*
X130431130Y-108805700D01*
X130274470Y-108805700D01*
X130120820Y-108836263D01*
X129976084Y-108896214D01*
X129845826Y-108983250D01*
X129735050Y-109094026D01*
X129648014Y-109224284D01*
X129588063Y-109369020D01*
X129557500Y-109522670D01*
X116499856Y-109522670D01*
X116525339Y-109509049D01*
X116552707Y-109497713D01*
X116577336Y-109481256D01*
X116603454Y-109467296D01*
X116626349Y-109448506D01*
X116650978Y-109432050D01*
X116671920Y-109411108D01*
X116694817Y-109392317D01*
X116713609Y-109369419D01*
X116734550Y-109348478D01*
X116751004Y-109323853D01*
X116769796Y-109300955D01*
X116783759Y-109274832D01*
X116800213Y-109250207D01*
X116811547Y-109222844D01*
X116825510Y-109196721D01*
X116834108Y-109168377D01*
X116845442Y-109141014D01*
X116851221Y-109111963D01*
X116859818Y-109083621D01*
X116862721Y-109054148D01*
X116868500Y-109025095D01*
X116868500Y-107636905D01*
X124012400Y-107636905D01*
X124012400Y-107755095D01*
X124035458Y-107871014D01*
X124080687Y-107980207D01*
X124146350Y-108078478D01*
X124229922Y-108162050D01*
X124328193Y-108227713D01*
X124437386Y-108272942D01*
X124553305Y-108296000D01*
X124671495Y-108296000D01*
X124787414Y-108272942D01*
X124896607Y-108227713D01*
X124994878Y-108162050D01*
X125060928Y-108096000D01*
X125151554Y-108096000D01*
X125171200Y-108097935D01*
X125190846Y-108096000D01*
X125190847Y-108096000D01*
X125249614Y-108090212D01*
X125325014Y-108067340D01*
X125394503Y-108030197D01*
X125455411Y-107980211D01*
X125467937Y-107964948D01*
X125942215Y-107490670D01*
X129557500Y-107490670D01*
X129557500Y-107647330D01*
X129588063Y-107800980D01*
X129648014Y-107945716D01*
X129735050Y-108075974D01*
X129845826Y-108186750D01*
X129976084Y-108273786D01*
X130120820Y-108333737D01*
X130274470Y-108364300D01*
X130431130Y-108364300D01*
X130584780Y-108333737D01*
X130729516Y-108273786D01*
X130859774Y-108186750D01*
X130970550Y-108075974D01*
X131057586Y-107945716D01*
X131117537Y-107800980D01*
X131148100Y-107647330D01*
X131148100Y-107490670D01*
X131117537Y-107337020D01*
X131057586Y-107192284D01*
X130970550Y-107062026D01*
X130859774Y-106951250D01*
X130729516Y-106864214D01*
X130584780Y-106804263D01*
X130431130Y-106773700D01*
X130274470Y-106773700D01*
X130120820Y-106804263D01*
X129976084Y-106864214D01*
X129845826Y-106951250D01*
X129735050Y-107062026D01*
X129648014Y-107192284D01*
X129588063Y-107337020D01*
X129557500Y-107490670D01*
X125942215Y-107490670D01*
X126305285Y-107127600D01*
X126398695Y-107127600D01*
X126514614Y-107104542D01*
X126623807Y-107059313D01*
X126722078Y-106993650D01*
X126805650Y-106910078D01*
X126871313Y-106811807D01*
X126916542Y-106702614D01*
X126939600Y-106586695D01*
X126939600Y-106468505D01*
X126916542Y-106352586D01*
X126871313Y-106243393D01*
X126805650Y-106145122D01*
X126722078Y-106061550D01*
X126623807Y-105995887D01*
X126514614Y-105950658D01*
X126398695Y-105927600D01*
X126280505Y-105927600D01*
X126164586Y-105950658D01*
X126055393Y-105995887D01*
X125957122Y-106061550D01*
X125873550Y-106145122D01*
X125807887Y-106243393D01*
X125762658Y-106352586D01*
X125739600Y-106468505D01*
X125739600Y-106561915D01*
X125033222Y-107268294D01*
X124994878Y-107229950D01*
X124896607Y-107164287D01*
X124787414Y-107119058D01*
X124671495Y-107096000D01*
X124553305Y-107096000D01*
X124437386Y-107119058D01*
X124328193Y-107164287D01*
X124229922Y-107229950D01*
X124146350Y-107313522D01*
X124080687Y-107411793D01*
X124035458Y-107520986D01*
X124012400Y-107636905D01*
X116868500Y-107636905D01*
X116868500Y-99914965D01*
X116871402Y-99885499D01*
X116868500Y-99856033D01*
X116868500Y-99856026D01*
X116859818Y-99767879D01*
X116825510Y-99654779D01*
X116769796Y-99550545D01*
X116694817Y-99459183D01*
X116671925Y-99440396D01*
X116193028Y-98961500D01*
X121954026Y-98961500D01*
X121983500Y-98964403D01*
X122012974Y-98961500D01*
X122101121Y-98952818D01*
X122214221Y-98918510D01*
X122318455Y-98862796D01*
X122409817Y-98787817D01*
X122428613Y-98764914D01*
X122913789Y-98279739D01*
X122949682Y-98272599D01*
X123077074Y-98219832D01*
X123191724Y-98143226D01*
X123289226Y-98045724D01*
X123365832Y-97931074D01*
X123418599Y-97803682D01*
X123445500Y-97668444D01*
X123445500Y-97530556D01*
X123418599Y-97395318D01*
X123365832Y-97267926D01*
X123289226Y-97153276D01*
X123191724Y-97055774D01*
X123077074Y-96979168D01*
X122949682Y-96926401D01*
X122814444Y-96899500D01*
X122676556Y-96899500D01*
X122541318Y-96926401D01*
X122413926Y-96979168D01*
X122299276Y-97055774D01*
X122201774Y-97153276D01*
X122125168Y-97267926D01*
X122072401Y-97395318D01*
X122065261Y-97431211D01*
X121734973Y-97761500D01*
X115106503Y-97761500D01*
X115076074Y-97741168D01*
X114948682Y-97688401D01*
X114813444Y-97661500D01*
X114675556Y-97661500D01*
X114540318Y-97688401D01*
X114412926Y-97741168D01*
X114298276Y-97817774D01*
X114200774Y-97915276D01*
X114124168Y-98029926D01*
X114071401Y-98157318D01*
X114044500Y-98292556D01*
X111902800Y-98292556D01*
X111902800Y-91643327D01*
X113118891Y-92859419D01*
X113137683Y-92882317D01*
X113229045Y-92957296D01*
X113333277Y-93013009D01*
X113333279Y-93013010D01*
X113446379Y-93047318D01*
X113564000Y-93058903D01*
X113593474Y-93056000D01*
X117556186Y-93056000D01*
X117585660Y-93058903D01*
X117615134Y-93056000D01*
X117703281Y-93047318D01*
X117816381Y-93013010D01*
X117920615Y-92957296D01*
X118011977Y-92882317D01*
X118030773Y-92859414D01*
X119197919Y-91692269D01*
X119220817Y-91673477D01*
X119295796Y-91582115D01*
X119351510Y-91477881D01*
X119385818Y-91364781D01*
X119394500Y-91276634D01*
X119397403Y-91247160D01*
X119394500Y-91217686D01*
X119394500Y-91145869D01*
X120552920Y-91145869D01*
X120622138Y-91373927D01*
X120866713Y-91482282D01*
X121127727Y-91540841D01*
X121395150Y-91547353D01*
X121658705Y-91501569D01*
X121908264Y-91405247D01*
X121966862Y-91373927D01*
X122036080Y-91145869D01*
X121294500Y-90404289D01*
X120552920Y-91145869D01*
X119394500Y-91145869D01*
X119394500Y-91048418D01*
X119463836Y-91002089D01*
X119610089Y-90855836D01*
X119724998Y-90683862D01*
X119804150Y-90492774D01*
X119844500Y-90289916D01*
X119844500Y-90287150D01*
X119933647Y-90287150D01*
X119979431Y-90550705D01*
X120075753Y-90800264D01*
X120107073Y-90858862D01*
X120335131Y-90928080D01*
X121076711Y-90186500D01*
X121512289Y-90186500D01*
X122253869Y-90928080D01*
X122481927Y-90858862D01*
X122590282Y-90614287D01*
X122648841Y-90353273D01*
X122655353Y-90085850D01*
X122609569Y-89822295D01*
X122513247Y-89572736D01*
X122481927Y-89514138D01*
X122253869Y-89444920D01*
X121512289Y-90186500D01*
X121076711Y-90186500D01*
X120335131Y-89444920D01*
X120107073Y-89514138D01*
X119998718Y-89758713D01*
X119940159Y-90019727D01*
X119933647Y-90287150D01*
X119844500Y-90287150D01*
X119844500Y-90083084D01*
X119804150Y-89880226D01*
X119724998Y-89689138D01*
X119610089Y-89517164D01*
X119463836Y-89370911D01*
X119291862Y-89256002D01*
X119100774Y-89176850D01*
X118897916Y-89136500D01*
X118691084Y-89136500D01*
X118488226Y-89176850D01*
X118297138Y-89256002D01*
X118125164Y-89370911D01*
X117978911Y-89517164D01*
X117864002Y-89689138D01*
X117784850Y-89880226D01*
X117744500Y-90083084D01*
X117744500Y-90289916D01*
X117784850Y-90492774D01*
X117864002Y-90683862D01*
X117978911Y-90855836D01*
X118125164Y-91002089D01*
X118164656Y-91028476D01*
X117337133Y-91856000D01*
X113812528Y-91856000D01*
X112328232Y-90371704D01*
X112344500Y-90289916D01*
X112344500Y-90083084D01*
X112744500Y-90083084D01*
X112744500Y-90289916D01*
X112784850Y-90492774D01*
X112864002Y-90683862D01*
X112978911Y-90855836D01*
X113125164Y-91002089D01*
X113297138Y-91116998D01*
X113488226Y-91196150D01*
X113691084Y-91236500D01*
X113897916Y-91236500D01*
X114100774Y-91196150D01*
X114291862Y-91116998D01*
X114463836Y-91002089D01*
X114610089Y-90855836D01*
X114724998Y-90683862D01*
X114804150Y-90492774D01*
X114844500Y-90289916D01*
X114844500Y-90083084D01*
X115244500Y-90083084D01*
X115244500Y-90289916D01*
X115284850Y-90492774D01*
X115364002Y-90683862D01*
X115478911Y-90855836D01*
X115625164Y-91002089D01*
X115797138Y-91116998D01*
X115988226Y-91196150D01*
X116191084Y-91236500D01*
X116397916Y-91236500D01*
X116600774Y-91196150D01*
X116791862Y-91116998D01*
X116963836Y-91002089D01*
X117110089Y-90855836D01*
X117224998Y-90683862D01*
X117304150Y-90492774D01*
X117344500Y-90289916D01*
X117344500Y-90083084D01*
X117304150Y-89880226D01*
X117224998Y-89689138D01*
X117110089Y-89517164D01*
X116963836Y-89370911D01*
X116791862Y-89256002D01*
X116600774Y-89176850D01*
X116397916Y-89136500D01*
X116191084Y-89136500D01*
X115988226Y-89176850D01*
X115797138Y-89256002D01*
X115625164Y-89370911D01*
X115478911Y-89517164D01*
X115364002Y-89689138D01*
X115284850Y-89880226D01*
X115244500Y-90083084D01*
X114844500Y-90083084D01*
X114804150Y-89880226D01*
X114724998Y-89689138D01*
X114610089Y-89517164D01*
X114463836Y-89370911D01*
X114291862Y-89256002D01*
X114100774Y-89176850D01*
X113897916Y-89136500D01*
X113691084Y-89136500D01*
X113488226Y-89176850D01*
X113297138Y-89256002D01*
X113125164Y-89370911D01*
X112978911Y-89517164D01*
X112864002Y-89689138D01*
X112784850Y-89880226D01*
X112744500Y-90083084D01*
X112344500Y-90083084D01*
X112304150Y-89880226D01*
X112224998Y-89689138D01*
X112110089Y-89517164D01*
X111963836Y-89370911D01*
X111791862Y-89256002D01*
X111600774Y-89176850D01*
X111397916Y-89136500D01*
X111191084Y-89136500D01*
X110988226Y-89176850D01*
X110797138Y-89256002D01*
X110625164Y-89370911D01*
X110478911Y-89517164D01*
X110364002Y-89689138D01*
X110284850Y-89880226D01*
X110244500Y-90083084D01*
X110244500Y-90289916D01*
X110284850Y-90492774D01*
X110364002Y-90683862D01*
X110478911Y-90855836D01*
X110625164Y-91002089D01*
X110694501Y-91048418D01*
X110694501Y-91217677D01*
X110691597Y-91247160D01*
X110702800Y-91360902D01*
X110702801Y-111169500D01*
X110124800Y-111169500D01*
X110124800Y-108144905D01*
X110119021Y-108115852D01*
X110116118Y-108086379D01*
X110107521Y-108058037D01*
X110101742Y-108028986D01*
X110090408Y-108001623D01*
X110081810Y-107973279D01*
X110067847Y-107947156D01*
X110056513Y-107919793D01*
X110040059Y-107895168D01*
X110026096Y-107869045D01*
X110007304Y-107846147D01*
X109990850Y-107821522D01*
X109969909Y-107800581D01*
X109951117Y-107777683D01*
X109928220Y-107758892D01*
X109907278Y-107737950D01*
X109882649Y-107721494D01*
X109859754Y-107702704D01*
X109833636Y-107688744D01*
X109809007Y-107672287D01*
X109781639Y-107660951D01*
X109755520Y-107646990D01*
X109727180Y-107638393D01*
X109699814Y-107627058D01*
X109670760Y-107621279D01*
X109642420Y-107612682D01*
X109612949Y-107609779D01*
X109583895Y-107604000D01*
X109554274Y-107604000D01*
X109524800Y-107601097D01*
X109495326Y-107604000D01*
X109465705Y-107604000D01*
X109436652Y-107609779D01*
X109407179Y-107612682D01*
X109378837Y-107621279D01*
X109349786Y-107627058D01*
X109322423Y-107638392D01*
X109294079Y-107646990D01*
X109267956Y-107660953D01*
X109240593Y-107672287D01*
X109215968Y-107688741D01*
X109189845Y-107702704D01*
X109166947Y-107721496D01*
X109142322Y-107737950D01*
X109121381Y-107758891D01*
X109098483Y-107777683D01*
X109079692Y-107800580D01*
X109058750Y-107821522D01*
X109042294Y-107846151D01*
X109023504Y-107869046D01*
X109009544Y-107895164D01*
X108993087Y-107919793D01*
X108981751Y-107947161D01*
X108967790Y-107973280D01*
X108959193Y-108001620D01*
X108947858Y-108028986D01*
X108942079Y-108058040D01*
X108933482Y-108086380D01*
X108930579Y-108115851D01*
X108924800Y-108144905D01*
X108924800Y-108174527D01*
X108924801Y-111169500D01*
X108245200Y-111169500D01*
X108245200Y-103674505D01*
X108239421Y-103645452D01*
X108236518Y-103615979D01*
X108227921Y-103587637D01*
X108222142Y-103558586D01*
X108210808Y-103531223D01*
X108202210Y-103502879D01*
X108188247Y-103476756D01*
X108176913Y-103449393D01*
X108160459Y-103424768D01*
X108146496Y-103398645D01*
X108127704Y-103375747D01*
X108111250Y-103351122D01*
X108090309Y-103330181D01*
X108071517Y-103307283D01*
X108048620Y-103288492D01*
X108027678Y-103267550D01*
X108003049Y-103251094D01*
X107980154Y-103232304D01*
X107954036Y-103218344D01*
X107929407Y-103201887D01*
X107902039Y-103190551D01*
X107875920Y-103176590D01*
X107847580Y-103167993D01*
X107820214Y-103156658D01*
X107791160Y-103150879D01*
X107762820Y-103142282D01*
X107733349Y-103139379D01*
X107704295Y-103133600D01*
X107674674Y-103133600D01*
X107645200Y-103130697D01*
X107615726Y-103133600D01*
X107586105Y-103133600D01*
X107557052Y-103139379D01*
X107527579Y-103142282D01*
X107499237Y-103150879D01*
X107470186Y-103156658D01*
X107442823Y-103167992D01*
X107414479Y-103176590D01*
X107388356Y-103190553D01*
X107360993Y-103201887D01*
X107336368Y-103218341D01*
X107310245Y-103232304D01*
X107287347Y-103251096D01*
X107262722Y-103267550D01*
X107241781Y-103288491D01*
X107218883Y-103307283D01*
X107200092Y-103330180D01*
X107179150Y-103351122D01*
X107162694Y-103375751D01*
X107143904Y-103398646D01*
X107129944Y-103424764D01*
X107113487Y-103449393D01*
X107102151Y-103476761D01*
X107088190Y-103502880D01*
X107079593Y-103531220D01*
X107068258Y-103558586D01*
X107062479Y-103587640D01*
X107053882Y-103615980D01*
X107050979Y-103645451D01*
X107045200Y-103674505D01*
X107045200Y-103704127D01*
X107045201Y-111169500D01*
X99914000Y-111169500D01*
X99914000Y-109872105D01*
X99908221Y-109843052D01*
X99905318Y-109813579D01*
X99896721Y-109785237D01*
X99890942Y-109756186D01*
X99879608Y-109728823D01*
X99871010Y-109700479D01*
X99857047Y-109674356D01*
X99845713Y-109646993D01*
X99829259Y-109622368D01*
X99815296Y-109596245D01*
X99796504Y-109573347D01*
X99780050Y-109548722D01*
X99759109Y-109527781D01*
X99740317Y-109504883D01*
X99717420Y-109486092D01*
X99696478Y-109465150D01*
X99671849Y-109448694D01*
X99648954Y-109429904D01*
X99622836Y-109415944D01*
X99598207Y-109399487D01*
X99570839Y-109388151D01*
X99544720Y-109374190D01*
X99516380Y-109365593D01*
X99489014Y-109354258D01*
X99459960Y-109348479D01*
X99431620Y-109339882D01*
X99402149Y-109336979D01*
X99373095Y-109331200D01*
X99343474Y-109331200D01*
X99314000Y-109328297D01*
X99284526Y-109331200D01*
X99254905Y-109331200D01*
X99225852Y-109336979D01*
X99196379Y-109339882D01*
X99168037Y-109348479D01*
X99138986Y-109354258D01*
X99111623Y-109365592D01*
X99083279Y-109374190D01*
X99057156Y-109388153D01*
X99029793Y-109399487D01*
X99005168Y-109415941D01*
X98979045Y-109429904D01*
X98956147Y-109448696D01*
X98931522Y-109465150D01*
X98910581Y-109486091D01*
X98887683Y-109504883D01*
X98868892Y-109527780D01*
X98847950Y-109548722D01*
X98831494Y-109573351D01*
X98812704Y-109596246D01*
X98798744Y-109622364D01*
X98782287Y-109646993D01*
X98770951Y-109674361D01*
X98756990Y-109700480D01*
X98748393Y-109728820D01*
X98737058Y-109756186D01*
X98731279Y-109785240D01*
X98722682Y-109813580D01*
X98719779Y-109843051D01*
X98714000Y-109872105D01*
X98714000Y-109901727D01*
X98714001Y-111169500D01*
X97028000Y-111169500D01*
X96953470Y-111176505D01*
X96878232Y-111198596D01*
X96808750Y-111234941D01*
X96747694Y-111284143D01*
X96697410Y-111344311D01*
X96659830Y-111413133D01*
X96636398Y-111487964D01*
X96628016Y-111565929D01*
X96564516Y-118677929D01*
X87261779Y-118677929D01*
X87255997Y-118673184D01*
X87056215Y-118566398D01*
X87010362Y-118552489D01*
X87464000Y-118554942D01*
X87583189Y-118543203D01*
X87697797Y-118508437D01*
X87803421Y-118451980D01*
X87896001Y-118376001D01*
X87971980Y-118283421D01*
X88028437Y-118177797D01*
X88063203Y-118063189D01*
X88074942Y-117944000D01*
X88072000Y-117400000D01*
X87920000Y-117248000D01*
X86768000Y-117248000D01*
X86768000Y-117268000D01*
X86460000Y-117268000D01*
X86460000Y-117248000D01*
X85308000Y-117248000D01*
X85156000Y-117400000D01*
X85153058Y-117944000D01*
X84030028Y-117944000D01*
X84034717Y-116244000D01*
X85153058Y-116244000D01*
X85156000Y-116788000D01*
X85308000Y-116940000D01*
X86460000Y-116940000D01*
X86460000Y-115788000D01*
X86768000Y-115788000D01*
X86768000Y-116940000D01*
X87920000Y-116940000D01*
X88072000Y-116788000D01*
X88074942Y-116244000D01*
X88063203Y-116124811D01*
X88028437Y-116010203D01*
X87971980Y-115904579D01*
X87896001Y-115811999D01*
X87803421Y-115736020D01*
X87697797Y-115679563D01*
X87583189Y-115644797D01*
X87464000Y-115633058D01*
X86920000Y-115636000D01*
X86768000Y-115788000D01*
X86460000Y-115788000D01*
X86308000Y-115636000D01*
X85764000Y-115633058D01*
X85644811Y-115644797D01*
X85530203Y-115679563D01*
X85424579Y-115736020D01*
X85331999Y-115811999D01*
X85256020Y-115904579D01*
X85199563Y-116010203D01*
X85164797Y-116124811D01*
X85153058Y-116244000D01*
X84034717Y-116244000D01*
X84061882Y-106396538D01*
X87553200Y-106396538D01*
X87553200Y-106701862D01*
X87612765Y-107001318D01*
X87729608Y-107283400D01*
X87899236Y-107537268D01*
X88115132Y-107753164D01*
X88369000Y-107922792D01*
X88651082Y-108039635D01*
X88950538Y-108099200D01*
X89255862Y-108099200D01*
X89555318Y-108039635D01*
X89837400Y-107922792D01*
X90091268Y-107753164D01*
X90307164Y-107537268D01*
X90476792Y-107283400D01*
X90593635Y-107001318D01*
X90653200Y-106701862D01*
X90653200Y-106396538D01*
X90593635Y-106097082D01*
X90476792Y-105815000D01*
X90307164Y-105561132D01*
X90091268Y-105345236D01*
X89837400Y-105175608D01*
X89555318Y-105058765D01*
X89255862Y-104999200D01*
X88950538Y-104999200D01*
X88651082Y-105058765D01*
X88369000Y-105175608D01*
X88115132Y-105345236D01*
X87899236Y-105561132D01*
X87729608Y-105815000D01*
X87612765Y-106097082D01*
X87553200Y-106396538D01*
X84061882Y-106396538D01*
X84075535Y-101447338D01*
X87604000Y-101447338D01*
X87604000Y-101752662D01*
X87663565Y-102052118D01*
X87780408Y-102334200D01*
X87950036Y-102588068D01*
X88165932Y-102803964D01*
X88419800Y-102973592D01*
X88701882Y-103090435D01*
X89001338Y-103150000D01*
X89306662Y-103150000D01*
X89606118Y-103090435D01*
X89888200Y-102973592D01*
X90142068Y-102803964D01*
X90357964Y-102588068D01*
X90527592Y-102334200D01*
X90644435Y-102052118D01*
X90704000Y-101752662D01*
X90704000Y-101447338D01*
X90644435Y-101147882D01*
X90527592Y-100865800D01*
X90357964Y-100611932D01*
X90142068Y-100396036D01*
X89888200Y-100226408D01*
X89606118Y-100109565D01*
X89306662Y-100050000D01*
X89001338Y-100050000D01*
X88701882Y-100109565D01*
X88419800Y-100226408D01*
X88165932Y-100396036D01*
X87950036Y-100611932D01*
X87780408Y-100865800D01*
X87663565Y-101147882D01*
X87604000Y-101447338D01*
X84075535Y-101447338D01*
X84109773Y-89036693D01*
X84144467Y-88984329D01*
X84254220Y-88873522D01*
X86548571Y-88878430D01*
X86548571Y-88878430D01*
G37*
X86548571Y-88878430D02*
X86075277Y-88972574D01*
X85620306Y-89161029D01*
X85210843Y-89434624D01*
X84862624Y-89782843D01*
X84589029Y-90192306D01*
X84400574Y-90647277D01*
X84304500Y-91130272D01*
X84304500Y-91622728D01*
X84400574Y-92105723D01*
X84589029Y-92560694D01*
X84862624Y-92970157D01*
X85210843Y-93318376D01*
X85620306Y-93591971D01*
X86075277Y-93780426D01*
X86558272Y-93876500D01*
X87050728Y-93876500D01*
X87533723Y-93780426D01*
X87988694Y-93591971D01*
X88398157Y-93318376D01*
X88746376Y-92970157D01*
X89019971Y-92560694D01*
X89208426Y-92105723D01*
X89304500Y-91622728D01*
X89304500Y-91130272D01*
X89208426Y-90647277D01*
X89019971Y-90192306D01*
X88746376Y-89782843D01*
X88398157Y-89434624D01*
X87988694Y-89161029D01*
X87533723Y-88972574D01*
X87065993Y-88879536D01*
X100370313Y-88907995D01*
X100257973Y-89020335D01*
X100006266Y-89397041D01*
X99832887Y-89815615D01*
X99744500Y-90259970D01*
X99744500Y-90713030D01*
X99832887Y-91157385D01*
X100006266Y-91575959D01*
X100257973Y-91952665D01*
X100578335Y-92273027D01*
X100955041Y-92524734D01*
X101373615Y-92698113D01*
X101817970Y-92786500D01*
X102271030Y-92786500D01*
X102715385Y-92698113D01*
X103133959Y-92524734D01*
X103510665Y-92273027D01*
X103831027Y-91952665D01*
X104082734Y-91575959D01*
X104256113Y-91157385D01*
X104344500Y-90713030D01*
X104344500Y-90259970D01*
X104309316Y-90083084D01*
X105244500Y-90083084D01*
X105244500Y-90289916D01*
X105284850Y-90492774D01*
X105364002Y-90683862D01*
X105478911Y-90855836D01*
X105625164Y-91002089D01*
X105797138Y-91116998D01*
X105988226Y-91196150D01*
X106191084Y-91236500D01*
X106397916Y-91236500D01*
X106600774Y-91196150D01*
X106791862Y-91116998D01*
X106963836Y-91002089D01*
X107110089Y-90855836D01*
X107224998Y-90683862D01*
X107304150Y-90492774D01*
X107344500Y-90289916D01*
X107344500Y-90083084D01*
X107744500Y-90083084D01*
X107744500Y-90289916D01*
X107784850Y-90492774D01*
X107864002Y-90683862D01*
X107978911Y-90855836D01*
X108125164Y-91002089D01*
X108297138Y-91116998D01*
X108488226Y-91196150D01*
X108691084Y-91236500D01*
X108897916Y-91236500D01*
X109100774Y-91196150D01*
X109291862Y-91116998D01*
X109463836Y-91002089D01*
X109610089Y-90855836D01*
X109724998Y-90683862D01*
X109804150Y-90492774D01*
X109844500Y-90289916D01*
X109844500Y-90083084D01*
X109804150Y-89880226D01*
X109724998Y-89689138D01*
X109610089Y-89517164D01*
X109463836Y-89370911D01*
X109291862Y-89256002D01*
X109100774Y-89176850D01*
X108897916Y-89136500D01*
X108691084Y-89136500D01*
X108488226Y-89176850D01*
X108297138Y-89256002D01*
X108125164Y-89370911D01*
X107978911Y-89517164D01*
X107864002Y-89689138D01*
X107784850Y-89880226D01*
X107744500Y-90083084D01*
X107344500Y-90083084D01*
X107304150Y-89880226D01*
X107224998Y-89689138D01*
X107110089Y-89517164D01*
X106963836Y-89370911D01*
X106791862Y-89256002D01*
X106600774Y-89176850D01*
X106397916Y-89136500D01*
X106191084Y-89136500D01*
X105988226Y-89176850D01*
X105797138Y-89256002D01*
X105625164Y-89370911D01*
X105478911Y-89517164D01*
X105364002Y-89689138D01*
X105284850Y-89880226D01*
X105244500Y-90083084D01*
X104309316Y-90083084D01*
X104256113Y-89815615D01*
X104082734Y-89397041D01*
X103831027Y-89020335D01*
X103725864Y-88915172D01*
X120722770Y-88951529D01*
X120680736Y-88967753D01*
X120622138Y-88999073D01*
X120552920Y-89227131D01*
X121294500Y-89968711D01*
X122036080Y-89227131D01*
X121966862Y-88999073D01*
X121865063Y-88953973D01*
X123570687Y-88957621D01*
X123507973Y-89020335D01*
X123256266Y-89397041D01*
X123082887Y-89815615D01*
X122994500Y-90259970D01*
X122994500Y-90713030D01*
X123082887Y-91157385D01*
X123256266Y-91575959D01*
X123507973Y-91952665D01*
X123828335Y-92273027D01*
X124205041Y-92524734D01*
X124623615Y-92698113D01*
X125067970Y-92786500D01*
X125521030Y-92786500D01*
X125965385Y-92698113D01*
X126383959Y-92524734D01*
X126760665Y-92273027D01*
X127081027Y-91952665D01*
X127332734Y-91575959D01*
X127506113Y-91157385D01*
X127594500Y-90713030D01*
X127594500Y-90259970D01*
X127506113Y-89815615D01*
X127332734Y-89397041D01*
X127081027Y-89020335D01*
X127025703Y-88965011D01*
X139317454Y-88991304D01*
X139214306Y-89034029D01*
X138804843Y-89307624D01*
X138456624Y-89655843D01*
X138183029Y-90065306D01*
X137994574Y-90520277D01*
X137898500Y-91003272D01*
X137898500Y-91495728D01*
X137994574Y-91978723D01*
X138183029Y-92433694D01*
X138456624Y-92843157D01*
X138804843Y-93191376D01*
X139214306Y-93464971D01*
X139669277Y-93653426D01*
X140152272Y-93749500D01*
X140644728Y-93749500D01*
X141127723Y-93653426D01*
X141582694Y-93464971D01*
X141992157Y-93191376D01*
X142340376Y-92843157D01*
X142613971Y-92433694D01*
X142802426Y-91978723D01*
X142898500Y-91495728D01*
X142898500Y-91003272D01*
X142802426Y-90520277D01*
X142613971Y-90065306D01*
X142340376Y-89655843D01*
X141992157Y-89307624D01*
X141582694Y-89034029D01*
X141490770Y-88995953D01*
X143067634Y-88999326D01*
X143159053Y-89134483D01*
X143232886Y-89309494D01*
X143272091Y-89499248D01*
X143277001Y-89667278D01*
X143277001Y-108421500D01*
X139319000Y-108421500D01*
X139299491Y-108423421D01*
X139280732Y-108429112D01*
X139263443Y-108438353D01*
X139248289Y-108450789D01*
X139235853Y-108465943D01*
X139226612Y-108483232D01*
X139220921Y-108501991D01*
X139219000Y-108521500D01*
X139219000Y-112522000D01*
X139220921Y-112541509D01*
X139226612Y-112560268D01*
X139235853Y-112577557D01*
X139248289Y-112592711D01*
X139263443Y-112605147D01*
X139280732Y-112614388D01*
X139299491Y-112620079D01*
X139319000Y-112622000D01*
X143277000Y-112622000D01*
X143277000Y-133939175D01*
X143277022Y-133939403D01*
X143277290Y-134147213D01*
X143240634Y-134333595D01*
X143168476Y-134509307D01*
X143118857Y-134584198D01*
X87067261Y-134703711D01*
X87533723Y-134610926D01*
X87988694Y-134422471D01*
X88398157Y-134148876D01*
X88746376Y-133800657D01*
X89019971Y-133391194D01*
X89208426Y-132936223D01*
X89304500Y-132453228D01*
X89304500Y-131960772D01*
X89208426Y-131477777D01*
X89137274Y-131306000D01*
X104136549Y-131306000D01*
X104136549Y-133306000D01*
X104142341Y-133364810D01*
X104159496Y-133421360D01*
X104187353Y-133473477D01*
X104224842Y-133519158D01*
X104270523Y-133556647D01*
X104322640Y-133584504D01*
X104379190Y-133601659D01*
X104438000Y-133607451D01*
X107638000Y-133607451D01*
X107696810Y-133601659D01*
X107753360Y-133584504D01*
X107805477Y-133556647D01*
X107851158Y-133519158D01*
X107888647Y-133473477D01*
X107916504Y-133421360D01*
X107933659Y-133364810D01*
X107939451Y-133306000D01*
X107939451Y-131306000D01*
X107933659Y-131247190D01*
X107916504Y-131190640D01*
X107888647Y-131138523D01*
X107851158Y-131092842D01*
X107805477Y-131055353D01*
X107753360Y-131027496D01*
X107696810Y-131010341D01*
X107638000Y-131004549D01*
X104438000Y-131004549D01*
X104379190Y-131010341D01*
X104322640Y-131027496D01*
X104270523Y-131055353D01*
X104224842Y-131092842D01*
X104187353Y-131138523D01*
X104159496Y-131190640D01*
X104142341Y-131247190D01*
X104136549Y-131306000D01*
X89137274Y-131306000D01*
X89019971Y-131022806D01*
X88746376Y-130613343D01*
X88398157Y-130265124D01*
X87988694Y-129991529D01*
X87533723Y-129803074D01*
X87050728Y-129707000D01*
X86558272Y-129707000D01*
X86075277Y-129803074D01*
X85620306Y-129991529D01*
X85210843Y-130265124D01*
X84862624Y-130613343D01*
X84589029Y-131022806D01*
X84400574Y-131477777D01*
X84304500Y-131960772D01*
X84304500Y-132453228D01*
X84400574Y-132936223D01*
X84589029Y-133391194D01*
X84862624Y-133800657D01*
X85210843Y-134148876D01*
X85620306Y-134422471D01*
X86075277Y-134610926D01*
X86547313Y-134704820D01*
X84190741Y-134709845D01*
X84150369Y-134669857D01*
X84043947Y-134512517D01*
X83984710Y-134372104D01*
X83999313Y-129077961D01*
X97738000Y-129077961D01*
X97738000Y-129334039D01*
X97787958Y-129585196D01*
X97885955Y-129821781D01*
X98028224Y-130034702D01*
X98209298Y-130215776D01*
X98422219Y-130358045D01*
X98658804Y-130456042D01*
X98909961Y-130506000D01*
X99166039Y-130506000D01*
X99417196Y-130456042D01*
X99653781Y-130358045D01*
X99866702Y-130215776D01*
X100047776Y-130034702D01*
X100190045Y-129821781D01*
X100288042Y-129585196D01*
X100338000Y-129334039D01*
X100338000Y-129077961D01*
X100288042Y-128826804D01*
X100190045Y-128590219D01*
X100047776Y-128377298D01*
X99866702Y-128196224D01*
X99653781Y-128053955D01*
X99417196Y-127955958D01*
X99166039Y-127906000D01*
X98909961Y-127906000D01*
X98658804Y-127955958D01*
X98422219Y-128053955D01*
X98209298Y-128196224D01*
X98028224Y-128377298D01*
X97885955Y-128590219D01*
X97787958Y-128826804D01*
X97738000Y-129077961D01*
X83999313Y-129077961D01*
X84009613Y-125344199D01*
X98117590Y-125344199D01*
X98217181Y-125597762D01*
X98504472Y-125731154D01*
X98812265Y-125805934D01*
X99128735Y-125819230D01*
X99441716Y-125770531D01*
X99739184Y-125661708D01*
X99858819Y-125597762D01*
X99958410Y-125344199D01*
X99038000Y-124423789D01*
X98117590Y-125344199D01*
X84009613Y-125344199D01*
X84012503Y-124296735D01*
X97424770Y-124296735D01*
X97473469Y-124609716D01*
X97582292Y-124907184D01*
X97646238Y-125026819D01*
X97899801Y-125126410D01*
X98820211Y-124206000D01*
X99255789Y-124206000D01*
X100176199Y-125126410D01*
X100429762Y-125026819D01*
X100563154Y-124739528D01*
X100637934Y-124431735D01*
X100651230Y-124115265D01*
X100602531Y-123802284D01*
X100493708Y-123504816D01*
X100429762Y-123385181D01*
X100176199Y-123285590D01*
X99255789Y-124206000D01*
X98820211Y-124206000D01*
X97899801Y-123285590D01*
X97646238Y-123385181D01*
X97512846Y-123672472D01*
X97438066Y-123980265D01*
X97424770Y-124296735D01*
X84012503Y-124296735D01*
X84018359Y-122174000D01*
X85458436Y-122174000D01*
X85480640Y-122399439D01*
X85546398Y-122616215D01*
X85653184Y-122815997D01*
X85796893Y-122991107D01*
X85972003Y-123134816D01*
X86171785Y-123241602D01*
X86388561Y-123307360D01*
X86557508Y-123324000D01*
X86670492Y-123324000D01*
X86839439Y-123307360D01*
X87056215Y-123241602D01*
X87255997Y-123134816D01*
X87337655Y-123067801D01*
X98117590Y-123067801D01*
X99038000Y-123988211D01*
X99958410Y-123067801D01*
X99858819Y-122814238D01*
X99571528Y-122680846D01*
X99263735Y-122606066D01*
X98947265Y-122592770D01*
X98634284Y-122641469D01*
X98336816Y-122750292D01*
X98217181Y-122814238D01*
X98117590Y-123067801D01*
X87337655Y-123067801D01*
X87431107Y-122991107D01*
X87574816Y-122815997D01*
X87681602Y-122616215D01*
X87747360Y-122399439D01*
X87769564Y-122174000D01*
X87747360Y-121948561D01*
X87681602Y-121731785D01*
X87574816Y-121532003D01*
X87431107Y-121356893D01*
X87255997Y-121213184D01*
X87056215Y-121106398D01*
X86839439Y-121040640D01*
X86670492Y-121024000D01*
X86557508Y-121024000D01*
X86388561Y-121040640D01*
X86171785Y-121106398D01*
X85972003Y-121213184D01*
X85796893Y-121356893D01*
X85653184Y-121532003D01*
X85546398Y-121731785D01*
X85480640Y-121948561D01*
X85458436Y-122174000D01*
X84018359Y-122174000D01*
X84030028Y-117944000D01*
X85153058Y-117944000D01*
X85164797Y-118063189D01*
X85199563Y-118177797D01*
X85256020Y-118283421D01*
X85331999Y-118376001D01*
X85424579Y-118451980D01*
X85530203Y-118508437D01*
X85644811Y-118543203D01*
X85764000Y-118554942D01*
X86217638Y-118552489D01*
X86171785Y-118566398D01*
X85972003Y-118673184D01*
X85796893Y-118816893D01*
X85653184Y-118992003D01*
X85546398Y-119191785D01*
X85480640Y-119408561D01*
X85458436Y-119634000D01*
X85480640Y-119859439D01*
X85546398Y-120076215D01*
X85653184Y-120275997D01*
X85796893Y-120451107D01*
X85972003Y-120594816D01*
X86171785Y-120701602D01*
X86388561Y-120767360D01*
X86557508Y-120784000D01*
X86670492Y-120784000D01*
X86839439Y-120767360D01*
X87056215Y-120701602D01*
X87255997Y-120594816D01*
X87431107Y-120451107D01*
X87574816Y-120275997D01*
X87681602Y-120076215D01*
X87747360Y-119859439D01*
X87769564Y-119634000D01*
X87747360Y-119408561D01*
X87681602Y-119191785D01*
X87574816Y-118992003D01*
X87431107Y-118816893D01*
X87261779Y-118677929D01*
X96564516Y-118677929D01*
X96572568Y-118761433D01*
X96595693Y-118836360D01*
X96632991Y-118905335D01*
X96683029Y-118965708D01*
X96743884Y-119015159D01*
X96813217Y-119051788D01*
X96888363Y-119074187D01*
X96966435Y-119081495D01*
X101635001Y-119058905D01*
X101635000Y-130242905D01*
X101635000Y-130361095D01*
X101640779Y-130390149D01*
X101643682Y-130419620D01*
X101652279Y-130447960D01*
X101658058Y-130477014D01*
X101669393Y-130504380D01*
X101677990Y-130532720D01*
X101691951Y-130558839D01*
X101703287Y-130586207D01*
X101719744Y-130610836D01*
X101733704Y-130636954D01*
X101752494Y-130659849D01*
X101768950Y-130684478D01*
X101789892Y-130705420D01*
X101808683Y-130728317D01*
X101831581Y-130747109D01*
X101852522Y-130768050D01*
X101877147Y-130784504D01*
X101900045Y-130803296D01*
X101926168Y-130817259D01*
X101950793Y-130833713D01*
X101978156Y-130845047D01*
X102004279Y-130859010D01*
X102032623Y-130867608D01*
X102059986Y-130878942D01*
X102089037Y-130884721D01*
X102117379Y-130893318D01*
X102146852Y-130896221D01*
X102175905Y-130902000D01*
X102205526Y-130902000D01*
X102235000Y-130904903D01*
X102264474Y-130902000D01*
X102294095Y-130902000D01*
X102323149Y-130896221D01*
X102352620Y-130893318D01*
X102380960Y-130884721D01*
X102410014Y-130878942D01*
X102437380Y-130867607D01*
X102465720Y-130859010D01*
X102491839Y-130845049D01*
X102519207Y-130833713D01*
X102543836Y-130817256D01*
X102569954Y-130803296D01*
X102580062Y-130795000D01*
X125200049Y-130795000D01*
X125200049Y-132095000D01*
X125205841Y-132153810D01*
X125222996Y-132210360D01*
X125250853Y-132262477D01*
X125288342Y-132308158D01*
X125334023Y-132345647D01*
X125386140Y-132373504D01*
X125442690Y-132390659D01*
X125501500Y-132396451D01*
X127101500Y-132396451D01*
X127160310Y-132390659D01*
X127216860Y-132373504D01*
X127268977Y-132345647D01*
X127314658Y-132308158D01*
X127352147Y-132262477D01*
X127380004Y-132210360D01*
X127397159Y-132153810D01*
X127402951Y-132095000D01*
X127402951Y-131833772D01*
X138089000Y-131833772D01*
X138089000Y-132326228D01*
X138185074Y-132809223D01*
X138373529Y-133264194D01*
X138647124Y-133673657D01*
X138995343Y-134021876D01*
X139404806Y-134295471D01*
X139859777Y-134483926D01*
X140342772Y-134580000D01*
X140835228Y-134580000D01*
X141318223Y-134483926D01*
X141773194Y-134295471D01*
X142182657Y-134021876D01*
X142530876Y-133673657D01*
X142804471Y-133264194D01*
X142992926Y-132809223D01*
X143089000Y-132326228D01*
X143089000Y-131833772D01*
X142992926Y-131350777D01*
X142804471Y-130895806D01*
X142530876Y-130486343D01*
X142182657Y-130138124D01*
X141773194Y-129864529D01*
X141318223Y-129676074D01*
X140835228Y-129580000D01*
X140342772Y-129580000D01*
X139859777Y-129676074D01*
X139404806Y-129864529D01*
X138995343Y-130138124D01*
X138647124Y-130486343D01*
X138373529Y-130895806D01*
X138185074Y-131350777D01*
X138089000Y-131833772D01*
X127402951Y-131833772D01*
X127402951Y-130795000D01*
X127397159Y-130736190D01*
X127380004Y-130679640D01*
X127352147Y-130627523D01*
X127314658Y-130581842D01*
X127268977Y-130544353D01*
X127216860Y-130516496D01*
X127160310Y-130499341D01*
X127101500Y-130493549D01*
X125501500Y-130493549D01*
X125442690Y-130499341D01*
X125386140Y-130516496D01*
X125334023Y-130544353D01*
X125288342Y-130581842D01*
X125250853Y-130627523D01*
X125222996Y-130679640D01*
X125205841Y-130736190D01*
X125200049Y-130795000D01*
X102580062Y-130795000D01*
X102592849Y-130784506D01*
X102617478Y-130768050D01*
X102638420Y-130747108D01*
X102661317Y-130728317D01*
X102680109Y-130705419D01*
X102701050Y-130684478D01*
X102717504Y-130659853D01*
X102736296Y-130636955D01*
X102750259Y-130610832D01*
X102766713Y-130586207D01*
X102778047Y-130558844D01*
X102792010Y-130532721D01*
X102800608Y-130504377D01*
X102811942Y-130477014D01*
X102817721Y-130447963D01*
X102826318Y-130419621D01*
X102829221Y-130390148D01*
X102835000Y-130361095D01*
X102835000Y-129077961D01*
X112238000Y-129077961D01*
X112238000Y-129334039D01*
X112287958Y-129585196D01*
X112385955Y-129821781D01*
X112528224Y-130034702D01*
X112709298Y-130215776D01*
X112922219Y-130358045D01*
X113158804Y-130456042D01*
X113409961Y-130506000D01*
X113666039Y-130506000D01*
X113917196Y-130456042D01*
X114153781Y-130358045D01*
X114366702Y-130215776D01*
X114547776Y-130034702D01*
X114690045Y-129821781D01*
X114788042Y-129585196D01*
X114838000Y-129334039D01*
X114838000Y-129077961D01*
X114788042Y-128826804D01*
X114690045Y-128590219D01*
X114547776Y-128377298D01*
X114366702Y-128196224D01*
X114281330Y-128139180D01*
X114358819Y-128097762D01*
X114458410Y-127844199D01*
X113538000Y-126923789D01*
X112617590Y-127844199D01*
X112717181Y-128097762D01*
X112799473Y-128135971D01*
X112709298Y-128196224D01*
X112528224Y-128377298D01*
X112385955Y-128590219D01*
X112287958Y-128826804D01*
X112238000Y-129077961D01*
X102835000Y-129077961D01*
X102835000Y-126796735D01*
X111924770Y-126796735D01*
X111973469Y-127109716D01*
X112082292Y-127407184D01*
X112146238Y-127526819D01*
X112399801Y-127626410D01*
X113320211Y-126706000D01*
X113755789Y-126706000D01*
X114676199Y-127626410D01*
X114929762Y-127526819D01*
X115063154Y-127239528D01*
X115137934Y-126931735D01*
X115151230Y-126615265D01*
X115102531Y-126302284D01*
X114993708Y-126004816D01*
X114929762Y-125885181D01*
X114676199Y-125785590D01*
X113755789Y-126706000D01*
X113320211Y-126706000D01*
X112399801Y-125785590D01*
X112146238Y-125885181D01*
X112012846Y-126172472D01*
X111938066Y-126480265D01*
X111924770Y-126796735D01*
X102835000Y-126796735D01*
X102835000Y-120106000D01*
X104136549Y-120106000D01*
X104136549Y-122106000D01*
X104142341Y-122164810D01*
X104159496Y-122221360D01*
X104187353Y-122273477D01*
X104224842Y-122319158D01*
X104270523Y-122356647D01*
X104322640Y-122384504D01*
X104379190Y-122401659D01*
X104438000Y-122407451D01*
X107638000Y-122407451D01*
X107696810Y-122401659D01*
X107753360Y-122384504D01*
X107805477Y-122356647D01*
X107851158Y-122319158D01*
X107888647Y-122273477D01*
X107916504Y-122221360D01*
X107933659Y-122164810D01*
X107939451Y-122106000D01*
X107939451Y-120106000D01*
X107933659Y-120047190D01*
X107916504Y-119990640D01*
X107888647Y-119938523D01*
X107851158Y-119892842D01*
X107805477Y-119855353D01*
X107753360Y-119827496D01*
X107696810Y-119810341D01*
X107638000Y-119804549D01*
X104438000Y-119804549D01*
X104379190Y-119810341D01*
X104322640Y-119827496D01*
X104270523Y-119855353D01*
X104224842Y-119892842D01*
X104187353Y-119938523D01*
X104159496Y-119990640D01*
X104142341Y-120047190D01*
X104136549Y-120106000D01*
X102835000Y-120106000D01*
X102835000Y-119053099D01*
X108874001Y-119023878D01*
X108874000Y-124309341D01*
X108871097Y-124338815D01*
X108874000Y-124368288D01*
X108882682Y-124456435D01*
X108916990Y-124569535D01*
X108972704Y-124673769D01*
X109047683Y-124765132D01*
X109070586Y-124783928D01*
X110017000Y-125730343D01*
X110017000Y-126106595D01*
X110022779Y-126135649D01*
X110025682Y-126165120D01*
X110034279Y-126193460D01*
X110040058Y-126222514D01*
X110051393Y-126249880D01*
X110059990Y-126278220D01*
X110073951Y-126304339D01*
X110085287Y-126331707D01*
X110101744Y-126356336D01*
X110115704Y-126382454D01*
X110134494Y-126405349D01*
X110150950Y-126429978D01*
X110171892Y-126450920D01*
X110190683Y-126473817D01*
X110213581Y-126492609D01*
X110234522Y-126513550D01*
X110259147Y-126530004D01*
X110282045Y-126548796D01*
X110308168Y-126562759D01*
X110332793Y-126579213D01*
X110360156Y-126590547D01*
X110386279Y-126604510D01*
X110414623Y-126613108D01*
X110441986Y-126624442D01*
X110471037Y-126630221D01*
X110499379Y-126638818D01*
X110528852Y-126641721D01*
X110557905Y-126647500D01*
X110587526Y-126647500D01*
X110617000Y-126650403D01*
X110646474Y-126647500D01*
X110676095Y-126647500D01*
X110705149Y-126641721D01*
X110734620Y-126638818D01*
X110762960Y-126630221D01*
X110792014Y-126624442D01*
X110819380Y-126613107D01*
X110847720Y-126604510D01*
X110873839Y-126590549D01*
X110901207Y-126579213D01*
X110925836Y-126562756D01*
X110951954Y-126548796D01*
X110974849Y-126530006D01*
X110999478Y-126513550D01*
X111020420Y-126492608D01*
X111043317Y-126473817D01*
X111062109Y-126450919D01*
X111083050Y-126429978D01*
X111099504Y-126405353D01*
X111118296Y-126382455D01*
X111132259Y-126356332D01*
X111148713Y-126331707D01*
X111160047Y-126304344D01*
X111174010Y-126278221D01*
X111182608Y-126249877D01*
X111193942Y-126222514D01*
X111199721Y-126193463D01*
X111208318Y-126165121D01*
X111211221Y-126135648D01*
X111217000Y-126106595D01*
X111217000Y-125511288D01*
X111219903Y-125481814D01*
X111208318Y-125364194D01*
X111197879Y-125329781D01*
X111174010Y-125251094D01*
X111118296Y-125146860D01*
X111043317Y-125055498D01*
X111020419Y-125036706D01*
X110074000Y-124090288D01*
X110074000Y-122980849D01*
X110087450Y-123000978D01*
X110108392Y-123021920D01*
X110127183Y-123044817D01*
X110150081Y-123063609D01*
X110171022Y-123084550D01*
X110195647Y-123101004D01*
X110218545Y-123119796D01*
X110244668Y-123133759D01*
X110269293Y-123150213D01*
X110296656Y-123161547D01*
X110322779Y-123175510D01*
X110351123Y-123184108D01*
X110378486Y-123195442D01*
X110407537Y-123201221D01*
X110435879Y-123209818D01*
X110465352Y-123212721D01*
X110494405Y-123218500D01*
X110524026Y-123218500D01*
X110553500Y-123221403D01*
X110582974Y-123218500D01*
X110612595Y-123218500D01*
X110641649Y-123212721D01*
X110671120Y-123209818D01*
X110683706Y-123206000D01*
X112236549Y-123206000D01*
X112236549Y-125206000D01*
X112242341Y-125264810D01*
X112259496Y-125321360D01*
X112287353Y-125373477D01*
X112324842Y-125419158D01*
X112370523Y-125456647D01*
X112422640Y-125484504D01*
X112479190Y-125501659D01*
X112538000Y-125507451D01*
X112641293Y-125507451D01*
X112617590Y-125567801D01*
X113538000Y-126488211D01*
X114458410Y-125567801D01*
X114434707Y-125507451D01*
X114538000Y-125507451D01*
X114596810Y-125501659D01*
X114653360Y-125484504D01*
X114705477Y-125456647D01*
X114751158Y-125419158D01*
X114788647Y-125373477D01*
X114816504Y-125321360D01*
X114833659Y-125264810D01*
X114839451Y-125206000D01*
X114839451Y-123206000D01*
X114836398Y-123175000D01*
X120882049Y-123175000D01*
X120882049Y-124475000D01*
X120887841Y-124533810D01*
X120904996Y-124590360D01*
X120932853Y-124642477D01*
X120970342Y-124688158D01*
X121016023Y-124725647D01*
X121068140Y-124753504D01*
X121124690Y-124770659D01*
X121183500Y-124776451D01*
X122783500Y-124776451D01*
X122842310Y-124770659D01*
X122898860Y-124753504D01*
X122950977Y-124725647D01*
X122996658Y-124688158D01*
X123034147Y-124642477D01*
X123062004Y-124590360D01*
X123079159Y-124533810D01*
X123084951Y-124475000D01*
X123084951Y-123175000D01*
X123079159Y-123116190D01*
X123062004Y-123059640D01*
X123034147Y-123007523D01*
X122996658Y-122961842D01*
X122950977Y-122924353D01*
X122898860Y-122896496D01*
X122842310Y-122879341D01*
X122783500Y-122873549D01*
X121183500Y-122873549D01*
X121124690Y-122879341D01*
X121068140Y-122896496D01*
X121016023Y-122924353D01*
X120970342Y-122961842D01*
X120932853Y-123007523D01*
X120904996Y-123059640D01*
X120887841Y-123116190D01*
X120882049Y-123175000D01*
X114836398Y-123175000D01*
X114833659Y-123147190D01*
X114816504Y-123090640D01*
X114788647Y-123038523D01*
X114751158Y-122992842D01*
X114705477Y-122955353D01*
X114653360Y-122927496D01*
X114596810Y-122910341D01*
X114538000Y-122904549D01*
X112538000Y-122904549D01*
X112479190Y-122910341D01*
X112422640Y-122927496D01*
X112370523Y-122955353D01*
X112324842Y-122992842D01*
X112287353Y-123038523D01*
X112259496Y-123090640D01*
X112242341Y-123147190D01*
X112236549Y-123206000D01*
X110683706Y-123206000D01*
X110699460Y-123201221D01*
X110728514Y-123195442D01*
X110755880Y-123184107D01*
X110784220Y-123175510D01*
X110810339Y-123161549D01*
X110837707Y-123150213D01*
X110862336Y-123133756D01*
X110888454Y-123119796D01*
X110911349Y-123101006D01*
X110935978Y-123084550D01*
X110956920Y-123063608D01*
X110979817Y-123044817D01*
X110998609Y-123021919D01*
X111019550Y-123000978D01*
X111036004Y-122976353D01*
X111054796Y-122953455D01*
X111068759Y-122927332D01*
X111085213Y-122902707D01*
X111096547Y-122875344D01*
X111110510Y-122849221D01*
X111119108Y-122820877D01*
X111130442Y-122793514D01*
X111136221Y-122764463D01*
X111144818Y-122736121D01*
X111147721Y-122706648D01*
X111153500Y-122677595D01*
X111153500Y-122229316D01*
X111171361Y-122170435D01*
X111182919Y-122132335D01*
X111194503Y-122014715D01*
X111191600Y-121985239D01*
X111191600Y-119012664D01*
X118323719Y-118978153D01*
X118253550Y-119048322D01*
X118187887Y-119146593D01*
X118142658Y-119255786D01*
X118119600Y-119371705D01*
X118119600Y-119489895D01*
X118142658Y-119605814D01*
X118187887Y-119715007D01*
X118253550Y-119813278D01*
X118337122Y-119896850D01*
X118435393Y-119962513D01*
X118544586Y-120007742D01*
X118660505Y-120030800D01*
X118778695Y-120030800D01*
X118894614Y-120007742D01*
X119003807Y-119962513D01*
X119102078Y-119896850D01*
X119142828Y-119856100D01*
X119247341Y-119856100D01*
X119252747Y-119873922D01*
X119300819Y-119963858D01*
X119365512Y-120042688D01*
X119444342Y-120107381D01*
X119534278Y-120155453D01*
X119631864Y-120185055D01*
X119733350Y-120195051D01*
X120245850Y-120195051D01*
X120347336Y-120185055D01*
X120444922Y-120155453D01*
X120534858Y-120107381D01*
X120613688Y-120042688D01*
X120678381Y-119963858D01*
X120726453Y-119873922D01*
X120756055Y-119776336D01*
X120766051Y-119674850D01*
X120766051Y-119237350D01*
X120756055Y-119135864D01*
X120726453Y-119038278D01*
X120688200Y-118966712D01*
X121193000Y-118964270D01*
X121193000Y-119707435D01*
X121180175Y-119749714D01*
X121171549Y-119837300D01*
X121171549Y-120132300D01*
X121180175Y-120219886D01*
X121205723Y-120304106D01*
X121247211Y-120381724D01*
X121303044Y-120449756D01*
X121327467Y-120469800D01*
X121303044Y-120489844D01*
X121247211Y-120557876D01*
X121208072Y-120631100D01*
X120731859Y-120631100D01*
X120726453Y-120613278D01*
X120678381Y-120523342D01*
X120613688Y-120444512D01*
X120534858Y-120379819D01*
X120444922Y-120331747D01*
X120347336Y-120302145D01*
X120245850Y-120292149D01*
X119733350Y-120292149D01*
X119631864Y-120302145D01*
X119534278Y-120331747D01*
X119444342Y-120379819D01*
X119365512Y-120444512D01*
X119300819Y-120523342D01*
X119252747Y-120613278D01*
X119223145Y-120710864D01*
X119213149Y-120812350D01*
X119213149Y-121249850D01*
X119223145Y-121351336D01*
X119252747Y-121448922D01*
X119300819Y-121538858D01*
X119365512Y-121617688D01*
X119444342Y-121682381D01*
X119534278Y-121730453D01*
X119631864Y-121760055D01*
X119733350Y-121770051D01*
X120245850Y-121770051D01*
X120347336Y-121760055D01*
X120444922Y-121730453D01*
X120534858Y-121682381D01*
X120613688Y-121617688D01*
X120678381Y-121538858D01*
X120726453Y-121448922D01*
X120731859Y-121431100D01*
X121316867Y-121431100D01*
X121371076Y-121475589D01*
X121448694Y-121517077D01*
X121532914Y-121542625D01*
X121620500Y-121551251D01*
X121965500Y-121551251D01*
X122053086Y-121542625D01*
X122137306Y-121517077D01*
X122214924Y-121475589D01*
X122282956Y-121419756D01*
X122338789Y-121351724D01*
X122380277Y-121274106D01*
X122405825Y-121189886D01*
X122414451Y-121102300D01*
X122414451Y-120807300D01*
X122405825Y-120719714D01*
X122380277Y-120635494D01*
X122338789Y-120557876D01*
X122282956Y-120489844D01*
X122258533Y-120469800D01*
X122282956Y-120449756D01*
X122338789Y-120381724D01*
X122380277Y-120304106D01*
X122405825Y-120219886D01*
X122414451Y-120132300D01*
X122414451Y-119837300D01*
X122408622Y-119778105D01*
X124063200Y-119778105D01*
X124063200Y-119896295D01*
X124086258Y-120012214D01*
X124131487Y-120121407D01*
X124197150Y-120219678D01*
X124280722Y-120303250D01*
X124378993Y-120368913D01*
X124488186Y-120414142D01*
X124604105Y-120437200D01*
X124697515Y-120437200D01*
X125774501Y-121514187D01*
X125774500Y-122873549D01*
X125374500Y-122873549D01*
X125315690Y-122879341D01*
X125259140Y-122896496D01*
X125207023Y-122924353D01*
X125161342Y-122961842D01*
X125123853Y-123007523D01*
X125095996Y-123059640D01*
X125078841Y-123116190D01*
X125073049Y-123175000D01*
X125073049Y-124475000D01*
X125078841Y-124533810D01*
X125095996Y-124590360D01*
X125123853Y-124642477D01*
X125161342Y-124688158D01*
X125207023Y-124725647D01*
X125259140Y-124753504D01*
X125315690Y-124770659D01*
X125374500Y-124776451D01*
X126974500Y-124776451D01*
X127033310Y-124770659D01*
X127089860Y-124753504D01*
X127141977Y-124725647D01*
X127187658Y-124688158D01*
X127225147Y-124642477D01*
X127253004Y-124590360D01*
X127254338Y-124585961D01*
X136296000Y-124585961D01*
X136296000Y-124842039D01*
X136345958Y-125093196D01*
X136443955Y-125329781D01*
X136586224Y-125542702D01*
X136767298Y-125723776D01*
X136980219Y-125866045D01*
X137216804Y-125964042D01*
X137467961Y-126014000D01*
X137724039Y-126014000D01*
X137975196Y-125964042D01*
X138211781Y-125866045D01*
X138424702Y-125723776D01*
X138605776Y-125542702D01*
X138748045Y-125329781D01*
X138846042Y-125093196D01*
X138896000Y-124842039D01*
X138896000Y-124745810D01*
X140196000Y-124745810D01*
X140196000Y-124982190D01*
X140242116Y-125214027D01*
X140332574Y-125432413D01*
X140463899Y-125628955D01*
X140631045Y-125796101D01*
X140827587Y-125927426D01*
X141045973Y-126017884D01*
X141277810Y-126064000D01*
X141514190Y-126064000D01*
X141746027Y-126017884D01*
X141964413Y-125927426D01*
X142160955Y-125796101D01*
X142328101Y-125628955D01*
X142459426Y-125432413D01*
X142549884Y-125214027D01*
X142596000Y-124982190D01*
X142596000Y-124745810D01*
X142549884Y-124513973D01*
X142459426Y-124295587D01*
X142328101Y-124099045D01*
X142160955Y-123931899D01*
X141964413Y-123800574D01*
X141746027Y-123710116D01*
X141514190Y-123664000D01*
X141277810Y-123664000D01*
X141045973Y-123710116D01*
X140827587Y-123800574D01*
X140631045Y-123931899D01*
X140463899Y-124099045D01*
X140332574Y-124295587D01*
X140242116Y-124513973D01*
X140196000Y-124745810D01*
X138896000Y-124745810D01*
X138896000Y-124585961D01*
X138846042Y-124334804D01*
X138780266Y-124176006D01*
X138850182Y-124162099D01*
X138977574Y-124109332D01*
X139092224Y-124032726D01*
X139189726Y-123935224D01*
X139266332Y-123820574D01*
X139319099Y-123693182D01*
X139346000Y-123557944D01*
X139346000Y-123420056D01*
X139319099Y-123284818D01*
X139266332Y-123157426D01*
X139189726Y-123042776D01*
X139092224Y-122945274D01*
X138977574Y-122868668D01*
X138850182Y-122815901D01*
X138714944Y-122789000D01*
X138577056Y-122789000D01*
X138441818Y-122815901D01*
X138314426Y-122868668D01*
X138199776Y-122945274D01*
X138102274Y-123042776D01*
X138025668Y-123157426D01*
X137972901Y-123284818D01*
X137946000Y-123420056D01*
X137946000Y-123458151D01*
X137724039Y-123414000D01*
X137467961Y-123414000D01*
X137216804Y-123463958D01*
X136980219Y-123561955D01*
X136767298Y-123704224D01*
X136586224Y-123885298D01*
X136443955Y-124098219D01*
X136345958Y-124334804D01*
X136296000Y-124585961D01*
X127254338Y-124585961D01*
X127270159Y-124533810D01*
X127275951Y-124475000D01*
X127275951Y-123175000D01*
X127270159Y-123116190D01*
X127253004Y-123059640D01*
X127225147Y-123007523D01*
X127187658Y-122961842D01*
X127141977Y-122924353D01*
X127089860Y-122896496D01*
X127033310Y-122879341D01*
X126974500Y-122873549D01*
X126574500Y-122873549D01*
X126574500Y-121368146D01*
X126576435Y-121348500D01*
X126568712Y-121270086D01*
X126563954Y-121254402D01*
X126545840Y-121194686D01*
X126508697Y-121125197D01*
X126495826Y-121109514D01*
X126471235Y-121079549D01*
X126471233Y-121079547D01*
X126458711Y-121064289D01*
X126443453Y-121051767D01*
X125263200Y-119871515D01*
X125263200Y-119778105D01*
X125240142Y-119662186D01*
X125194913Y-119552993D01*
X125129250Y-119454722D01*
X125045678Y-119371150D01*
X124947407Y-119305487D01*
X124838214Y-119260258D01*
X124722295Y-119237200D01*
X124604105Y-119237200D01*
X124488186Y-119260258D01*
X124378993Y-119305487D01*
X124280722Y-119371150D01*
X124197150Y-119454722D01*
X124131487Y-119552993D01*
X124086258Y-119662186D01*
X124063200Y-119778105D01*
X122408622Y-119778105D01*
X122405825Y-119749714D01*
X122393000Y-119707436D01*
X122393000Y-118958463D01*
X136336435Y-118890995D01*
X136412536Y-118883314D01*
X136487573Y-118860552D01*
X136556728Y-118823588D01*
X136617343Y-118773843D01*
X136667088Y-118713228D01*
X136704052Y-118644073D01*
X136726814Y-118569036D01*
X136734500Y-118491000D01*
X136734500Y-118240978D01*
X136767298Y-118273776D01*
X136980219Y-118416045D01*
X137216804Y-118514042D01*
X137467961Y-118564000D01*
X137724039Y-118564000D01*
X137946000Y-118519849D01*
X137946000Y-118557944D01*
X137972901Y-118693182D01*
X138025668Y-118820574D01*
X138102274Y-118935224D01*
X138199776Y-119032726D01*
X138314426Y-119109332D01*
X138441818Y-119162099D01*
X138577056Y-119189000D01*
X138714944Y-119189000D01*
X138850182Y-119162099D01*
X138977574Y-119109332D01*
X139092224Y-119032726D01*
X139189726Y-118935224D01*
X139266332Y-118820574D01*
X139319099Y-118693182D01*
X139346000Y-118557944D01*
X139346000Y-118420056D01*
X139319099Y-118284818D01*
X139266332Y-118157426D01*
X139189726Y-118042776D01*
X139092224Y-117945274D01*
X138977574Y-117868668D01*
X138850182Y-117815901D01*
X138780266Y-117801994D01*
X138846042Y-117643196D01*
X138896000Y-117392039D01*
X138896000Y-117135961D01*
X138868123Y-116995810D01*
X140196000Y-116995810D01*
X140196000Y-117232190D01*
X140242116Y-117464027D01*
X140332574Y-117682413D01*
X140463899Y-117878955D01*
X140631045Y-118046101D01*
X140827587Y-118177426D01*
X141045973Y-118267884D01*
X141277810Y-118314000D01*
X141514190Y-118314000D01*
X141746027Y-118267884D01*
X141964413Y-118177426D01*
X142160955Y-118046101D01*
X142328101Y-117878955D01*
X142459426Y-117682413D01*
X142549884Y-117464027D01*
X142596000Y-117232190D01*
X142596000Y-116995810D01*
X142549884Y-116763973D01*
X142459426Y-116545587D01*
X142328101Y-116349045D01*
X142160955Y-116181899D01*
X141964413Y-116050574D01*
X141746027Y-115960116D01*
X141514190Y-115914000D01*
X141277810Y-115914000D01*
X141045973Y-115960116D01*
X140827587Y-116050574D01*
X140631045Y-116181899D01*
X140463899Y-116349045D01*
X140332574Y-116545587D01*
X140242116Y-116763973D01*
X140196000Y-116995810D01*
X138868123Y-116995810D01*
X138846042Y-116884804D01*
X138748045Y-116648219D01*
X138605776Y-116435298D01*
X138424702Y-116254224D01*
X138211781Y-116111955D01*
X137975196Y-116013958D01*
X137724039Y-115964000D01*
X137467961Y-115964000D01*
X137216804Y-116013958D01*
X136980219Y-116111955D01*
X136767298Y-116254224D01*
X136734500Y-116287022D01*
X136734500Y-111764028D01*
X137207819Y-111290709D01*
X137230717Y-111271917D01*
X137305696Y-111180555D01*
X137361410Y-111076321D01*
X137395718Y-110963221D01*
X137404400Y-110875074D01*
X137407303Y-110845601D01*
X137404400Y-110816127D01*
X137404400Y-107522273D01*
X137407303Y-107492799D01*
X137395718Y-107375179D01*
X137380393Y-107324660D01*
X137361410Y-107262079D01*
X137305696Y-107157845D01*
X137230717Y-107066483D01*
X137207820Y-107047692D01*
X136390714Y-106230587D01*
X136371918Y-106207684D01*
X136280556Y-106132705D01*
X136176322Y-106076991D01*
X136063222Y-106042683D01*
X135975075Y-106034001D01*
X135945601Y-106031098D01*
X135916127Y-106034001D01*
X135508273Y-106034001D01*
X135478799Y-106031098D01*
X135449325Y-106034001D01*
X135361178Y-106042683D01*
X135248078Y-106076991D01*
X135143844Y-106132705D01*
X135052482Y-106207684D01*
X135033686Y-106230587D01*
X134796325Y-106467948D01*
X134796322Y-106467950D01*
X134712750Y-106551522D01*
X134696289Y-106576158D01*
X134677505Y-106599046D01*
X134663548Y-106625157D01*
X134647087Y-106649793D01*
X134635749Y-106677166D01*
X134621791Y-106703279D01*
X134613195Y-106731616D01*
X134601858Y-106758986D01*
X134596078Y-106788042D01*
X134587482Y-106816380D01*
X134584579Y-106845851D01*
X134578800Y-106874905D01*
X134578800Y-106904526D01*
X134575897Y-106934000D01*
X134578800Y-106963474D01*
X134578800Y-106993095D01*
X134584579Y-107022149D01*
X134587482Y-107051620D01*
X134596078Y-107079958D01*
X134601858Y-107109014D01*
X134613195Y-107136384D01*
X134621791Y-107164721D01*
X134635749Y-107190834D01*
X134647087Y-107218207D01*
X134663548Y-107242843D01*
X134677505Y-107268954D01*
X134696288Y-107291841D01*
X134712750Y-107316478D01*
X134733701Y-107337429D01*
X134752484Y-107360316D01*
X134775371Y-107379099D01*
X134796322Y-107400050D01*
X134820959Y-107416512D01*
X134843846Y-107435295D01*
X134869957Y-107449252D01*
X134894593Y-107465713D01*
X134921966Y-107477051D01*
X134948079Y-107491009D01*
X134976416Y-107499605D01*
X135003786Y-107510942D01*
X135032842Y-107516722D01*
X135061180Y-107525318D01*
X135090651Y-107528221D01*
X135119705Y-107534000D01*
X135149326Y-107534000D01*
X135178800Y-107536903D01*
X135208274Y-107534000D01*
X135237895Y-107534000D01*
X135266949Y-107528221D01*
X135296420Y-107525318D01*
X135324758Y-107516722D01*
X135353814Y-107510942D01*
X135381184Y-107499605D01*
X135409521Y-107491009D01*
X135435634Y-107477051D01*
X135463007Y-107465713D01*
X135487643Y-107449252D01*
X135513754Y-107435295D01*
X135536642Y-107416511D01*
X135561278Y-107400050D01*
X135644850Y-107316478D01*
X135644852Y-107316475D01*
X135712200Y-107249127D01*
X136204400Y-107741328D01*
X136204400Y-108387524D01*
X136197537Y-108353020D01*
X136137586Y-108208284D01*
X136050550Y-108078026D01*
X135939774Y-107967250D01*
X135809516Y-107880214D01*
X135664780Y-107820263D01*
X135511130Y-107789700D01*
X135354470Y-107789700D01*
X135200820Y-107820263D01*
X135056084Y-107880214D01*
X134925826Y-107967250D01*
X134815050Y-108078026D01*
X134728014Y-108208284D01*
X134668063Y-108353020D01*
X134637500Y-108506670D01*
X134637500Y-108663330D01*
X134668063Y-108816980D01*
X134728014Y-108961716D01*
X134815050Y-109091974D01*
X134925826Y-109202750D01*
X135056084Y-109289786D01*
X135200820Y-109349737D01*
X135354470Y-109380300D01*
X135511130Y-109380300D01*
X135664780Y-109349737D01*
X135809516Y-109289786D01*
X135939774Y-109202750D01*
X136050550Y-109091974D01*
X136137586Y-108961716D01*
X136197537Y-108816980D01*
X136204400Y-108782476D01*
X136204401Y-110597071D01*
X135631973Y-111169500D01*
X111902800Y-111169500D01*
X111902800Y-98292556D01*
X114044500Y-98292556D01*
X114044500Y-98430444D01*
X114071401Y-98565682D01*
X114124168Y-98693074D01*
X114200774Y-98807724D01*
X114298276Y-98905226D01*
X114412926Y-98981832D01*
X114540318Y-99034599D01*
X114576211Y-99041739D01*
X115668501Y-100134030D01*
X115668500Y-108906905D01*
X115668500Y-109025095D01*
X115674279Y-109054149D01*
X115677182Y-109083620D01*
X115685779Y-109111960D01*
X115691558Y-109141014D01*
X115702893Y-109168380D01*
X115711490Y-109196720D01*
X115725451Y-109222839D01*
X115736787Y-109250207D01*
X115753244Y-109274836D01*
X115767204Y-109300954D01*
X115785994Y-109323849D01*
X115802450Y-109348478D01*
X115823392Y-109369420D01*
X115842183Y-109392317D01*
X115865081Y-109411109D01*
X115886022Y-109432050D01*
X115910647Y-109448504D01*
X115933545Y-109467296D01*
X115959668Y-109481259D01*
X115984293Y-109497713D01*
X116011656Y-109509047D01*
X116037779Y-109523010D01*
X116066123Y-109531608D01*
X116093486Y-109542942D01*
X116122537Y-109548721D01*
X116150879Y-109557318D01*
X116180352Y-109560221D01*
X116209405Y-109566000D01*
X116239026Y-109566000D01*
X116268500Y-109568903D01*
X116297974Y-109566000D01*
X116327595Y-109566000D01*
X116356649Y-109560221D01*
X116386120Y-109557318D01*
X116414460Y-109548721D01*
X116443514Y-109542942D01*
X116470880Y-109531607D01*
X116499220Y-109523010D01*
X116499856Y-109522670D01*
X129557500Y-109522670D01*
X129557500Y-109679330D01*
X129588063Y-109832980D01*
X129648014Y-109977716D01*
X129735050Y-110107974D01*
X129845826Y-110218750D01*
X129976084Y-110305786D01*
X130120820Y-110365737D01*
X130274470Y-110396300D01*
X130431130Y-110396300D01*
X130584780Y-110365737D01*
X130729516Y-110305786D01*
X130859774Y-110218750D01*
X130970550Y-110107974D01*
X131057586Y-109977716D01*
X131117537Y-109832980D01*
X131148100Y-109679330D01*
X131148100Y-109522670D01*
X131117537Y-109369020D01*
X131057586Y-109224284D01*
X130970550Y-109094026D01*
X130859774Y-108983250D01*
X130729516Y-108896214D01*
X130584780Y-108836263D01*
X130431130Y-108805700D01*
X130274470Y-108805700D01*
X130120820Y-108836263D01*
X129976084Y-108896214D01*
X129845826Y-108983250D01*
X129735050Y-109094026D01*
X129648014Y-109224284D01*
X129588063Y-109369020D01*
X129557500Y-109522670D01*
X116499856Y-109522670D01*
X116525339Y-109509049D01*
X116552707Y-109497713D01*
X116577336Y-109481256D01*
X116603454Y-109467296D01*
X116626349Y-109448506D01*
X116650978Y-109432050D01*
X116671920Y-109411108D01*
X116694817Y-109392317D01*
X116713609Y-109369419D01*
X116734550Y-109348478D01*
X116751004Y-109323853D01*
X116769796Y-109300955D01*
X116783759Y-109274832D01*
X116800213Y-109250207D01*
X116811547Y-109222844D01*
X116825510Y-109196721D01*
X116834108Y-109168377D01*
X116845442Y-109141014D01*
X116851221Y-109111963D01*
X116859818Y-109083621D01*
X116862721Y-109054148D01*
X116868500Y-109025095D01*
X116868500Y-107636905D01*
X124012400Y-107636905D01*
X124012400Y-107755095D01*
X124035458Y-107871014D01*
X124080687Y-107980207D01*
X124146350Y-108078478D01*
X124229922Y-108162050D01*
X124328193Y-108227713D01*
X124437386Y-108272942D01*
X124553305Y-108296000D01*
X124671495Y-108296000D01*
X124787414Y-108272942D01*
X124896607Y-108227713D01*
X124994878Y-108162050D01*
X125060928Y-108096000D01*
X125151554Y-108096000D01*
X125171200Y-108097935D01*
X125190846Y-108096000D01*
X125190847Y-108096000D01*
X125249614Y-108090212D01*
X125325014Y-108067340D01*
X125394503Y-108030197D01*
X125455411Y-107980211D01*
X125467937Y-107964948D01*
X125942215Y-107490670D01*
X129557500Y-107490670D01*
X129557500Y-107647330D01*
X129588063Y-107800980D01*
X129648014Y-107945716D01*
X129735050Y-108075974D01*
X129845826Y-108186750D01*
X129976084Y-108273786D01*
X130120820Y-108333737D01*
X130274470Y-108364300D01*
X130431130Y-108364300D01*
X130584780Y-108333737D01*
X130729516Y-108273786D01*
X130859774Y-108186750D01*
X130970550Y-108075974D01*
X131057586Y-107945716D01*
X131117537Y-107800980D01*
X131148100Y-107647330D01*
X131148100Y-107490670D01*
X131117537Y-107337020D01*
X131057586Y-107192284D01*
X130970550Y-107062026D01*
X130859774Y-106951250D01*
X130729516Y-106864214D01*
X130584780Y-106804263D01*
X130431130Y-106773700D01*
X130274470Y-106773700D01*
X130120820Y-106804263D01*
X129976084Y-106864214D01*
X129845826Y-106951250D01*
X129735050Y-107062026D01*
X129648014Y-107192284D01*
X129588063Y-107337020D01*
X129557500Y-107490670D01*
X125942215Y-107490670D01*
X126305285Y-107127600D01*
X126398695Y-107127600D01*
X126514614Y-107104542D01*
X126623807Y-107059313D01*
X126722078Y-106993650D01*
X126805650Y-106910078D01*
X126871313Y-106811807D01*
X126916542Y-106702614D01*
X126939600Y-106586695D01*
X126939600Y-106468505D01*
X126916542Y-106352586D01*
X126871313Y-106243393D01*
X126805650Y-106145122D01*
X126722078Y-106061550D01*
X126623807Y-105995887D01*
X126514614Y-105950658D01*
X126398695Y-105927600D01*
X126280505Y-105927600D01*
X126164586Y-105950658D01*
X126055393Y-105995887D01*
X125957122Y-106061550D01*
X125873550Y-106145122D01*
X125807887Y-106243393D01*
X125762658Y-106352586D01*
X125739600Y-106468505D01*
X125739600Y-106561915D01*
X125033222Y-107268294D01*
X124994878Y-107229950D01*
X124896607Y-107164287D01*
X124787414Y-107119058D01*
X124671495Y-107096000D01*
X124553305Y-107096000D01*
X124437386Y-107119058D01*
X124328193Y-107164287D01*
X124229922Y-107229950D01*
X124146350Y-107313522D01*
X124080687Y-107411793D01*
X124035458Y-107520986D01*
X124012400Y-107636905D01*
X116868500Y-107636905D01*
X116868500Y-99914965D01*
X116871402Y-99885499D01*
X116868500Y-99856033D01*
X116868500Y-99856026D01*
X116859818Y-99767879D01*
X116825510Y-99654779D01*
X116769796Y-99550545D01*
X116694817Y-99459183D01*
X116671925Y-99440396D01*
X116193028Y-98961500D01*
X121954026Y-98961500D01*
X121983500Y-98964403D01*
X122012974Y-98961500D01*
X122101121Y-98952818D01*
X122214221Y-98918510D01*
X122318455Y-98862796D01*
X122409817Y-98787817D01*
X122428613Y-98764914D01*
X122913789Y-98279739D01*
X122949682Y-98272599D01*
X123077074Y-98219832D01*
X123191724Y-98143226D01*
X123289226Y-98045724D01*
X123365832Y-97931074D01*
X123418599Y-97803682D01*
X123445500Y-97668444D01*
X123445500Y-97530556D01*
X123418599Y-97395318D01*
X123365832Y-97267926D01*
X123289226Y-97153276D01*
X123191724Y-97055774D01*
X123077074Y-96979168D01*
X122949682Y-96926401D01*
X122814444Y-96899500D01*
X122676556Y-96899500D01*
X122541318Y-96926401D01*
X122413926Y-96979168D01*
X122299276Y-97055774D01*
X122201774Y-97153276D01*
X122125168Y-97267926D01*
X122072401Y-97395318D01*
X122065261Y-97431211D01*
X121734973Y-97761500D01*
X115106503Y-97761500D01*
X115076074Y-97741168D01*
X114948682Y-97688401D01*
X114813444Y-97661500D01*
X114675556Y-97661500D01*
X114540318Y-97688401D01*
X114412926Y-97741168D01*
X114298276Y-97817774D01*
X114200774Y-97915276D01*
X114124168Y-98029926D01*
X114071401Y-98157318D01*
X114044500Y-98292556D01*
X111902800Y-98292556D01*
X111902800Y-91643327D01*
X113118891Y-92859419D01*
X113137683Y-92882317D01*
X113229045Y-92957296D01*
X113333277Y-93013009D01*
X113333279Y-93013010D01*
X113446379Y-93047318D01*
X113564000Y-93058903D01*
X113593474Y-93056000D01*
X117556186Y-93056000D01*
X117585660Y-93058903D01*
X117615134Y-93056000D01*
X117703281Y-93047318D01*
X117816381Y-93013010D01*
X117920615Y-92957296D01*
X118011977Y-92882317D01*
X118030773Y-92859414D01*
X119197919Y-91692269D01*
X119220817Y-91673477D01*
X119295796Y-91582115D01*
X119351510Y-91477881D01*
X119385818Y-91364781D01*
X119394500Y-91276634D01*
X119397403Y-91247160D01*
X119394500Y-91217686D01*
X119394500Y-91145869D01*
X120552920Y-91145869D01*
X120622138Y-91373927D01*
X120866713Y-91482282D01*
X121127727Y-91540841D01*
X121395150Y-91547353D01*
X121658705Y-91501569D01*
X121908264Y-91405247D01*
X121966862Y-91373927D01*
X122036080Y-91145869D01*
X121294500Y-90404289D01*
X120552920Y-91145869D01*
X119394500Y-91145869D01*
X119394500Y-91048418D01*
X119463836Y-91002089D01*
X119610089Y-90855836D01*
X119724998Y-90683862D01*
X119804150Y-90492774D01*
X119844500Y-90289916D01*
X119844500Y-90287150D01*
X119933647Y-90287150D01*
X119979431Y-90550705D01*
X120075753Y-90800264D01*
X120107073Y-90858862D01*
X120335131Y-90928080D01*
X121076711Y-90186500D01*
X121512289Y-90186500D01*
X122253869Y-90928080D01*
X122481927Y-90858862D01*
X122590282Y-90614287D01*
X122648841Y-90353273D01*
X122655353Y-90085850D01*
X122609569Y-89822295D01*
X122513247Y-89572736D01*
X122481927Y-89514138D01*
X122253869Y-89444920D01*
X121512289Y-90186500D01*
X121076711Y-90186500D01*
X120335131Y-89444920D01*
X120107073Y-89514138D01*
X119998718Y-89758713D01*
X119940159Y-90019727D01*
X119933647Y-90287150D01*
X119844500Y-90287150D01*
X119844500Y-90083084D01*
X119804150Y-89880226D01*
X119724998Y-89689138D01*
X119610089Y-89517164D01*
X119463836Y-89370911D01*
X119291862Y-89256002D01*
X119100774Y-89176850D01*
X118897916Y-89136500D01*
X118691084Y-89136500D01*
X118488226Y-89176850D01*
X118297138Y-89256002D01*
X118125164Y-89370911D01*
X117978911Y-89517164D01*
X117864002Y-89689138D01*
X117784850Y-89880226D01*
X117744500Y-90083084D01*
X117744500Y-90289916D01*
X117784850Y-90492774D01*
X117864002Y-90683862D01*
X117978911Y-90855836D01*
X118125164Y-91002089D01*
X118164656Y-91028476D01*
X117337133Y-91856000D01*
X113812528Y-91856000D01*
X112328232Y-90371704D01*
X112344500Y-90289916D01*
X112344500Y-90083084D01*
X112744500Y-90083084D01*
X112744500Y-90289916D01*
X112784850Y-90492774D01*
X112864002Y-90683862D01*
X112978911Y-90855836D01*
X113125164Y-91002089D01*
X113297138Y-91116998D01*
X113488226Y-91196150D01*
X113691084Y-91236500D01*
X113897916Y-91236500D01*
X114100774Y-91196150D01*
X114291862Y-91116998D01*
X114463836Y-91002089D01*
X114610089Y-90855836D01*
X114724998Y-90683862D01*
X114804150Y-90492774D01*
X114844500Y-90289916D01*
X114844500Y-90083084D01*
X115244500Y-90083084D01*
X115244500Y-90289916D01*
X115284850Y-90492774D01*
X115364002Y-90683862D01*
X115478911Y-90855836D01*
X115625164Y-91002089D01*
X115797138Y-91116998D01*
X115988226Y-91196150D01*
X116191084Y-91236500D01*
X116397916Y-91236500D01*
X116600774Y-91196150D01*
X116791862Y-91116998D01*
X116963836Y-91002089D01*
X117110089Y-90855836D01*
X117224998Y-90683862D01*
X117304150Y-90492774D01*
X117344500Y-90289916D01*
X117344500Y-90083084D01*
X117304150Y-89880226D01*
X117224998Y-89689138D01*
X117110089Y-89517164D01*
X116963836Y-89370911D01*
X116791862Y-89256002D01*
X116600774Y-89176850D01*
X116397916Y-89136500D01*
X116191084Y-89136500D01*
X115988226Y-89176850D01*
X115797138Y-89256002D01*
X115625164Y-89370911D01*
X115478911Y-89517164D01*
X115364002Y-89689138D01*
X115284850Y-89880226D01*
X115244500Y-90083084D01*
X114844500Y-90083084D01*
X114804150Y-89880226D01*
X114724998Y-89689138D01*
X114610089Y-89517164D01*
X114463836Y-89370911D01*
X114291862Y-89256002D01*
X114100774Y-89176850D01*
X113897916Y-89136500D01*
X113691084Y-89136500D01*
X113488226Y-89176850D01*
X113297138Y-89256002D01*
X113125164Y-89370911D01*
X112978911Y-89517164D01*
X112864002Y-89689138D01*
X112784850Y-89880226D01*
X112744500Y-90083084D01*
X112344500Y-90083084D01*
X112304150Y-89880226D01*
X112224998Y-89689138D01*
X112110089Y-89517164D01*
X111963836Y-89370911D01*
X111791862Y-89256002D01*
X111600774Y-89176850D01*
X111397916Y-89136500D01*
X111191084Y-89136500D01*
X110988226Y-89176850D01*
X110797138Y-89256002D01*
X110625164Y-89370911D01*
X110478911Y-89517164D01*
X110364002Y-89689138D01*
X110284850Y-89880226D01*
X110244500Y-90083084D01*
X110244500Y-90289916D01*
X110284850Y-90492774D01*
X110364002Y-90683862D01*
X110478911Y-90855836D01*
X110625164Y-91002089D01*
X110694501Y-91048418D01*
X110694501Y-91217677D01*
X110691597Y-91247160D01*
X110702800Y-91360902D01*
X110702801Y-111169500D01*
X110124800Y-111169500D01*
X110124800Y-108144905D01*
X110119021Y-108115852D01*
X110116118Y-108086379D01*
X110107521Y-108058037D01*
X110101742Y-108028986D01*
X110090408Y-108001623D01*
X110081810Y-107973279D01*
X110067847Y-107947156D01*
X110056513Y-107919793D01*
X110040059Y-107895168D01*
X110026096Y-107869045D01*
X110007304Y-107846147D01*
X109990850Y-107821522D01*
X109969909Y-107800581D01*
X109951117Y-107777683D01*
X109928220Y-107758892D01*
X109907278Y-107737950D01*
X109882649Y-107721494D01*
X109859754Y-107702704D01*
X109833636Y-107688744D01*
X109809007Y-107672287D01*
X109781639Y-107660951D01*
X109755520Y-107646990D01*
X109727180Y-107638393D01*
X109699814Y-107627058D01*
X109670760Y-107621279D01*
X109642420Y-107612682D01*
X109612949Y-107609779D01*
X109583895Y-107604000D01*
X109554274Y-107604000D01*
X109524800Y-107601097D01*
X109495326Y-107604000D01*
X109465705Y-107604000D01*
X109436652Y-107609779D01*
X109407179Y-107612682D01*
X109378837Y-107621279D01*
X109349786Y-107627058D01*
X109322423Y-107638392D01*
X109294079Y-107646990D01*
X109267956Y-107660953D01*
X109240593Y-107672287D01*
X109215968Y-107688741D01*
X109189845Y-107702704D01*
X109166947Y-107721496D01*
X109142322Y-107737950D01*
X109121381Y-107758891D01*
X109098483Y-107777683D01*
X109079692Y-107800580D01*
X109058750Y-107821522D01*
X109042294Y-107846151D01*
X109023504Y-107869046D01*
X109009544Y-107895164D01*
X108993087Y-107919793D01*
X108981751Y-107947161D01*
X108967790Y-107973280D01*
X108959193Y-108001620D01*
X108947858Y-108028986D01*
X108942079Y-108058040D01*
X108933482Y-108086380D01*
X108930579Y-108115851D01*
X108924800Y-108144905D01*
X108924800Y-108174527D01*
X108924801Y-111169500D01*
X108245200Y-111169500D01*
X108245200Y-103674505D01*
X108239421Y-103645452D01*
X108236518Y-103615979D01*
X108227921Y-103587637D01*
X108222142Y-103558586D01*
X108210808Y-103531223D01*
X108202210Y-103502879D01*
X108188247Y-103476756D01*
X108176913Y-103449393D01*
X108160459Y-103424768D01*
X108146496Y-103398645D01*
X108127704Y-103375747D01*
X108111250Y-103351122D01*
X108090309Y-103330181D01*
X108071517Y-103307283D01*
X108048620Y-103288492D01*
X108027678Y-103267550D01*
X108003049Y-103251094D01*
X107980154Y-103232304D01*
X107954036Y-103218344D01*
X107929407Y-103201887D01*
X107902039Y-103190551D01*
X107875920Y-103176590D01*
X107847580Y-103167993D01*
X107820214Y-103156658D01*
X107791160Y-103150879D01*
X107762820Y-103142282D01*
X107733349Y-103139379D01*
X107704295Y-103133600D01*
X107674674Y-103133600D01*
X107645200Y-103130697D01*
X107615726Y-103133600D01*
X107586105Y-103133600D01*
X107557052Y-103139379D01*
X107527579Y-103142282D01*
X107499237Y-103150879D01*
X107470186Y-103156658D01*
X107442823Y-103167992D01*
X107414479Y-103176590D01*
X107388356Y-103190553D01*
X107360993Y-103201887D01*
X107336368Y-103218341D01*
X107310245Y-103232304D01*
X107287347Y-103251096D01*
X107262722Y-103267550D01*
X107241781Y-103288491D01*
X107218883Y-103307283D01*
X107200092Y-103330180D01*
X107179150Y-103351122D01*
X107162694Y-103375751D01*
X107143904Y-103398646D01*
X107129944Y-103424764D01*
X107113487Y-103449393D01*
X107102151Y-103476761D01*
X107088190Y-103502880D01*
X107079593Y-103531220D01*
X107068258Y-103558586D01*
X107062479Y-103587640D01*
X107053882Y-103615980D01*
X107050979Y-103645451D01*
X107045200Y-103674505D01*
X107045200Y-103704127D01*
X107045201Y-111169500D01*
X99914000Y-111169500D01*
X99914000Y-109872105D01*
X99908221Y-109843052D01*
X99905318Y-109813579D01*
X99896721Y-109785237D01*
X99890942Y-109756186D01*
X99879608Y-109728823D01*
X99871010Y-109700479D01*
X99857047Y-109674356D01*
X99845713Y-109646993D01*
X99829259Y-109622368D01*
X99815296Y-109596245D01*
X99796504Y-109573347D01*
X99780050Y-109548722D01*
X99759109Y-109527781D01*
X99740317Y-109504883D01*
X99717420Y-109486092D01*
X99696478Y-109465150D01*
X99671849Y-109448694D01*
X99648954Y-109429904D01*
X99622836Y-109415944D01*
X99598207Y-109399487D01*
X99570839Y-109388151D01*
X99544720Y-109374190D01*
X99516380Y-109365593D01*
X99489014Y-109354258D01*
X99459960Y-109348479D01*
X99431620Y-109339882D01*
X99402149Y-109336979D01*
X99373095Y-109331200D01*
X99343474Y-109331200D01*
X99314000Y-109328297D01*
X99284526Y-109331200D01*
X99254905Y-109331200D01*
X99225852Y-109336979D01*
X99196379Y-109339882D01*
X99168037Y-109348479D01*
X99138986Y-109354258D01*
X99111623Y-109365592D01*
X99083279Y-109374190D01*
X99057156Y-109388153D01*
X99029793Y-109399487D01*
X99005168Y-109415941D01*
X98979045Y-109429904D01*
X98956147Y-109448696D01*
X98931522Y-109465150D01*
X98910581Y-109486091D01*
X98887683Y-109504883D01*
X98868892Y-109527780D01*
X98847950Y-109548722D01*
X98831494Y-109573351D01*
X98812704Y-109596246D01*
X98798744Y-109622364D01*
X98782287Y-109646993D01*
X98770951Y-109674361D01*
X98756990Y-109700480D01*
X98748393Y-109728820D01*
X98737058Y-109756186D01*
X98731279Y-109785240D01*
X98722682Y-109813580D01*
X98719779Y-109843051D01*
X98714000Y-109872105D01*
X98714000Y-109901727D01*
X98714001Y-111169500D01*
X97028000Y-111169500D01*
X96953470Y-111176505D01*
X96878232Y-111198596D01*
X96808750Y-111234941D01*
X96747694Y-111284143D01*
X96697410Y-111344311D01*
X96659830Y-111413133D01*
X96636398Y-111487964D01*
X96628016Y-111565929D01*
X96564516Y-118677929D01*
X87261779Y-118677929D01*
X87255997Y-118673184D01*
X87056215Y-118566398D01*
X87010362Y-118552489D01*
X87464000Y-118554942D01*
X87583189Y-118543203D01*
X87697797Y-118508437D01*
X87803421Y-118451980D01*
X87896001Y-118376001D01*
X87971980Y-118283421D01*
X88028437Y-118177797D01*
X88063203Y-118063189D01*
X88074942Y-117944000D01*
X88072000Y-117400000D01*
X87920000Y-117248000D01*
X86768000Y-117248000D01*
X86768000Y-117268000D01*
X86460000Y-117268000D01*
X86460000Y-117248000D01*
X85308000Y-117248000D01*
X85156000Y-117400000D01*
X85153058Y-117944000D01*
X84030028Y-117944000D01*
X84034717Y-116244000D01*
X85153058Y-116244000D01*
X85156000Y-116788000D01*
X85308000Y-116940000D01*
X86460000Y-116940000D01*
X86460000Y-115788000D01*
X86768000Y-115788000D01*
X86768000Y-116940000D01*
X87920000Y-116940000D01*
X88072000Y-116788000D01*
X88074942Y-116244000D01*
X88063203Y-116124811D01*
X88028437Y-116010203D01*
X87971980Y-115904579D01*
X87896001Y-115811999D01*
X87803421Y-115736020D01*
X87697797Y-115679563D01*
X87583189Y-115644797D01*
X87464000Y-115633058D01*
X86920000Y-115636000D01*
X86768000Y-115788000D01*
X86460000Y-115788000D01*
X86308000Y-115636000D01*
X85764000Y-115633058D01*
X85644811Y-115644797D01*
X85530203Y-115679563D01*
X85424579Y-115736020D01*
X85331999Y-115811999D01*
X85256020Y-115904579D01*
X85199563Y-116010203D01*
X85164797Y-116124811D01*
X85153058Y-116244000D01*
X84034717Y-116244000D01*
X84061882Y-106396538D01*
X87553200Y-106396538D01*
X87553200Y-106701862D01*
X87612765Y-107001318D01*
X87729608Y-107283400D01*
X87899236Y-107537268D01*
X88115132Y-107753164D01*
X88369000Y-107922792D01*
X88651082Y-108039635D01*
X88950538Y-108099200D01*
X89255862Y-108099200D01*
X89555318Y-108039635D01*
X89837400Y-107922792D01*
X90091268Y-107753164D01*
X90307164Y-107537268D01*
X90476792Y-107283400D01*
X90593635Y-107001318D01*
X90653200Y-106701862D01*
X90653200Y-106396538D01*
X90593635Y-106097082D01*
X90476792Y-105815000D01*
X90307164Y-105561132D01*
X90091268Y-105345236D01*
X89837400Y-105175608D01*
X89555318Y-105058765D01*
X89255862Y-104999200D01*
X88950538Y-104999200D01*
X88651082Y-105058765D01*
X88369000Y-105175608D01*
X88115132Y-105345236D01*
X87899236Y-105561132D01*
X87729608Y-105815000D01*
X87612765Y-106097082D01*
X87553200Y-106396538D01*
X84061882Y-106396538D01*
X84075535Y-101447338D01*
X87604000Y-101447338D01*
X87604000Y-101752662D01*
X87663565Y-102052118D01*
X87780408Y-102334200D01*
X87950036Y-102588068D01*
X88165932Y-102803964D01*
X88419800Y-102973592D01*
X88701882Y-103090435D01*
X89001338Y-103150000D01*
X89306662Y-103150000D01*
X89606118Y-103090435D01*
X89888200Y-102973592D01*
X90142068Y-102803964D01*
X90357964Y-102588068D01*
X90527592Y-102334200D01*
X90644435Y-102052118D01*
X90704000Y-101752662D01*
X90704000Y-101447338D01*
X90644435Y-101147882D01*
X90527592Y-100865800D01*
X90357964Y-100611932D01*
X90142068Y-100396036D01*
X89888200Y-100226408D01*
X89606118Y-100109565D01*
X89306662Y-100050000D01*
X89001338Y-100050000D01*
X88701882Y-100109565D01*
X88419800Y-100226408D01*
X88165932Y-100396036D01*
X87950036Y-100611932D01*
X87780408Y-100865800D01*
X87663565Y-101147882D01*
X87604000Y-101447338D01*
X84075535Y-101447338D01*
X84109773Y-89036693D01*
X84144467Y-88984329D01*
X84254220Y-88873522D01*
X86548571Y-88878430D01*
M02*
