M48
; DRILL file {KiCad (5.1.2)-1} date 03/08/2019 00:37:32
; FORMAT={-:-/ absolute / inch / decimal}
; #@! TF.CreationDate,2019-08-03T00:37:32-03:00
; #@! TF.GenerationSoftware,Kicad,Pcbnew,(5.1.2)-1
; #@! TF.FileFunction,Plated,1,2,PTH
FMAT,2
INCH
T1C0.0118
T2C0.0300
T3C0.0394
T4C0.0472
T5C0.0551
T6C0.0591
T7C0.0787
T8C0.0866
%
G90
G05
T1
X3.342Y-4.898
X3.342Y-4.956
X3.342Y-5.018
X3.342Y-5.066
X3.348Y-4.39
X3.348Y-4.46
X3.35Y-3.754
X3.35Y-3.824
X3.35Y-3.892
X3.374Y-4.322
X3.382Y-4.926
X3.382Y-4.984
X3.382Y-5.046
X3.382Y-5.094
X3.3975Y-4.4375
X3.3975Y-4.505
X3.4Y-4.358
X3.402Y-3.722
X3.402Y-3.792
X3.402Y-3.86
X3.412Y-4.298
X3.426Y-4.9
X3.426Y-4.958
X3.426Y-5.02
X3.426Y-5.068
X3.442Y-4.338
X3.442Y-4.408
X3.442Y-4.476
X3.454Y-3.746
X3.454Y-3.816
X3.454Y-3.884
X3.476Y-4.92
X3.476Y-4.978
X3.476Y-5.04
X3.476Y-5.088
X3.48Y-4.314
X3.48Y-4.384
X3.48Y-4.452
X3.48Y-4.526
X3.498Y-3.722
X3.498Y-3.792
X3.498Y-3.86
X3.518Y-4.358
X3.518Y-4.428
X3.518Y-4.496
X3.518Y-4.57
X3.518Y-4.964
X3.518Y-5.052
X3.518Y-5.122
X3.538Y-3.892
X3.544Y-3.52
X3.544Y-3.59
X3.544Y-3.658
X3.544Y-3.724
X3.544Y-3.794
X3.544Y-3.842
X3.544Y-4.88
X3.552Y-4.592
X3.554Y-4.942
X3.554Y-4.992
X3.556Y-4.314
X3.556Y-4.384
X3.556Y-4.452
X3.556Y-4.526
X3.56Y-4.788
X3.57Y-5.046
X3.57Y-5.11
X3.57Y-5.18
X3.584Y-3.874
X3.59Y-4.562
X3.59Y-4.636
X3.59Y-4.83
X3.596Y-3.544
X3.596Y-3.614
X3.596Y-3.682
X3.596Y-3.748
X3.596Y-3.818
X3.598Y-4.348
X3.598Y-4.418
X3.598Y-4.494
X3.608Y-4.928
X3.608Y-4.998
X3.614Y-4.74
X3.614Y-4.878
X3.614Y-5.066
X3.614Y-5.132
X3.614Y-5.202
X3.614Y-5.254
X3.628Y-4.518
X3.628Y-4.592
X3.632Y-4.314
X3.632Y-4.384
X3.632Y-4.452
X3.632Y-4.792
X3.642Y-3.528
X3.642Y-3.594
X3.642Y-3.664
X3.642Y-3.728
X3.642Y-3.798
X3.642Y-3.866
X3.648Y-4.688
X3.658Y-5.232
X3.66Y-5.048
X3.66Y-5.112
X3.66Y-5.182
X3.662Y-4.812
X3.662Y-4.854
X3.662Y-4.92
X3.662Y-4.99
X3.666Y-4.348
X3.666Y-4.418
X3.666Y-5.29
X3.67Y-4.484
X3.67Y-4.56
X3.672Y-4.76
X3.686Y-4.304
X3.6875Y-4.38
X3.688Y-4.646
X3.694Y-3.562
X3.694Y-3.632
X3.694Y-3.696
X3.694Y-3.766
X3.694Y-3.834
X3.696Y-3.888
X3.704Y-4.45
X3.704Y-4.518
X3.708Y-4.836
X3.708Y-4.9
X3.708Y-4.97
X3.71Y-4.718
X3.71Y-4.786
X3.71Y-5.268
X3.712Y-5.016
X3.712Y-5.08
X3.712Y-5.15
X3.712Y-5.218
X3.716Y-4.345
X3.728Y-4.3
X3.728Y-4.414
X3.732Y-4.608
X3.738Y-4.484
X3.742Y-3.87
X3.746Y-3.552
X3.746Y-3.622
X3.746Y-3.69
X3.746Y-3.754
X3.746Y-3.824
X3.746Y-5.286
X3.752Y-4.38
X3.758Y-4.326
X3.76Y-4.804
X3.76Y-4.868
X3.76Y-4.938
X3.76Y-5.006
X3.762Y-4.686
X3.764Y-4.74
X3.764Y-5.074
X3.764Y-5.138
X3.764Y-5.208
X3.766Y-4.45
X3.774Y-4.566
X3.774Y-5.262
X3.784Y-4.348
X3.79Y-4.652
X3.792Y-4.412
X3.8Y-5.29
X3.802Y-3.526
X3.802Y-3.596
X3.802Y-3.664
X3.802Y-3.728
X3.802Y-3.822
X3.802Y-3.902
X3.802Y-3.97
X3.802Y-4.034
X3.808Y-4.79
X3.81Y-5.154
X3.81Y-5.224
X3.812Y-4.862
X3.812Y-4.926
X3.812Y-4.996
X3.814Y-4.374
X3.838Y-4.76
X3.856Y-3.554
X3.856Y-3.624
X3.856Y-3.692
X3.856Y-3.756
X3.856Y-3.826
X3.862Y-3.934
X3.862Y-4.002
X3.862Y-5.148
X3.862Y-5.212
X3.862Y-5.282
X3.866Y-3.882
X3.91Y-3.684
X3.91Y-3.78
X3.91Y-3.864
X3.91Y-3.94
X3.91Y-4.014
X3.91Y-4.328
X3.926Y-5.28
X3.962Y-3.652
X3.962Y-3.748
X3.962Y-3.832
X3.962Y-3.908
X3.962Y-3.982
X3.974Y-5.282
X4.014Y-3.676
X4.014Y-3.772
X4.014Y-3.856
X4.014Y-3.932
X4.014Y-4.006
X4.025Y-5.13
X4.03Y-5.286
X4.072Y-3.652
X4.072Y-3.748
X4.072Y-3.832
X4.072Y-3.908
X4.072Y-3.982
X4.078Y-5.284
X4.116Y-5.282
X4.126Y-3.672
X4.126Y-3.768
X4.126Y-3.852
X4.162Y-3.988
X4.164Y-5.284
X4.18Y-3.644
X4.18Y-3.74
X4.18Y-3.824
X4.206Y-4.01
X4.212Y-3.946
X4.222Y-5.284
X4.234Y-3.616
X4.234Y-3.712
X4.234Y-3.796
X4.238Y-4.084
X4.254Y-3.906
X4.264Y-3.976
X4.27Y-5.286
X4.3Y-3.612
X4.3Y-3.682
X4.3Y-3.748
X4.312Y-4.26
X4.326Y-5.29
X4.3525Y-4.8275
X4.355Y-4.9625
X4.374Y-5.288
X4.412Y-5.286
X4.45Y-4.7
X4.46Y-5.288
X4.5175Y-3.8725
X4.522Y-5.286
X4.562Y-4.728
X4.568Y-4.796
X4.568Y-4.862
X4.576Y-5.08
X4.576Y-5.29
X4.5775Y-4.29
X4.578Y-4.902
X4.582Y-5.148
X4.582Y-5.214
X4.584Y-4.97
X4.584Y-5.036
X4.586Y-5.254
X4.614Y-4.778
X4.614Y-4.842
X4.616Y-4.72
X4.616Y-5.286
X4.628Y-5.13
X4.628Y-5.194
X4.63Y-5.016
X4.63Y-5.072
X4.632Y-5.234
X4.648Y-5.274
X4.6525Y-4.0025
X4.6525Y-4.0275
X4.6525Y-4.0525
X4.6525Y-4.0775
X4.6525Y-4.1025
X4.6525Y-4.1275
X4.674Y-4.702
X4.6775Y-4.0025
X4.6775Y-4.0275
X4.6775Y-4.0525
X4.6775Y-4.0775
X4.6775Y-4.1025
X4.6775Y-4.1275
X4.68Y-5.098
X4.68Y-5.162
X4.68Y-5.232
X4.682Y-4.984
X4.682Y-5.054
X4.696Y-5.276
X4.705Y-4.0025
X4.705Y-4.0275
X4.705Y-4.0525
X4.705Y-4.0775
X4.705Y-4.1025
X4.705Y-4.1275
X4.706Y-5.02
X4.72Y-3.735
X4.726Y-4.794
X4.726Y-4.924
X4.728Y-3.677
X4.728Y-5.088
X4.732Y-3.617
X4.732Y-5.156
X4.732Y-5.22
X4.7325Y-4.0025
X4.7325Y-4.0275
X4.7325Y-4.0525
X4.7325Y-4.0775
X4.7325Y-4.1025
X4.7325Y-4.1275
X4.734Y-4.978
X4.734Y-5.042
X4.752Y-5.28
X4.7575Y-4.0025
X4.7575Y-4.0275
X4.7575Y-4.0525
X4.7575Y-4.0775
X4.7575Y-4.1025
X4.7575Y-4.1275
X4.7675Y-3.765
X4.7675Y-3.809
X4.7755Y-3.707
X4.7795Y-3.647
X4.7825Y-4.0025
X4.7825Y-4.0275
X4.7825Y-4.0525
X4.7825Y-4.0775
X4.7825Y-4.1025
X4.7825Y-4.1275
X4.788Y-4.802
X4.8Y-5.278
X4.808Y-3.735
X4.808Y-3.792
X4.816Y-5.058
X4.816Y-5.108
X4.818Y-4.954
X4.818Y-5.004
X4.82Y-3.617
X4.822Y-3.675
X4.8325Y-3.8425
X4.838Y-5.276
X4.846Y-3.768
X4.8675Y-3.647
X4.8695Y-3.705
X4.876Y-4.8
X4.884Y-4.952
X4.884Y-5.002
X4.884Y-5.058
X4.884Y-5.108
X4.886Y-5.278
X4.906Y-4.24
X4.908Y-4.718
X4.922Y-3.673
X4.942Y-5.282
X4.95Y-5.064
X4.95Y-5.114
X4.954Y-4.952
X4.954Y-5.002
X4.9675Y-4.04
X4.9675Y-4.1375
X4.9695Y-3.703
X4.974Y-4.194
X4.99Y-5.28
X5.0025Y-4.04
X5.0025Y-4.13
X5.032Y-5.28
X5.0375Y-4.04
X5.0375Y-4.13
X5.042Y-4.704
X5.042Y-4.754
X5.042Y-4.826
X5.042Y-4.876
X5.042Y-4.92
X5.042Y-4.97
X5.05Y-5.176
X5.05Y-5.226
X5.064Y-3.663
X5.065Y-3.525
X5.0665Y-3.7205
X5.0675Y-3.59
X5.07Y-3.796
X5.075Y-4.04
X5.075Y-4.13
X5.08Y-3.884
X5.08Y-3.9645
X5.08Y-5.282
X5.098Y-5.178
X5.098Y-5.228
X5.11Y-4.04
X5.11Y-4.13
X5.114Y-3.663
X5.115Y-3.555
X5.1165Y-3.7805
X5.12Y-3.852
X5.12Y-3.942
X5.136Y-5.286
X5.145Y-4.04
X5.145Y-4.13
X5.154Y-5.182
X5.154Y-5.232
X5.1615Y-3.638
X5.1615Y-3.693
X5.1615Y-3.7505
X5.1625Y-3.525
X5.1625Y-3.5875
X5.164Y-3.8105
X5.166Y-3.89
X5.166Y-3.972
X5.182Y-4.216
X5.1825Y-4.04
X5.1825Y-4.13
X5.184Y-5.284
X5.202Y-5.18
X5.202Y-5.23
X5.2025Y-4.4875
X5.205Y-4.405
X5.205Y-4.4425
X5.2085Y-3.9865
X5.21Y-3.914
X5.214Y-3.6105
X5.214Y-3.663
X5.214Y-3.723
X5.215Y-3.555
X5.2165Y-3.7805
X5.2165Y-3.8405
X5.2175Y-4.04
X5.2175Y-4.13
X5.24Y-5.23
X5.25Y-4.405
X5.25Y-4.4425
X5.252Y-3.6325
X5.252Y-3.685
X5.252Y-3.745
X5.252Y-5.278
X5.2525Y-3.525
X5.2525Y-4.04
X5.2525Y-4.13
X5.2545Y-3.8025
X5.2545Y-3.8625
X5.2545Y-3.9905
X5.256Y-3.582
X5.258Y-3.93
X5.2675Y-4.47
X5.29Y-4.04
X5.29Y-4.13
X5.2975Y-4.405
X5.2975Y-4.485
X5.2995Y-3.66
X5.2995Y-3.715
X5.2995Y-3.7725
X5.3Y-4.4425
X5.302Y-3.606
X5.302Y-3.8325
X5.302Y-3.89
X5.302Y-3.998
X5.3025Y-3.555
X5.306Y-3.944
X5.314Y-5.18
X5.32Y-4.4675
X5.322Y-4.21
X5.325Y-4.04
X5.325Y-4.13
X5.325Y-4.5025
X5.325Y-4.5025
X5.326Y-5.228
X5.345Y-4.405
X5.345Y-4.44
X5.345Y-4.4775
X5.35Y-3.525
X5.352Y-3.6325
X5.352Y-3.685
X5.352Y-3.745
X5.352Y-3.914
X5.352Y-3.952
X5.352Y-3.992
X5.3545Y-3.8025
X5.3545Y-3.8625
X5.36Y-4.04
X5.36Y-4.13
X5.362Y-5.128
X5.374Y-5.176
X5.394Y-4.442
X5.394Y-4.484
X5.394Y-4.526
X5.3975Y-4.04
X5.3975Y-4.13
X5.398Y-5.092
X5.3995Y-3.657
X5.3995Y-3.7145
X5.402Y-3.7745
X5.402Y-3.832
X5.4035Y-3.9245
X5.408Y-3.992
X5.41Y-4.164
X5.414Y-4.2
X5.418Y-5.144
X5.428Y-4.248
X5.428Y-4.29
X5.428Y-4.338
X5.428Y-4.374
X5.428Y-4.416
X5.428Y-4.464
X5.432Y-4.496
X5.4325Y-4.04
X5.4325Y-4.13
X5.434Y-4.526
X5.4475Y-3.679
X5.4475Y-3.7365
X5.45Y-3.7965
X5.45Y-3.854
X5.4505Y-3.8985
X5.454Y-4.166
X5.454Y-4.204
X5.456Y-3.966
X5.4675Y-4.04
X5.4675Y-4.13
X5.4675Y-4.25
X5.4675Y-4.285
X5.4675Y-4.32
X5.4675Y-4.355
X5.4675Y-4.39
X5.4675Y-4.425
X5.4675Y-4.4575
X5.472Y-5.042
X5.48Y-4.496
X5.48Y-4.53
X5.49Y-3.7025
X5.49Y-3.755
X5.49Y-3.815
X5.49Y-4.168
X5.49Y-4.206
X5.492Y-5.094
X5.4925Y-3.8725
X5.496Y-3.932
X5.498Y-3.994
X5.5025Y-4.4575
X5.505Y-4.04
X5.505Y-4.13
X5.505Y-4.25
X5.52Y-4.99
X5.526Y-4.494
X5.526Y-4.53
X5.5325Y-4.1575
X5.5325Y-4.1925
X5.5325Y-4.2275
X5.5375Y-3.73
X5.5375Y-3.785
X5.5375Y-3.8425
X5.54Y-3.9025
X5.54Y-3.96
X5.54Y-4.04
X5.54Y-4.4575
X5.54Y-5.042
X5.5725Y-4.0575
X5.5775Y-4.4575
X5.578Y-4.496
X5.578Y-4.53
X5.588Y-3.99
X5.59Y-3.7025
X5.59Y-3.755
X5.59Y-3.815
X5.5925Y-3.8725
X5.5925Y-3.9325
X5.5975Y-4.0825
X5.616Y-4.512
X5.6175Y-4.46
X5.6225Y-4.1725
X5.6225Y-4.2075
X5.63Y-4.095
T2
X4.1848Y-3.5506
X4.2832Y-3.5506
X4.3817Y-3.5506
X4.4801Y-3.5506
X4.5785Y-3.5506
X4.6769Y-3.5506
X4.7754Y-3.5506
T3
X3.41Y-4.61
X3.41Y-4.71
X3.41Y-4.81
X3.8991Y-4.89
X3.8991Y-5.0869
X4.47Y-4.89
X4.47Y-4.9884
X4.47Y-5.0869
T4
X5.5668Y-4.6108
X5.5668Y-4.9159
T5
X5.4172Y-4.6167
X5.4172Y-4.91
X3.508Y-4.1949
X3.51Y-4.0
T7
X4.0175Y-3.5625
X4.0175Y-4.4975
X4.9329Y-3.5625
X4.9329Y-4.4975
T8
X5.5275Y-3.5925
X5.535Y-5.2
X3.4175Y-3.5975
X3.4175Y-5.205
T6
G00X4.2003Y-4.768
M15
G01X4.1491Y-4.768
M16
G05
G00X4.2003Y-5.2089
M15
G01X4.1491Y-5.2089
M16
G05
T0
M30
