G04 #@! TF.GenerationSoftware,KiCad,Pcbnew,(5.1.2)-1*
G04 #@! TF.CreationDate,2019-08-02T22:36:28-03:00*
G04 #@! TF.ProjectId,Medidor,4d656469-646f-4722-9e6b-696361645f70,rev?*
G04 #@! TF.SameCoordinates,Original*
G04 #@! TF.FileFunction,Legend,Bot*
G04 #@! TF.FilePolarity,Positive*
%FSLAX46Y46*%
G04 Gerber Fmt 4.6, Leading zero omitted, Abs format (unit mm)*
G04 Created by KiCad (PCBNEW (5.1.2)-1) date 2019-08-02 22:36:28*
%MOMM*%
%LPD*%
G04 APERTURE LIST*
%ADD10C,0.100000*%
%ADD11C,0.150000*%
%ADD12C,0.010000*%
%ADD13C,0.120000*%
%ADD14C,0.500000*%
G04 APERTURE END LIST*
D10*
X140448666Y-94586704D02*
X140448666Y-93786704D01*
X140182000Y-94358133D01*
X139915333Y-93786704D01*
X139915333Y-94586704D01*
X139229619Y-94548609D02*
X139305809Y-94586704D01*
X139458190Y-94586704D01*
X139534380Y-94548609D01*
X139572476Y-94472419D01*
X139572476Y-94167657D01*
X139534380Y-94091466D01*
X139458190Y-94053371D01*
X139305809Y-94053371D01*
X139229619Y-94091466D01*
X139191523Y-94167657D01*
X139191523Y-94243847D01*
X139572476Y-94320038D01*
X138962952Y-94053371D02*
X138658190Y-94053371D01*
X138848666Y-93786704D02*
X138848666Y-94472419D01*
X138810571Y-94548609D01*
X138734380Y-94586704D01*
X138658190Y-94586704D01*
X138086761Y-94548609D02*
X138162952Y-94586704D01*
X138315333Y-94586704D01*
X138391523Y-94548609D01*
X138429619Y-94472419D01*
X138429619Y-94167657D01*
X138391523Y-94091466D01*
X138315333Y-94053371D01*
X138162952Y-94053371D01*
X138086761Y-94091466D01*
X138048666Y-94167657D01*
X138048666Y-94243847D01*
X138429619Y-94320038D01*
X137705809Y-94586704D02*
X137705809Y-94053371D01*
X137705809Y-94205752D02*
X137667714Y-94129561D01*
X137629619Y-94091466D01*
X137553428Y-94053371D01*
X137477238Y-94053371D01*
X136448666Y-93786704D02*
X136296285Y-93786704D01*
X136220095Y-93824800D01*
X136143904Y-93900990D01*
X136105809Y-94053371D01*
X136105809Y-94320038D01*
X136143904Y-94472419D01*
X136220095Y-94548609D01*
X136296285Y-94586704D01*
X136448666Y-94586704D01*
X136524857Y-94548609D01*
X136601047Y-94472419D01*
X136639142Y-94320038D01*
X136639142Y-94053371D01*
X136601047Y-93900990D01*
X136524857Y-93824800D01*
X136448666Y-93786704D01*
X135762952Y-94053371D02*
X135762952Y-94586704D01*
X135762952Y-94129561D02*
X135724857Y-94091466D01*
X135648666Y-94053371D01*
X135534380Y-94053371D01*
X135458190Y-94091466D01*
X135420095Y-94167657D01*
X135420095Y-94586704D01*
X134734380Y-94548609D02*
X134810571Y-94586704D01*
X134962952Y-94586704D01*
X135039142Y-94548609D01*
X135077238Y-94472419D01*
X135077238Y-94167657D01*
X135039142Y-94091466D01*
X134962952Y-94053371D01*
X134810571Y-94053371D01*
X134734380Y-94091466D01*
X134696285Y-94167657D01*
X134696285Y-94243847D01*
X135077238Y-94320038D01*
X133858190Y-94053371D02*
X133553428Y-94053371D01*
X133743904Y-94586704D02*
X133743904Y-93900990D01*
X133705809Y-93824800D01*
X133629619Y-93786704D01*
X133553428Y-93786704D01*
X133172476Y-94586704D02*
X133248666Y-94548609D01*
X133286761Y-94510514D01*
X133324857Y-94434323D01*
X133324857Y-94205752D01*
X133286761Y-94129561D01*
X133248666Y-94091466D01*
X133172476Y-94053371D01*
X133058190Y-94053371D01*
X132982000Y-94091466D01*
X132943904Y-94129561D01*
X132905809Y-94205752D01*
X132905809Y-94434323D01*
X132943904Y-94510514D01*
X132982000Y-94548609D01*
X133058190Y-94586704D01*
X133172476Y-94586704D01*
X132562952Y-94586704D02*
X132562952Y-94053371D01*
X132562952Y-94205752D02*
X132524857Y-94129561D01*
X132486761Y-94091466D01*
X132410571Y-94053371D01*
X132334380Y-94053371D01*
X131496285Y-94358133D02*
X131115333Y-94358133D01*
X131572476Y-94586704D02*
X131305809Y-93786704D01*
X131039142Y-94586704D01*
X130658190Y-94586704D02*
X130734380Y-94548609D01*
X130772476Y-94472419D01*
X130772476Y-93786704D01*
X130239142Y-94586704D02*
X130315333Y-94548609D01*
X130353428Y-94472419D01*
X130353428Y-93786704D01*
X140601047Y-95086704D02*
X140601047Y-95734323D01*
X140562952Y-95810514D01*
X140524857Y-95848609D01*
X140448666Y-95886704D01*
X140296285Y-95886704D01*
X140220095Y-95848609D01*
X140182000Y-95810514D01*
X140143904Y-95734323D01*
X140143904Y-95086704D01*
X139496285Y-95467657D02*
X139762952Y-95467657D01*
X139762952Y-95886704D02*
X139762952Y-95086704D01*
X139382000Y-95086704D01*
X139115333Y-95658133D02*
X138734380Y-95658133D01*
X139191523Y-95886704D02*
X138924857Y-95086704D01*
X138658190Y-95886704D01*
X138010571Y-95886704D02*
X138391523Y-95886704D01*
X138391523Y-95086704D01*
X136067714Y-95810514D02*
X136105809Y-95848609D01*
X136220095Y-95886704D01*
X136296285Y-95886704D01*
X136410571Y-95848609D01*
X136486761Y-95772419D01*
X136524857Y-95696228D01*
X136562952Y-95543847D01*
X136562952Y-95429561D01*
X136524857Y-95277180D01*
X136486761Y-95200990D01*
X136410571Y-95124800D01*
X136296285Y-95086704D01*
X136220095Y-95086704D01*
X136105809Y-95124800D01*
X136067714Y-95162895D01*
X135724857Y-95810514D02*
X135686761Y-95848609D01*
X135724857Y-95886704D01*
X135762952Y-95848609D01*
X135724857Y-95810514D01*
X135724857Y-95886704D01*
X135343904Y-95886704D02*
X135343904Y-95086704D01*
X134962952Y-95810514D02*
X134924857Y-95848609D01*
X134962952Y-95886704D01*
X135001047Y-95848609D01*
X134962952Y-95810514D01*
X134962952Y-95886704D01*
X133401047Y-95162895D02*
X133362952Y-95124800D01*
X133286761Y-95086704D01*
X133096285Y-95086704D01*
X133020095Y-95124800D01*
X132982000Y-95162895D01*
X132943904Y-95239085D01*
X132943904Y-95315276D01*
X132982000Y-95429561D01*
X133439142Y-95886704D01*
X132943904Y-95886704D01*
X132448666Y-95086704D02*
X132372476Y-95086704D01*
X132296285Y-95124800D01*
X132258190Y-95162895D01*
X132220095Y-95239085D01*
X132182000Y-95391466D01*
X132182000Y-95581942D01*
X132220095Y-95734323D01*
X132258190Y-95810514D01*
X132296285Y-95848609D01*
X132372476Y-95886704D01*
X132448666Y-95886704D01*
X132524857Y-95848609D01*
X132562952Y-95810514D01*
X132601047Y-95734323D01*
X132639142Y-95581942D01*
X132639142Y-95391466D01*
X132601047Y-95239085D01*
X132562952Y-95162895D01*
X132524857Y-95124800D01*
X132448666Y-95086704D01*
X131420095Y-95886704D02*
X131877238Y-95886704D01*
X131648666Y-95886704D02*
X131648666Y-95086704D01*
X131724857Y-95200990D01*
X131801047Y-95277180D01*
X131877238Y-95315276D01*
X131039142Y-95886704D02*
X130886761Y-95886704D01*
X130810571Y-95848609D01*
X130772476Y-95810514D01*
X130696285Y-95696228D01*
X130658190Y-95543847D01*
X130658190Y-95239085D01*
X130696285Y-95162895D01*
X130734380Y-95124800D01*
X130810571Y-95086704D01*
X130962952Y-95086704D01*
X131039142Y-95124800D01*
X131077238Y-95162895D01*
X131115333Y-95239085D01*
X131115333Y-95429561D01*
X131077238Y-95505752D01*
X131039142Y-95543847D01*
X130962952Y-95581942D01*
X130810571Y-95581942D01*
X130734380Y-95543847D01*
X130696285Y-95505752D01*
X130658190Y-95429561D01*
X130315333Y-95810514D02*
X130277238Y-95848609D01*
X130315333Y-95886704D01*
X130353428Y-95848609D01*
X130315333Y-95810514D01*
X130315333Y-95886704D01*
X129515333Y-95886704D02*
X129972476Y-95886704D01*
X129743904Y-95886704D02*
X129743904Y-95086704D01*
X129820095Y-95200990D01*
X129896285Y-95277180D01*
X129972476Y-95315276D01*
X143039142Y-96386704D02*
X143039142Y-96958133D01*
X143077238Y-97072419D01*
X143153428Y-97148609D01*
X143267714Y-97186704D01*
X143343904Y-97186704D01*
X142543904Y-97186704D02*
X142620095Y-97148609D01*
X142658190Y-97110514D01*
X142696285Y-97034323D01*
X142696285Y-96805752D01*
X142658190Y-96729561D01*
X142620095Y-96691466D01*
X142543904Y-96653371D01*
X142429619Y-96653371D01*
X142353428Y-96691466D01*
X142315333Y-96729561D01*
X142277238Y-96805752D01*
X142277238Y-97034323D01*
X142315333Y-97110514D01*
X142353428Y-97148609D01*
X142429619Y-97186704D01*
X142543904Y-97186704D01*
X141972476Y-97148609D02*
X141896285Y-97186704D01*
X141743904Y-97186704D01*
X141667714Y-97148609D01*
X141629619Y-97072419D01*
X141629619Y-97034323D01*
X141667714Y-96958133D01*
X141743904Y-96920038D01*
X141858190Y-96920038D01*
X141934380Y-96881942D01*
X141972476Y-96805752D01*
X141972476Y-96767657D01*
X141934380Y-96691466D01*
X141858190Y-96653371D01*
X141743904Y-96653371D01*
X141667714Y-96691466D01*
X140982000Y-97148609D02*
X141058190Y-97186704D01*
X141210571Y-97186704D01*
X141286761Y-97148609D01*
X141324857Y-97072419D01*
X141324857Y-96767657D01*
X141286761Y-96691466D01*
X141210571Y-96653371D01*
X141058190Y-96653371D01*
X140982000Y-96691466D01*
X140943904Y-96767657D01*
X140943904Y-96843847D01*
X141324857Y-96920038D01*
X141058190Y-96348609D02*
X141172476Y-96462895D01*
X139534380Y-97110514D02*
X139572476Y-97148609D01*
X139686761Y-97186704D01*
X139762952Y-97186704D01*
X139877238Y-97148609D01*
X139953428Y-97072419D01*
X139991523Y-96996228D01*
X140029619Y-96843847D01*
X140029619Y-96729561D01*
X139991523Y-96577180D01*
X139953428Y-96500990D01*
X139877238Y-96424800D01*
X139762952Y-96386704D01*
X139686761Y-96386704D01*
X139572476Y-96424800D01*
X139534380Y-96462895D01*
X138848666Y-97186704D02*
X138848666Y-96767657D01*
X138886761Y-96691466D01*
X138962952Y-96653371D01*
X139115333Y-96653371D01*
X139191523Y-96691466D01*
X138848666Y-97148609D02*
X138924857Y-97186704D01*
X139115333Y-97186704D01*
X139191523Y-97148609D01*
X139229619Y-97072419D01*
X139229619Y-96996228D01*
X139191523Y-96920038D01*
X139115333Y-96881942D01*
X138924857Y-96881942D01*
X138848666Y-96843847D01*
X138467714Y-97186704D02*
X138467714Y-96653371D01*
X138467714Y-96805752D02*
X138429619Y-96729561D01*
X138391523Y-96691466D01*
X138315333Y-96653371D01*
X138239142Y-96653371D01*
X137858190Y-97186704D02*
X137934380Y-97148609D01*
X137972476Y-97072419D01*
X137972476Y-96386704D01*
X137439142Y-97186704D02*
X137515333Y-97148609D01*
X137553428Y-97110514D01*
X137591523Y-97034323D01*
X137591523Y-96805752D01*
X137553428Y-96729561D01*
X137515333Y-96691466D01*
X137439142Y-96653371D01*
X137324857Y-96653371D01*
X137248666Y-96691466D01*
X137210571Y-96729561D01*
X137172476Y-96805752D01*
X137172476Y-97034323D01*
X137210571Y-97110514D01*
X137248666Y-97148609D01*
X137324857Y-97186704D01*
X137439142Y-97186704D01*
X136867714Y-97148609D02*
X136791523Y-97186704D01*
X136639142Y-97186704D01*
X136562952Y-97148609D01*
X136524857Y-97072419D01*
X136524857Y-97034323D01*
X136562952Y-96958133D01*
X136639142Y-96920038D01*
X136753428Y-96920038D01*
X136829619Y-96881942D01*
X136867714Y-96805752D01*
X136867714Y-96767657D01*
X136829619Y-96691466D01*
X136753428Y-96653371D01*
X136639142Y-96653371D01*
X136562952Y-96691466D01*
X135572476Y-97186704D02*
X135572476Y-96386704D01*
X135267714Y-96386704D01*
X135191523Y-96424800D01*
X135153428Y-96462895D01*
X135115333Y-96539085D01*
X135115333Y-96653371D01*
X135153428Y-96729561D01*
X135191523Y-96767657D01*
X135267714Y-96805752D01*
X135572476Y-96805752D01*
X134772476Y-97186704D02*
X134772476Y-96653371D01*
X134772476Y-96386704D02*
X134810571Y-96424800D01*
X134772476Y-96462895D01*
X134734380Y-96424800D01*
X134772476Y-96386704D01*
X134772476Y-96462895D01*
X134391523Y-96653371D02*
X134391523Y-97186704D01*
X134391523Y-96729561D02*
X134353428Y-96691466D01*
X134277238Y-96653371D01*
X134162952Y-96653371D01*
X134086761Y-96691466D01*
X134048666Y-96767657D01*
X134048666Y-97186704D01*
X133667714Y-97186704D02*
X133667714Y-96386704D01*
X133324857Y-97186704D02*
X133324857Y-96767657D01*
X133362952Y-96691466D01*
X133439142Y-96653371D01*
X133553428Y-96653371D01*
X133629619Y-96691466D01*
X133667714Y-96729561D01*
X132639142Y-97148609D02*
X132715333Y-97186704D01*
X132867714Y-97186704D01*
X132943904Y-97148609D01*
X132982000Y-97072419D01*
X132982000Y-96767657D01*
X132943904Y-96691466D01*
X132867714Y-96653371D01*
X132715333Y-96653371D01*
X132639142Y-96691466D01*
X132601047Y-96767657D01*
X132601047Y-96843847D01*
X132982000Y-96920038D01*
X132258190Y-97186704D02*
X132258190Y-96653371D01*
X132258190Y-96386704D02*
X132296285Y-96424800D01*
X132258190Y-96462895D01*
X132220095Y-96424800D01*
X132258190Y-96386704D01*
X132258190Y-96462895D01*
X131877238Y-97186704D02*
X131877238Y-96653371D01*
X131877238Y-96805752D02*
X131839142Y-96729561D01*
X131801047Y-96691466D01*
X131724857Y-96653371D01*
X131648666Y-96653371D01*
X131267714Y-97186704D02*
X131343904Y-97148609D01*
X131382000Y-97110514D01*
X131420095Y-97034323D01*
X131420095Y-96805752D01*
X131382000Y-96729561D01*
X131343904Y-96691466D01*
X131267714Y-96653371D01*
X131153428Y-96653371D01*
X131077238Y-96691466D01*
X131039142Y-96729561D01*
X131001047Y-96805752D01*
X131001047Y-97034323D01*
X131039142Y-97110514D01*
X131077238Y-97148609D01*
X131153428Y-97186704D01*
X131267714Y-97186704D01*
X129782000Y-96767657D02*
X130048666Y-96767657D01*
X130048666Y-97186704D02*
X130048666Y-96386704D01*
X129667714Y-96386704D01*
X129362952Y-97186704D02*
X129362952Y-96653371D01*
X129362952Y-96386704D02*
X129401047Y-96424800D01*
X129362952Y-96462895D01*
X129324857Y-96424800D01*
X129362952Y-96386704D01*
X129362952Y-96462895D01*
X128867714Y-97186704D02*
X128943904Y-97148609D01*
X128982000Y-97072419D01*
X128982000Y-96386704D01*
X128562952Y-97186704D02*
X128562952Y-96386704D01*
X128220095Y-97186704D02*
X128220095Y-96767657D01*
X128258190Y-96691466D01*
X128334380Y-96653371D01*
X128448666Y-96653371D01*
X128524857Y-96691466D01*
X128562952Y-96729561D01*
X127724857Y-97186704D02*
X127801047Y-97148609D01*
X127839142Y-97110514D01*
X127877238Y-97034323D01*
X127877238Y-96805752D01*
X127839142Y-96729561D01*
X127801047Y-96691466D01*
X127724857Y-96653371D01*
X127610571Y-96653371D01*
X127534380Y-96691466D01*
X127496285Y-96729561D01*
X127458190Y-96805752D01*
X127458190Y-97034323D01*
X127496285Y-97110514D01*
X127534380Y-97148609D01*
X127610571Y-97186704D01*
X127724857Y-97186704D01*
X139096285Y-97724800D02*
X139172476Y-97686704D01*
X139286761Y-97686704D01*
X139401047Y-97724800D01*
X139477238Y-97800990D01*
X139515333Y-97877180D01*
X139553428Y-98029561D01*
X139553428Y-98143847D01*
X139515333Y-98296228D01*
X139477238Y-98372419D01*
X139401047Y-98448609D01*
X139286761Y-98486704D01*
X139210571Y-98486704D01*
X139096285Y-98448609D01*
X139058190Y-98410514D01*
X139058190Y-98143847D01*
X139210571Y-98143847D01*
X138601047Y-98486704D02*
X138677238Y-98448609D01*
X138715333Y-98372419D01*
X138715333Y-97686704D01*
X137953428Y-98486704D02*
X137953428Y-98067657D01*
X137991523Y-97991466D01*
X138067714Y-97953371D01*
X138220095Y-97953371D01*
X138296285Y-97991466D01*
X137953428Y-98448609D02*
X138029619Y-98486704D01*
X138220095Y-98486704D01*
X138296285Y-98448609D01*
X138334380Y-98372419D01*
X138334380Y-98296228D01*
X138296285Y-98220038D01*
X138220095Y-98181942D01*
X138029619Y-98181942D01*
X137953428Y-98143847D01*
X137229619Y-97953371D02*
X137229619Y-98486704D01*
X137572476Y-97953371D02*
X137572476Y-98372419D01*
X137534380Y-98448609D01*
X137458190Y-98486704D01*
X137343904Y-98486704D01*
X137267714Y-98448609D01*
X137229619Y-98410514D01*
X136848666Y-98486704D02*
X136848666Y-97686704D01*
X136848666Y-97991466D02*
X136772476Y-97953371D01*
X136620095Y-97953371D01*
X136543904Y-97991466D01*
X136505809Y-98029561D01*
X136467714Y-98105752D01*
X136467714Y-98334323D01*
X136505809Y-98410514D01*
X136543904Y-98448609D01*
X136620095Y-98486704D01*
X136772476Y-98486704D01*
X136848666Y-98448609D01*
X135820095Y-98448609D02*
X135896285Y-98486704D01*
X136048666Y-98486704D01*
X136124857Y-98448609D01*
X136162952Y-98372419D01*
X136162952Y-98067657D01*
X136124857Y-97991466D01*
X136048666Y-97953371D01*
X135896285Y-97953371D01*
X135820095Y-97991466D01*
X135782000Y-98067657D01*
X135782000Y-98143847D01*
X136162952Y-98220038D01*
X135439142Y-98486704D02*
X135439142Y-97953371D01*
X135439142Y-98105752D02*
X135401047Y-98029561D01*
X135362952Y-97991466D01*
X135286761Y-97953371D01*
X135210571Y-97953371D01*
X134067714Y-98067657D02*
X133953428Y-98105752D01*
X133915333Y-98143847D01*
X133877238Y-98220038D01*
X133877238Y-98334323D01*
X133915333Y-98410514D01*
X133953428Y-98448609D01*
X134029619Y-98486704D01*
X134334380Y-98486704D01*
X134334380Y-97686704D01*
X134067714Y-97686704D01*
X133991523Y-97724800D01*
X133953428Y-97762895D01*
X133915333Y-97839085D01*
X133915333Y-97915276D01*
X133953428Y-97991466D01*
X133991523Y-98029561D01*
X134067714Y-98067657D01*
X134334380Y-98067657D01*
X133534380Y-98486704D02*
X133534380Y-97953371D01*
X133534380Y-98105752D02*
X133496285Y-98029561D01*
X133458190Y-97991466D01*
X133382000Y-97953371D01*
X133305809Y-97953371D01*
X132696285Y-98486704D02*
X132696285Y-98067657D01*
X132734380Y-97991466D01*
X132810571Y-97953371D01*
X132962952Y-97953371D01*
X133039142Y-97991466D01*
X132696285Y-98448609D02*
X132772476Y-98486704D01*
X132962952Y-98486704D01*
X133039142Y-98448609D01*
X133077238Y-98372419D01*
X133077238Y-98296228D01*
X133039142Y-98220038D01*
X132962952Y-98181942D01*
X132772476Y-98181942D01*
X132696285Y-98143847D01*
X131972476Y-97953371D02*
X131972476Y-98600990D01*
X132010571Y-98677180D01*
X132048666Y-98715276D01*
X132124857Y-98753371D01*
X132239142Y-98753371D01*
X132315333Y-98715276D01*
X131972476Y-98448609D02*
X132048666Y-98486704D01*
X132201047Y-98486704D01*
X132277238Y-98448609D01*
X132315333Y-98410514D01*
X132353428Y-98334323D01*
X132353428Y-98105752D01*
X132315333Y-98029561D01*
X132277238Y-97991466D01*
X132201047Y-97953371D01*
X132048666Y-97953371D01*
X131972476Y-97991466D01*
X131248666Y-98486704D02*
X131248666Y-98067657D01*
X131286761Y-97991466D01*
X131362952Y-97953371D01*
X131515333Y-97953371D01*
X131591523Y-97991466D01*
X131248666Y-98448609D02*
X131324857Y-98486704D01*
X131515333Y-98486704D01*
X131591523Y-98448609D01*
X131629619Y-98372419D01*
X131629619Y-98296228D01*
X131591523Y-98220038D01*
X131515333Y-98181942D01*
X131324857Y-98181942D01*
X131248666Y-98143847D01*
X137458190Y-98986704D02*
X137001047Y-98986704D01*
X137229619Y-99786704D02*
X137229619Y-98986704D01*
X136391523Y-99786704D02*
X136391523Y-99367657D01*
X136429619Y-99291466D01*
X136505809Y-99253371D01*
X136658190Y-99253371D01*
X136734380Y-99291466D01*
X136391523Y-99748609D02*
X136467714Y-99786704D01*
X136658190Y-99786704D01*
X136734380Y-99748609D01*
X136772476Y-99672419D01*
X136772476Y-99596228D01*
X136734380Y-99520038D01*
X136658190Y-99481942D01*
X136467714Y-99481942D01*
X136391523Y-99443847D01*
X136124857Y-99253371D02*
X135820095Y-99253371D01*
X136010571Y-98986704D02*
X136010571Y-99672419D01*
X135972476Y-99748609D01*
X135896285Y-99786704D01*
X135820095Y-99786704D01*
X135553428Y-99786704D02*
X135553428Y-99253371D01*
X135553428Y-98986704D02*
X135591523Y-99024800D01*
X135553428Y-99062895D01*
X135515333Y-99024800D01*
X135553428Y-98986704D01*
X135553428Y-99062895D01*
X134829619Y-99786704D02*
X134829619Y-99367657D01*
X134867714Y-99291466D01*
X134943904Y-99253371D01*
X135096285Y-99253371D01*
X135172476Y-99291466D01*
X134829619Y-99748609D02*
X134905809Y-99786704D01*
X135096285Y-99786704D01*
X135172476Y-99748609D01*
X135210571Y-99672419D01*
X135210571Y-99596228D01*
X135172476Y-99520038D01*
X135096285Y-99481942D01*
X134905809Y-99481942D01*
X134829619Y-99443847D01*
X134448666Y-99253371D02*
X134448666Y-99786704D01*
X134448666Y-99329561D02*
X134410571Y-99291466D01*
X134334380Y-99253371D01*
X134220095Y-99253371D01*
X134143904Y-99291466D01*
X134105809Y-99367657D01*
X134105809Y-99786704D01*
X133420095Y-99748609D02*
X133496285Y-99786704D01*
X133648666Y-99786704D01*
X133724857Y-99748609D01*
X133762952Y-99672419D01*
X133762952Y-99367657D01*
X133724857Y-99291466D01*
X133648666Y-99253371D01*
X133496285Y-99253371D01*
X133420095Y-99291466D01*
X133382000Y-99367657D01*
X133382000Y-99443847D01*
X133762952Y-99520038D01*
D11*
X88549219Y-120516638D02*
X89025409Y-120849971D01*
X88549219Y-121088066D02*
X89549219Y-121088066D01*
X89549219Y-120707114D01*
X89501600Y-120611876D01*
X89453980Y-120564257D01*
X89358742Y-120516638D01*
X89215885Y-120516638D01*
X89120647Y-120564257D01*
X89073028Y-120611876D01*
X89025409Y-120707114D01*
X89025409Y-121088066D01*
X88549219Y-120183304D02*
X89215885Y-119659495D01*
X89215885Y-120183304D02*
X88549219Y-119659495D01*
X89549219Y-122953376D02*
X89549219Y-122381947D01*
X88549219Y-122667661D02*
X89549219Y-122667661D01*
X88549219Y-122143852D02*
X89215885Y-121620042D01*
X89215885Y-122143852D02*
X88549219Y-121620042D01*
D12*
G36*
X141792960Y-98755200D02*
G01*
X140563470Y-98755200D01*
X140566140Y-98397060D01*
X141179550Y-98395769D01*
X141792960Y-98394479D01*
X141792960Y-98755200D01*
X141792960Y-98755200D01*
G37*
X141792960Y-98755200D02*
X140563470Y-98755200D01*
X140566140Y-98397060D01*
X141179550Y-98395769D01*
X141792960Y-98394479D01*
X141792960Y-98755200D01*
G36*
X142036800Y-98902520D02*
G01*
X140319760Y-98902520D01*
X140319760Y-98328480D01*
X140497560Y-98328480D01*
X140497560Y-98821240D01*
X141859000Y-98821240D01*
X141859000Y-98328480D01*
X140497560Y-98328480D01*
X140319760Y-98328480D01*
X140319760Y-98247200D01*
X142036800Y-98247200D01*
X142036800Y-98902520D01*
X142036800Y-98902520D01*
G37*
X142036800Y-98902520D02*
X140319760Y-98902520D01*
X140319760Y-98328480D01*
X140497560Y-98328480D01*
X140497560Y-98821240D01*
X141859000Y-98821240D01*
X141859000Y-98328480D01*
X140497560Y-98328480D01*
X140319760Y-98328480D01*
X140319760Y-98247200D01*
X142036800Y-98247200D01*
X142036800Y-98902520D01*
G36*
X141315652Y-99392020D02*
G01*
X141334310Y-99397269D01*
X141358672Y-99406222D01*
X141385617Y-99417553D01*
X141412026Y-99429933D01*
X141434776Y-99442032D01*
X141438946Y-99444503D01*
X141499400Y-99486822D01*
X141551922Y-99535481D01*
X141596452Y-99590391D01*
X141632925Y-99651464D01*
X141661278Y-99718611D01*
X141679585Y-99783196D01*
X141685530Y-99821350D01*
X141688113Y-99865481D01*
X141687418Y-99912008D01*
X141683525Y-99957347D01*
X141676514Y-99997918D01*
X141674541Y-100005925D01*
X141651110Y-100076095D01*
X141619379Y-100140741D01*
X141579800Y-100199377D01*
X141532821Y-100251518D01*
X141478893Y-100296675D01*
X141418467Y-100334364D01*
X141351992Y-100364098D01*
X141338680Y-100368819D01*
X141321394Y-100374635D01*
X141308338Y-100378893D01*
X141302039Y-100380773D01*
X141301850Y-100380800D01*
X141301617Y-100375834D01*
X141301393Y-100361397D01*
X141301182Y-100338177D01*
X141300986Y-100306862D01*
X141300805Y-100268140D01*
X141300644Y-100222700D01*
X141300504Y-100171230D01*
X141300388Y-100114418D01*
X141300298Y-100052953D01*
X141300235Y-99987523D01*
X141300203Y-99918816D01*
X141300200Y-99884865D01*
X141300200Y-99388930D01*
X141315652Y-99392020D01*
X141315652Y-99392020D01*
G37*
X141315652Y-99392020D02*
X141334310Y-99397269D01*
X141358672Y-99406222D01*
X141385617Y-99417553D01*
X141412026Y-99429933D01*
X141434776Y-99442032D01*
X141438946Y-99444503D01*
X141499400Y-99486822D01*
X141551922Y-99535481D01*
X141596452Y-99590391D01*
X141632925Y-99651464D01*
X141661278Y-99718611D01*
X141679585Y-99783196D01*
X141685530Y-99821350D01*
X141688113Y-99865481D01*
X141687418Y-99912008D01*
X141683525Y-99957347D01*
X141676514Y-99997918D01*
X141674541Y-100005925D01*
X141651110Y-100076095D01*
X141619379Y-100140741D01*
X141579800Y-100199377D01*
X141532821Y-100251518D01*
X141478893Y-100296675D01*
X141418467Y-100334364D01*
X141351992Y-100364098D01*
X141338680Y-100368819D01*
X141321394Y-100374635D01*
X141308338Y-100378893D01*
X141302039Y-100380773D01*
X141301850Y-100380800D01*
X141301617Y-100375834D01*
X141301393Y-100361397D01*
X141301182Y-100338177D01*
X141300986Y-100306862D01*
X141300805Y-100268140D01*
X141300644Y-100222700D01*
X141300504Y-100171230D01*
X141300388Y-100114418D01*
X141300298Y-100052953D01*
X141300235Y-99987523D01*
X141300203Y-99918816D01*
X141300200Y-99884865D01*
X141300200Y-99388930D01*
X141315652Y-99392020D01*
G36*
X141050689Y-99391595D02*
G01*
X141051711Y-99396145D01*
X141052607Y-99404392D01*
X141053387Y-99416880D01*
X141054056Y-99434150D01*
X141054622Y-99456747D01*
X141055093Y-99485214D01*
X141055477Y-99520093D01*
X141055781Y-99561927D01*
X141056012Y-99611261D01*
X141056178Y-99668637D01*
X141056286Y-99734597D01*
X141056344Y-99809686D01*
X141056360Y-99885500D01*
X141056321Y-99955479D01*
X141056210Y-100022506D01*
X141056032Y-100085892D01*
X141055791Y-100144948D01*
X141055493Y-100198986D01*
X141055144Y-100247319D01*
X141054748Y-100289259D01*
X141054311Y-100324117D01*
X141053838Y-100351205D01*
X141053335Y-100369835D01*
X141052807Y-100379319D01*
X141052550Y-100380421D01*
X141046151Y-100378658D01*
X141033011Y-100374393D01*
X141015959Y-100368545D01*
X141015720Y-100368461D01*
X140948175Y-100339631D01*
X140886767Y-100302955D01*
X140831951Y-100259014D01*
X140784184Y-100208385D01*
X140743922Y-100151649D01*
X140711622Y-100089385D01*
X140687738Y-100022170D01*
X140672729Y-99950586D01*
X140670190Y-99929950D01*
X140668042Y-99861783D01*
X140675526Y-99794428D01*
X140692113Y-99728838D01*
X140717276Y-99665970D01*
X140750487Y-99606776D01*
X140791218Y-99552212D01*
X140838942Y-99503232D01*
X140893132Y-99460791D01*
X140947240Y-99428847D01*
X140969482Y-99418267D01*
X140993150Y-99408179D01*
X141015746Y-99399528D01*
X141034772Y-99393256D01*
X141047730Y-99390308D01*
X141049535Y-99390200D01*
X141050689Y-99391595D01*
X141050689Y-99391595D01*
G37*
X141050689Y-99391595D02*
X141051711Y-99396145D01*
X141052607Y-99404392D01*
X141053387Y-99416880D01*
X141054056Y-99434150D01*
X141054622Y-99456747D01*
X141055093Y-99485214D01*
X141055477Y-99520093D01*
X141055781Y-99561927D01*
X141056012Y-99611261D01*
X141056178Y-99668637D01*
X141056286Y-99734597D01*
X141056344Y-99809686D01*
X141056360Y-99885500D01*
X141056321Y-99955479D01*
X141056210Y-100022506D01*
X141056032Y-100085892D01*
X141055791Y-100144948D01*
X141055493Y-100198986D01*
X141055144Y-100247319D01*
X141054748Y-100289259D01*
X141054311Y-100324117D01*
X141053838Y-100351205D01*
X141053335Y-100369835D01*
X141052807Y-100379319D01*
X141052550Y-100380421D01*
X141046151Y-100378658D01*
X141033011Y-100374393D01*
X141015959Y-100368545D01*
X141015720Y-100368461D01*
X140948175Y-100339631D01*
X140886767Y-100302955D01*
X140831951Y-100259014D01*
X140784184Y-100208385D01*
X140743922Y-100151649D01*
X140711622Y-100089385D01*
X140687738Y-100022170D01*
X140672729Y-99950586D01*
X140670190Y-99929950D01*
X140668042Y-99861783D01*
X140675526Y-99794428D01*
X140692113Y-99728838D01*
X140717276Y-99665970D01*
X140750487Y-99606776D01*
X140791218Y-99552212D01*
X140838942Y-99503232D01*
X140893132Y-99460791D01*
X140947240Y-99428847D01*
X140969482Y-99418267D01*
X140993150Y-99408179D01*
X141015746Y-99399528D01*
X141034772Y-99393256D01*
X141047730Y-99390308D01*
X141049535Y-99390200D01*
X141050689Y-99391595D01*
G36*
X141341575Y-99276357D02*
G01*
X141416269Y-99301453D01*
X141486264Y-99335226D01*
X141550993Y-99377072D01*
X141609888Y-99426386D01*
X141662382Y-99482565D01*
X141707908Y-99545002D01*
X141745899Y-99613094D01*
X141775787Y-99686236D01*
X141796414Y-99761040D01*
X141801754Y-99795550D01*
X141804916Y-99836866D01*
X141805929Y-99881874D01*
X141804820Y-99927462D01*
X141801620Y-99970517D01*
X141796355Y-100007926D01*
X141794050Y-100019019D01*
X141771287Y-100095908D01*
X141739698Y-100168496D01*
X141699820Y-100236091D01*
X141652189Y-100298001D01*
X141597342Y-100353533D01*
X141535813Y-100401996D01*
X141468139Y-100442696D01*
X141464539Y-100444548D01*
X141433087Y-100459135D01*
X141396829Y-100473632D01*
X141359665Y-100486628D01*
X141325495Y-100496710D01*
X141310867Y-100500193D01*
X141299564Y-100501987D01*
X141295821Y-100500136D01*
X141296897Y-100495255D01*
X141299196Y-100484293D01*
X141300198Y-100469665D01*
X141300200Y-100469125D01*
X141301851Y-100456867D01*
X141305894Y-100449974D01*
X141306550Y-100449683D01*
X141369465Y-100428895D01*
X141424040Y-100406740D01*
X141472087Y-100382198D01*
X141515419Y-100354252D01*
X141555850Y-100321884D01*
X141587555Y-100291887D01*
X141637865Y-100234240D01*
X141679447Y-100172082D01*
X141712221Y-100106235D01*
X141736108Y-100037518D01*
X141751029Y-99966752D01*
X141756904Y-99894759D01*
X141753654Y-99822358D01*
X141741200Y-99750371D01*
X141719463Y-99679618D01*
X141688362Y-99610919D01*
X141658277Y-99560380D01*
X141640230Y-99536081D01*
X141616413Y-99508222D01*
X141589217Y-99479297D01*
X141561031Y-99451801D01*
X141534243Y-99428230D01*
X141523880Y-99420022D01*
X141495330Y-99400683D01*
X141460245Y-99380499D01*
X141421940Y-99361120D01*
X141383727Y-99344198D01*
X141348921Y-99331383D01*
X141341217Y-99329037D01*
X141321229Y-99323078D01*
X141309080Y-99318524D01*
X141302815Y-99314071D01*
X141300482Y-99308417D01*
X141300130Y-99301622D01*
X141299074Y-99286289D01*
X141297056Y-99274853D01*
X141294051Y-99263646D01*
X141341575Y-99276357D01*
X141341575Y-99276357D01*
G37*
X141341575Y-99276357D02*
X141416269Y-99301453D01*
X141486264Y-99335226D01*
X141550993Y-99377072D01*
X141609888Y-99426386D01*
X141662382Y-99482565D01*
X141707908Y-99545002D01*
X141745899Y-99613094D01*
X141775787Y-99686236D01*
X141796414Y-99761040D01*
X141801754Y-99795550D01*
X141804916Y-99836866D01*
X141805929Y-99881874D01*
X141804820Y-99927462D01*
X141801620Y-99970517D01*
X141796355Y-100007926D01*
X141794050Y-100019019D01*
X141771287Y-100095908D01*
X141739698Y-100168496D01*
X141699820Y-100236091D01*
X141652189Y-100298001D01*
X141597342Y-100353533D01*
X141535813Y-100401996D01*
X141468139Y-100442696D01*
X141464539Y-100444548D01*
X141433087Y-100459135D01*
X141396829Y-100473632D01*
X141359665Y-100486628D01*
X141325495Y-100496710D01*
X141310867Y-100500193D01*
X141299564Y-100501987D01*
X141295821Y-100500136D01*
X141296897Y-100495255D01*
X141299196Y-100484293D01*
X141300198Y-100469665D01*
X141300200Y-100469125D01*
X141301851Y-100456867D01*
X141305894Y-100449974D01*
X141306550Y-100449683D01*
X141369465Y-100428895D01*
X141424040Y-100406740D01*
X141472087Y-100382198D01*
X141515419Y-100354252D01*
X141555850Y-100321884D01*
X141587555Y-100291887D01*
X141637865Y-100234240D01*
X141679447Y-100172082D01*
X141712221Y-100106235D01*
X141736108Y-100037518D01*
X141751029Y-99966752D01*
X141756904Y-99894759D01*
X141753654Y-99822358D01*
X141741200Y-99750371D01*
X141719463Y-99679618D01*
X141688362Y-99610919D01*
X141658277Y-99560380D01*
X141640230Y-99536081D01*
X141616413Y-99508222D01*
X141589217Y-99479297D01*
X141561031Y-99451801D01*
X141534243Y-99428230D01*
X141523880Y-99420022D01*
X141495330Y-99400683D01*
X141460245Y-99380499D01*
X141421940Y-99361120D01*
X141383727Y-99344198D01*
X141348921Y-99331383D01*
X141341217Y-99329037D01*
X141321229Y-99323078D01*
X141309080Y-99318524D01*
X141302815Y-99314071D01*
X141300482Y-99308417D01*
X141300130Y-99301622D01*
X141299074Y-99286289D01*
X141297056Y-99274853D01*
X141294051Y-99263646D01*
X141341575Y-99276357D01*
G36*
X141059503Y-99274853D02*
G01*
X141057243Y-99288399D01*
X141056429Y-99301622D01*
X141055926Y-99309276D01*
X141053211Y-99314649D01*
X141046350Y-99319012D01*
X141033409Y-99323636D01*
X141014450Y-99329221D01*
X140979930Y-99341149D01*
X140941148Y-99357838D01*
X140901590Y-99377542D01*
X140864746Y-99398517D01*
X140834102Y-99419020D01*
X140832580Y-99420164D01*
X140804953Y-99443148D01*
X140775161Y-99471371D01*
X140745898Y-99502020D01*
X140719862Y-99532286D01*
X140701253Y-99557113D01*
X140666560Y-99616090D01*
X140638273Y-99680563D01*
X140617127Y-99748177D01*
X140603855Y-99816578D01*
X140599190Y-99883412D01*
X140599189Y-99884597D01*
X140602259Y-99936591D01*
X140610844Y-99992133D01*
X140624133Y-100047724D01*
X140641313Y-100099861D01*
X140658026Y-100138164D01*
X140695532Y-100202220D01*
X140740919Y-100261060D01*
X140793173Y-100313825D01*
X140851280Y-100359657D01*
X140914226Y-100397698D01*
X140980998Y-100427088D01*
X141010640Y-100436854D01*
X141029069Y-100442588D01*
X141043500Y-100447575D01*
X141051325Y-100450900D01*
X141051891Y-100451309D01*
X141054348Y-100457831D01*
X141057001Y-100470801D01*
X141058144Y-100478590D01*
X141059562Y-100490437D01*
X141059119Y-100497843D01*
X141055235Y-100501149D01*
X141046332Y-100500696D01*
X141030828Y-100496827D01*
X141007147Y-100489882D01*
X141006624Y-100489727D01*
X140930404Y-100462104D01*
X140859683Y-100426205D01*
X140794932Y-100382583D01*
X140736621Y-100331790D01*
X140685219Y-100274379D01*
X140641196Y-100210902D01*
X140605023Y-100141911D01*
X140577170Y-100067960D01*
X140558107Y-99989599D01*
X140552979Y-99956620D01*
X140548972Y-99896045D01*
X140551740Y-99831328D01*
X140560920Y-99765555D01*
X140576150Y-99701813D01*
X140586663Y-99669600D01*
X140617782Y-99598096D01*
X140657414Y-99531462D01*
X140704820Y-99470376D01*
X140759258Y-99415515D01*
X140819987Y-99367558D01*
X140886265Y-99327182D01*
X140957351Y-99295066D01*
X141017069Y-99275807D01*
X141062508Y-99263646D01*
X141059503Y-99274853D01*
X141059503Y-99274853D01*
G37*
X141059503Y-99274853D02*
X141057243Y-99288399D01*
X141056429Y-99301622D01*
X141055926Y-99309276D01*
X141053211Y-99314649D01*
X141046350Y-99319012D01*
X141033409Y-99323636D01*
X141014450Y-99329221D01*
X140979930Y-99341149D01*
X140941148Y-99357838D01*
X140901590Y-99377542D01*
X140864746Y-99398517D01*
X140834102Y-99419020D01*
X140832580Y-99420164D01*
X140804953Y-99443148D01*
X140775161Y-99471371D01*
X140745898Y-99502020D01*
X140719862Y-99532286D01*
X140701253Y-99557113D01*
X140666560Y-99616090D01*
X140638273Y-99680563D01*
X140617127Y-99748177D01*
X140603855Y-99816578D01*
X140599190Y-99883412D01*
X140599189Y-99884597D01*
X140602259Y-99936591D01*
X140610844Y-99992133D01*
X140624133Y-100047724D01*
X140641313Y-100099861D01*
X140658026Y-100138164D01*
X140695532Y-100202220D01*
X140740919Y-100261060D01*
X140793173Y-100313825D01*
X140851280Y-100359657D01*
X140914226Y-100397698D01*
X140980998Y-100427088D01*
X141010640Y-100436854D01*
X141029069Y-100442588D01*
X141043500Y-100447575D01*
X141051325Y-100450900D01*
X141051891Y-100451309D01*
X141054348Y-100457831D01*
X141057001Y-100470801D01*
X141058144Y-100478590D01*
X141059562Y-100490437D01*
X141059119Y-100497843D01*
X141055235Y-100501149D01*
X141046332Y-100500696D01*
X141030828Y-100496827D01*
X141007147Y-100489882D01*
X141006624Y-100489727D01*
X140930404Y-100462104D01*
X140859683Y-100426205D01*
X140794932Y-100382583D01*
X140736621Y-100331790D01*
X140685219Y-100274379D01*
X140641196Y-100210902D01*
X140605023Y-100141911D01*
X140577170Y-100067960D01*
X140558107Y-99989599D01*
X140552979Y-99956620D01*
X140548972Y-99896045D01*
X140551740Y-99831328D01*
X140560920Y-99765555D01*
X140576150Y-99701813D01*
X140586663Y-99669600D01*
X140617782Y-99598096D01*
X140657414Y-99531462D01*
X140704820Y-99470376D01*
X140759258Y-99415515D01*
X140819987Y-99367558D01*
X140886265Y-99327182D01*
X140957351Y-99295066D01*
X141017069Y-99275807D01*
X141062508Y-99263646D01*
X141059503Y-99274853D01*
G36*
X141206355Y-99262489D02*
G01*
X141222258Y-99277073D01*
X141224581Y-99280575D01*
X141226035Y-99283250D01*
X141227332Y-99286619D01*
X141228484Y-99291238D01*
X141229497Y-99297665D01*
X141230382Y-99306459D01*
X141231146Y-99318177D01*
X141231799Y-99333376D01*
X141232349Y-99352615D01*
X141232806Y-99376451D01*
X141233177Y-99405442D01*
X141233472Y-99440147D01*
X141233700Y-99481122D01*
X141233869Y-99528925D01*
X141233988Y-99584115D01*
X141234066Y-99647249D01*
X141234111Y-99718885D01*
X141234133Y-99799581D01*
X141234141Y-99887278D01*
X141234160Y-100478336D01*
X141216888Y-100495608D01*
X141197062Y-100509616D01*
X141176187Y-100513671D01*
X141155239Y-100507739D01*
X141141530Y-100498057D01*
X141124940Y-100483234D01*
X141123653Y-99889727D01*
X141123461Y-99799559D01*
X141123302Y-99718994D01*
X141123185Y-99647474D01*
X141123118Y-99584441D01*
X141123107Y-99529337D01*
X141123162Y-99481605D01*
X141123290Y-99440687D01*
X141123500Y-99406025D01*
X141123798Y-99377062D01*
X141124193Y-99353241D01*
X141124693Y-99334003D01*
X141125305Y-99318791D01*
X141126038Y-99307047D01*
X141126900Y-99298214D01*
X141127898Y-99291733D01*
X141129040Y-99287049D01*
X141130335Y-99283602D01*
X141131790Y-99280835D01*
X141132300Y-99279986D01*
X141147214Y-99264204D01*
X141166250Y-99256038D01*
X141186825Y-99255472D01*
X141206355Y-99262489D01*
X141206355Y-99262489D01*
G37*
X141206355Y-99262489D02*
X141222258Y-99277073D01*
X141224581Y-99280575D01*
X141226035Y-99283250D01*
X141227332Y-99286619D01*
X141228484Y-99291238D01*
X141229497Y-99297665D01*
X141230382Y-99306459D01*
X141231146Y-99318177D01*
X141231799Y-99333376D01*
X141232349Y-99352615D01*
X141232806Y-99376451D01*
X141233177Y-99405442D01*
X141233472Y-99440147D01*
X141233700Y-99481122D01*
X141233869Y-99528925D01*
X141233988Y-99584115D01*
X141234066Y-99647249D01*
X141234111Y-99718885D01*
X141234133Y-99799581D01*
X141234141Y-99887278D01*
X141234160Y-100478336D01*
X141216888Y-100495608D01*
X141197062Y-100509616D01*
X141176187Y-100513671D01*
X141155239Y-100507739D01*
X141141530Y-100498057D01*
X141124940Y-100483234D01*
X141123653Y-99889727D01*
X141123461Y-99799559D01*
X141123302Y-99718994D01*
X141123185Y-99647474D01*
X141123118Y-99584441D01*
X141123107Y-99529337D01*
X141123162Y-99481605D01*
X141123290Y-99440687D01*
X141123500Y-99406025D01*
X141123798Y-99377062D01*
X141124193Y-99353241D01*
X141124693Y-99334003D01*
X141125305Y-99318791D01*
X141126038Y-99307047D01*
X141126900Y-99298214D01*
X141127898Y-99291733D01*
X141129040Y-99287049D01*
X141130335Y-99283602D01*
X141131790Y-99280835D01*
X141132300Y-99279986D01*
X141147214Y-99264204D01*
X141166250Y-99256038D01*
X141186825Y-99255472D01*
X141206355Y-99262489D01*
G36*
X141895146Y-100655590D02*
G01*
X141914851Y-100669431D01*
X141918227Y-100672691D01*
X141929506Y-100686032D01*
X141934394Y-100698941D01*
X141935200Y-100710744D01*
X141933268Y-100728402D01*
X141928516Y-100744562D01*
X141927494Y-100746726D01*
X141913800Y-100762973D01*
X141894255Y-100773330D01*
X141871828Y-100776951D01*
X141849488Y-100772991D01*
X141843912Y-100770541D01*
X141832902Y-100762183D01*
X141821531Y-100749535D01*
X141819345Y-100746485D01*
X141810325Y-100725132D01*
X141810244Y-100703056D01*
X141818309Y-100682454D01*
X141833727Y-100665521D01*
X141852165Y-100655602D01*
X141874912Y-100651152D01*
X141895146Y-100655590D01*
X141895146Y-100655590D01*
G37*
X141895146Y-100655590D02*
X141914851Y-100669431D01*
X141918227Y-100672691D01*
X141929506Y-100686032D01*
X141934394Y-100698941D01*
X141935200Y-100710744D01*
X141933268Y-100728402D01*
X141928516Y-100744562D01*
X141927494Y-100746726D01*
X141913800Y-100762973D01*
X141894255Y-100773330D01*
X141871828Y-100776951D01*
X141849488Y-100772991D01*
X141843912Y-100770541D01*
X141832902Y-100762183D01*
X141821531Y-100749535D01*
X141819345Y-100746485D01*
X141810325Y-100725132D01*
X141810244Y-100703056D01*
X141818309Y-100682454D01*
X141833727Y-100665521D01*
X141852165Y-100655602D01*
X141874912Y-100651152D01*
X141895146Y-100655590D01*
G36*
X140515038Y-100622980D02*
G01*
X140521359Y-100624951D01*
X140540090Y-100635926D01*
X140557830Y-100652785D01*
X140570989Y-100671824D01*
X140574294Y-100679598D01*
X140580014Y-100711125D01*
X140576488Y-100740832D01*
X140564304Y-100767225D01*
X140544051Y-100788806D01*
X140527116Y-100799408D01*
X140501814Y-100809265D01*
X140478575Y-100811453D01*
X140453239Y-100806336D01*
X140452079Y-100805971D01*
X140428074Y-100793312D01*
X140408618Y-100773396D01*
X140394970Y-100748573D01*
X140388387Y-100721198D01*
X140390128Y-100693624D01*
X140390733Y-100691223D01*
X140400565Y-100668988D01*
X140416414Y-100647997D01*
X140435326Y-100631761D01*
X140445247Y-100626423D01*
X140466657Y-100621067D01*
X140491758Y-100619884D01*
X140515038Y-100622980D01*
X140515038Y-100622980D01*
G37*
X140515038Y-100622980D02*
X140521359Y-100624951D01*
X140540090Y-100635926D01*
X140557830Y-100652785D01*
X140570989Y-100671824D01*
X140574294Y-100679598D01*
X140580014Y-100711125D01*
X140576488Y-100740832D01*
X140564304Y-100767225D01*
X140544051Y-100788806D01*
X140527116Y-100799408D01*
X140501814Y-100809265D01*
X140478575Y-100811453D01*
X140453239Y-100806336D01*
X140452079Y-100805971D01*
X140428074Y-100793312D01*
X140408618Y-100773396D01*
X140394970Y-100748573D01*
X140388387Y-100721198D01*
X140390128Y-100693624D01*
X140390733Y-100691223D01*
X140400565Y-100668988D01*
X140416414Y-100647997D01*
X140435326Y-100631761D01*
X140445247Y-100626423D01*
X140466657Y-100621067D01*
X140491758Y-100619884D01*
X140515038Y-100622980D01*
G36*
X141890927Y-101020745D02*
G01*
X141895303Y-101022430D01*
X141916284Y-101035224D01*
X141928867Y-101052992D01*
X141933826Y-101073172D01*
X141932321Y-101097704D01*
X141923093Y-101117968D01*
X141907979Y-101132993D01*
X141888818Y-101141812D01*
X141867446Y-101143456D01*
X141845702Y-101136955D01*
X141831394Y-101127171D01*
X141816655Y-101108765D01*
X141810288Y-101088482D01*
X141811275Y-101067991D01*
X141818599Y-101048958D01*
X141831244Y-101033050D01*
X141848191Y-101021934D01*
X141868425Y-101017277D01*
X141890927Y-101020745D01*
X141890927Y-101020745D01*
G37*
X141890927Y-101020745D02*
X141895303Y-101022430D01*
X141916284Y-101035224D01*
X141928867Y-101052992D01*
X141933826Y-101073172D01*
X141932321Y-101097704D01*
X141923093Y-101117968D01*
X141907979Y-101132993D01*
X141888818Y-101141812D01*
X141867446Y-101143456D01*
X141845702Y-101136955D01*
X141831394Y-101127171D01*
X141816655Y-101108765D01*
X141810288Y-101088482D01*
X141811275Y-101067991D01*
X141818599Y-101048958D01*
X141831244Y-101033050D01*
X141848191Y-101021934D01*
X141868425Y-101017277D01*
X141890927Y-101020745D01*
G36*
X141893835Y-101387422D02*
G01*
X141904723Y-101391722D01*
X141918234Y-101403668D01*
X141928995Y-101421617D01*
X141934747Y-101441422D01*
X141935162Y-101447600D01*
X141930763Y-101471915D01*
X141918780Y-101491233D01*
X141901033Y-101504403D01*
X141879343Y-101510272D01*
X141855529Y-101507689D01*
X141845914Y-101504076D01*
X141825565Y-101489806D01*
X141813091Y-101470286D01*
X141809186Y-101447453D01*
X141814542Y-101423240D01*
X141815902Y-101420204D01*
X141829290Y-101402931D01*
X141848775Y-101391057D01*
X141871307Y-101385562D01*
X141893835Y-101387422D01*
X141893835Y-101387422D01*
G37*
X141893835Y-101387422D02*
X141904723Y-101391722D01*
X141918234Y-101403668D01*
X141928995Y-101421617D01*
X141934747Y-101441422D01*
X141935162Y-101447600D01*
X141930763Y-101471915D01*
X141918780Y-101491233D01*
X141901033Y-101504403D01*
X141879343Y-101510272D01*
X141855529Y-101507689D01*
X141845914Y-101504076D01*
X141825565Y-101489806D01*
X141813091Y-101470286D01*
X141809186Y-101447453D01*
X141814542Y-101423240D01*
X141815902Y-101420204D01*
X141829290Y-101402931D01*
X141848775Y-101391057D01*
X141871307Y-101385562D01*
X141893835Y-101387422D01*
G36*
X142879880Y-98640980D02*
G01*
X142896306Y-98649092D01*
X142912055Y-98663407D01*
X142923487Y-98680409D01*
X142925299Y-98684827D01*
X142926530Y-98689403D01*
X142926416Y-98694183D01*
X142924254Y-98700110D01*
X142919343Y-98708127D01*
X142910979Y-98719176D01*
X142898460Y-98734201D01*
X142881084Y-98754143D01*
X142858148Y-98779946D01*
X142835931Y-98804765D01*
X142811364Y-98832181D01*
X142789123Y-98857017D01*
X142770075Y-98878299D01*
X142755091Y-98895057D01*
X142745041Y-98906317D01*
X142740794Y-98911108D01*
X142740715Y-98911204D01*
X142737031Y-98908296D01*
X142727594Y-98899595D01*
X142713858Y-98886467D01*
X142698252Y-98871242D01*
X142681812Y-98854925D01*
X142668427Y-98841375D01*
X142659535Y-98832066D01*
X142656560Y-98828504D01*
X142660185Y-98824803D01*
X142670422Y-98815206D01*
X142686308Y-98800595D01*
X142706881Y-98781847D01*
X142731180Y-98759843D01*
X142758244Y-98735462D01*
X142761770Y-98732294D01*
X142793218Y-98704153D01*
X142818102Y-98682197D01*
X142837327Y-98665725D01*
X142851801Y-98654036D01*
X142862429Y-98646428D01*
X142870118Y-98642202D01*
X142875774Y-98640657D01*
X142879880Y-98640980D01*
X142879880Y-98640980D01*
G37*
X142879880Y-98640980D02*
X142896306Y-98649092D01*
X142912055Y-98663407D01*
X142923487Y-98680409D01*
X142925299Y-98684827D01*
X142926530Y-98689403D01*
X142926416Y-98694183D01*
X142924254Y-98700110D01*
X142919343Y-98708127D01*
X142910979Y-98719176D01*
X142898460Y-98734201D01*
X142881084Y-98754143D01*
X142858148Y-98779946D01*
X142835931Y-98804765D01*
X142811364Y-98832181D01*
X142789123Y-98857017D01*
X142770075Y-98878299D01*
X142755091Y-98895057D01*
X142745041Y-98906317D01*
X142740794Y-98911108D01*
X142740715Y-98911204D01*
X142737031Y-98908296D01*
X142727594Y-98899595D01*
X142713858Y-98886467D01*
X142698252Y-98871242D01*
X142681812Y-98854925D01*
X142668427Y-98841375D01*
X142659535Y-98832066D01*
X142656560Y-98828504D01*
X142660185Y-98824803D01*
X142670422Y-98815206D01*
X142686308Y-98800595D01*
X142706881Y-98781847D01*
X142731180Y-98759843D01*
X142758244Y-98735462D01*
X142761770Y-98732294D01*
X142793218Y-98704153D01*
X142818102Y-98682197D01*
X142837327Y-98665725D01*
X142851801Y-98654036D01*
X142862429Y-98646428D01*
X142870118Y-98642202D01*
X142875774Y-98640657D01*
X142879880Y-98640980D01*
G36*
X142649336Y-98918154D02*
G01*
X142691844Y-98960441D01*
X142528152Y-99120488D01*
X142490998Y-99156822D01*
X142453292Y-99193711D01*
X142416255Y-99229960D01*
X142381106Y-99264373D01*
X142349067Y-99295756D01*
X142321357Y-99322913D01*
X142299199Y-99344650D01*
X142292070Y-99351650D01*
X142219680Y-99422766D01*
X142219680Y-99271335D01*
X142276908Y-99212657D01*
X142294042Y-99195111D01*
X142317025Y-99171604D01*
X142344593Y-99143429D01*
X142375481Y-99111879D01*
X142408424Y-99078245D01*
X142442156Y-99043819D01*
X142470483Y-99014923D01*
X142606828Y-98875866D01*
X142649336Y-98918154D01*
X142649336Y-98918154D01*
G37*
X142649336Y-98918154D02*
X142691844Y-98960441D01*
X142528152Y-99120488D01*
X142490998Y-99156822D01*
X142453292Y-99193711D01*
X142416255Y-99229960D01*
X142381106Y-99264373D01*
X142349067Y-99295756D01*
X142321357Y-99322913D01*
X142299199Y-99344650D01*
X142292070Y-99351650D01*
X142219680Y-99422766D01*
X142219680Y-99271335D01*
X142276908Y-99212657D01*
X142294042Y-99195111D01*
X142317025Y-99171604D01*
X142344593Y-99143429D01*
X142375481Y-99111879D01*
X142408424Y-99078245D01*
X142442156Y-99043819D01*
X142470483Y-99014923D01*
X142606828Y-98875866D01*
X142649336Y-98918154D01*
G36*
X142878886Y-99280821D02*
G01*
X142879380Y-99280934D01*
X142896224Y-99289179D01*
X142912214Y-99303631D01*
X142923633Y-99320747D01*
X142925206Y-99324641D01*
X142926379Y-99329148D01*
X142926168Y-99333936D01*
X142923873Y-99339939D01*
X142918795Y-99348089D01*
X142910232Y-99359320D01*
X142897485Y-99374566D01*
X142879853Y-99394761D01*
X142856635Y-99420838D01*
X142834666Y-99445340D01*
X142739143Y-99551742D01*
X142697301Y-99509682D01*
X142655460Y-99467622D01*
X142677600Y-99447475D01*
X142720151Y-99408797D01*
X142755879Y-99376452D01*
X142785443Y-99349898D01*
X142809498Y-99328592D01*
X142828703Y-99311991D01*
X142843715Y-99299554D01*
X142855191Y-99290737D01*
X142863789Y-99284997D01*
X142870166Y-99281793D01*
X142874979Y-99280582D01*
X142878886Y-99280821D01*
X142878886Y-99280821D01*
G37*
X142878886Y-99280821D02*
X142879380Y-99280934D01*
X142896224Y-99289179D01*
X142912214Y-99303631D01*
X142923633Y-99320747D01*
X142925206Y-99324641D01*
X142926379Y-99329148D01*
X142926168Y-99333936D01*
X142923873Y-99339939D01*
X142918795Y-99348089D01*
X142910232Y-99359320D01*
X142897485Y-99374566D01*
X142879853Y-99394761D01*
X142856635Y-99420838D01*
X142834666Y-99445340D01*
X142739143Y-99551742D01*
X142697301Y-99509682D01*
X142655460Y-99467622D01*
X142677600Y-99447475D01*
X142720151Y-99408797D01*
X142755879Y-99376452D01*
X142785443Y-99349898D01*
X142809498Y-99328592D01*
X142828703Y-99311991D01*
X142843715Y-99299554D01*
X142855191Y-99290737D01*
X142863789Y-99284997D01*
X142870166Y-99281793D01*
X142874979Y-99280582D01*
X142878886Y-99280821D01*
G36*
X142609559Y-99521327D02*
G01*
X142619890Y-99530143D01*
X142634178Y-99543502D01*
X142649957Y-99559081D01*
X142691447Y-99601020D01*
X142460172Y-99827080D01*
X142419787Y-99866511D01*
X142381501Y-99903809D01*
X142345938Y-99938372D01*
X142313724Y-99969595D01*
X142285483Y-99996877D01*
X142261838Y-100019614D01*
X142243416Y-100037203D01*
X142230840Y-100049040D01*
X142224735Y-100054523D01*
X142224288Y-100054833D01*
X142222587Y-100050681D01*
X142221190Y-100037918D01*
X142220199Y-100018094D01*
X142219712Y-99992756D01*
X142219680Y-99983656D01*
X142219680Y-99910787D01*
X142410336Y-99715263D01*
X142446485Y-99678237D01*
X142480530Y-99643455D01*
X142511807Y-99611588D01*
X142539653Y-99583309D01*
X142563406Y-99559288D01*
X142582401Y-99540197D01*
X142595976Y-99526707D01*
X142603468Y-99519490D01*
X142604730Y-99518441D01*
X142609559Y-99521327D01*
X142609559Y-99521327D01*
G37*
X142609559Y-99521327D02*
X142619890Y-99530143D01*
X142634178Y-99543502D01*
X142649957Y-99559081D01*
X142691447Y-99601020D01*
X142460172Y-99827080D01*
X142419787Y-99866511D01*
X142381501Y-99903809D01*
X142345938Y-99938372D01*
X142313724Y-99969595D01*
X142285483Y-99996877D01*
X142261838Y-100019614D01*
X142243416Y-100037203D01*
X142230840Y-100049040D01*
X142224735Y-100054523D01*
X142224288Y-100054833D01*
X142222587Y-100050681D01*
X142221190Y-100037918D01*
X142220199Y-100018094D01*
X142219712Y-99992756D01*
X142219680Y-99983656D01*
X142219680Y-99910787D01*
X142410336Y-99715263D01*
X142446485Y-99678237D01*
X142480530Y-99643455D01*
X142511807Y-99611588D01*
X142539653Y-99583309D01*
X142563406Y-99559288D01*
X142582401Y-99540197D01*
X142595976Y-99526707D01*
X142603468Y-99519490D01*
X142604730Y-99518441D01*
X142609559Y-99521327D01*
G36*
X140863502Y-98131380D02*
G01*
X140963747Y-98131443D01*
X141073430Y-98131548D01*
X141184532Y-98131682D01*
X142117885Y-98132900D01*
X142151100Y-98166115D01*
X142152363Y-99917347D01*
X142152477Y-100075688D01*
X142152582Y-100224188D01*
X142152676Y-100363166D01*
X142152758Y-100492941D01*
X142152826Y-100613832D01*
X142152879Y-100726158D01*
X142152914Y-100830237D01*
X142152931Y-100926389D01*
X142152927Y-101014933D01*
X142152901Y-101096188D01*
X142152852Y-101170472D01*
X142152777Y-101238106D01*
X142152676Y-101299406D01*
X142152546Y-101354694D01*
X142152386Y-101404287D01*
X142152194Y-101448504D01*
X142151969Y-101487665D01*
X142151708Y-101522088D01*
X142151412Y-101552093D01*
X142151076Y-101577999D01*
X142150701Y-101600123D01*
X142150285Y-101618787D01*
X142149825Y-101634307D01*
X142149321Y-101647004D01*
X142148770Y-101657196D01*
X142148172Y-101665202D01*
X142147523Y-101671341D01*
X142146824Y-101675933D01*
X142146071Y-101679296D01*
X142145264Y-101681749D01*
X142144401Y-101683611D01*
X142143480Y-101685201D01*
X142143362Y-101685395D01*
X142141266Y-101689225D01*
X142139568Y-101692732D01*
X142137832Y-101695930D01*
X142135624Y-101698834D01*
X142132508Y-101701457D01*
X142128049Y-101703813D01*
X142121814Y-101705917D01*
X142113366Y-101707783D01*
X142102272Y-101709424D01*
X142088095Y-101710855D01*
X142070402Y-101712089D01*
X142048757Y-101713142D01*
X142022725Y-101714026D01*
X141991872Y-101714757D01*
X141955762Y-101715347D01*
X141913961Y-101715812D01*
X141866033Y-101716165D01*
X141811545Y-101716420D01*
X141750060Y-101716591D01*
X141681145Y-101716693D01*
X141604363Y-101716739D01*
X141519281Y-101716743D01*
X141425463Y-101716720D01*
X141322475Y-101716684D01*
X141209881Y-101716648D01*
X141177173Y-101716641D01*
X141061467Y-101716606D01*
X140955504Y-101716553D01*
X140858867Y-101716479D01*
X140771139Y-101716379D01*
X140691903Y-101716250D01*
X140620742Y-101716090D01*
X140557240Y-101715895D01*
X140500979Y-101715662D01*
X140451542Y-101715388D01*
X140408512Y-101715068D01*
X140371473Y-101714701D01*
X140340007Y-101714282D01*
X140313698Y-101713809D01*
X140292128Y-101713278D01*
X140274880Y-101712687D01*
X140261538Y-101712030D01*
X140251685Y-101711307D01*
X140244903Y-101710512D01*
X140240775Y-101709644D01*
X140239850Y-101709308D01*
X140225938Y-101699945D01*
X140214038Y-101686694D01*
X140213199Y-101685377D01*
X140212271Y-101683790D01*
X140211401Y-101681956D01*
X140210588Y-101679556D01*
X140209828Y-101676269D01*
X140209120Y-101671777D01*
X140208463Y-101665759D01*
X140207854Y-101657896D01*
X140207292Y-101647870D01*
X140206774Y-101635360D01*
X140206300Y-101620046D01*
X140205866Y-101601610D01*
X140205472Y-101579731D01*
X140205114Y-101554091D01*
X140204793Y-101524369D01*
X140204504Y-101490247D01*
X140204253Y-101452155D01*
X141742515Y-101452155D01*
X141747469Y-101483771D01*
X141760894Y-101514026D01*
X141774115Y-101531890D01*
X141802238Y-101557417D01*
X141833003Y-101573143D01*
X141866330Y-101579046D01*
X141902141Y-101575102D01*
X141911389Y-101572600D01*
X141942622Y-101558148D01*
X141968575Y-101536036D01*
X141988048Y-101507910D01*
X141999838Y-101475416D01*
X142002933Y-101447170D01*
X141998222Y-101413148D01*
X141985023Y-101382343D01*
X141964737Y-101356012D01*
X141938764Y-101335411D01*
X141908504Y-101321797D01*
X141875359Y-101316425D01*
X141858077Y-101317231D01*
X141824432Y-101325755D01*
X141795765Y-101341849D01*
X141772657Y-101364024D01*
X141755691Y-101390793D01*
X141745450Y-101420666D01*
X141742515Y-101452155D01*
X140204253Y-101452155D01*
X140204248Y-101451405D01*
X140204021Y-101407523D01*
X140203823Y-101358281D01*
X140203650Y-101303361D01*
X140203502Y-101242442D01*
X140203376Y-101175206D01*
X140203271Y-101101332D01*
X140203252Y-101083582D01*
X141742357Y-101083582D01*
X141747379Y-101116599D01*
X141760938Y-101147676D01*
X141782963Y-101175070D01*
X141786856Y-101178633D01*
X141816284Y-101198347D01*
X141848916Y-101209463D01*
X141882806Y-101211704D01*
X141916009Y-101204799D01*
X141929909Y-101198787D01*
X141959240Y-101178606D01*
X141981558Y-101152497D01*
X141996294Y-101122143D01*
X142002880Y-101089229D01*
X142000750Y-101055436D01*
X141989362Y-101022502D01*
X141969408Y-100993344D01*
X141943827Y-100971521D01*
X141914261Y-100957286D01*
X141882351Y-100950890D01*
X141849741Y-100952584D01*
X141818072Y-100962619D01*
X141788988Y-100981247D01*
X141779225Y-100990353D01*
X141758210Y-101018714D01*
X141745944Y-101050372D01*
X141742357Y-101083582D01*
X140203252Y-101083582D01*
X140203184Y-101020502D01*
X140203114Y-100932396D01*
X140203059Y-100836693D01*
X140203018Y-100733076D01*
X140203014Y-100715407D01*
X140321293Y-100715407D01*
X140325493Y-100752537D01*
X140335577Y-100782120D01*
X140357106Y-100816097D01*
X140386018Y-100844513D01*
X140420373Y-100865690D01*
X140441680Y-100873889D01*
X140466257Y-100877913D01*
X140495423Y-100877453D01*
X140524786Y-100872779D01*
X140541562Y-100867735D01*
X140573326Y-100850967D01*
X140602215Y-100826471D01*
X140625606Y-100796677D01*
X140633364Y-100782752D01*
X140640903Y-100765611D01*
X140645134Y-100750009D01*
X140646898Y-100731717D01*
X140647105Y-100713540D01*
X140646442Y-100706070D01*
X141743328Y-100706070D01*
X141745307Y-100742561D01*
X141756525Y-100775262D01*
X141776717Y-100803482D01*
X141783672Y-100810244D01*
X141813349Y-100831340D01*
X141845311Y-100842787D01*
X141880164Y-100844705D01*
X141918511Y-100837210D01*
X141919532Y-100836900D01*
X141938124Y-100827545D01*
X141958048Y-100811742D01*
X141976394Y-100792274D01*
X141990252Y-100771924D01*
X141992740Y-100766880D01*
X142000227Y-100740900D01*
X142002484Y-100711024D01*
X141999454Y-100681853D01*
X141993979Y-100663896D01*
X141977193Y-100636187D01*
X141953319Y-100612147D01*
X141925410Y-100594817D01*
X141923918Y-100594161D01*
X141905162Y-100587392D01*
X141887394Y-100584637D01*
X141865287Y-100585094D01*
X141864230Y-100585168D01*
X141834015Y-100589633D01*
X141809678Y-100599193D01*
X141787547Y-100615472D01*
X141780429Y-100622269D01*
X141761690Y-100644466D01*
X141750184Y-100667710D01*
X141744286Y-100695673D01*
X141743328Y-100706070D01*
X140646442Y-100706070D01*
X140643838Y-100676763D01*
X140633780Y-100645614D01*
X140619629Y-100623356D01*
X140902634Y-100623356D01*
X140907491Y-100638562D01*
X140913836Y-100645751D01*
X140929521Y-100654057D01*
X140932160Y-100653757D01*
X141139695Y-100653757D01*
X141142930Y-100668781D01*
X141152735Y-100684515D01*
X141166829Y-100692207D01*
X141182733Y-100691387D01*
X141197966Y-100681590D01*
X141199870Y-100679515D01*
X141207148Y-100664197D01*
X141208287Y-100645058D01*
X141203398Y-100626288D01*
X141198231Y-100617705D01*
X141185125Y-100606810D01*
X141171392Y-100604492D01*
X141158508Y-100609391D01*
X141147947Y-100620143D01*
X141141184Y-100635385D01*
X141139695Y-100653757D01*
X140932160Y-100653757D01*
X140944410Y-100652365D01*
X140957194Y-100642987D01*
X140968310Y-100626754D01*
X140973083Y-100608520D01*
X140972202Y-100596912D01*
X141375629Y-100596912D01*
X141375669Y-100614731D01*
X141377155Y-100620175D01*
X141385919Y-100639895D01*
X141396762Y-100650820D01*
X141411258Y-100654305D01*
X141416620Y-100654096D01*
X141431941Y-100650049D01*
X141441670Y-100639737D01*
X141441985Y-100639181D01*
X141445995Y-100622737D01*
X141443251Y-100603805D01*
X141434864Y-100586328D01*
X141424056Y-100575517D01*
X141408272Y-100569946D01*
X141393736Y-100572801D01*
X141382253Y-100582363D01*
X141375629Y-100596912D01*
X140972202Y-100596912D01*
X140971744Y-100590888D01*
X140964527Y-100576460D01*
X140951665Y-100567837D01*
X140950436Y-100567485D01*
X140935002Y-100567978D01*
X140921383Y-100576209D01*
X140910702Y-100589781D01*
X140904078Y-100606296D01*
X140902634Y-100623356D01*
X140619629Y-100623356D01*
X140615742Y-100617244D01*
X140599322Y-100599093D01*
X140574230Y-100577738D01*
X140547412Y-100563276D01*
X140515323Y-100553929D01*
X140505593Y-100552103D01*
X140469108Y-100550798D01*
X140433154Y-100558670D01*
X140399421Y-100574802D01*
X140369597Y-100598277D01*
X140345371Y-100628178D01*
X140336525Y-100643930D01*
X140324978Y-100678103D01*
X140321293Y-100715407D01*
X140203014Y-100715407D01*
X140202987Y-100621223D01*
X140202969Y-100513818D01*
X140686447Y-100513818D01*
X140692620Y-100526994D01*
X140696565Y-100531602D01*
X140711335Y-100541554D01*
X140726970Y-100541538D01*
X140742590Y-100531592D01*
X140744745Y-100529390D01*
X140759593Y-100509227D01*
X140764880Y-100491113D01*
X140760581Y-100475459D01*
X140748671Y-100463924D01*
X140732437Y-100458361D01*
X140716479Y-100462774D01*
X140701330Y-100476978D01*
X140698361Y-100481100D01*
X140688333Y-100499289D01*
X140686447Y-100513818D01*
X140202969Y-100513818D01*
X140202966Y-100500816D01*
X140202953Y-100371536D01*
X140202951Y-100332001D01*
X140515885Y-100332001D01*
X140516579Y-100347663D01*
X140526023Y-100361067D01*
X140531912Y-100365187D01*
X140543799Y-100369840D01*
X140555835Y-100368352D01*
X140571560Y-100360269D01*
X140571954Y-100360025D01*
X140589591Y-100345432D01*
X140598275Y-100329645D01*
X140597688Y-100313851D01*
X140588042Y-100299717D01*
X140574055Y-100290983D01*
X140559023Y-100291060D01*
X140541071Y-100299991D01*
X140539889Y-100300790D01*
X140523725Y-100315802D01*
X140515885Y-100332001D01*
X140202951Y-100332001D01*
X140202945Y-100233062D01*
X140202942Y-100118565D01*
X140405828Y-100118565D01*
X140409666Y-100133475D01*
X140416280Y-100142040D01*
X140430351Y-100150520D01*
X140448687Y-100151213D01*
X140466429Y-100146585D01*
X140481412Y-100137425D01*
X140489993Y-100124296D01*
X140492339Y-100109649D01*
X140488616Y-100095936D01*
X140478992Y-100085607D01*
X140463633Y-100081114D01*
X140461970Y-100081080D01*
X140439433Y-100084164D01*
X140421822Y-100092427D01*
X140410251Y-100104389D01*
X140405828Y-100118565D01*
X140202942Y-100118565D01*
X140202941Y-100085075D01*
X140202939Y-99927256D01*
X140202938Y-99923081D01*
X140202938Y-99878667D01*
X140370560Y-99878667D01*
X140374858Y-99895996D01*
X140387201Y-99907707D01*
X140406761Y-99913136D01*
X140413740Y-99913440D01*
X140433355Y-99911115D01*
X140446430Y-99903604D01*
X140446760Y-99903280D01*
X140454419Y-99889924D01*
X140483553Y-99889924D01*
X140484186Y-99930112D01*
X140486342Y-99965921D01*
X140489244Y-99989700D01*
X140507874Y-100072940D01*
X140535450Y-100151892D01*
X140571520Y-100226016D01*
X140615632Y-100294770D01*
X140667336Y-100357613D01*
X140726179Y-100414005D01*
X140791710Y-100463403D01*
X140863477Y-100505267D01*
X140941029Y-100539056D01*
X140950521Y-100542478D01*
X140996544Y-100556559D01*
X141046095Y-100567955D01*
X141096183Y-100576195D01*
X141143822Y-100580806D01*
X141186021Y-100581315D01*
X141193520Y-100580885D01*
X141210457Y-100579665D01*
X141232645Y-100578050D01*
X141254638Y-100576436D01*
X141322811Y-100566629D01*
X141393326Y-100547133D01*
X141465828Y-100518058D01*
X141494981Y-100503934D01*
X141497250Y-100502607D01*
X141585298Y-100502607D01*
X141593659Y-100520485D01*
X141601789Y-100530298D01*
X141617893Y-100543794D01*
X141632389Y-100547662D01*
X141646485Y-100542033D01*
X141653490Y-100535970D01*
X141662700Y-100525000D01*
X141665141Y-100515087D01*
X141660943Y-100502817D01*
X141655137Y-100492649D01*
X141641134Y-100473503D01*
X141627760Y-100463982D01*
X141613914Y-100463700D01*
X141598496Y-100472271D01*
X141598065Y-100472608D01*
X141586759Y-100486544D01*
X141585298Y-100502607D01*
X141497250Y-100502607D01*
X141567222Y-100461693D01*
X141633051Y-100411843D01*
X141692016Y-100355002D01*
X141710096Y-100332873D01*
X141752320Y-100332873D01*
X141752320Y-100333144D01*
X141756805Y-100346507D01*
X141768317Y-100358938D01*
X141783939Y-100368805D01*
X141800756Y-100374473D01*
X141815850Y-100374312D01*
X141821409Y-100371832D01*
X141830437Y-100361435D01*
X141835997Y-100347231D01*
X141836078Y-100334884D01*
X141827946Y-100322450D01*
X141813663Y-100310696D01*
X141797057Y-100302217D01*
X141783878Y-100299520D01*
X141768001Y-100304059D01*
X141756700Y-100316011D01*
X141752320Y-100332873D01*
X141710096Y-100332873D01*
X141743663Y-100291791D01*
X141787539Y-100222829D01*
X141823191Y-100148736D01*
X141829857Y-100129310D01*
X141860526Y-100129310D01*
X141869033Y-100143066D01*
X141886502Y-100153977D01*
X141890181Y-100155406D01*
X141906817Y-100160613D01*
X141918245Y-100161482D01*
X141928362Y-100158182D01*
X141930337Y-100157163D01*
X141942888Y-100145652D01*
X141947745Y-100130713D01*
X141945124Y-100115289D01*
X141935245Y-100102324D01*
X141925874Y-100096930D01*
X141905683Y-100089874D01*
X141891642Y-100087824D01*
X141881028Y-100090844D01*
X141871955Y-100098142D01*
X141861371Y-100113929D01*
X141860526Y-100129310D01*
X141829857Y-100129310D01*
X141850167Y-100070130D01*
X141866746Y-99995481D01*
X141870747Y-99961653D01*
X141872905Y-99921343D01*
X141873188Y-99888458D01*
X141899640Y-99888458D01*
X141904121Y-99903158D01*
X141915751Y-99914560D01*
X141931807Y-99921772D01*
X141949566Y-99923899D01*
X141966304Y-99920050D01*
X141975840Y-99913440D01*
X141985323Y-99898408D01*
X141985974Y-99883128D01*
X141978881Y-99869530D01*
X141965135Y-99859541D01*
X141945827Y-99855091D01*
X141942820Y-99855020D01*
X141921698Y-99858471D01*
X141907020Y-99868175D01*
X141900043Y-99883157D01*
X141899640Y-99888458D01*
X141873188Y-99888458D01*
X141873282Y-99877559D01*
X141871940Y-99833314D01*
X141868940Y-99791619D01*
X141864344Y-99755486D01*
X141861528Y-99740720D01*
X141839652Y-99661578D01*
X141839523Y-99661259D01*
X141865162Y-99661259D01*
X141872062Y-99676181D01*
X141875510Y-99679961D01*
X141890433Y-99687510D01*
X141909051Y-99687395D01*
X141928629Y-99679820D01*
X141935080Y-99675534D01*
X141945814Y-99662052D01*
X141948189Y-99645985D01*
X141942241Y-99630472D01*
X141934485Y-99622580D01*
X141924450Y-99616390D01*
X141915021Y-99615367D01*
X141901465Y-99618865D01*
X141886433Y-99624902D01*
X141874493Y-99631717D01*
X141872970Y-99632929D01*
X141865396Y-99645581D01*
X141865162Y-99661259D01*
X141839523Y-99661259D01*
X141809892Y-99588046D01*
X141771709Y-99519145D01*
X141724565Y-99453896D01*
X141719154Y-99447885D01*
X141757790Y-99447885D01*
X141764176Y-99462633D01*
X141767560Y-99466400D01*
X141782861Y-99475478D01*
X141800328Y-99475021D01*
X141818962Y-99465148D01*
X141825618Y-99459450D01*
X141839224Y-99443106D01*
X141843107Y-99428475D01*
X141837390Y-99414784D01*
X141833600Y-99410520D01*
X141818267Y-99401578D01*
X141800395Y-99401892D01*
X141781334Y-99411333D01*
X141775356Y-99416126D01*
X141761519Y-99432366D01*
X141757790Y-99447885D01*
X141719154Y-99447885D01*
X141671158Y-99394573D01*
X141612482Y-99340645D01*
X141551593Y-99295615D01*
X141517154Y-99275917D01*
X141592477Y-99275917D01*
X141595338Y-99288073D01*
X141600199Y-99295421D01*
X141613087Y-99305521D01*
X141628559Y-99309197D01*
X141642530Y-99305536D01*
X141643275Y-99305032D01*
X141649739Y-99298704D01*
X141658617Y-99288149D01*
X141659785Y-99286644D01*
X141669092Y-99268666D01*
X141670074Y-99251810D01*
X141663492Y-99238087D01*
X141650105Y-99229508D01*
X141637491Y-99227640D01*
X141623813Y-99230023D01*
X141612722Y-99238767D01*
X141608388Y-99244150D01*
X141596700Y-99262070D01*
X141592477Y-99275917D01*
X141517154Y-99275917D01*
X141487041Y-99258694D01*
X141417376Y-99229098D01*
X141341144Y-99206038D01*
X141309723Y-99198734D01*
X141279730Y-99194038D01*
X141242532Y-99190896D01*
X141200962Y-99189308D01*
X141157855Y-99189273D01*
X141116046Y-99190790D01*
X141078368Y-99193859D01*
X141047658Y-99198480D01*
X141046200Y-99198785D01*
X140965208Y-99220786D01*
X140887478Y-99251324D01*
X140814786Y-99289646D01*
X140782614Y-99310306D01*
X140764648Y-99323786D01*
X140742200Y-99342424D01*
X140717800Y-99364026D01*
X140693980Y-99386398D01*
X140687580Y-99392679D01*
X140631416Y-99454678D01*
X140584442Y-99520319D01*
X140546186Y-99590465D01*
X140516173Y-99665976D01*
X140494911Y-99743260D01*
X140490121Y-99772025D01*
X140486587Y-99807986D01*
X140484375Y-99848251D01*
X140483553Y-99889924D01*
X140454419Y-99889924D01*
X140455239Y-99888495D01*
X140455861Y-99871585D01*
X140448512Y-99856690D01*
X140438229Y-99850187D01*
X140421416Y-99847541D01*
X140414622Y-99847400D01*
X140391863Y-99850141D01*
X140377411Y-99858502D01*
X140370974Y-99872691D01*
X140370560Y-99878667D01*
X140202938Y-99878667D01*
X140202936Y-99646610D01*
X140410218Y-99646610D01*
X140417634Y-99661681D01*
X140432703Y-99672271D01*
X140455133Y-99678298D01*
X140474138Y-99675438D01*
X140488712Y-99663847D01*
X140488918Y-99663573D01*
X140495514Y-99652590D01*
X140495651Y-99642867D01*
X140492750Y-99634693D01*
X140481660Y-99620513D01*
X140463401Y-99611500D01*
X140442191Y-99608717D01*
X140426205Y-99611330D01*
X140416275Y-99620361D01*
X140412166Y-99629063D01*
X140410218Y-99646610D01*
X140202936Y-99646610D01*
X140202934Y-99426944D01*
X140520561Y-99426944D01*
X140525524Y-99439660D01*
X140538562Y-99453893D01*
X140543555Y-99458232D01*
X140561422Y-99469135D01*
X140577697Y-99470143D01*
X140592942Y-99461288D01*
X140593122Y-99461122D01*
X140602904Y-99446218D01*
X140603225Y-99429860D01*
X140594242Y-99413873D01*
X140588608Y-99408430D01*
X140568792Y-99395800D01*
X140550642Y-99391884D01*
X140535424Y-99396583D01*
X140524402Y-99409793D01*
X140522716Y-99413701D01*
X140520561Y-99426944D01*
X140202934Y-99426944D01*
X140202933Y-99254393D01*
X140694195Y-99254393D01*
X140698821Y-99271369D01*
X140710705Y-99288955D01*
X140725467Y-99300152D01*
X140741038Y-99304287D01*
X140755345Y-99300687D01*
X140763971Y-99292549D01*
X140770885Y-99277589D01*
X140769726Y-99262040D01*
X140761300Y-99244741D01*
X140748233Y-99230242D01*
X140733288Y-99223307D01*
X140718440Y-99223096D01*
X140705660Y-99228766D01*
X140696920Y-99239479D01*
X140694195Y-99254393D01*
X140202933Y-99254393D01*
X140202932Y-99142328D01*
X140909040Y-99142328D01*
X140911230Y-99154487D01*
X140916630Y-99169633D01*
X140923480Y-99183670D01*
X140930021Y-99192497D01*
X140930827Y-99193094D01*
X140943333Y-99196674D01*
X140959247Y-99196105D01*
X140967433Y-99193927D01*
X140978017Y-99185236D01*
X140982494Y-99171580D01*
X141383867Y-99171580D01*
X141391611Y-99188350D01*
X141405667Y-99199751D01*
X141421549Y-99201260D01*
X141435321Y-99194968D01*
X141445397Y-99182871D01*
X141452340Y-99165284D01*
X141454850Y-99146712D01*
X141452838Y-99134286D01*
X141443505Y-99121801D01*
X141429579Y-99116271D01*
X141414026Y-99117860D01*
X141399813Y-99126734D01*
X141396047Y-99131120D01*
X141385193Y-99151962D01*
X141383867Y-99171580D01*
X140982494Y-99171580D01*
X140982546Y-99171423D01*
X140981753Y-99154927D01*
X140976368Y-99138190D01*
X140967121Y-99123650D01*
X140964427Y-99121494D01*
X141147729Y-99121494D01*
X141152060Y-99139626D01*
X141153640Y-99142883D01*
X141163022Y-99155745D01*
X141175354Y-99160947D01*
X141183360Y-99161444D01*
X141195376Y-99160038D01*
X141201649Y-99157712D01*
X141212673Y-99144795D01*
X141217881Y-99126855D01*
X141216927Y-99107430D01*
X141209466Y-99090060D01*
X141208391Y-99088625D01*
X141195297Y-99077798D01*
X141181441Y-99075431D01*
X141168290Y-99080071D01*
X141157310Y-99090263D01*
X141149968Y-99104555D01*
X141147729Y-99121494D01*
X140964427Y-99121494D01*
X140954745Y-99113748D01*
X140942527Y-99110800D01*
X140930567Y-99114736D01*
X140918696Y-99124245D01*
X140910581Y-99135874D01*
X140909040Y-99142328D01*
X140202932Y-99142328D01*
X140202920Y-98181160D01*
X140253720Y-98181160D01*
X140253720Y-98968560D01*
X142102840Y-98968560D01*
X142102840Y-98181160D01*
X140253720Y-98181160D01*
X140202920Y-98181160D01*
X140202919Y-98177582D01*
X140214502Y-98160395D01*
X140225229Y-98147515D01*
X140236746Y-98137907D01*
X140238632Y-98136836D01*
X140242092Y-98136028D01*
X140249391Y-98135292D01*
X140260903Y-98134626D01*
X140277001Y-98134028D01*
X140298058Y-98133497D01*
X140324447Y-98133030D01*
X140356542Y-98132625D01*
X140394716Y-98132280D01*
X140439342Y-98131993D01*
X140490794Y-98131763D01*
X140549445Y-98131586D01*
X140615668Y-98131462D01*
X140689836Y-98131387D01*
X140772323Y-98131361D01*
X140863502Y-98131380D01*
X140863502Y-98131380D01*
G37*
X140863502Y-98131380D02*
X140963747Y-98131443D01*
X141073430Y-98131548D01*
X141184532Y-98131682D01*
X142117885Y-98132900D01*
X142151100Y-98166115D01*
X142152363Y-99917347D01*
X142152477Y-100075688D01*
X142152582Y-100224188D01*
X142152676Y-100363166D01*
X142152758Y-100492941D01*
X142152826Y-100613832D01*
X142152879Y-100726158D01*
X142152914Y-100830237D01*
X142152931Y-100926389D01*
X142152927Y-101014933D01*
X142152901Y-101096188D01*
X142152852Y-101170472D01*
X142152777Y-101238106D01*
X142152676Y-101299406D01*
X142152546Y-101354694D01*
X142152386Y-101404287D01*
X142152194Y-101448504D01*
X142151969Y-101487665D01*
X142151708Y-101522088D01*
X142151412Y-101552093D01*
X142151076Y-101577999D01*
X142150701Y-101600123D01*
X142150285Y-101618787D01*
X142149825Y-101634307D01*
X142149321Y-101647004D01*
X142148770Y-101657196D01*
X142148172Y-101665202D01*
X142147523Y-101671341D01*
X142146824Y-101675933D01*
X142146071Y-101679296D01*
X142145264Y-101681749D01*
X142144401Y-101683611D01*
X142143480Y-101685201D01*
X142143362Y-101685395D01*
X142141266Y-101689225D01*
X142139568Y-101692732D01*
X142137832Y-101695930D01*
X142135624Y-101698834D01*
X142132508Y-101701457D01*
X142128049Y-101703813D01*
X142121814Y-101705917D01*
X142113366Y-101707783D01*
X142102272Y-101709424D01*
X142088095Y-101710855D01*
X142070402Y-101712089D01*
X142048757Y-101713142D01*
X142022725Y-101714026D01*
X141991872Y-101714757D01*
X141955762Y-101715347D01*
X141913961Y-101715812D01*
X141866033Y-101716165D01*
X141811545Y-101716420D01*
X141750060Y-101716591D01*
X141681145Y-101716693D01*
X141604363Y-101716739D01*
X141519281Y-101716743D01*
X141425463Y-101716720D01*
X141322475Y-101716684D01*
X141209881Y-101716648D01*
X141177173Y-101716641D01*
X141061467Y-101716606D01*
X140955504Y-101716553D01*
X140858867Y-101716479D01*
X140771139Y-101716379D01*
X140691903Y-101716250D01*
X140620742Y-101716090D01*
X140557240Y-101715895D01*
X140500979Y-101715662D01*
X140451542Y-101715388D01*
X140408512Y-101715068D01*
X140371473Y-101714701D01*
X140340007Y-101714282D01*
X140313698Y-101713809D01*
X140292128Y-101713278D01*
X140274880Y-101712687D01*
X140261538Y-101712030D01*
X140251685Y-101711307D01*
X140244903Y-101710512D01*
X140240775Y-101709644D01*
X140239850Y-101709308D01*
X140225938Y-101699945D01*
X140214038Y-101686694D01*
X140213199Y-101685377D01*
X140212271Y-101683790D01*
X140211401Y-101681956D01*
X140210588Y-101679556D01*
X140209828Y-101676269D01*
X140209120Y-101671777D01*
X140208463Y-101665759D01*
X140207854Y-101657896D01*
X140207292Y-101647870D01*
X140206774Y-101635360D01*
X140206300Y-101620046D01*
X140205866Y-101601610D01*
X140205472Y-101579731D01*
X140205114Y-101554091D01*
X140204793Y-101524369D01*
X140204504Y-101490247D01*
X140204253Y-101452155D01*
X141742515Y-101452155D01*
X141747469Y-101483771D01*
X141760894Y-101514026D01*
X141774115Y-101531890D01*
X141802238Y-101557417D01*
X141833003Y-101573143D01*
X141866330Y-101579046D01*
X141902141Y-101575102D01*
X141911389Y-101572600D01*
X141942622Y-101558148D01*
X141968575Y-101536036D01*
X141988048Y-101507910D01*
X141999838Y-101475416D01*
X142002933Y-101447170D01*
X141998222Y-101413148D01*
X141985023Y-101382343D01*
X141964737Y-101356012D01*
X141938764Y-101335411D01*
X141908504Y-101321797D01*
X141875359Y-101316425D01*
X141858077Y-101317231D01*
X141824432Y-101325755D01*
X141795765Y-101341849D01*
X141772657Y-101364024D01*
X141755691Y-101390793D01*
X141745450Y-101420666D01*
X141742515Y-101452155D01*
X140204253Y-101452155D01*
X140204248Y-101451405D01*
X140204021Y-101407523D01*
X140203823Y-101358281D01*
X140203650Y-101303361D01*
X140203502Y-101242442D01*
X140203376Y-101175206D01*
X140203271Y-101101332D01*
X140203252Y-101083582D01*
X141742357Y-101083582D01*
X141747379Y-101116599D01*
X141760938Y-101147676D01*
X141782963Y-101175070D01*
X141786856Y-101178633D01*
X141816284Y-101198347D01*
X141848916Y-101209463D01*
X141882806Y-101211704D01*
X141916009Y-101204799D01*
X141929909Y-101198787D01*
X141959240Y-101178606D01*
X141981558Y-101152497D01*
X141996294Y-101122143D01*
X142002880Y-101089229D01*
X142000750Y-101055436D01*
X141989362Y-101022502D01*
X141969408Y-100993344D01*
X141943827Y-100971521D01*
X141914261Y-100957286D01*
X141882351Y-100950890D01*
X141849741Y-100952584D01*
X141818072Y-100962619D01*
X141788988Y-100981247D01*
X141779225Y-100990353D01*
X141758210Y-101018714D01*
X141745944Y-101050372D01*
X141742357Y-101083582D01*
X140203252Y-101083582D01*
X140203184Y-101020502D01*
X140203114Y-100932396D01*
X140203059Y-100836693D01*
X140203018Y-100733076D01*
X140203014Y-100715407D01*
X140321293Y-100715407D01*
X140325493Y-100752537D01*
X140335577Y-100782120D01*
X140357106Y-100816097D01*
X140386018Y-100844513D01*
X140420373Y-100865690D01*
X140441680Y-100873889D01*
X140466257Y-100877913D01*
X140495423Y-100877453D01*
X140524786Y-100872779D01*
X140541562Y-100867735D01*
X140573326Y-100850967D01*
X140602215Y-100826471D01*
X140625606Y-100796677D01*
X140633364Y-100782752D01*
X140640903Y-100765611D01*
X140645134Y-100750009D01*
X140646898Y-100731717D01*
X140647105Y-100713540D01*
X140646442Y-100706070D01*
X141743328Y-100706070D01*
X141745307Y-100742561D01*
X141756525Y-100775262D01*
X141776717Y-100803482D01*
X141783672Y-100810244D01*
X141813349Y-100831340D01*
X141845311Y-100842787D01*
X141880164Y-100844705D01*
X141918511Y-100837210D01*
X141919532Y-100836900D01*
X141938124Y-100827545D01*
X141958048Y-100811742D01*
X141976394Y-100792274D01*
X141990252Y-100771924D01*
X141992740Y-100766880D01*
X142000227Y-100740900D01*
X142002484Y-100711024D01*
X141999454Y-100681853D01*
X141993979Y-100663896D01*
X141977193Y-100636187D01*
X141953319Y-100612147D01*
X141925410Y-100594817D01*
X141923918Y-100594161D01*
X141905162Y-100587392D01*
X141887394Y-100584637D01*
X141865287Y-100585094D01*
X141864230Y-100585168D01*
X141834015Y-100589633D01*
X141809678Y-100599193D01*
X141787547Y-100615472D01*
X141780429Y-100622269D01*
X141761690Y-100644466D01*
X141750184Y-100667710D01*
X141744286Y-100695673D01*
X141743328Y-100706070D01*
X140646442Y-100706070D01*
X140643838Y-100676763D01*
X140633780Y-100645614D01*
X140619629Y-100623356D01*
X140902634Y-100623356D01*
X140907491Y-100638562D01*
X140913836Y-100645751D01*
X140929521Y-100654057D01*
X140932160Y-100653757D01*
X141139695Y-100653757D01*
X141142930Y-100668781D01*
X141152735Y-100684515D01*
X141166829Y-100692207D01*
X141182733Y-100691387D01*
X141197966Y-100681590D01*
X141199870Y-100679515D01*
X141207148Y-100664197D01*
X141208287Y-100645058D01*
X141203398Y-100626288D01*
X141198231Y-100617705D01*
X141185125Y-100606810D01*
X141171392Y-100604492D01*
X141158508Y-100609391D01*
X141147947Y-100620143D01*
X141141184Y-100635385D01*
X141139695Y-100653757D01*
X140932160Y-100653757D01*
X140944410Y-100652365D01*
X140957194Y-100642987D01*
X140968310Y-100626754D01*
X140973083Y-100608520D01*
X140972202Y-100596912D01*
X141375629Y-100596912D01*
X141375669Y-100614731D01*
X141377155Y-100620175D01*
X141385919Y-100639895D01*
X141396762Y-100650820D01*
X141411258Y-100654305D01*
X141416620Y-100654096D01*
X141431941Y-100650049D01*
X141441670Y-100639737D01*
X141441985Y-100639181D01*
X141445995Y-100622737D01*
X141443251Y-100603805D01*
X141434864Y-100586328D01*
X141424056Y-100575517D01*
X141408272Y-100569946D01*
X141393736Y-100572801D01*
X141382253Y-100582363D01*
X141375629Y-100596912D01*
X140972202Y-100596912D01*
X140971744Y-100590888D01*
X140964527Y-100576460D01*
X140951665Y-100567837D01*
X140950436Y-100567485D01*
X140935002Y-100567978D01*
X140921383Y-100576209D01*
X140910702Y-100589781D01*
X140904078Y-100606296D01*
X140902634Y-100623356D01*
X140619629Y-100623356D01*
X140615742Y-100617244D01*
X140599322Y-100599093D01*
X140574230Y-100577738D01*
X140547412Y-100563276D01*
X140515323Y-100553929D01*
X140505593Y-100552103D01*
X140469108Y-100550798D01*
X140433154Y-100558670D01*
X140399421Y-100574802D01*
X140369597Y-100598277D01*
X140345371Y-100628178D01*
X140336525Y-100643930D01*
X140324978Y-100678103D01*
X140321293Y-100715407D01*
X140203014Y-100715407D01*
X140202987Y-100621223D01*
X140202969Y-100513818D01*
X140686447Y-100513818D01*
X140692620Y-100526994D01*
X140696565Y-100531602D01*
X140711335Y-100541554D01*
X140726970Y-100541538D01*
X140742590Y-100531592D01*
X140744745Y-100529390D01*
X140759593Y-100509227D01*
X140764880Y-100491113D01*
X140760581Y-100475459D01*
X140748671Y-100463924D01*
X140732437Y-100458361D01*
X140716479Y-100462774D01*
X140701330Y-100476978D01*
X140698361Y-100481100D01*
X140688333Y-100499289D01*
X140686447Y-100513818D01*
X140202969Y-100513818D01*
X140202966Y-100500816D01*
X140202953Y-100371536D01*
X140202951Y-100332001D01*
X140515885Y-100332001D01*
X140516579Y-100347663D01*
X140526023Y-100361067D01*
X140531912Y-100365187D01*
X140543799Y-100369840D01*
X140555835Y-100368352D01*
X140571560Y-100360269D01*
X140571954Y-100360025D01*
X140589591Y-100345432D01*
X140598275Y-100329645D01*
X140597688Y-100313851D01*
X140588042Y-100299717D01*
X140574055Y-100290983D01*
X140559023Y-100291060D01*
X140541071Y-100299991D01*
X140539889Y-100300790D01*
X140523725Y-100315802D01*
X140515885Y-100332001D01*
X140202951Y-100332001D01*
X140202945Y-100233062D01*
X140202942Y-100118565D01*
X140405828Y-100118565D01*
X140409666Y-100133475D01*
X140416280Y-100142040D01*
X140430351Y-100150520D01*
X140448687Y-100151213D01*
X140466429Y-100146585D01*
X140481412Y-100137425D01*
X140489993Y-100124296D01*
X140492339Y-100109649D01*
X140488616Y-100095936D01*
X140478992Y-100085607D01*
X140463633Y-100081114D01*
X140461970Y-100081080D01*
X140439433Y-100084164D01*
X140421822Y-100092427D01*
X140410251Y-100104389D01*
X140405828Y-100118565D01*
X140202942Y-100118565D01*
X140202941Y-100085075D01*
X140202939Y-99927256D01*
X140202938Y-99923081D01*
X140202938Y-99878667D01*
X140370560Y-99878667D01*
X140374858Y-99895996D01*
X140387201Y-99907707D01*
X140406761Y-99913136D01*
X140413740Y-99913440D01*
X140433355Y-99911115D01*
X140446430Y-99903604D01*
X140446760Y-99903280D01*
X140454419Y-99889924D01*
X140483553Y-99889924D01*
X140484186Y-99930112D01*
X140486342Y-99965921D01*
X140489244Y-99989700D01*
X140507874Y-100072940D01*
X140535450Y-100151892D01*
X140571520Y-100226016D01*
X140615632Y-100294770D01*
X140667336Y-100357613D01*
X140726179Y-100414005D01*
X140791710Y-100463403D01*
X140863477Y-100505267D01*
X140941029Y-100539056D01*
X140950521Y-100542478D01*
X140996544Y-100556559D01*
X141046095Y-100567955D01*
X141096183Y-100576195D01*
X141143822Y-100580806D01*
X141186021Y-100581315D01*
X141193520Y-100580885D01*
X141210457Y-100579665D01*
X141232645Y-100578050D01*
X141254638Y-100576436D01*
X141322811Y-100566629D01*
X141393326Y-100547133D01*
X141465828Y-100518058D01*
X141494981Y-100503934D01*
X141497250Y-100502607D01*
X141585298Y-100502607D01*
X141593659Y-100520485D01*
X141601789Y-100530298D01*
X141617893Y-100543794D01*
X141632389Y-100547662D01*
X141646485Y-100542033D01*
X141653490Y-100535970D01*
X141662700Y-100525000D01*
X141665141Y-100515087D01*
X141660943Y-100502817D01*
X141655137Y-100492649D01*
X141641134Y-100473503D01*
X141627760Y-100463982D01*
X141613914Y-100463700D01*
X141598496Y-100472271D01*
X141598065Y-100472608D01*
X141586759Y-100486544D01*
X141585298Y-100502607D01*
X141497250Y-100502607D01*
X141567222Y-100461693D01*
X141633051Y-100411843D01*
X141692016Y-100355002D01*
X141710096Y-100332873D01*
X141752320Y-100332873D01*
X141752320Y-100333144D01*
X141756805Y-100346507D01*
X141768317Y-100358938D01*
X141783939Y-100368805D01*
X141800756Y-100374473D01*
X141815850Y-100374312D01*
X141821409Y-100371832D01*
X141830437Y-100361435D01*
X141835997Y-100347231D01*
X141836078Y-100334884D01*
X141827946Y-100322450D01*
X141813663Y-100310696D01*
X141797057Y-100302217D01*
X141783878Y-100299520D01*
X141768001Y-100304059D01*
X141756700Y-100316011D01*
X141752320Y-100332873D01*
X141710096Y-100332873D01*
X141743663Y-100291791D01*
X141787539Y-100222829D01*
X141823191Y-100148736D01*
X141829857Y-100129310D01*
X141860526Y-100129310D01*
X141869033Y-100143066D01*
X141886502Y-100153977D01*
X141890181Y-100155406D01*
X141906817Y-100160613D01*
X141918245Y-100161482D01*
X141928362Y-100158182D01*
X141930337Y-100157163D01*
X141942888Y-100145652D01*
X141947745Y-100130713D01*
X141945124Y-100115289D01*
X141935245Y-100102324D01*
X141925874Y-100096930D01*
X141905683Y-100089874D01*
X141891642Y-100087824D01*
X141881028Y-100090844D01*
X141871955Y-100098142D01*
X141861371Y-100113929D01*
X141860526Y-100129310D01*
X141829857Y-100129310D01*
X141850167Y-100070130D01*
X141866746Y-99995481D01*
X141870747Y-99961653D01*
X141872905Y-99921343D01*
X141873188Y-99888458D01*
X141899640Y-99888458D01*
X141904121Y-99903158D01*
X141915751Y-99914560D01*
X141931807Y-99921772D01*
X141949566Y-99923899D01*
X141966304Y-99920050D01*
X141975840Y-99913440D01*
X141985323Y-99898408D01*
X141985974Y-99883128D01*
X141978881Y-99869530D01*
X141965135Y-99859541D01*
X141945827Y-99855091D01*
X141942820Y-99855020D01*
X141921698Y-99858471D01*
X141907020Y-99868175D01*
X141900043Y-99883157D01*
X141899640Y-99888458D01*
X141873188Y-99888458D01*
X141873282Y-99877559D01*
X141871940Y-99833314D01*
X141868940Y-99791619D01*
X141864344Y-99755486D01*
X141861528Y-99740720D01*
X141839652Y-99661578D01*
X141839523Y-99661259D01*
X141865162Y-99661259D01*
X141872062Y-99676181D01*
X141875510Y-99679961D01*
X141890433Y-99687510D01*
X141909051Y-99687395D01*
X141928629Y-99679820D01*
X141935080Y-99675534D01*
X141945814Y-99662052D01*
X141948189Y-99645985D01*
X141942241Y-99630472D01*
X141934485Y-99622580D01*
X141924450Y-99616390D01*
X141915021Y-99615367D01*
X141901465Y-99618865D01*
X141886433Y-99624902D01*
X141874493Y-99631717D01*
X141872970Y-99632929D01*
X141865396Y-99645581D01*
X141865162Y-99661259D01*
X141839523Y-99661259D01*
X141809892Y-99588046D01*
X141771709Y-99519145D01*
X141724565Y-99453896D01*
X141719154Y-99447885D01*
X141757790Y-99447885D01*
X141764176Y-99462633D01*
X141767560Y-99466400D01*
X141782861Y-99475478D01*
X141800328Y-99475021D01*
X141818962Y-99465148D01*
X141825618Y-99459450D01*
X141839224Y-99443106D01*
X141843107Y-99428475D01*
X141837390Y-99414784D01*
X141833600Y-99410520D01*
X141818267Y-99401578D01*
X141800395Y-99401892D01*
X141781334Y-99411333D01*
X141775356Y-99416126D01*
X141761519Y-99432366D01*
X141757790Y-99447885D01*
X141719154Y-99447885D01*
X141671158Y-99394573D01*
X141612482Y-99340645D01*
X141551593Y-99295615D01*
X141517154Y-99275917D01*
X141592477Y-99275917D01*
X141595338Y-99288073D01*
X141600199Y-99295421D01*
X141613087Y-99305521D01*
X141628559Y-99309197D01*
X141642530Y-99305536D01*
X141643275Y-99305032D01*
X141649739Y-99298704D01*
X141658617Y-99288149D01*
X141659785Y-99286644D01*
X141669092Y-99268666D01*
X141670074Y-99251810D01*
X141663492Y-99238087D01*
X141650105Y-99229508D01*
X141637491Y-99227640D01*
X141623813Y-99230023D01*
X141612722Y-99238767D01*
X141608388Y-99244150D01*
X141596700Y-99262070D01*
X141592477Y-99275917D01*
X141517154Y-99275917D01*
X141487041Y-99258694D01*
X141417376Y-99229098D01*
X141341144Y-99206038D01*
X141309723Y-99198734D01*
X141279730Y-99194038D01*
X141242532Y-99190896D01*
X141200962Y-99189308D01*
X141157855Y-99189273D01*
X141116046Y-99190790D01*
X141078368Y-99193859D01*
X141047658Y-99198480D01*
X141046200Y-99198785D01*
X140965208Y-99220786D01*
X140887478Y-99251324D01*
X140814786Y-99289646D01*
X140782614Y-99310306D01*
X140764648Y-99323786D01*
X140742200Y-99342424D01*
X140717800Y-99364026D01*
X140693980Y-99386398D01*
X140687580Y-99392679D01*
X140631416Y-99454678D01*
X140584442Y-99520319D01*
X140546186Y-99590465D01*
X140516173Y-99665976D01*
X140494911Y-99743260D01*
X140490121Y-99772025D01*
X140486587Y-99807986D01*
X140484375Y-99848251D01*
X140483553Y-99889924D01*
X140454419Y-99889924D01*
X140455239Y-99888495D01*
X140455861Y-99871585D01*
X140448512Y-99856690D01*
X140438229Y-99850187D01*
X140421416Y-99847541D01*
X140414622Y-99847400D01*
X140391863Y-99850141D01*
X140377411Y-99858502D01*
X140370974Y-99872691D01*
X140370560Y-99878667D01*
X140202938Y-99878667D01*
X140202936Y-99646610D01*
X140410218Y-99646610D01*
X140417634Y-99661681D01*
X140432703Y-99672271D01*
X140455133Y-99678298D01*
X140474138Y-99675438D01*
X140488712Y-99663847D01*
X140488918Y-99663573D01*
X140495514Y-99652590D01*
X140495651Y-99642867D01*
X140492750Y-99634693D01*
X140481660Y-99620513D01*
X140463401Y-99611500D01*
X140442191Y-99608717D01*
X140426205Y-99611330D01*
X140416275Y-99620361D01*
X140412166Y-99629063D01*
X140410218Y-99646610D01*
X140202936Y-99646610D01*
X140202934Y-99426944D01*
X140520561Y-99426944D01*
X140525524Y-99439660D01*
X140538562Y-99453893D01*
X140543555Y-99458232D01*
X140561422Y-99469135D01*
X140577697Y-99470143D01*
X140592942Y-99461288D01*
X140593122Y-99461122D01*
X140602904Y-99446218D01*
X140603225Y-99429860D01*
X140594242Y-99413873D01*
X140588608Y-99408430D01*
X140568792Y-99395800D01*
X140550642Y-99391884D01*
X140535424Y-99396583D01*
X140524402Y-99409793D01*
X140522716Y-99413701D01*
X140520561Y-99426944D01*
X140202934Y-99426944D01*
X140202933Y-99254393D01*
X140694195Y-99254393D01*
X140698821Y-99271369D01*
X140710705Y-99288955D01*
X140725467Y-99300152D01*
X140741038Y-99304287D01*
X140755345Y-99300687D01*
X140763971Y-99292549D01*
X140770885Y-99277589D01*
X140769726Y-99262040D01*
X140761300Y-99244741D01*
X140748233Y-99230242D01*
X140733288Y-99223307D01*
X140718440Y-99223096D01*
X140705660Y-99228766D01*
X140696920Y-99239479D01*
X140694195Y-99254393D01*
X140202933Y-99254393D01*
X140202932Y-99142328D01*
X140909040Y-99142328D01*
X140911230Y-99154487D01*
X140916630Y-99169633D01*
X140923480Y-99183670D01*
X140930021Y-99192497D01*
X140930827Y-99193094D01*
X140943333Y-99196674D01*
X140959247Y-99196105D01*
X140967433Y-99193927D01*
X140978017Y-99185236D01*
X140982494Y-99171580D01*
X141383867Y-99171580D01*
X141391611Y-99188350D01*
X141405667Y-99199751D01*
X141421549Y-99201260D01*
X141435321Y-99194968D01*
X141445397Y-99182871D01*
X141452340Y-99165284D01*
X141454850Y-99146712D01*
X141452838Y-99134286D01*
X141443505Y-99121801D01*
X141429579Y-99116271D01*
X141414026Y-99117860D01*
X141399813Y-99126734D01*
X141396047Y-99131120D01*
X141385193Y-99151962D01*
X141383867Y-99171580D01*
X140982494Y-99171580D01*
X140982546Y-99171423D01*
X140981753Y-99154927D01*
X140976368Y-99138190D01*
X140967121Y-99123650D01*
X140964427Y-99121494D01*
X141147729Y-99121494D01*
X141152060Y-99139626D01*
X141153640Y-99142883D01*
X141163022Y-99155745D01*
X141175354Y-99160947D01*
X141183360Y-99161444D01*
X141195376Y-99160038D01*
X141201649Y-99157712D01*
X141212673Y-99144795D01*
X141217881Y-99126855D01*
X141216927Y-99107430D01*
X141209466Y-99090060D01*
X141208391Y-99088625D01*
X141195297Y-99077798D01*
X141181441Y-99075431D01*
X141168290Y-99080071D01*
X141157310Y-99090263D01*
X141149968Y-99104555D01*
X141147729Y-99121494D01*
X140964427Y-99121494D01*
X140954745Y-99113748D01*
X140942527Y-99110800D01*
X140930567Y-99114736D01*
X140918696Y-99124245D01*
X140910581Y-99135874D01*
X140909040Y-99142328D01*
X140202932Y-99142328D01*
X140202920Y-98181160D01*
X140253720Y-98181160D01*
X140253720Y-98968560D01*
X142102840Y-98968560D01*
X142102840Y-98181160D01*
X140253720Y-98181160D01*
X140202920Y-98181160D01*
X140202919Y-98177582D01*
X140214502Y-98160395D01*
X140225229Y-98147515D01*
X140236746Y-98137907D01*
X140238632Y-98136836D01*
X140242092Y-98136028D01*
X140249391Y-98135292D01*
X140260903Y-98134626D01*
X140277001Y-98134028D01*
X140298058Y-98133497D01*
X140324447Y-98133030D01*
X140356542Y-98132625D01*
X140394716Y-98132280D01*
X140439342Y-98131993D01*
X140490794Y-98131763D01*
X140549445Y-98131586D01*
X140615668Y-98131462D01*
X140689836Y-98131387D01*
X140772323Y-98131361D01*
X140863502Y-98131380D01*
D13*
X127294500Y-88486500D02*
X99994500Y-88486500D01*
X99994500Y-88486500D02*
X99994500Y-116286500D01*
X127294500Y-88486500D02*
X127294500Y-116286500D01*
X127294500Y-116286500D02*
X99994500Y-116286500D01*
X120724600Y-118758600D02*
X120724600Y-121043600D01*
X119254600Y-118758600D02*
X120724600Y-118758600D01*
X119254600Y-121043600D02*
X119254600Y-118758600D01*
X106538000Y-126706000D02*
X105538000Y-126706000D01*
X106038000Y-126206000D02*
X106038000Y-127206000D01*
X99938000Y-130206000D02*
X99938000Y-132606000D01*
X99938000Y-125406000D02*
X99938000Y-128006000D01*
X99938000Y-120806000D02*
X99938000Y-123206000D01*
X113238000Y-122606000D02*
X113538000Y-122906000D01*
X113838000Y-122606000D02*
X113238000Y-122606000D01*
X113538000Y-122906000D02*
X113838000Y-122606000D01*
X112138000Y-120806000D02*
X112138000Y-132606000D01*
X108038000Y-120806000D02*
X112138000Y-120806000D01*
X108038000Y-132606000D02*
X112138000Y-132606000D01*
X99938000Y-132606000D02*
X104038000Y-132606000D01*
X104038000Y-120806000D02*
X99938000Y-120806000D01*
X109038000Y-126706000D02*
G75*
G03X109038000Y-126706000I-3000000J0D01*
G01*
D14*
X127063500Y-122809000D02*
X121163500Y-122809000D01*
X127063500Y-122809000D02*
X127063500Y-132409000D01*
X121163500Y-122809000D02*
X121163500Y-132409000D01*
X127063500Y-132409000D02*
X121163500Y-132409000D01*
D13*
X87944000Y-123504000D02*
X85284000Y-123504000D01*
X87944000Y-118364000D02*
X87944000Y-123504000D01*
X85284000Y-118364000D02*
X85284000Y-123504000D01*
X87944000Y-118364000D02*
X85284000Y-118364000D01*
X87944000Y-117094000D02*
X87944000Y-115764000D01*
X87944000Y-115764000D02*
X86614000Y-115764000D01*
D11*
X120276880Y-120588942D02*
X119800690Y-120255609D01*
X120276880Y-120017514D02*
X119276880Y-120017514D01*
X119276880Y-120398466D01*
X119324500Y-120493704D01*
X119372119Y-120541323D01*
X119467357Y-120588942D01*
X119610214Y-120588942D01*
X119705452Y-120541323D01*
X119753071Y-120493704D01*
X119800690Y-120398466D01*
X119800690Y-120017514D01*
X120276880Y-121541323D02*
X120276880Y-120969895D01*
X120276880Y-121255609D02*
X119276880Y-121255609D01*
X119419738Y-121160371D01*
X119514976Y-121065133D01*
X119562595Y-120969895D01*
X119276880Y-121874657D02*
X119276880Y-122493704D01*
X119657833Y-122160371D01*
X119657833Y-122303228D01*
X119705452Y-122398466D01*
X119753071Y-122446085D01*
X119848309Y-122493704D01*
X120086404Y-122493704D01*
X120181642Y-122446085D01*
X120229261Y-122398466D01*
X120276880Y-122303228D01*
X120276880Y-122017514D01*
X120229261Y-121922276D01*
X120181642Y-121874657D01*
X120441980Y-117003504D02*
X119441980Y-117003504D01*
X119441980Y-117241600D01*
X119489600Y-117384457D01*
X119584838Y-117479695D01*
X119680076Y-117527314D01*
X119870552Y-117574933D01*
X120013409Y-117574933D01*
X120203885Y-117527314D01*
X120299123Y-117479695D01*
X120394361Y-117384457D01*
X120441980Y-117241600D01*
X120441980Y-117003504D01*
X120441980Y-118527314D02*
X120441980Y-117955885D01*
X120441980Y-118241600D02*
X119441980Y-118241600D01*
X119584838Y-118146361D01*
X119680076Y-118051123D01*
X119727695Y-117955885D01*
X124674261Y-126301666D02*
X124721880Y-126444523D01*
X124721880Y-126682619D01*
X124674261Y-126777857D01*
X124626642Y-126825476D01*
X124531404Y-126873095D01*
X124436166Y-126873095D01*
X124340928Y-126825476D01*
X124293309Y-126777857D01*
X124245690Y-126682619D01*
X124198071Y-126492142D01*
X124150452Y-126396904D01*
X124102833Y-126349285D01*
X124007595Y-126301666D01*
X123912357Y-126301666D01*
X123817119Y-126349285D01*
X123769500Y-126396904D01*
X123721880Y-126492142D01*
X123721880Y-126730238D01*
X123769500Y-126873095D01*
X123721880Y-127206428D02*
X124721880Y-127444523D01*
X124007595Y-127635000D01*
X124721880Y-127825476D01*
X123721880Y-128063571D01*
X123817119Y-128396904D02*
X123769500Y-128444523D01*
X123721880Y-128539761D01*
X123721880Y-128777857D01*
X123769500Y-128873095D01*
X123817119Y-128920714D01*
X123912357Y-128968333D01*
X124007595Y-128968333D01*
X124150452Y-128920714D01*
X124721880Y-128349285D01*
X124721880Y-128968333D01*
X87375904Y-114216380D02*
X87375904Y-115025904D01*
X87328285Y-115121142D01*
X87280666Y-115168761D01*
X87185428Y-115216380D01*
X86994952Y-115216380D01*
X86899714Y-115168761D01*
X86852095Y-115121142D01*
X86804476Y-115025904D01*
X86804476Y-114216380D01*
X86375904Y-114311619D02*
X86328285Y-114264000D01*
X86233047Y-114216380D01*
X85994952Y-114216380D01*
X85899714Y-114264000D01*
X85852095Y-114311619D01*
X85804476Y-114406857D01*
X85804476Y-114502095D01*
X85852095Y-114644952D01*
X86423523Y-115216380D01*
X85804476Y-115216380D01*
M02*
