G04 #@! TF.GenerationSoftware,KiCad,Pcbnew,(5.1.2)-1*
G04 #@! TF.CreationDate,2019-08-03T00:37:11-03:00*
G04 #@! TF.ProjectId,Medidor,4d656469-646f-4722-9e6b-696361645f70,rev?*
G04 #@! TF.SameCoordinates,Original*
G04 #@! TF.FileFunction,Soldermask,Top*
G04 #@! TF.FilePolarity,Negative*
%FSLAX46Y46*%
G04 Gerber Fmt 4.6, Leading zero omitted, Abs format (unit mm)*
G04 Created by KiCad (PCBNEW (5.1.2)-1) date 2019-08-03 00:37:11*
%MOMM*%
%LPD*%
G04 APERTURE LIST*
%ADD10C,0.100000*%
G04 APERTURE END LIST*
D10*
G36*
X87062100Y-129963140D02*
G01*
X87461093Y-130042504D01*
X87870749Y-130212189D01*
X88239429Y-130458534D01*
X88552966Y-130772071D01*
X88799311Y-131140751D01*
X88968996Y-131550407D01*
X89055500Y-131985296D01*
X89055500Y-132428704D01*
X88968996Y-132863593D01*
X88799311Y-133273249D01*
X88552966Y-133641929D01*
X88239429Y-133955466D01*
X87870749Y-134201811D01*
X87461093Y-134371496D01*
X87080380Y-134447224D01*
X87026205Y-134458000D01*
X86582795Y-134458000D01*
X86528620Y-134447224D01*
X86147907Y-134371496D01*
X85738251Y-134201811D01*
X85369571Y-133955466D01*
X85056034Y-133641929D01*
X84809689Y-133273249D01*
X84640004Y-132863593D01*
X84553500Y-132428704D01*
X84553500Y-131985296D01*
X84640004Y-131550407D01*
X84809689Y-131140751D01*
X85056034Y-130772071D01*
X85369571Y-130458534D01*
X85738251Y-130212189D01*
X86147907Y-130042504D01*
X86546900Y-129963140D01*
X86582795Y-129956000D01*
X87026205Y-129956000D01*
X87062100Y-129963140D01*
X87062100Y-129963140D01*
G37*
G36*
X140864880Y-129839776D02*
G01*
X141245593Y-129915504D01*
X141655249Y-130085189D01*
X142023929Y-130331534D01*
X142337466Y-130645071D01*
X142583811Y-131013751D01*
X142753496Y-131423407D01*
X142840000Y-131858296D01*
X142840000Y-132301704D01*
X142753496Y-132736593D01*
X142583811Y-133146249D01*
X142337466Y-133514929D01*
X142023929Y-133828466D01*
X141655249Y-134074811D01*
X141245593Y-134244496D01*
X140864880Y-134320224D01*
X140810705Y-134331000D01*
X140367295Y-134331000D01*
X140313120Y-134320224D01*
X139932407Y-134244496D01*
X139522751Y-134074811D01*
X139154071Y-133828466D01*
X138840534Y-133514929D01*
X138594189Y-133146249D01*
X138424504Y-132736593D01*
X138338000Y-132301704D01*
X138338000Y-131858296D01*
X138424504Y-131423407D01*
X138594189Y-131013751D01*
X138840534Y-130645071D01*
X139154071Y-130331534D01*
X139522751Y-130085189D01*
X139932407Y-129915504D01*
X140313120Y-129839776D01*
X140367295Y-129829000D01*
X140810705Y-129829000D01*
X140864880Y-129839776D01*
X140864880Y-129839776D01*
G37*
G36*
X137315266Y-132819321D02*
G01*
X137451757Y-132875858D01*
X137574597Y-132957937D01*
X137679063Y-133062403D01*
X137761142Y-133185243D01*
X137817679Y-133321734D01*
X137846500Y-133466630D01*
X137846500Y-133614370D01*
X137817679Y-133759266D01*
X137761142Y-133895757D01*
X137679063Y-134018597D01*
X137574597Y-134123063D01*
X137451757Y-134205142D01*
X137315266Y-134261679D01*
X137170370Y-134290500D01*
X137022630Y-134290500D01*
X136877734Y-134261679D01*
X136741243Y-134205142D01*
X136618403Y-134123063D01*
X136513937Y-134018597D01*
X136431858Y-133895757D01*
X136375321Y-133759266D01*
X136346500Y-133614370D01*
X136346500Y-133466630D01*
X136375321Y-133321734D01*
X136431858Y-133185243D01*
X136513937Y-133062403D01*
X136618403Y-132957937D01*
X136741243Y-132875858D01*
X136877734Y-132819321D01*
X137022630Y-132790500D01*
X137170370Y-132790500D01*
X137315266Y-132819321D01*
X137315266Y-132819321D01*
G37*
G36*
X90325266Y-132819321D02*
G01*
X90461757Y-132875858D01*
X90584597Y-132957937D01*
X90689063Y-133062403D01*
X90771142Y-133185243D01*
X90827679Y-133321734D01*
X90856500Y-133466630D01*
X90856500Y-133614370D01*
X90827679Y-133759266D01*
X90771142Y-133895757D01*
X90689063Y-134018597D01*
X90584597Y-134123063D01*
X90461757Y-134205142D01*
X90325266Y-134261679D01*
X90180370Y-134290500D01*
X90032630Y-134290500D01*
X89887734Y-134261679D01*
X89751243Y-134205142D01*
X89628403Y-134123063D01*
X89523937Y-134018597D01*
X89441858Y-133895757D01*
X89385321Y-133759266D01*
X89356500Y-133614370D01*
X89356500Y-133466630D01*
X89385321Y-133321734D01*
X89441858Y-133185243D01*
X89523937Y-133062403D01*
X89628403Y-132957937D01*
X89751243Y-132875858D01*
X89887734Y-132819321D01*
X90032630Y-132790500D01*
X90180370Y-132790500D01*
X90325266Y-132819321D01*
X90325266Y-132819321D01*
G37*
G36*
X107689000Y-133357000D02*
G01*
X104387000Y-133357000D01*
X104387000Y-131255000D01*
X107689000Y-131255000D01*
X107689000Y-133357000D01*
X107689000Y-133357000D01*
G37*
G36*
X101500938Y-129976216D02*
G01*
X101521557Y-129982471D01*
X101540553Y-129992624D01*
X101557208Y-130006292D01*
X101570876Y-130022947D01*
X101581029Y-130041943D01*
X101587284Y-130062562D01*
X101590000Y-130090140D01*
X101590000Y-130548860D01*
X101587284Y-130576438D01*
X101581029Y-130597057D01*
X101570876Y-130616053D01*
X101557208Y-130632708D01*
X101540553Y-130646376D01*
X101521557Y-130656529D01*
X101500938Y-130662784D01*
X101473360Y-130665500D01*
X100964640Y-130665500D01*
X100937062Y-130662784D01*
X100916443Y-130656529D01*
X100897447Y-130646376D01*
X100880792Y-130632708D01*
X100867124Y-130616053D01*
X100856971Y-130597057D01*
X100850716Y-130576438D01*
X100848000Y-130548860D01*
X100848000Y-130090140D01*
X100850716Y-130062562D01*
X100856971Y-130041943D01*
X100867124Y-130022947D01*
X100880792Y-130006292D01*
X100897447Y-129992624D01*
X100916443Y-129982471D01*
X100937062Y-129976216D01*
X100964640Y-129973500D01*
X101473360Y-129973500D01*
X101500938Y-129976216D01*
X101500938Y-129976216D01*
G37*
G36*
X111406938Y-129849216D02*
G01*
X111427557Y-129855471D01*
X111446553Y-129865624D01*
X111463208Y-129879292D01*
X111476876Y-129895947D01*
X111487029Y-129914943D01*
X111493284Y-129935562D01*
X111496000Y-129963140D01*
X111496000Y-130421860D01*
X111493284Y-130449438D01*
X111487029Y-130470057D01*
X111476876Y-130489053D01*
X111463208Y-130505708D01*
X111446553Y-130519376D01*
X111427557Y-130529529D01*
X111406938Y-130535784D01*
X111379360Y-130538500D01*
X110870640Y-130538500D01*
X110843062Y-130535784D01*
X110822443Y-130529529D01*
X110803447Y-130519376D01*
X110786792Y-130505708D01*
X110773124Y-130489053D01*
X110762971Y-130470057D01*
X110756716Y-130449438D01*
X110754000Y-130421860D01*
X110754000Y-129963140D01*
X110756716Y-129935562D01*
X110762971Y-129914943D01*
X110773124Y-129895947D01*
X110786792Y-129879292D01*
X110803447Y-129865624D01*
X110822443Y-129855471D01*
X110843062Y-129849216D01*
X110870640Y-129846500D01*
X111379360Y-129846500D01*
X111406938Y-129849216D01*
X111406938Y-129849216D01*
G37*
G36*
X99344564Y-128195389D02*
G01*
X99524691Y-128270000D01*
X99535835Y-128274616D01*
X99613275Y-128326360D01*
X99707973Y-128389635D01*
X99854365Y-128536027D01*
X99969385Y-128708167D01*
X100048611Y-128899436D01*
X100089000Y-129102484D01*
X100089000Y-129309516D01*
X100048611Y-129512564D01*
X99969385Y-129703833D01*
X99969384Y-129703835D01*
X99854365Y-129875973D01*
X99707973Y-130022365D01*
X99535835Y-130137384D01*
X99535834Y-130137385D01*
X99535833Y-130137385D01*
X99344564Y-130216611D01*
X99141516Y-130257000D01*
X98934484Y-130257000D01*
X98731436Y-130216611D01*
X98540167Y-130137385D01*
X98540166Y-130137385D01*
X98540165Y-130137384D01*
X98368027Y-130022365D01*
X98221635Y-129875973D01*
X98106616Y-129703835D01*
X98106615Y-129703833D01*
X98027389Y-129512564D01*
X97987000Y-129309516D01*
X97987000Y-129102484D01*
X98027389Y-128899436D01*
X98106615Y-128708167D01*
X98221635Y-128536027D01*
X98368027Y-128389635D01*
X98462725Y-128326360D01*
X98540165Y-128274616D01*
X98551309Y-128270000D01*
X98731436Y-128195389D01*
X98934484Y-128155000D01*
X99141516Y-128155000D01*
X99344564Y-128195389D01*
X99344564Y-128195389D01*
G37*
G36*
X113844564Y-128195389D02*
G01*
X114024691Y-128270000D01*
X114035835Y-128274616D01*
X114113275Y-128326360D01*
X114207973Y-128389635D01*
X114354365Y-128536027D01*
X114469385Y-128708167D01*
X114548611Y-128899436D01*
X114589000Y-129102484D01*
X114589000Y-129309516D01*
X114548611Y-129512564D01*
X114469385Y-129703833D01*
X114469384Y-129703835D01*
X114354365Y-129875973D01*
X114207973Y-130022365D01*
X114035835Y-130137384D01*
X114035834Y-130137385D01*
X114035833Y-130137385D01*
X113844564Y-130216611D01*
X113641516Y-130257000D01*
X113434484Y-130257000D01*
X113231436Y-130216611D01*
X113040167Y-130137385D01*
X113040166Y-130137385D01*
X113040165Y-130137384D01*
X112868027Y-130022365D01*
X112721635Y-129875973D01*
X112606616Y-129703835D01*
X112606615Y-129703833D01*
X112527389Y-129512564D01*
X112487000Y-129309516D01*
X112487000Y-129102484D01*
X112527389Y-128899436D01*
X112606615Y-128708167D01*
X112721635Y-128536027D01*
X112868027Y-128389635D01*
X112962725Y-128326360D01*
X113040165Y-128274616D01*
X113051309Y-128270000D01*
X113231436Y-128195389D01*
X113434484Y-128155000D01*
X113641516Y-128155000D01*
X113844564Y-128195389D01*
X113844564Y-128195389D01*
G37*
G36*
X101500938Y-129006216D02*
G01*
X101521557Y-129012471D01*
X101540553Y-129022624D01*
X101557208Y-129036292D01*
X101570876Y-129052947D01*
X101581029Y-129071943D01*
X101587284Y-129092562D01*
X101590000Y-129120140D01*
X101590000Y-129578860D01*
X101587284Y-129606438D01*
X101581029Y-129627057D01*
X101570876Y-129646053D01*
X101557208Y-129662708D01*
X101540553Y-129676376D01*
X101521557Y-129686529D01*
X101500938Y-129692784D01*
X101473360Y-129695500D01*
X100964640Y-129695500D01*
X100937062Y-129692784D01*
X100916443Y-129686529D01*
X100897447Y-129676376D01*
X100880792Y-129662708D01*
X100867124Y-129646053D01*
X100856971Y-129627057D01*
X100850716Y-129606438D01*
X100848000Y-129578860D01*
X100848000Y-129120140D01*
X100850716Y-129092562D01*
X100856971Y-129071943D01*
X100867124Y-129052947D01*
X100880792Y-129036292D01*
X100897447Y-129022624D01*
X100916443Y-129012471D01*
X100937062Y-129006216D01*
X100964640Y-129003500D01*
X101473360Y-129003500D01*
X101500938Y-129006216D01*
X101500938Y-129006216D01*
G37*
G36*
X111406938Y-128879216D02*
G01*
X111427557Y-128885471D01*
X111446553Y-128895624D01*
X111463208Y-128909292D01*
X111476876Y-128925947D01*
X111487029Y-128944943D01*
X111493284Y-128965562D01*
X111496000Y-128993140D01*
X111496000Y-129451860D01*
X111493284Y-129479438D01*
X111487029Y-129500057D01*
X111476876Y-129519053D01*
X111463208Y-129535708D01*
X111446553Y-129549376D01*
X111427557Y-129559529D01*
X111406938Y-129565784D01*
X111379360Y-129568500D01*
X110870640Y-129568500D01*
X110843062Y-129565784D01*
X110822443Y-129559529D01*
X110803447Y-129549376D01*
X110786792Y-129535708D01*
X110773124Y-129519053D01*
X110762971Y-129500057D01*
X110756716Y-129479438D01*
X110754000Y-129451860D01*
X110754000Y-128993140D01*
X110756716Y-128965562D01*
X110762971Y-128944943D01*
X110773124Y-128925947D01*
X110786792Y-128909292D01*
X110803447Y-128895624D01*
X110822443Y-128885471D01*
X110843062Y-128879216D01*
X110870640Y-128876500D01*
X111379360Y-128876500D01*
X111406938Y-128879216D01*
X111406938Y-128879216D01*
G37*
G36*
X134577997Y-127550051D02*
G01*
X134611652Y-127560261D01*
X134642665Y-127576838D01*
X134669851Y-127599149D01*
X134692162Y-127626335D01*
X134708739Y-127657348D01*
X134718949Y-127691003D01*
X134723000Y-127732138D01*
X134723000Y-129061862D01*
X134718949Y-129102997D01*
X134708739Y-129136652D01*
X134692162Y-129167665D01*
X134669851Y-129194851D01*
X134642665Y-129217162D01*
X134611652Y-129233739D01*
X134577997Y-129243949D01*
X134536862Y-129248000D01*
X132207138Y-129248000D01*
X132166003Y-129243949D01*
X132132348Y-129233739D01*
X132101335Y-129217162D01*
X132074149Y-129194851D01*
X132051838Y-129167665D01*
X132035261Y-129136652D01*
X132025051Y-129102997D01*
X132021000Y-129061862D01*
X132021000Y-127732138D01*
X132025051Y-127691003D01*
X132035261Y-127657348D01*
X132051838Y-127626335D01*
X132074149Y-127599149D01*
X132101335Y-127576838D01*
X132132348Y-127560261D01*
X132166003Y-127550051D01*
X132207138Y-127546000D01*
X134536862Y-127546000D01*
X134577997Y-127550051D01*
X134577997Y-127550051D01*
G37*
G36*
X130977997Y-127550051D02*
G01*
X131011652Y-127560261D01*
X131042665Y-127576838D01*
X131069851Y-127599149D01*
X131092162Y-127626335D01*
X131108739Y-127657348D01*
X131118949Y-127691003D01*
X131123000Y-127732138D01*
X131123000Y-129061862D01*
X131118949Y-129102997D01*
X131108739Y-129136652D01*
X131092162Y-129167665D01*
X131069851Y-129194851D01*
X131042665Y-129217162D01*
X131011652Y-129233739D01*
X130977997Y-129243949D01*
X130936862Y-129248000D01*
X128607138Y-129248000D01*
X128566003Y-129243949D01*
X128532348Y-129233739D01*
X128501335Y-129217162D01*
X128474149Y-129194851D01*
X128451838Y-129167665D01*
X128435261Y-129136652D01*
X128425051Y-129102997D01*
X128421000Y-129061862D01*
X128421000Y-127732138D01*
X128425051Y-127691003D01*
X128435261Y-127657348D01*
X128451838Y-127626335D01*
X128474149Y-127599149D01*
X128501335Y-127576838D01*
X128532348Y-127560261D01*
X128566003Y-127550051D01*
X128607138Y-127546000D01*
X130936862Y-127546000D01*
X130977997Y-127550051D01*
X130977997Y-127550051D01*
G37*
G36*
X110136938Y-127776716D02*
G01*
X110157557Y-127782971D01*
X110176553Y-127793124D01*
X110193208Y-127806792D01*
X110206876Y-127823447D01*
X110217029Y-127842443D01*
X110223284Y-127863062D01*
X110226000Y-127890640D01*
X110226000Y-128349360D01*
X110223284Y-128376938D01*
X110217029Y-128397557D01*
X110206876Y-128416553D01*
X110193208Y-128433208D01*
X110176553Y-128446876D01*
X110157557Y-128457029D01*
X110136938Y-128463284D01*
X110109360Y-128466000D01*
X109600640Y-128466000D01*
X109573062Y-128463284D01*
X109552443Y-128457029D01*
X109533447Y-128446876D01*
X109516792Y-128433208D01*
X109503124Y-128416553D01*
X109492971Y-128397557D01*
X109486716Y-128376938D01*
X109484000Y-128349360D01*
X109484000Y-127890640D01*
X109486716Y-127863062D01*
X109492971Y-127842443D01*
X109503124Y-127823447D01*
X109516792Y-127806792D01*
X109533447Y-127793124D01*
X109552443Y-127782971D01*
X109573062Y-127776716D01*
X109600640Y-127774000D01*
X110109360Y-127774000D01*
X110136938Y-127776716D01*
X110136938Y-127776716D01*
G37*
G36*
X111406938Y-127753716D02*
G01*
X111427557Y-127759971D01*
X111446553Y-127770124D01*
X111463208Y-127783792D01*
X111476876Y-127800447D01*
X111487029Y-127819443D01*
X111493284Y-127840062D01*
X111496000Y-127867640D01*
X111496000Y-128326360D01*
X111493284Y-128353938D01*
X111487029Y-128374557D01*
X111476876Y-128393553D01*
X111463208Y-128410208D01*
X111446553Y-128423876D01*
X111427557Y-128434029D01*
X111406938Y-128440284D01*
X111379360Y-128443000D01*
X110870640Y-128443000D01*
X110843062Y-128440284D01*
X110822443Y-128434029D01*
X110803447Y-128423876D01*
X110786792Y-128410208D01*
X110773124Y-128393553D01*
X110762971Y-128374557D01*
X110756716Y-128353938D01*
X110754000Y-128326360D01*
X110754000Y-127867640D01*
X110756716Y-127840062D01*
X110762971Y-127819443D01*
X110773124Y-127800447D01*
X110786792Y-127783792D01*
X110803447Y-127770124D01*
X110822443Y-127759971D01*
X110843062Y-127753716D01*
X110870640Y-127751000D01*
X111379360Y-127751000D01*
X111406938Y-127753716D01*
X111406938Y-127753716D01*
G37*
G36*
X113844564Y-125695389D02*
G01*
X114012620Y-125765000D01*
X114035835Y-125774616D01*
X114096274Y-125815000D01*
X114207973Y-125889635D01*
X114354365Y-126036027D01*
X114469385Y-126208167D01*
X114548611Y-126399436D01*
X114589000Y-126602484D01*
X114589000Y-126809516D01*
X114548611Y-127012564D01*
X114469385Y-127203833D01*
X114469384Y-127203835D01*
X114354365Y-127375973D01*
X114207973Y-127522365D01*
X114035835Y-127637384D01*
X114035834Y-127637385D01*
X114035833Y-127637385D01*
X113844564Y-127716611D01*
X113641516Y-127757000D01*
X113434484Y-127757000D01*
X113231436Y-127716611D01*
X113040167Y-127637385D01*
X113040166Y-127637385D01*
X113040165Y-127637384D01*
X112868027Y-127522365D01*
X112721635Y-127375973D01*
X112606616Y-127203835D01*
X112606615Y-127203833D01*
X112527389Y-127012564D01*
X112487000Y-126809516D01*
X112487000Y-126602484D01*
X112527389Y-126399436D01*
X112606615Y-126208167D01*
X112721635Y-126036027D01*
X112868027Y-125889635D01*
X112979726Y-125815000D01*
X113040165Y-125774616D01*
X113063380Y-125765000D01*
X113231436Y-125695389D01*
X113434484Y-125655000D01*
X113641516Y-125655000D01*
X113844564Y-125695389D01*
X113844564Y-125695389D01*
G37*
G36*
X110136938Y-126806716D02*
G01*
X110157557Y-126812971D01*
X110176553Y-126823124D01*
X110193208Y-126836792D01*
X110206876Y-126853447D01*
X110217029Y-126872443D01*
X110223284Y-126893062D01*
X110226000Y-126920640D01*
X110226000Y-127379360D01*
X110223284Y-127406938D01*
X110217029Y-127427557D01*
X110206876Y-127446553D01*
X110193208Y-127463208D01*
X110176553Y-127476876D01*
X110157557Y-127487029D01*
X110136938Y-127493284D01*
X110109360Y-127496000D01*
X109600640Y-127496000D01*
X109573062Y-127493284D01*
X109552443Y-127487029D01*
X109533447Y-127476876D01*
X109516792Y-127463208D01*
X109503124Y-127446553D01*
X109492971Y-127427557D01*
X109486716Y-127406938D01*
X109484000Y-127379360D01*
X109484000Y-126920640D01*
X109486716Y-126893062D01*
X109492971Y-126872443D01*
X109503124Y-126853447D01*
X109516792Y-126836792D01*
X109533447Y-126823124D01*
X109552443Y-126812971D01*
X109573062Y-126806716D01*
X109600640Y-126804000D01*
X110109360Y-126804000D01*
X110136938Y-126806716D01*
X110136938Y-126806716D01*
G37*
G36*
X111406938Y-126783716D02*
G01*
X111427557Y-126789971D01*
X111446553Y-126800124D01*
X111463208Y-126813792D01*
X111476876Y-126830447D01*
X111487029Y-126849443D01*
X111493284Y-126870062D01*
X111496000Y-126897640D01*
X111496000Y-127356360D01*
X111493284Y-127383938D01*
X111487029Y-127404557D01*
X111476876Y-127423553D01*
X111463208Y-127440208D01*
X111446553Y-127453876D01*
X111427557Y-127464029D01*
X111406938Y-127470284D01*
X111379360Y-127473000D01*
X110870640Y-127473000D01*
X110843062Y-127470284D01*
X110822443Y-127464029D01*
X110803447Y-127453876D01*
X110786792Y-127440208D01*
X110773124Y-127423553D01*
X110762971Y-127404557D01*
X110756716Y-127383938D01*
X110754000Y-127356360D01*
X110754000Y-126897640D01*
X110756716Y-126870062D01*
X110762971Y-126849443D01*
X110773124Y-126830447D01*
X110786792Y-126813792D01*
X110803447Y-126800124D01*
X110822443Y-126789971D01*
X110843062Y-126783716D01*
X110870640Y-126781000D01*
X111379360Y-126781000D01*
X111406938Y-126783716D01*
X111406938Y-126783716D01*
G37*
G36*
X141673395Y-123949546D02*
G01*
X141846466Y-124021234D01*
X141846467Y-124021235D01*
X142002227Y-124125310D01*
X142134690Y-124257773D01*
X142134691Y-124257775D01*
X142238766Y-124413534D01*
X142310454Y-124586605D01*
X142347000Y-124770333D01*
X142347000Y-124957667D01*
X142310454Y-125141395D01*
X142238766Y-125314466D01*
X142238765Y-125314467D01*
X142134690Y-125470227D01*
X142002227Y-125602690D01*
X141938331Y-125645384D01*
X141846466Y-125706766D01*
X141673395Y-125778454D01*
X141489667Y-125815000D01*
X141302333Y-125815000D01*
X141118605Y-125778454D01*
X140945534Y-125706766D01*
X140853669Y-125645384D01*
X140789773Y-125602690D01*
X140657310Y-125470227D01*
X140553235Y-125314467D01*
X140553234Y-125314466D01*
X140481546Y-125141395D01*
X140445000Y-124957667D01*
X140445000Y-124770333D01*
X140481546Y-124586605D01*
X140553234Y-124413534D01*
X140657309Y-124257775D01*
X140657310Y-124257773D01*
X140789773Y-124125310D01*
X140945533Y-124021235D01*
X140945534Y-124021234D01*
X141118605Y-123949546D01*
X141302333Y-123913000D01*
X141489667Y-123913000D01*
X141673395Y-123949546D01*
X141673395Y-123949546D01*
G37*
G36*
X138777552Y-123055331D02*
G01*
X138859627Y-123089328D01*
X138859629Y-123089329D01*
X138933496Y-123138686D01*
X138996314Y-123201504D01*
X139045167Y-123274616D01*
X139045672Y-123275373D01*
X139079669Y-123357448D01*
X139097000Y-123444579D01*
X139097000Y-123533421D01*
X139079669Y-123620552D01*
X139062086Y-123663000D01*
X139045671Y-123702629D01*
X139023774Y-123735400D01*
X138996315Y-123776495D01*
X138933495Y-123839315D01*
X138904407Y-123858751D01*
X138859629Y-123888671D01*
X138859628Y-123888672D01*
X138859627Y-123888672D01*
X138777552Y-123922669D01*
X138690421Y-123940000D01*
X138601580Y-123940000D01*
X138599171Y-123939521D01*
X138574787Y-123937120D01*
X138550401Y-123939522D01*
X138526952Y-123946636D01*
X138505342Y-123958187D01*
X138486400Y-123973733D01*
X138470855Y-123992675D01*
X138459304Y-124014286D01*
X138452191Y-124037735D01*
X138449790Y-124062121D01*
X138452192Y-124086507D01*
X138459306Y-124109956D01*
X138470856Y-124131565D01*
X138527385Y-124216167D01*
X138606611Y-124407436D01*
X138647000Y-124610484D01*
X138647000Y-124817516D01*
X138606611Y-125020564D01*
X138558222Y-125137385D01*
X138527384Y-125211835D01*
X138412365Y-125383973D01*
X138265973Y-125530365D01*
X138093835Y-125645384D01*
X138093834Y-125645385D01*
X138093833Y-125645385D01*
X137902564Y-125724611D01*
X137699516Y-125765000D01*
X137492484Y-125765000D01*
X137289436Y-125724611D01*
X137098167Y-125645385D01*
X137098166Y-125645385D01*
X137098165Y-125645384D01*
X136926027Y-125530365D01*
X136779635Y-125383973D01*
X136664616Y-125211835D01*
X136633778Y-125137385D01*
X136585389Y-125020564D01*
X136545000Y-124817516D01*
X136545000Y-124610484D01*
X136585389Y-124407436D01*
X136664615Y-124216167D01*
X136725324Y-124125310D01*
X136779635Y-124044027D01*
X136926027Y-123897635D01*
X137098165Y-123782616D01*
X137112940Y-123776496D01*
X137289436Y-123703389D01*
X137492484Y-123663000D01*
X137699516Y-123663000D01*
X137902565Y-123703389D01*
X138042047Y-123761164D01*
X138065496Y-123768277D01*
X138089882Y-123770679D01*
X138114269Y-123768277D01*
X138137717Y-123761164D01*
X138159328Y-123749613D01*
X138178270Y-123734067D01*
X138193815Y-123715125D01*
X138205366Y-123693515D01*
X138212479Y-123670066D01*
X138214881Y-123645680D01*
X138212479Y-123621294D01*
X138195000Y-123533421D01*
X138195000Y-123444579D01*
X138212331Y-123357448D01*
X138246328Y-123275373D01*
X138246834Y-123274616D01*
X138295686Y-123201504D01*
X138358504Y-123138686D01*
X138432371Y-123089329D01*
X138432373Y-123089328D01*
X138514448Y-123055331D01*
X138601579Y-123038000D01*
X138690421Y-123038000D01*
X138777552Y-123055331D01*
X138777552Y-123055331D01*
G37*
G36*
X129891000Y-125511500D02*
G01*
X129189000Y-125511500D01*
X129189000Y-124009500D01*
X129891000Y-124009500D01*
X129891000Y-125511500D01*
X129891000Y-125511500D01*
G37*
G36*
X131161000Y-125511500D02*
G01*
X130459000Y-125511500D01*
X130459000Y-124009500D01*
X131161000Y-124009500D01*
X131161000Y-125511500D01*
X131161000Y-125511500D01*
G37*
G36*
X132431000Y-125511500D02*
G01*
X131729000Y-125511500D01*
X131729000Y-124009500D01*
X132431000Y-124009500D01*
X132431000Y-125511500D01*
X132431000Y-125511500D01*
G37*
G36*
X133701000Y-125511500D02*
G01*
X132999000Y-125511500D01*
X132999000Y-124009500D01*
X133701000Y-124009500D01*
X133701000Y-125511500D01*
X133701000Y-125511500D01*
G37*
G36*
X114589000Y-125257000D02*
G01*
X112487000Y-125257000D01*
X112487000Y-123155000D01*
X114589000Y-123155000D01*
X114589000Y-125257000D01*
X114589000Y-125257000D01*
G37*
G36*
X99344564Y-123195389D02*
G01*
X99535833Y-123274615D01*
X99535835Y-123274616D01*
X99707973Y-123389635D01*
X99854365Y-123536027D01*
X99966193Y-123703389D01*
X99969385Y-123708167D01*
X100048611Y-123899436D01*
X100089000Y-124102484D01*
X100089000Y-124309516D01*
X100048611Y-124512564D01*
X100017942Y-124586605D01*
X99969384Y-124703835D01*
X99854365Y-124875973D01*
X99707973Y-125022365D01*
X99535835Y-125137384D01*
X99535834Y-125137385D01*
X99535833Y-125137385D01*
X99344564Y-125216611D01*
X99141516Y-125257000D01*
X98934484Y-125257000D01*
X98731436Y-125216611D01*
X98540167Y-125137385D01*
X98540166Y-125137385D01*
X98540165Y-125137384D01*
X98368027Y-125022365D01*
X98221635Y-124875973D01*
X98106616Y-124703835D01*
X98058058Y-124586605D01*
X98027389Y-124512564D01*
X97987000Y-124309516D01*
X97987000Y-124102484D01*
X98027389Y-123899436D01*
X98106615Y-123708167D01*
X98109808Y-123703389D01*
X98221635Y-123536027D01*
X98368027Y-123389635D01*
X98540165Y-123274616D01*
X98540167Y-123274615D01*
X98731436Y-123195389D01*
X98934484Y-123155000D01*
X99141516Y-123155000D01*
X99344564Y-123195389D01*
X99344564Y-123195389D01*
G37*
G36*
X120322338Y-123738116D02*
G01*
X120342957Y-123744371D01*
X120361953Y-123754524D01*
X120378608Y-123768192D01*
X120392276Y-123784847D01*
X120402429Y-123803843D01*
X120408684Y-123824462D01*
X120411400Y-123852040D01*
X120411400Y-124310760D01*
X120408684Y-124338338D01*
X120402429Y-124358957D01*
X120392276Y-124377953D01*
X120378608Y-124394608D01*
X120361953Y-124408276D01*
X120342957Y-124418429D01*
X120322338Y-124424684D01*
X120294760Y-124427400D01*
X119786040Y-124427400D01*
X119758462Y-124424684D01*
X119737843Y-124418429D01*
X119718847Y-124408276D01*
X119702192Y-124394608D01*
X119688524Y-124377953D01*
X119678371Y-124358957D01*
X119672116Y-124338338D01*
X119669400Y-124310760D01*
X119669400Y-123852040D01*
X119672116Y-123824462D01*
X119678371Y-123803843D01*
X119688524Y-123784847D01*
X119702192Y-123768192D01*
X119718847Y-123754524D01*
X119737843Y-123744371D01*
X119758462Y-123738116D01*
X119786040Y-123735400D01*
X120294760Y-123735400D01*
X120322338Y-123738116D01*
X120322338Y-123738116D01*
G37*
G36*
X111978438Y-123308716D02*
G01*
X111999057Y-123314971D01*
X112018053Y-123325124D01*
X112034708Y-123338792D01*
X112048376Y-123355447D01*
X112058529Y-123374443D01*
X112064784Y-123395062D01*
X112067500Y-123422640D01*
X112067500Y-123881360D01*
X112064784Y-123908938D01*
X112058529Y-123929557D01*
X112048376Y-123948553D01*
X112034708Y-123965208D01*
X112018053Y-123978876D01*
X111999057Y-123989029D01*
X111978438Y-123995284D01*
X111950860Y-123998000D01*
X111442140Y-123998000D01*
X111414562Y-123995284D01*
X111393943Y-123989029D01*
X111374947Y-123978876D01*
X111358292Y-123965208D01*
X111344624Y-123948553D01*
X111334471Y-123929557D01*
X111328216Y-123908938D01*
X111325500Y-123881360D01*
X111325500Y-123422640D01*
X111328216Y-123395062D01*
X111334471Y-123374443D01*
X111344624Y-123355447D01*
X111358292Y-123338792D01*
X111374947Y-123325124D01*
X111393943Y-123314971D01*
X111414562Y-123308716D01*
X111442140Y-123306000D01*
X111950860Y-123306000D01*
X111978438Y-123308716D01*
X111978438Y-123308716D01*
G37*
G36*
X120322338Y-122768116D02*
G01*
X120342957Y-122774371D01*
X120361953Y-122784524D01*
X120378608Y-122798192D01*
X120392276Y-122814847D01*
X120402429Y-122833843D01*
X120408684Y-122854462D01*
X120411400Y-122882040D01*
X120411400Y-123340760D01*
X120408684Y-123368338D01*
X120402429Y-123388957D01*
X120392276Y-123407953D01*
X120378608Y-123424608D01*
X120361953Y-123438276D01*
X120342957Y-123448429D01*
X120322338Y-123454684D01*
X120294760Y-123457400D01*
X119786040Y-123457400D01*
X119758462Y-123454684D01*
X119737843Y-123448429D01*
X119718847Y-123438276D01*
X119702192Y-123424608D01*
X119688524Y-123407953D01*
X119678371Y-123388957D01*
X119672116Y-123368338D01*
X119669400Y-123340760D01*
X119669400Y-122882040D01*
X119672116Y-122854462D01*
X119678371Y-122833843D01*
X119688524Y-122814847D01*
X119702192Y-122798192D01*
X119718847Y-122784524D01*
X119737843Y-122774371D01*
X119758462Y-122768116D01*
X119786040Y-122765400D01*
X120294760Y-122765400D01*
X120322338Y-122768116D01*
X120322338Y-122768116D01*
G37*
G36*
X86724442Y-121279518D02*
G01*
X86790627Y-121286037D01*
X86960466Y-121337557D01*
X87116991Y-121421222D01*
X87152729Y-121450552D01*
X87254186Y-121533814D01*
X87337448Y-121635271D01*
X87366778Y-121671009D01*
X87366779Y-121671011D01*
X87440671Y-121809251D01*
X87450443Y-121827534D01*
X87501963Y-121997373D01*
X87519359Y-122174000D01*
X87501963Y-122350627D01*
X87450443Y-122520466D01*
X87366778Y-122676991D01*
X87337448Y-122712729D01*
X87254186Y-122814186D01*
X87171504Y-122882040D01*
X87116991Y-122926778D01*
X87116989Y-122926779D01*
X86988969Y-122995208D01*
X86960466Y-123010443D01*
X86790627Y-123061963D01*
X86724442Y-123068482D01*
X86658260Y-123075000D01*
X86569740Y-123075000D01*
X86503558Y-123068482D01*
X86437373Y-123061963D01*
X86267534Y-123010443D01*
X86239032Y-122995208D01*
X86111011Y-122926779D01*
X86111009Y-122926778D01*
X86056496Y-122882040D01*
X85973814Y-122814186D01*
X85890552Y-122712729D01*
X85861222Y-122676991D01*
X85777557Y-122520466D01*
X85726037Y-122350627D01*
X85708641Y-122174000D01*
X85726037Y-121997373D01*
X85777557Y-121827534D01*
X85787330Y-121809251D01*
X85861221Y-121671011D01*
X85861222Y-121671009D01*
X85890552Y-121635271D01*
X85973814Y-121533814D01*
X86075271Y-121450552D01*
X86111009Y-121421222D01*
X86267534Y-121337557D01*
X86437373Y-121286037D01*
X86503558Y-121279518D01*
X86569740Y-121273000D01*
X86658260Y-121273000D01*
X86724442Y-121279518D01*
X86724442Y-121279518D01*
G37*
G36*
X111978438Y-122338716D02*
G01*
X111999057Y-122344971D01*
X112018053Y-122355124D01*
X112034708Y-122368792D01*
X112048376Y-122385447D01*
X112058529Y-122404443D01*
X112064784Y-122425062D01*
X112067500Y-122452640D01*
X112067500Y-122911360D01*
X112064784Y-122938938D01*
X112058529Y-122959557D01*
X112048376Y-122978553D01*
X112034708Y-122995208D01*
X112018053Y-123008876D01*
X111999057Y-123019029D01*
X111978438Y-123025284D01*
X111950860Y-123028000D01*
X111442140Y-123028000D01*
X111414562Y-123025284D01*
X111393943Y-123019029D01*
X111374947Y-123008876D01*
X111358292Y-122995208D01*
X111344624Y-122978553D01*
X111334471Y-122959557D01*
X111328216Y-122938938D01*
X111325500Y-122911360D01*
X111325500Y-122452640D01*
X111328216Y-122425062D01*
X111334471Y-122404443D01*
X111344624Y-122385447D01*
X111358292Y-122368792D01*
X111374947Y-122355124D01*
X111393943Y-122344971D01*
X111414562Y-122338716D01*
X111442140Y-122336000D01*
X111950860Y-122336000D01*
X111978438Y-122338716D01*
X111978438Y-122338716D01*
G37*
G36*
X138247000Y-122565000D02*
G01*
X136845000Y-122565000D01*
X136845000Y-119413000D01*
X138247000Y-119413000D01*
X138247000Y-122565000D01*
X138247000Y-122565000D01*
G37*
G36*
X107689000Y-122157000D02*
G01*
X104387000Y-122157000D01*
X104387000Y-120055000D01*
X107689000Y-120055000D01*
X107689000Y-122157000D01*
X107689000Y-122157000D01*
G37*
G36*
X112041938Y-121259216D02*
G01*
X112062557Y-121265471D01*
X112081553Y-121275624D01*
X112098208Y-121289292D01*
X112111876Y-121305947D01*
X112122029Y-121324943D01*
X112128284Y-121345562D01*
X112131000Y-121373140D01*
X112131000Y-121831860D01*
X112128284Y-121859438D01*
X112122029Y-121880057D01*
X112111876Y-121899053D01*
X112098208Y-121915708D01*
X112081553Y-121929376D01*
X112062557Y-121939529D01*
X112041938Y-121945784D01*
X112014360Y-121948500D01*
X111505640Y-121948500D01*
X111478062Y-121945784D01*
X111457443Y-121939529D01*
X111438447Y-121929376D01*
X111421792Y-121915708D01*
X111408124Y-121899053D01*
X111397971Y-121880057D01*
X111391716Y-121859438D01*
X111389000Y-121831860D01*
X111389000Y-121373140D01*
X111391716Y-121345562D01*
X111397971Y-121324943D01*
X111408124Y-121305947D01*
X111421792Y-121289292D01*
X111438447Y-121275624D01*
X111457443Y-121265471D01*
X111478062Y-121259216D01*
X111505640Y-121256500D01*
X112014360Y-121256500D01*
X112041938Y-121259216D01*
X112041938Y-121259216D01*
G37*
G36*
X111018438Y-121170716D02*
G01*
X111039057Y-121176971D01*
X111058053Y-121187124D01*
X111074708Y-121200792D01*
X111088376Y-121217447D01*
X111098529Y-121236443D01*
X111104784Y-121257062D01*
X111107500Y-121284640D01*
X111107500Y-121793360D01*
X111104784Y-121820938D01*
X111098529Y-121841557D01*
X111088376Y-121860553D01*
X111074708Y-121877208D01*
X111058053Y-121890876D01*
X111039057Y-121901029D01*
X111018438Y-121907284D01*
X110990860Y-121910000D01*
X110532140Y-121910000D01*
X110504562Y-121907284D01*
X110483943Y-121901029D01*
X110464947Y-121890876D01*
X110448292Y-121877208D01*
X110434624Y-121860553D01*
X110424471Y-121841557D01*
X110418216Y-121820938D01*
X110415500Y-121793360D01*
X110415500Y-121284640D01*
X110418216Y-121257062D01*
X110424471Y-121236443D01*
X110434624Y-121217447D01*
X110448292Y-121200792D01*
X110464947Y-121187124D01*
X110483943Y-121176971D01*
X110504562Y-121170716D01*
X110532140Y-121168000D01*
X110990860Y-121168000D01*
X111018438Y-121170716D01*
X111018438Y-121170716D01*
G37*
G36*
X110048438Y-121170716D02*
G01*
X110069057Y-121176971D01*
X110088053Y-121187124D01*
X110104708Y-121200792D01*
X110118376Y-121217447D01*
X110128529Y-121236443D01*
X110134784Y-121257062D01*
X110137500Y-121284640D01*
X110137500Y-121793360D01*
X110134784Y-121820938D01*
X110128529Y-121841557D01*
X110118376Y-121860553D01*
X110104708Y-121877208D01*
X110088053Y-121890876D01*
X110069057Y-121901029D01*
X110048438Y-121907284D01*
X110020860Y-121910000D01*
X109562140Y-121910000D01*
X109534562Y-121907284D01*
X109513943Y-121901029D01*
X109494947Y-121890876D01*
X109478292Y-121877208D01*
X109464624Y-121860553D01*
X109454471Y-121841557D01*
X109448216Y-121820938D01*
X109445500Y-121793360D01*
X109445500Y-121284640D01*
X109448216Y-121257062D01*
X109454471Y-121236443D01*
X109464624Y-121217447D01*
X109478292Y-121200792D01*
X109494947Y-121187124D01*
X109513943Y-121176971D01*
X109534562Y-121170716D01*
X109562140Y-121168000D01*
X110020860Y-121168000D01*
X110048438Y-121170716D01*
X110048438Y-121170716D01*
G37*
G36*
X112041938Y-120289216D02*
G01*
X112062557Y-120295471D01*
X112081553Y-120305624D01*
X112098208Y-120319292D01*
X112111876Y-120335947D01*
X112122029Y-120354943D01*
X112128284Y-120375562D01*
X112131000Y-120403140D01*
X112131000Y-120861860D01*
X112128284Y-120889438D01*
X112122029Y-120910057D01*
X112111876Y-120929053D01*
X112098208Y-120945708D01*
X112081553Y-120959376D01*
X112062557Y-120969529D01*
X112041938Y-120975784D01*
X112014360Y-120978500D01*
X111505640Y-120978500D01*
X111478062Y-120975784D01*
X111457443Y-120969529D01*
X111438447Y-120959376D01*
X111421792Y-120945708D01*
X111408124Y-120929053D01*
X111397971Y-120910057D01*
X111391716Y-120889438D01*
X111389000Y-120861860D01*
X111389000Y-120403140D01*
X111391716Y-120375562D01*
X111397971Y-120354943D01*
X111408124Y-120335947D01*
X111421792Y-120319292D01*
X111438447Y-120305624D01*
X111457443Y-120295471D01*
X111478062Y-120289216D01*
X111505640Y-120286500D01*
X112014360Y-120286500D01*
X112041938Y-120289216D01*
X112041938Y-120289216D01*
G37*
G36*
X86724442Y-118739518D02*
G01*
X86790627Y-118746037D01*
X86960466Y-118797557D01*
X87116991Y-118881222D01*
X87152729Y-118910552D01*
X87254186Y-118993814D01*
X87337448Y-119095271D01*
X87366778Y-119131009D01*
X87450443Y-119287534D01*
X87501963Y-119457373D01*
X87519359Y-119634000D01*
X87501963Y-119810627D01*
X87450443Y-119980466D01*
X87366778Y-120136991D01*
X87337448Y-120172729D01*
X87254186Y-120274186D01*
X87177437Y-120337171D01*
X87116991Y-120386778D01*
X86960466Y-120470443D01*
X86790627Y-120521963D01*
X86724443Y-120528481D01*
X86658260Y-120535000D01*
X86569740Y-120535000D01*
X86503557Y-120528481D01*
X86437373Y-120521963D01*
X86267534Y-120470443D01*
X86111009Y-120386778D01*
X86050563Y-120337171D01*
X85973814Y-120274186D01*
X85890552Y-120172729D01*
X85861222Y-120136991D01*
X85777557Y-119980466D01*
X85726037Y-119810627D01*
X85708641Y-119634000D01*
X85726037Y-119457373D01*
X85777557Y-119287534D01*
X85861222Y-119131009D01*
X85890552Y-119095271D01*
X85973814Y-118993814D01*
X86075271Y-118910552D01*
X86111009Y-118881222D01*
X86267534Y-118797557D01*
X86437373Y-118746037D01*
X86503558Y-118739518D01*
X86569740Y-118733000D01*
X86658260Y-118733000D01*
X86724442Y-118739518D01*
X86724442Y-118739518D01*
G37*
G36*
X131161000Y-120211500D02*
G01*
X130459000Y-120211500D01*
X130459000Y-118709500D01*
X131161000Y-118709500D01*
X131161000Y-120211500D01*
X131161000Y-120211500D01*
G37*
G36*
X129891000Y-120211500D02*
G01*
X129189000Y-120211500D01*
X129189000Y-118709500D01*
X129891000Y-118709500D01*
X129891000Y-120211500D01*
X129891000Y-120211500D01*
G37*
G36*
X133701000Y-120211500D02*
G01*
X132999000Y-120211500D01*
X132999000Y-118709500D01*
X133701000Y-118709500D01*
X133701000Y-120211500D01*
X133701000Y-120211500D01*
G37*
G36*
X132431000Y-120211500D02*
G01*
X131729000Y-120211500D01*
X131729000Y-118709500D01*
X132431000Y-118709500D01*
X132431000Y-120211500D01*
X132431000Y-120211500D01*
G37*
G36*
X137902564Y-116253389D02*
G01*
X138038395Y-116309652D01*
X138093835Y-116332616D01*
X138195815Y-116400757D01*
X138265973Y-116447635D01*
X138412365Y-116594027D01*
X138527385Y-116766167D01*
X138606611Y-116957436D01*
X138647000Y-117160484D01*
X138647000Y-117367516D01*
X138606611Y-117570564D01*
X138527385Y-117761833D01*
X138470856Y-117846435D01*
X138459305Y-117868046D01*
X138452192Y-117891495D01*
X138449790Y-117915881D01*
X138452192Y-117940267D01*
X138459305Y-117963716D01*
X138470856Y-117985327D01*
X138486401Y-118004269D01*
X138505343Y-118019814D01*
X138526954Y-118031365D01*
X138550403Y-118038478D01*
X138574789Y-118040880D01*
X138599171Y-118038479D01*
X138601580Y-118038000D01*
X138690421Y-118038000D01*
X138777552Y-118055331D01*
X138859627Y-118089328D01*
X138859629Y-118089329D01*
X138933496Y-118138686D01*
X138996314Y-118201504D01*
X139045163Y-118274610D01*
X139045672Y-118275373D01*
X139079669Y-118357448D01*
X139097000Y-118444579D01*
X139097000Y-118533421D01*
X139079669Y-118620552D01*
X139045672Y-118702627D01*
X139045671Y-118702629D01*
X138996314Y-118776496D01*
X138933496Y-118839314D01*
X138859629Y-118888671D01*
X138859628Y-118888672D01*
X138859627Y-118888672D01*
X138777552Y-118922669D01*
X138690421Y-118940000D01*
X138601579Y-118940000D01*
X138514448Y-118922669D01*
X138432373Y-118888672D01*
X138432372Y-118888672D01*
X138432371Y-118888671D01*
X138358504Y-118839314D01*
X138295686Y-118776496D01*
X138246329Y-118702629D01*
X138246328Y-118702627D01*
X138212331Y-118620552D01*
X138195000Y-118533421D01*
X138195000Y-118444579D01*
X138212479Y-118356706D01*
X138214881Y-118332320D01*
X138212479Y-118307934D01*
X138205366Y-118284485D01*
X138193815Y-118262874D01*
X138178270Y-118243932D01*
X138159328Y-118228387D01*
X138137717Y-118216836D01*
X138114268Y-118209723D01*
X138089882Y-118207321D01*
X138065496Y-118209723D01*
X138042047Y-118216836D01*
X137902565Y-118274611D01*
X137699516Y-118315000D01*
X137492484Y-118315000D01*
X137289436Y-118274611D01*
X137098167Y-118195385D01*
X137098166Y-118195385D01*
X137098165Y-118195384D01*
X136926027Y-118080365D01*
X136779635Y-117933973D01*
X136664616Y-117761835D01*
X136664615Y-117761833D01*
X136585389Y-117570564D01*
X136545000Y-117367516D01*
X136545000Y-117160484D01*
X136585389Y-116957436D01*
X136664615Y-116766167D01*
X136779635Y-116594027D01*
X136926027Y-116447635D01*
X136996185Y-116400757D01*
X137098165Y-116332616D01*
X137153605Y-116309652D01*
X137289436Y-116253389D01*
X137492484Y-116213000D01*
X137699516Y-116213000D01*
X137902564Y-116253389D01*
X137902564Y-116253389D01*
G37*
G36*
X141673395Y-116199546D02*
G01*
X141846466Y-116271234D01*
X141923818Y-116322919D01*
X142002227Y-116375310D01*
X142134690Y-116507773D01*
X142134691Y-116507775D01*
X142238766Y-116663534D01*
X142310454Y-116836605D01*
X142347000Y-117020333D01*
X142347000Y-117207667D01*
X142310454Y-117391395D01*
X142238766Y-117564466D01*
X142187081Y-117641818D01*
X142134690Y-117720227D01*
X142002227Y-117852690D01*
X141979245Y-117868046D01*
X141846466Y-117956766D01*
X141673395Y-118028454D01*
X141489667Y-118065000D01*
X141302333Y-118065000D01*
X141118605Y-118028454D01*
X140945534Y-117956766D01*
X140812755Y-117868046D01*
X140789773Y-117852690D01*
X140657310Y-117720227D01*
X140604919Y-117641818D01*
X140553234Y-117564466D01*
X140481546Y-117391395D01*
X140445000Y-117207667D01*
X140445000Y-117020333D01*
X140481546Y-116836605D01*
X140553234Y-116663534D01*
X140657309Y-116507775D01*
X140657310Y-116507773D01*
X140789773Y-116375310D01*
X140868182Y-116322919D01*
X140945534Y-116271234D01*
X141118605Y-116199546D01*
X141302333Y-116163000D01*
X141489667Y-116163000D01*
X141673395Y-116199546D01*
X141673395Y-116199546D01*
G37*
G36*
X87515000Y-117995000D02*
G01*
X85713000Y-117995000D01*
X85713000Y-116193000D01*
X87515000Y-116193000D01*
X87515000Y-117995000D01*
X87515000Y-117995000D01*
G37*
G36*
X134409497Y-114723051D02*
G01*
X134443152Y-114733261D01*
X134474165Y-114749838D01*
X134501351Y-114772149D01*
X134523662Y-114799335D01*
X134540239Y-114830348D01*
X134550449Y-114864003D01*
X134554500Y-114905138D01*
X134554500Y-116234862D01*
X134550449Y-116275997D01*
X134540239Y-116309652D01*
X134523662Y-116340665D01*
X134501351Y-116367851D01*
X134474165Y-116390162D01*
X134443152Y-116406739D01*
X134409497Y-116416949D01*
X134368362Y-116421000D01*
X132038638Y-116421000D01*
X131997503Y-116416949D01*
X131963848Y-116406739D01*
X131932835Y-116390162D01*
X131905649Y-116367851D01*
X131883338Y-116340665D01*
X131866761Y-116309652D01*
X131856551Y-116275997D01*
X131852500Y-116234862D01*
X131852500Y-114905138D01*
X131856551Y-114864003D01*
X131866761Y-114830348D01*
X131883338Y-114799335D01*
X131905649Y-114772149D01*
X131932835Y-114749838D01*
X131963848Y-114733261D01*
X131997503Y-114723051D01*
X132038638Y-114719000D01*
X134368362Y-114719000D01*
X134409497Y-114723051D01*
X134409497Y-114723051D01*
G37*
G36*
X130809497Y-114723051D02*
G01*
X130843152Y-114733261D01*
X130874165Y-114749838D01*
X130901351Y-114772149D01*
X130923662Y-114799335D01*
X130940239Y-114830348D01*
X130950449Y-114864003D01*
X130954500Y-114905138D01*
X130954500Y-116234862D01*
X130950449Y-116275997D01*
X130940239Y-116309652D01*
X130923662Y-116340665D01*
X130901351Y-116367851D01*
X130874165Y-116390162D01*
X130843152Y-116406739D01*
X130809497Y-116416949D01*
X130768362Y-116421000D01*
X128438638Y-116421000D01*
X128397503Y-116416949D01*
X128363848Y-116406739D01*
X128332835Y-116390162D01*
X128305649Y-116367851D01*
X128283338Y-116340665D01*
X128266761Y-116309652D01*
X128256551Y-116275997D01*
X128252500Y-116234862D01*
X128252500Y-114905138D01*
X128256551Y-114864003D01*
X128266761Y-114830348D01*
X128283338Y-114799335D01*
X128305649Y-114772149D01*
X128332835Y-114749838D01*
X128363848Y-114733261D01*
X128397503Y-114723051D01*
X128438638Y-114719000D01*
X130768362Y-114719000D01*
X130809497Y-114723051D01*
X130809497Y-114723051D01*
G37*
G36*
X102642754Y-112264318D02*
G01*
X103016011Y-112418926D01*
X103016013Y-112418927D01*
X103351936Y-112643384D01*
X103637616Y-112929064D01*
X103862074Y-113264989D01*
X104016682Y-113638246D01*
X104095500Y-114034493D01*
X104095500Y-114438507D01*
X104016682Y-114834754D01*
X103987528Y-114905138D01*
X103862073Y-115208013D01*
X103637616Y-115543936D01*
X103351936Y-115829616D01*
X103016013Y-116054073D01*
X103016012Y-116054074D01*
X103016011Y-116054074D01*
X102642754Y-116208682D01*
X102246507Y-116287500D01*
X101842493Y-116287500D01*
X101446246Y-116208682D01*
X101072989Y-116054074D01*
X101072988Y-116054074D01*
X101072987Y-116054073D01*
X100737064Y-115829616D01*
X100451384Y-115543936D01*
X100226927Y-115208013D01*
X100101472Y-114905138D01*
X100072318Y-114834754D01*
X99993500Y-114438507D01*
X99993500Y-114034493D01*
X100072318Y-113638246D01*
X100226926Y-113264989D01*
X100451384Y-112929064D01*
X100737064Y-112643384D01*
X101072987Y-112418927D01*
X101072989Y-112418926D01*
X101446246Y-112264318D01*
X101842493Y-112185500D01*
X102246507Y-112185500D01*
X102642754Y-112264318D01*
X102642754Y-112264318D01*
G37*
G36*
X125892754Y-112264318D02*
G01*
X126266011Y-112418926D01*
X126266013Y-112418927D01*
X126601936Y-112643384D01*
X126887616Y-112929064D01*
X127112074Y-113264989D01*
X127266682Y-113638246D01*
X127345500Y-114034493D01*
X127345500Y-114438507D01*
X127266682Y-114834754D01*
X127237528Y-114905138D01*
X127112073Y-115208013D01*
X126887616Y-115543936D01*
X126601936Y-115829616D01*
X126266013Y-116054073D01*
X126266012Y-116054074D01*
X126266011Y-116054074D01*
X125892754Y-116208682D01*
X125496507Y-116287500D01*
X125092493Y-116287500D01*
X124696246Y-116208682D01*
X124322989Y-116054074D01*
X124322988Y-116054074D01*
X124322987Y-116054073D01*
X123987064Y-115829616D01*
X123701384Y-115543936D01*
X123476927Y-115208013D01*
X123351472Y-114905138D01*
X123322318Y-114834754D01*
X123243500Y-114438507D01*
X123243500Y-114034493D01*
X123322318Y-113638246D01*
X123476926Y-113264989D01*
X123701384Y-112929064D01*
X123987064Y-112643384D01*
X124322987Y-112418927D01*
X124322989Y-112418926D01*
X124696246Y-112264318D01*
X125092493Y-112185500D01*
X125496507Y-112185500D01*
X125892754Y-112264318D01*
X125892754Y-112264318D01*
G37*
G36*
X143296900Y-112121800D02*
G01*
X142884900Y-112121800D01*
X142884900Y-111499800D01*
X143296900Y-111499800D01*
X143296900Y-112121800D01*
X143296900Y-112121800D01*
G37*
G36*
X141988800Y-112109100D02*
G01*
X141576800Y-112109100D01*
X141576800Y-111487100D01*
X141988800Y-111487100D01*
X141988800Y-112109100D01*
X141988800Y-112109100D01*
G37*
G36*
X130459378Y-109065197D02*
G01*
X130512150Y-109075694D01*
X130611570Y-109116875D01*
X130701046Y-109176661D01*
X130777139Y-109252754D01*
X130836925Y-109342230D01*
X130878106Y-109441650D01*
X130899100Y-109547194D01*
X130899100Y-109654806D01*
X130878106Y-109760350D01*
X130836925Y-109859770D01*
X130777139Y-109949246D01*
X130701046Y-110025339D01*
X130611570Y-110085125D01*
X130512150Y-110126306D01*
X130459378Y-110136803D01*
X130406607Y-110147300D01*
X130298993Y-110147300D01*
X130246222Y-110136803D01*
X130193450Y-110126306D01*
X130094030Y-110085125D01*
X130004554Y-110025339D01*
X129928461Y-109949246D01*
X129868675Y-109859770D01*
X129827494Y-109760350D01*
X129806500Y-109654806D01*
X129806500Y-109547194D01*
X129827494Y-109441650D01*
X129868675Y-109342230D01*
X129928461Y-109252754D01*
X130004554Y-109176661D01*
X130094030Y-109116875D01*
X130193450Y-109075694D01*
X130246222Y-109065197D01*
X130298993Y-109054700D01*
X130406607Y-109054700D01*
X130459378Y-109065197D01*
X130459378Y-109065197D01*
G37*
G36*
X131752514Y-108792389D02*
G01*
X131779189Y-108803438D01*
X131833445Y-108825912D01*
X131906280Y-108874579D01*
X131968221Y-108936520D01*
X132016888Y-109009355D01*
X132050411Y-109090286D01*
X132067500Y-109176201D01*
X132067500Y-109263799D01*
X132050411Y-109349714D01*
X132016888Y-109430645D01*
X131968221Y-109503480D01*
X131906280Y-109565421D01*
X131833445Y-109614088D01*
X131833444Y-109614089D01*
X131833443Y-109614089D01*
X131752514Y-109647611D01*
X131666601Y-109664700D01*
X131578999Y-109664700D01*
X131493086Y-109647611D01*
X131412157Y-109614089D01*
X131412156Y-109614089D01*
X131412155Y-109614088D01*
X131339320Y-109565421D01*
X131277379Y-109503480D01*
X131228712Y-109430645D01*
X131195189Y-109349714D01*
X131178100Y-109263799D01*
X131178100Y-109176201D01*
X131195189Y-109090286D01*
X131228712Y-109009355D01*
X131277379Y-108936520D01*
X131339320Y-108874579D01*
X131412155Y-108825912D01*
X131466412Y-108803438D01*
X131493086Y-108792389D01*
X131578999Y-108775300D01*
X131666601Y-108775300D01*
X131752514Y-108792389D01*
X131752514Y-108792389D01*
G37*
G36*
X133022514Y-108792389D02*
G01*
X133049189Y-108803438D01*
X133103445Y-108825912D01*
X133176280Y-108874579D01*
X133238221Y-108936520D01*
X133286888Y-109009355D01*
X133320411Y-109090286D01*
X133337500Y-109176201D01*
X133337500Y-109263799D01*
X133320411Y-109349714D01*
X133286888Y-109430645D01*
X133238221Y-109503480D01*
X133176280Y-109565421D01*
X133103445Y-109614088D01*
X133103444Y-109614089D01*
X133103443Y-109614089D01*
X133022514Y-109647611D01*
X132936601Y-109664700D01*
X132848999Y-109664700D01*
X132763086Y-109647611D01*
X132682157Y-109614089D01*
X132682156Y-109614089D01*
X132682155Y-109614088D01*
X132609320Y-109565421D01*
X132547379Y-109503480D01*
X132498712Y-109430645D01*
X132465189Y-109349714D01*
X132448100Y-109263799D01*
X132448100Y-109176201D01*
X132465189Y-109090286D01*
X132498712Y-109009355D01*
X132547379Y-108936520D01*
X132609320Y-108874579D01*
X132682155Y-108825912D01*
X132736412Y-108803438D01*
X132763086Y-108792389D01*
X132848999Y-108775300D01*
X132936601Y-108775300D01*
X133022514Y-108792389D01*
X133022514Y-108792389D01*
G37*
G36*
X134292514Y-108792389D02*
G01*
X134319189Y-108803438D01*
X134373445Y-108825912D01*
X134446280Y-108874579D01*
X134508221Y-108936520D01*
X134556888Y-109009355D01*
X134590411Y-109090286D01*
X134607500Y-109176201D01*
X134607500Y-109263799D01*
X134590411Y-109349714D01*
X134556888Y-109430645D01*
X134508221Y-109503480D01*
X134446280Y-109565421D01*
X134373445Y-109614088D01*
X134373444Y-109614089D01*
X134373443Y-109614089D01*
X134292514Y-109647611D01*
X134206601Y-109664700D01*
X134118999Y-109664700D01*
X134033086Y-109647611D01*
X133952157Y-109614089D01*
X133952156Y-109614089D01*
X133952155Y-109614088D01*
X133879320Y-109565421D01*
X133817379Y-109503480D01*
X133768712Y-109430645D01*
X133735189Y-109349714D01*
X133718100Y-109263799D01*
X133718100Y-109176201D01*
X133735189Y-109090286D01*
X133768712Y-109009355D01*
X133817379Y-108936520D01*
X133879320Y-108874579D01*
X133952155Y-108825912D01*
X134006412Y-108803438D01*
X134033086Y-108792389D01*
X134118999Y-108775300D01*
X134206601Y-108775300D01*
X134292514Y-108792389D01*
X134292514Y-108792389D01*
G37*
G36*
X143322300Y-109416700D02*
G01*
X142910300Y-109416700D01*
X142910300Y-108794700D01*
X143322300Y-108794700D01*
X143322300Y-109416700D01*
X143322300Y-109416700D01*
G37*
G36*
X141976100Y-109416700D02*
G01*
X141564100Y-109416700D01*
X141564100Y-108794700D01*
X141976100Y-108794700D01*
X141976100Y-109416700D01*
X141976100Y-109416700D01*
G37*
G36*
X135532737Y-108047876D02*
G01*
X135592150Y-108059694D01*
X135691570Y-108100875D01*
X135781046Y-108160661D01*
X135857139Y-108236754D01*
X135916925Y-108326230D01*
X135958106Y-108425650D01*
X135979100Y-108531194D01*
X135979100Y-108638806D01*
X135958106Y-108744350D01*
X135916925Y-108843770D01*
X135857139Y-108933246D01*
X135781046Y-109009339D01*
X135691570Y-109069125D01*
X135592150Y-109110306D01*
X135559125Y-109116875D01*
X135486607Y-109131300D01*
X135378993Y-109131300D01*
X135306475Y-109116875D01*
X135273450Y-109110306D01*
X135174030Y-109069125D01*
X135084554Y-109009339D01*
X135008461Y-108933246D01*
X134948675Y-108843770D01*
X134907494Y-108744350D01*
X134886500Y-108638806D01*
X134886500Y-108531194D01*
X134907494Y-108425650D01*
X134948675Y-108326230D01*
X135008461Y-108236754D01*
X135084554Y-108160661D01*
X135174030Y-108100875D01*
X135273450Y-108059694D01*
X135332863Y-108047876D01*
X135378993Y-108038700D01*
X135486607Y-108038700D01*
X135532737Y-108047876D01*
X135532737Y-108047876D01*
G37*
G36*
X99588438Y-108153216D02*
G01*
X99609057Y-108159471D01*
X99628053Y-108169624D01*
X99644708Y-108183292D01*
X99658376Y-108199947D01*
X99668529Y-108218943D01*
X99674784Y-108239562D01*
X99677500Y-108267140D01*
X99677500Y-108775860D01*
X99674784Y-108803438D01*
X99668529Y-108824057D01*
X99658376Y-108843053D01*
X99644708Y-108859708D01*
X99628053Y-108873376D01*
X99609057Y-108883529D01*
X99588438Y-108889784D01*
X99560860Y-108892500D01*
X99102140Y-108892500D01*
X99074562Y-108889784D01*
X99053943Y-108883529D01*
X99034947Y-108873376D01*
X99018292Y-108859708D01*
X99004624Y-108843053D01*
X98994471Y-108824057D01*
X98988216Y-108803438D01*
X98985500Y-108775860D01*
X98985500Y-108267140D01*
X98988216Y-108239562D01*
X98994471Y-108218943D01*
X99004624Y-108199947D01*
X99018292Y-108183292D01*
X99034947Y-108169624D01*
X99053943Y-108159471D01*
X99074562Y-108153216D01*
X99102140Y-108150500D01*
X99560860Y-108150500D01*
X99588438Y-108153216D01*
X99588438Y-108153216D01*
G37*
G36*
X98618438Y-108153216D02*
G01*
X98639057Y-108159471D01*
X98658053Y-108169624D01*
X98674708Y-108183292D01*
X98688376Y-108199947D01*
X98698529Y-108218943D01*
X98704784Y-108239562D01*
X98707500Y-108267140D01*
X98707500Y-108775860D01*
X98704784Y-108803438D01*
X98698529Y-108824057D01*
X98688376Y-108843053D01*
X98674708Y-108859708D01*
X98658053Y-108873376D01*
X98639057Y-108883529D01*
X98618438Y-108889784D01*
X98590860Y-108892500D01*
X98132140Y-108892500D01*
X98104562Y-108889784D01*
X98083943Y-108883529D01*
X98064947Y-108873376D01*
X98048292Y-108859708D01*
X98034624Y-108843053D01*
X98024471Y-108824057D01*
X98018216Y-108803438D01*
X98015500Y-108775860D01*
X98015500Y-108267140D01*
X98018216Y-108239562D01*
X98024471Y-108218943D01*
X98034624Y-108199947D01*
X98048292Y-108183292D01*
X98064947Y-108169624D01*
X98083943Y-108159471D01*
X98104562Y-108153216D01*
X98132140Y-108150500D01*
X98590860Y-108150500D01*
X98618438Y-108153216D01*
X98618438Y-108153216D01*
G37*
G36*
X133022514Y-107522389D02*
G01*
X133103445Y-107555912D01*
X133176280Y-107604579D01*
X133238221Y-107666520D01*
X133286888Y-107739355D01*
X133286889Y-107739357D01*
X133320411Y-107820286D01*
X133337500Y-107906199D01*
X133337500Y-107993801D01*
X133320411Y-108079714D01*
X133289714Y-108153824D01*
X133286888Y-108160645D01*
X133238221Y-108233480D01*
X133176280Y-108295421D01*
X133103445Y-108344088D01*
X133103444Y-108344089D01*
X133103443Y-108344089D01*
X133022514Y-108377611D01*
X132936601Y-108394700D01*
X132848999Y-108394700D01*
X132763086Y-108377611D01*
X132682157Y-108344089D01*
X132682156Y-108344089D01*
X132682155Y-108344088D01*
X132609320Y-108295421D01*
X132547379Y-108233480D01*
X132498712Y-108160645D01*
X132495887Y-108153824D01*
X132465189Y-108079714D01*
X132448100Y-107993801D01*
X132448100Y-107906199D01*
X132465189Y-107820286D01*
X132498711Y-107739357D01*
X132498712Y-107739355D01*
X132547379Y-107666520D01*
X132609320Y-107604579D01*
X132682155Y-107555912D01*
X132763086Y-107522389D01*
X132848999Y-107505300D01*
X132936601Y-107505300D01*
X133022514Y-107522389D01*
X133022514Y-107522389D01*
G37*
G36*
X131752514Y-107522389D02*
G01*
X131833445Y-107555912D01*
X131906280Y-107604579D01*
X131968221Y-107666520D01*
X132016888Y-107739355D01*
X132016889Y-107739357D01*
X132050411Y-107820286D01*
X132067500Y-107906199D01*
X132067500Y-107993801D01*
X132050411Y-108079714D01*
X132019714Y-108153824D01*
X132016888Y-108160645D01*
X131968221Y-108233480D01*
X131906280Y-108295421D01*
X131833445Y-108344088D01*
X131833444Y-108344089D01*
X131833443Y-108344089D01*
X131752514Y-108377611D01*
X131666601Y-108394700D01*
X131578999Y-108394700D01*
X131493086Y-108377611D01*
X131412157Y-108344089D01*
X131412156Y-108344089D01*
X131412155Y-108344088D01*
X131339320Y-108295421D01*
X131277379Y-108233480D01*
X131228712Y-108160645D01*
X131225887Y-108153824D01*
X131195189Y-108079714D01*
X131178100Y-107993801D01*
X131178100Y-107906199D01*
X131195189Y-107820286D01*
X131228711Y-107739357D01*
X131228712Y-107739355D01*
X131277379Y-107666520D01*
X131339320Y-107604579D01*
X131412155Y-107555912D01*
X131493086Y-107522389D01*
X131578999Y-107505300D01*
X131666601Y-107505300D01*
X131752514Y-107522389D01*
X131752514Y-107522389D01*
G37*
G36*
X134292514Y-107522389D02*
G01*
X134373445Y-107555912D01*
X134446280Y-107604579D01*
X134508221Y-107666520D01*
X134556888Y-107739355D01*
X134556889Y-107739357D01*
X134590411Y-107820286D01*
X134607500Y-107906199D01*
X134607500Y-107993801D01*
X134590411Y-108079714D01*
X134559714Y-108153824D01*
X134556888Y-108160645D01*
X134508221Y-108233480D01*
X134446280Y-108295421D01*
X134373445Y-108344088D01*
X134373444Y-108344089D01*
X134373443Y-108344089D01*
X134292514Y-108377611D01*
X134206601Y-108394700D01*
X134118999Y-108394700D01*
X134033086Y-108377611D01*
X133952157Y-108344089D01*
X133952156Y-108344089D01*
X133952155Y-108344088D01*
X133879320Y-108295421D01*
X133817379Y-108233480D01*
X133768712Y-108160645D01*
X133765887Y-108153824D01*
X133735189Y-108079714D01*
X133718100Y-107993801D01*
X133718100Y-107906199D01*
X133735189Y-107820286D01*
X133768711Y-107739357D01*
X133768712Y-107739355D01*
X133817379Y-107666520D01*
X133879320Y-107604579D01*
X133952155Y-107555912D01*
X134033086Y-107522389D01*
X134118999Y-107505300D01*
X134206601Y-107505300D01*
X134292514Y-107522389D01*
X134292514Y-107522389D01*
G37*
G36*
X142013938Y-106527216D02*
G01*
X142034557Y-106533471D01*
X142053553Y-106543624D01*
X142070208Y-106557292D01*
X142083876Y-106573947D01*
X142094029Y-106592943D01*
X142100284Y-106613562D01*
X142103000Y-106641140D01*
X142103000Y-107099860D01*
X142100284Y-107127438D01*
X142094029Y-107148057D01*
X142083876Y-107167053D01*
X142070208Y-107183708D01*
X142053553Y-107197376D01*
X142034556Y-107207530D01*
X142010140Y-107214936D01*
X141987501Y-107224313D01*
X141967127Y-107237926D01*
X141949800Y-107255253D01*
X141936186Y-107275627D01*
X141926808Y-107298266D01*
X141922027Y-107322299D01*
X141922027Y-107346803D01*
X141926807Y-107370837D01*
X141936184Y-107393476D01*
X141949797Y-107413850D01*
X141967124Y-107431177D01*
X141987498Y-107444791D01*
X142010138Y-107454169D01*
X142032554Y-107460969D01*
X142051553Y-107471124D01*
X142068208Y-107484792D01*
X142081876Y-107501447D01*
X142092029Y-107520443D01*
X142098284Y-107541062D01*
X142101000Y-107568640D01*
X142101000Y-108077360D01*
X142098284Y-108104938D01*
X142092029Y-108125557D01*
X142081876Y-108144553D01*
X142068208Y-108161208D01*
X142051553Y-108174876D01*
X142032557Y-108185029D01*
X142011938Y-108191284D01*
X141984360Y-108194000D01*
X141525640Y-108194000D01*
X141498062Y-108191284D01*
X141477443Y-108185029D01*
X141458447Y-108174876D01*
X141441792Y-108161208D01*
X141428124Y-108144553D01*
X141417971Y-108125557D01*
X141411716Y-108104938D01*
X141409000Y-108077360D01*
X141409000Y-107568640D01*
X141411716Y-107541062D01*
X141417971Y-107520443D01*
X141428124Y-107501447D01*
X141441792Y-107484792D01*
X141458447Y-107471124D01*
X141477444Y-107460970D01*
X141484521Y-107458823D01*
X141507159Y-107449445D01*
X141527533Y-107435831D01*
X141544860Y-107418504D01*
X141558473Y-107398129D01*
X141567850Y-107375490D01*
X141572630Y-107351457D01*
X141572630Y-107326953D01*
X141567849Y-107302919D01*
X141558471Y-107280281D01*
X141544857Y-107259907D01*
X141527530Y-107242580D01*
X141507155Y-107228967D01*
X141484516Y-107219590D01*
X141460482Y-107214810D01*
X141450062Y-107213784D01*
X141429443Y-107207529D01*
X141410447Y-107197376D01*
X141393792Y-107183708D01*
X141380124Y-107167053D01*
X141369971Y-107148057D01*
X141363716Y-107127438D01*
X141361000Y-107099860D01*
X141361000Y-106641140D01*
X141363716Y-106613562D01*
X141369971Y-106592943D01*
X141380124Y-106573947D01*
X141393792Y-106557292D01*
X141410447Y-106543624D01*
X141429443Y-106533471D01*
X141450062Y-106527216D01*
X141477640Y-106524500D01*
X141986360Y-106524500D01*
X142013938Y-106527216D01*
X142013938Y-106527216D01*
G37*
G36*
X142981938Y-107454716D02*
G01*
X143002557Y-107460971D01*
X143021553Y-107471124D01*
X143038208Y-107484792D01*
X143051876Y-107501447D01*
X143062029Y-107520443D01*
X143068284Y-107541062D01*
X143071000Y-107568640D01*
X143071000Y-108077360D01*
X143068284Y-108104938D01*
X143062029Y-108125557D01*
X143051876Y-108144553D01*
X143038208Y-108161208D01*
X143021553Y-108174876D01*
X143002557Y-108185029D01*
X142981938Y-108191284D01*
X142954360Y-108194000D01*
X142495640Y-108194000D01*
X142468062Y-108191284D01*
X142447443Y-108185029D01*
X142428447Y-108174876D01*
X142411792Y-108161208D01*
X142398124Y-108144553D01*
X142387971Y-108125557D01*
X142381716Y-108104938D01*
X142379000Y-108077360D01*
X142379000Y-107568640D01*
X142381716Y-107541062D01*
X142387971Y-107520443D01*
X142398124Y-107501447D01*
X142411792Y-107484792D01*
X142428447Y-107471124D01*
X142447443Y-107460971D01*
X142468062Y-107454716D01*
X142495640Y-107452000D01*
X142954360Y-107452000D01*
X142981938Y-107454716D01*
X142981938Y-107454716D01*
G37*
G36*
X130459378Y-107033197D02*
G01*
X130512150Y-107043694D01*
X130611570Y-107084875D01*
X130701046Y-107144661D01*
X130777139Y-107220754D01*
X130836925Y-107310230D01*
X130878106Y-107409650D01*
X130899100Y-107515194D01*
X130899100Y-107622806D01*
X130878106Y-107728350D01*
X130836925Y-107827770D01*
X130777139Y-107917246D01*
X130701046Y-107993339D01*
X130611570Y-108053125D01*
X130512150Y-108094306D01*
X130479125Y-108100875D01*
X130406607Y-108115300D01*
X130298993Y-108115300D01*
X130226475Y-108100875D01*
X130193450Y-108094306D01*
X130094030Y-108053125D01*
X130004554Y-107993339D01*
X129928461Y-107917246D01*
X129868675Y-107827770D01*
X129827494Y-107728350D01*
X129806500Y-107622806D01*
X129806500Y-107515194D01*
X129827494Y-107409650D01*
X129868675Y-107310230D01*
X129928461Y-107220754D01*
X130004554Y-107144661D01*
X130094030Y-107084875D01*
X130193450Y-107043694D01*
X130246222Y-107033197D01*
X130298993Y-107022700D01*
X130406607Y-107022700D01*
X130459378Y-107033197D01*
X130459378Y-107033197D01*
G37*
G36*
X115532438Y-107327716D02*
G01*
X115553057Y-107333971D01*
X115572053Y-107344124D01*
X115588708Y-107357792D01*
X115602376Y-107374447D01*
X115612529Y-107393443D01*
X115618784Y-107414062D01*
X115621500Y-107441640D01*
X115621500Y-107950360D01*
X115618784Y-107977938D01*
X115612529Y-107998557D01*
X115602376Y-108017553D01*
X115588708Y-108034208D01*
X115572053Y-108047876D01*
X115553057Y-108058029D01*
X115532438Y-108064284D01*
X115504860Y-108067000D01*
X115046140Y-108067000D01*
X115018562Y-108064284D01*
X114997943Y-108058029D01*
X114978947Y-108047876D01*
X114962292Y-108034208D01*
X114948624Y-108017553D01*
X114938471Y-107998557D01*
X114932216Y-107977938D01*
X114929500Y-107950360D01*
X114929500Y-107441640D01*
X114932216Y-107414062D01*
X114938471Y-107393443D01*
X114948624Y-107374447D01*
X114962292Y-107357792D01*
X114978947Y-107344124D01*
X114997943Y-107333971D01*
X115018562Y-107327716D01*
X115046140Y-107325000D01*
X115504860Y-107325000D01*
X115532438Y-107327716D01*
X115532438Y-107327716D01*
G37*
G36*
X116502438Y-107327716D02*
G01*
X116523057Y-107333971D01*
X116542053Y-107344124D01*
X116558708Y-107357792D01*
X116572376Y-107374447D01*
X116582529Y-107393443D01*
X116588784Y-107414062D01*
X116591500Y-107441640D01*
X116591500Y-107950360D01*
X116588784Y-107977938D01*
X116582529Y-107998557D01*
X116572376Y-108017553D01*
X116558708Y-108034208D01*
X116542053Y-108047876D01*
X116523057Y-108058029D01*
X116502438Y-108064284D01*
X116474860Y-108067000D01*
X116016140Y-108067000D01*
X115988562Y-108064284D01*
X115967943Y-108058029D01*
X115948947Y-108047876D01*
X115932292Y-108034208D01*
X115918624Y-108017553D01*
X115908471Y-107998557D01*
X115902216Y-107977938D01*
X115899500Y-107950360D01*
X115899500Y-107441640D01*
X115902216Y-107414062D01*
X115908471Y-107393443D01*
X115918624Y-107374447D01*
X115932292Y-107357792D01*
X115948947Y-107344124D01*
X115967943Y-107333971D01*
X115988562Y-107327716D01*
X116016140Y-107325000D01*
X116474860Y-107325000D01*
X116502438Y-107327716D01*
X116502438Y-107327716D01*
G37*
G36*
X89482687Y-105298196D02*
G01*
X89719453Y-105396268D01*
X89719455Y-105396269D01*
X89932539Y-105538647D01*
X90113753Y-105719861D01*
X90157793Y-105785771D01*
X90256132Y-105932947D01*
X90354204Y-106169713D01*
X90404200Y-106421061D01*
X90404200Y-106677339D01*
X90354204Y-106928687D01*
X90256132Y-107165453D01*
X90256131Y-107165455D01*
X90113753Y-107378539D01*
X89932539Y-107559753D01*
X89719455Y-107702131D01*
X89719454Y-107702132D01*
X89719453Y-107702132D01*
X89482687Y-107800204D01*
X89231339Y-107850200D01*
X88975061Y-107850200D01*
X88723713Y-107800204D01*
X88486947Y-107702132D01*
X88486946Y-107702132D01*
X88486945Y-107702131D01*
X88273861Y-107559753D01*
X88092647Y-107378539D01*
X87950269Y-107165455D01*
X87950268Y-107165453D01*
X87852196Y-106928687D01*
X87802200Y-106677339D01*
X87802200Y-106421061D01*
X87852196Y-106169713D01*
X87950268Y-105932947D01*
X88048608Y-105785771D01*
X88092647Y-105719861D01*
X88273861Y-105538647D01*
X88486945Y-105396269D01*
X88486947Y-105396268D01*
X88723713Y-105298196D01*
X88975061Y-105248200D01*
X89231339Y-105248200D01*
X89482687Y-105298196D01*
X89482687Y-105298196D01*
G37*
G36*
X100869000Y-107539000D02*
G01*
X99217000Y-107539000D01*
X99217000Y-106837000D01*
X100869000Y-106837000D01*
X100869000Y-107539000D01*
X100869000Y-107539000D01*
G37*
G36*
X106269000Y-107539000D02*
G01*
X104617000Y-107539000D01*
X104617000Y-106837000D01*
X106269000Y-106837000D01*
X106269000Y-107539000D01*
X106269000Y-107539000D01*
G37*
G36*
X109730938Y-106057716D02*
G01*
X109751557Y-106063971D01*
X109770553Y-106074124D01*
X109787208Y-106087792D01*
X109800876Y-106104447D01*
X109811029Y-106123443D01*
X109817284Y-106144062D01*
X109820000Y-106171640D01*
X109820000Y-106680360D01*
X109817284Y-106707938D01*
X109811029Y-106728557D01*
X109800876Y-106747553D01*
X109787208Y-106764208D01*
X109770553Y-106777876D01*
X109751557Y-106788029D01*
X109730938Y-106794284D01*
X109703360Y-106797000D01*
X109244640Y-106797000D01*
X109217062Y-106794284D01*
X109196443Y-106788029D01*
X109177447Y-106777876D01*
X109160792Y-106764208D01*
X109147124Y-106747553D01*
X109136971Y-106728557D01*
X109130716Y-106707938D01*
X109128000Y-106680360D01*
X109128000Y-106171640D01*
X109130716Y-106144062D01*
X109136971Y-106123443D01*
X109147124Y-106104447D01*
X109160792Y-106087792D01*
X109177447Y-106074124D01*
X109196443Y-106063971D01*
X109217062Y-106057716D01*
X109244640Y-106055000D01*
X109703360Y-106055000D01*
X109730938Y-106057716D01*
X109730938Y-106057716D01*
G37*
G36*
X110700938Y-106057716D02*
G01*
X110721557Y-106063971D01*
X110740553Y-106074124D01*
X110757208Y-106087792D01*
X110770876Y-106104447D01*
X110781029Y-106123443D01*
X110787284Y-106144062D01*
X110790000Y-106171640D01*
X110790000Y-106680360D01*
X110787284Y-106707938D01*
X110781029Y-106728557D01*
X110770876Y-106747553D01*
X110757208Y-106764208D01*
X110740553Y-106777876D01*
X110721557Y-106788029D01*
X110700938Y-106794284D01*
X110673360Y-106797000D01*
X110214640Y-106797000D01*
X110187062Y-106794284D01*
X110166443Y-106788029D01*
X110147447Y-106777876D01*
X110130792Y-106764208D01*
X110117124Y-106747553D01*
X110106971Y-106728557D01*
X110100716Y-106707938D01*
X110098000Y-106680360D01*
X110098000Y-106171640D01*
X110100716Y-106144062D01*
X110106971Y-106123443D01*
X110117124Y-106104447D01*
X110130792Y-106087792D01*
X110147447Y-106074124D01*
X110166443Y-106063971D01*
X110187062Y-106057716D01*
X110214640Y-106055000D01*
X110673360Y-106055000D01*
X110700938Y-106057716D01*
X110700938Y-106057716D01*
G37*
G36*
X117764916Y-105725843D02*
G01*
X117769056Y-105727099D01*
X117788216Y-105735035D01*
X117812250Y-105739815D01*
X117836754Y-105739815D01*
X117860787Y-105735034D01*
X117879945Y-105727099D01*
X117884084Y-105725843D01*
X117892643Y-105725000D01*
X118156357Y-105725000D01*
X118164916Y-105725843D01*
X118169056Y-105727099D01*
X118188216Y-105735035D01*
X118212250Y-105739815D01*
X118236754Y-105739815D01*
X118260787Y-105735034D01*
X118279945Y-105727099D01*
X118284084Y-105725843D01*
X118292643Y-105725000D01*
X118556357Y-105725000D01*
X118564916Y-105725843D01*
X118569056Y-105727099D01*
X118588216Y-105735035D01*
X118612250Y-105739815D01*
X118636754Y-105739815D01*
X118660787Y-105735034D01*
X118679945Y-105727099D01*
X118684084Y-105725843D01*
X118692643Y-105725000D01*
X118956357Y-105725000D01*
X118964916Y-105725843D01*
X118969056Y-105727099D01*
X118988216Y-105735035D01*
X119012250Y-105739815D01*
X119036754Y-105739815D01*
X119060787Y-105735034D01*
X119079945Y-105727099D01*
X119084084Y-105725843D01*
X119092643Y-105725000D01*
X119356357Y-105725000D01*
X119364916Y-105725843D01*
X119369056Y-105727099D01*
X119388216Y-105735035D01*
X119412250Y-105739815D01*
X119436754Y-105739815D01*
X119460787Y-105735034D01*
X119479945Y-105727099D01*
X119484084Y-105725843D01*
X119492643Y-105725000D01*
X119756357Y-105725000D01*
X119764916Y-105725843D01*
X119769056Y-105727099D01*
X119788216Y-105735035D01*
X119812250Y-105739815D01*
X119836754Y-105739815D01*
X119860787Y-105735034D01*
X119879945Y-105727099D01*
X119884084Y-105725843D01*
X119892643Y-105725000D01*
X120156357Y-105725000D01*
X120164916Y-105725843D01*
X120169056Y-105727099D01*
X120188216Y-105735035D01*
X120212250Y-105739815D01*
X120236754Y-105739815D01*
X120260787Y-105735034D01*
X120279945Y-105727099D01*
X120284084Y-105725843D01*
X120292643Y-105725000D01*
X120556357Y-105725000D01*
X120564916Y-105725843D01*
X120569056Y-105727099D01*
X120588216Y-105735035D01*
X120612250Y-105739815D01*
X120636754Y-105739815D01*
X120660787Y-105735034D01*
X120679945Y-105727099D01*
X120684084Y-105725843D01*
X120692643Y-105725000D01*
X120956357Y-105725000D01*
X120964916Y-105725843D01*
X120969056Y-105727099D01*
X120988216Y-105735035D01*
X121012250Y-105739815D01*
X121036754Y-105739815D01*
X121060787Y-105735034D01*
X121079945Y-105727099D01*
X121084084Y-105725843D01*
X121092643Y-105725000D01*
X121356357Y-105725000D01*
X121364916Y-105725843D01*
X121369056Y-105727099D01*
X121388216Y-105735035D01*
X121412250Y-105739815D01*
X121436754Y-105739815D01*
X121460787Y-105735034D01*
X121479945Y-105727099D01*
X121484084Y-105725843D01*
X121492643Y-105725000D01*
X121756357Y-105725000D01*
X121764916Y-105725843D01*
X121769056Y-105727099D01*
X121788216Y-105735035D01*
X121812250Y-105739815D01*
X121836754Y-105739815D01*
X121860787Y-105735034D01*
X121879945Y-105727099D01*
X121884084Y-105725843D01*
X121892643Y-105725000D01*
X122156359Y-105725000D01*
X122162450Y-105725600D01*
X122174900Y-105725600D01*
X122174900Y-105738050D01*
X122175500Y-105744141D01*
X122175500Y-106657857D01*
X122174657Y-106666416D01*
X122173950Y-106668745D01*
X122172805Y-106670887D01*
X122171265Y-106672765D01*
X122169387Y-106674305D01*
X122167245Y-106675450D01*
X122164916Y-106676157D01*
X122156357Y-106677000D01*
X121892643Y-106677000D01*
X121884084Y-106676157D01*
X121879944Y-106674901D01*
X121860784Y-106666965D01*
X121836750Y-106662185D01*
X121812246Y-106662185D01*
X121788213Y-106666966D01*
X121769055Y-106674901D01*
X121764916Y-106676157D01*
X121756357Y-106677000D01*
X121492643Y-106677000D01*
X121484084Y-106676157D01*
X121479944Y-106674901D01*
X121460784Y-106666965D01*
X121436750Y-106662185D01*
X121412246Y-106662185D01*
X121388213Y-106666966D01*
X121369055Y-106674901D01*
X121364916Y-106676157D01*
X121356357Y-106677000D01*
X121092643Y-106677000D01*
X121084084Y-106676157D01*
X121079944Y-106674901D01*
X121060784Y-106666965D01*
X121036750Y-106662185D01*
X121012246Y-106662185D01*
X120988213Y-106666966D01*
X120969055Y-106674901D01*
X120964916Y-106676157D01*
X120956357Y-106677000D01*
X120692643Y-106677000D01*
X120684084Y-106676157D01*
X120679944Y-106674901D01*
X120660784Y-106666965D01*
X120636750Y-106662185D01*
X120612246Y-106662185D01*
X120588213Y-106666966D01*
X120569055Y-106674901D01*
X120564916Y-106676157D01*
X120556357Y-106677000D01*
X120292643Y-106677000D01*
X120284084Y-106676157D01*
X120279944Y-106674901D01*
X120260784Y-106666965D01*
X120236750Y-106662185D01*
X120212246Y-106662185D01*
X120188213Y-106666966D01*
X120169055Y-106674901D01*
X120164916Y-106676157D01*
X120156357Y-106677000D01*
X119892643Y-106677000D01*
X119884084Y-106676157D01*
X119879944Y-106674901D01*
X119860784Y-106666965D01*
X119836750Y-106662185D01*
X119812246Y-106662185D01*
X119788213Y-106666966D01*
X119769055Y-106674901D01*
X119764916Y-106676157D01*
X119756357Y-106677000D01*
X119492643Y-106677000D01*
X119484084Y-106676157D01*
X119479944Y-106674901D01*
X119460784Y-106666965D01*
X119436750Y-106662185D01*
X119412246Y-106662185D01*
X119388213Y-106666966D01*
X119369055Y-106674901D01*
X119364916Y-106676157D01*
X119356357Y-106677000D01*
X119092643Y-106677000D01*
X119084084Y-106676157D01*
X119079944Y-106674901D01*
X119060784Y-106666965D01*
X119036750Y-106662185D01*
X119012246Y-106662185D01*
X118988213Y-106666966D01*
X118969055Y-106674901D01*
X118964916Y-106676157D01*
X118956357Y-106677000D01*
X118692643Y-106677000D01*
X118684084Y-106676157D01*
X118679944Y-106674901D01*
X118660784Y-106666965D01*
X118636750Y-106662185D01*
X118612246Y-106662185D01*
X118588213Y-106666966D01*
X118569055Y-106674901D01*
X118564916Y-106676157D01*
X118556357Y-106677000D01*
X118292643Y-106677000D01*
X118284084Y-106676157D01*
X118279944Y-106674901D01*
X118260784Y-106666965D01*
X118236750Y-106662185D01*
X118212246Y-106662185D01*
X118188213Y-106666966D01*
X118169055Y-106674901D01*
X118164916Y-106676157D01*
X118156357Y-106677000D01*
X117892643Y-106677000D01*
X117884084Y-106676157D01*
X117879944Y-106674901D01*
X117860784Y-106666965D01*
X117836750Y-106662185D01*
X117812246Y-106662185D01*
X117788213Y-106666966D01*
X117769055Y-106674901D01*
X117764916Y-106676157D01*
X117756357Y-106677000D01*
X117492643Y-106677000D01*
X117484084Y-106676157D01*
X117481755Y-106675450D01*
X117479613Y-106674305D01*
X117477735Y-106672765D01*
X117476195Y-106670887D01*
X117475050Y-106668745D01*
X117474343Y-106666416D01*
X117473500Y-106657857D01*
X117473500Y-105744141D01*
X117474100Y-105738050D01*
X117474100Y-105725600D01*
X117486550Y-105725600D01*
X117492641Y-105725000D01*
X117756357Y-105725000D01*
X117764916Y-105725843D01*
X117764916Y-105725843D01*
G37*
G36*
X106269000Y-106269000D02*
G01*
X104617000Y-106269000D01*
X104617000Y-105567000D01*
X106269000Y-105567000D01*
X106269000Y-106269000D01*
X106269000Y-106269000D01*
G37*
G36*
X100869000Y-106269000D02*
G01*
X99217000Y-106269000D01*
X99217000Y-105567000D01*
X100869000Y-105567000D01*
X100869000Y-106269000D01*
X100869000Y-106269000D01*
G37*
G36*
X141988938Y-104597216D02*
G01*
X142009557Y-104603471D01*
X142028553Y-104613624D01*
X142045208Y-104627292D01*
X142058876Y-104643947D01*
X142069029Y-104662943D01*
X142075284Y-104683562D01*
X142078000Y-104711140D01*
X142078000Y-105219860D01*
X142075284Y-105247438D01*
X142069029Y-105268057D01*
X142058876Y-105287053D01*
X142045208Y-105303708D01*
X142028555Y-105317374D01*
X142003146Y-105330956D01*
X141982772Y-105344570D01*
X141965446Y-105361898D01*
X141951832Y-105382272D01*
X141942456Y-105404911D01*
X141937676Y-105428945D01*
X141937676Y-105453449D01*
X141942457Y-105477482D01*
X141951835Y-105500121D01*
X141965449Y-105520495D01*
X141982777Y-105537821D01*
X142003151Y-105551435D01*
X142025790Y-105560811D01*
X142034556Y-105563470D01*
X142053553Y-105573624D01*
X142070208Y-105587292D01*
X142083876Y-105603947D01*
X142094029Y-105622943D01*
X142100284Y-105643562D01*
X142103000Y-105671140D01*
X142103000Y-106129860D01*
X142100284Y-106157438D01*
X142094029Y-106178057D01*
X142083876Y-106197053D01*
X142070208Y-106213708D01*
X142053553Y-106227376D01*
X142034557Y-106237529D01*
X142013938Y-106243784D01*
X141986360Y-106246500D01*
X141477640Y-106246500D01*
X141450062Y-106243784D01*
X141429443Y-106237529D01*
X141410447Y-106227376D01*
X141393792Y-106213708D01*
X141380124Y-106197053D01*
X141369971Y-106178057D01*
X141363716Y-106157438D01*
X141361000Y-106129860D01*
X141361000Y-105671140D01*
X141363716Y-105643562D01*
X141369971Y-105622943D01*
X141380124Y-105603947D01*
X141393792Y-105587292D01*
X141410447Y-105573624D01*
X141429444Y-105563470D01*
X141438210Y-105560811D01*
X141460849Y-105551435D01*
X141481223Y-105537821D01*
X141498551Y-105520495D01*
X141512165Y-105500120D01*
X141521543Y-105477482D01*
X141526324Y-105453449D01*
X141526324Y-105428945D01*
X141521544Y-105404911D01*
X141512168Y-105382272D01*
X141498554Y-105361898D01*
X141481228Y-105344570D01*
X141460854Y-105330956D01*
X141435445Y-105317374D01*
X141418792Y-105303708D01*
X141405124Y-105287053D01*
X141394971Y-105268057D01*
X141388716Y-105247438D01*
X141386000Y-105219860D01*
X141386000Y-104711140D01*
X141388716Y-104683562D01*
X141394971Y-104662943D01*
X141405124Y-104643947D01*
X141418792Y-104627292D01*
X141435447Y-104613624D01*
X141454443Y-104603471D01*
X141475062Y-104597216D01*
X141502640Y-104594500D01*
X141961360Y-104594500D01*
X141988938Y-104597216D01*
X141988938Y-104597216D01*
G37*
G36*
X117337450Y-100900600D02*
G01*
X117349900Y-100900600D01*
X117349900Y-100913050D01*
X117350500Y-100919141D01*
X117350500Y-101182857D01*
X117349657Y-101191416D01*
X117348401Y-101195556D01*
X117340465Y-101214716D01*
X117335685Y-101238750D01*
X117335685Y-101263254D01*
X117340466Y-101287287D01*
X117348401Y-101306445D01*
X117349657Y-101310584D01*
X117350500Y-101319143D01*
X117350500Y-101582857D01*
X117349657Y-101591416D01*
X117348401Y-101595556D01*
X117340465Y-101614716D01*
X117335685Y-101638750D01*
X117335685Y-101663254D01*
X117340466Y-101687287D01*
X117348401Y-101706445D01*
X117349657Y-101710584D01*
X117350500Y-101719143D01*
X117350500Y-101982857D01*
X117349657Y-101991416D01*
X117348401Y-101995556D01*
X117340465Y-102014716D01*
X117335685Y-102038750D01*
X117335685Y-102063254D01*
X117340466Y-102087287D01*
X117348401Y-102106445D01*
X117349657Y-102110584D01*
X117350500Y-102119143D01*
X117350500Y-102382857D01*
X117349657Y-102391416D01*
X117348401Y-102395556D01*
X117340465Y-102414716D01*
X117335685Y-102438750D01*
X117335685Y-102463254D01*
X117340466Y-102487287D01*
X117348401Y-102506445D01*
X117349657Y-102510584D01*
X117350500Y-102519143D01*
X117350500Y-102782857D01*
X117349657Y-102791416D01*
X117348401Y-102795556D01*
X117340465Y-102814716D01*
X117335685Y-102838750D01*
X117335685Y-102863254D01*
X117340466Y-102887287D01*
X117348401Y-102906445D01*
X117349657Y-102910584D01*
X117350500Y-102919143D01*
X117350500Y-103182857D01*
X117349657Y-103191416D01*
X117348401Y-103195556D01*
X117340465Y-103214716D01*
X117335685Y-103238750D01*
X117335685Y-103263254D01*
X117340466Y-103287287D01*
X117348401Y-103306445D01*
X117349657Y-103310584D01*
X117350500Y-103319143D01*
X117350500Y-103582857D01*
X117349657Y-103591416D01*
X117348401Y-103595556D01*
X117340465Y-103614716D01*
X117335685Y-103638750D01*
X117335685Y-103663254D01*
X117340466Y-103687287D01*
X117348401Y-103706445D01*
X117349657Y-103710584D01*
X117350500Y-103719143D01*
X117350500Y-103982857D01*
X117349657Y-103991416D01*
X117348401Y-103995556D01*
X117340465Y-104014716D01*
X117335685Y-104038750D01*
X117335685Y-104063254D01*
X117340466Y-104087287D01*
X117348401Y-104106445D01*
X117349657Y-104110584D01*
X117350500Y-104119143D01*
X117350500Y-104382857D01*
X117349657Y-104391416D01*
X117348401Y-104395556D01*
X117340465Y-104414716D01*
X117335685Y-104438750D01*
X117335685Y-104463254D01*
X117340466Y-104487287D01*
X117348401Y-104506445D01*
X117349657Y-104510584D01*
X117350500Y-104519143D01*
X117350500Y-104782857D01*
X117349657Y-104791416D01*
X117348401Y-104795556D01*
X117340465Y-104814716D01*
X117335685Y-104838750D01*
X117335685Y-104863254D01*
X117340466Y-104887287D01*
X117348401Y-104906445D01*
X117349657Y-104910584D01*
X117350500Y-104919143D01*
X117350500Y-105182857D01*
X117349657Y-105191416D01*
X117348401Y-105195556D01*
X117340465Y-105214716D01*
X117335685Y-105238750D01*
X117335685Y-105263254D01*
X117340466Y-105287287D01*
X117348401Y-105306445D01*
X117349657Y-105310584D01*
X117350500Y-105319143D01*
X117350500Y-105582859D01*
X117349900Y-105588950D01*
X117349900Y-105601400D01*
X117337450Y-105601400D01*
X117331359Y-105602000D01*
X116417643Y-105602000D01*
X116409084Y-105601157D01*
X116406755Y-105600450D01*
X116404613Y-105599305D01*
X116402735Y-105597765D01*
X116401195Y-105595887D01*
X116400050Y-105593745D01*
X116399343Y-105591416D01*
X116398500Y-105582857D01*
X116398500Y-105319143D01*
X116399343Y-105310584D01*
X116400599Y-105306444D01*
X116408535Y-105287284D01*
X116413315Y-105263250D01*
X116413315Y-105238746D01*
X116408534Y-105214713D01*
X116400599Y-105195555D01*
X116399343Y-105191416D01*
X116398500Y-105182857D01*
X116398500Y-104919143D01*
X116399343Y-104910584D01*
X116400599Y-104906444D01*
X116408535Y-104887284D01*
X116413315Y-104863250D01*
X116413315Y-104838746D01*
X116408534Y-104814713D01*
X116400599Y-104795555D01*
X116399343Y-104791416D01*
X116398500Y-104782857D01*
X116398500Y-104519143D01*
X116399343Y-104510584D01*
X116400599Y-104506444D01*
X116408535Y-104487284D01*
X116413315Y-104463250D01*
X116413315Y-104438746D01*
X116408534Y-104414713D01*
X116400599Y-104395555D01*
X116399343Y-104391416D01*
X116398500Y-104382857D01*
X116398500Y-104119143D01*
X116399343Y-104110584D01*
X116400599Y-104106444D01*
X116408535Y-104087284D01*
X116413315Y-104063250D01*
X116413315Y-104038746D01*
X116408534Y-104014713D01*
X116400599Y-103995555D01*
X116399343Y-103991416D01*
X116398500Y-103982857D01*
X116398500Y-103719143D01*
X116399343Y-103710584D01*
X116400599Y-103706444D01*
X116408535Y-103687284D01*
X116413315Y-103663250D01*
X116413315Y-103638746D01*
X116408534Y-103614713D01*
X116400599Y-103595555D01*
X116399343Y-103591416D01*
X116398500Y-103582857D01*
X116398500Y-103319143D01*
X116399343Y-103310584D01*
X116400599Y-103306444D01*
X116408535Y-103287284D01*
X116413315Y-103263250D01*
X116413315Y-103238746D01*
X116408534Y-103214713D01*
X116400599Y-103195555D01*
X116399343Y-103191416D01*
X116398500Y-103182857D01*
X116398500Y-102919143D01*
X116399343Y-102910584D01*
X116400599Y-102906444D01*
X116408535Y-102887284D01*
X116413315Y-102863250D01*
X116413315Y-102838746D01*
X116408534Y-102814713D01*
X116400599Y-102795555D01*
X116399343Y-102791416D01*
X116398500Y-102782857D01*
X116398500Y-102519143D01*
X116399343Y-102510584D01*
X116400599Y-102506444D01*
X116408535Y-102487284D01*
X116413315Y-102463250D01*
X116413315Y-102438746D01*
X116408534Y-102414713D01*
X116400599Y-102395555D01*
X116399343Y-102391416D01*
X116398500Y-102382857D01*
X116398500Y-102119143D01*
X116399343Y-102110584D01*
X116400599Y-102106444D01*
X116408535Y-102087284D01*
X116413315Y-102063250D01*
X116413315Y-102038746D01*
X116408534Y-102014713D01*
X116400599Y-101995555D01*
X116399343Y-101991416D01*
X116398500Y-101982857D01*
X116398500Y-101719143D01*
X116399343Y-101710584D01*
X116400599Y-101706444D01*
X116408535Y-101687284D01*
X116413315Y-101663250D01*
X116413315Y-101638746D01*
X116408534Y-101614713D01*
X116400599Y-101595555D01*
X116399343Y-101591416D01*
X116398500Y-101582857D01*
X116398500Y-101319143D01*
X116399343Y-101310584D01*
X116400599Y-101306444D01*
X116408535Y-101287284D01*
X116413315Y-101263250D01*
X116413315Y-101238746D01*
X116408534Y-101214713D01*
X116400599Y-101195555D01*
X116399343Y-101191416D01*
X116398500Y-101182857D01*
X116398500Y-100919143D01*
X116399343Y-100910584D01*
X116400050Y-100908255D01*
X116401195Y-100906113D01*
X116402735Y-100904235D01*
X116404613Y-100902695D01*
X116406755Y-100901550D01*
X116409084Y-100900843D01*
X116417643Y-100900000D01*
X117331359Y-100900000D01*
X117337450Y-100900600D01*
X117337450Y-100900600D01*
G37*
G36*
X123239916Y-100900843D02*
G01*
X123242245Y-100901550D01*
X123244387Y-100902695D01*
X123246265Y-100904235D01*
X123247805Y-100906113D01*
X123248950Y-100908255D01*
X123249657Y-100910584D01*
X123250500Y-100919143D01*
X123250500Y-101182857D01*
X123249657Y-101191416D01*
X123248401Y-101195556D01*
X123240465Y-101214716D01*
X123235685Y-101238750D01*
X123235685Y-101263254D01*
X123240466Y-101287287D01*
X123248401Y-101306445D01*
X123249657Y-101310584D01*
X123250500Y-101319143D01*
X123250500Y-101582857D01*
X123249657Y-101591416D01*
X123248401Y-101595556D01*
X123240465Y-101614716D01*
X123235685Y-101638750D01*
X123235685Y-101663254D01*
X123240466Y-101687287D01*
X123248401Y-101706445D01*
X123249657Y-101710584D01*
X123250500Y-101719143D01*
X123250500Y-101982857D01*
X123249657Y-101991416D01*
X123248401Y-101995556D01*
X123240465Y-102014716D01*
X123235685Y-102038750D01*
X123235685Y-102063254D01*
X123240466Y-102087287D01*
X123248401Y-102106445D01*
X123249657Y-102110584D01*
X123250500Y-102119143D01*
X123250500Y-102382857D01*
X123249657Y-102391416D01*
X123248401Y-102395556D01*
X123240465Y-102414716D01*
X123235685Y-102438750D01*
X123235685Y-102463254D01*
X123240466Y-102487287D01*
X123248401Y-102506445D01*
X123249657Y-102510584D01*
X123250500Y-102519143D01*
X123250500Y-102782857D01*
X123249657Y-102791416D01*
X123248401Y-102795556D01*
X123240465Y-102814716D01*
X123235685Y-102838750D01*
X123235685Y-102863254D01*
X123240466Y-102887287D01*
X123248401Y-102906445D01*
X123249657Y-102910584D01*
X123250500Y-102919143D01*
X123250500Y-103182857D01*
X123249657Y-103191416D01*
X123248401Y-103195556D01*
X123240465Y-103214716D01*
X123235685Y-103238750D01*
X123235685Y-103263254D01*
X123240466Y-103287287D01*
X123248401Y-103306445D01*
X123249657Y-103310584D01*
X123250500Y-103319143D01*
X123250500Y-103582857D01*
X123249657Y-103591416D01*
X123248401Y-103595556D01*
X123240465Y-103614716D01*
X123235685Y-103638750D01*
X123235685Y-103663254D01*
X123240466Y-103687287D01*
X123248401Y-103706445D01*
X123249657Y-103710584D01*
X123250500Y-103719143D01*
X123250500Y-103982857D01*
X123249657Y-103991416D01*
X123248401Y-103995556D01*
X123240465Y-104014716D01*
X123235685Y-104038750D01*
X123235685Y-104063254D01*
X123240466Y-104087287D01*
X123248401Y-104106445D01*
X123249657Y-104110584D01*
X123250500Y-104119143D01*
X123250500Y-104382857D01*
X123249657Y-104391416D01*
X123248401Y-104395556D01*
X123240465Y-104414716D01*
X123235685Y-104438750D01*
X123235685Y-104463254D01*
X123240466Y-104487287D01*
X123248401Y-104506445D01*
X123249657Y-104510584D01*
X123250500Y-104519143D01*
X123250500Y-104782857D01*
X123249657Y-104791416D01*
X123248401Y-104795556D01*
X123240465Y-104814716D01*
X123235685Y-104838750D01*
X123235685Y-104863254D01*
X123240466Y-104887287D01*
X123248401Y-104906445D01*
X123249657Y-104910584D01*
X123250500Y-104919143D01*
X123250500Y-105182857D01*
X123249657Y-105191416D01*
X123248401Y-105195556D01*
X123240465Y-105214716D01*
X123235685Y-105238750D01*
X123235685Y-105263254D01*
X123240466Y-105287287D01*
X123248401Y-105306445D01*
X123249657Y-105310584D01*
X123250500Y-105319143D01*
X123250500Y-105582857D01*
X123249657Y-105591416D01*
X123248950Y-105593745D01*
X123247805Y-105595887D01*
X123246265Y-105597765D01*
X123244387Y-105599305D01*
X123242245Y-105600450D01*
X123239916Y-105601157D01*
X123231357Y-105602000D01*
X122317641Y-105602000D01*
X122311550Y-105601400D01*
X122299100Y-105601400D01*
X122299100Y-105588950D01*
X122298500Y-105582859D01*
X122298500Y-105319143D01*
X122299343Y-105310584D01*
X122300599Y-105306444D01*
X122308535Y-105287284D01*
X122313315Y-105263250D01*
X122313315Y-105238746D01*
X122308534Y-105214713D01*
X122300599Y-105195555D01*
X122299343Y-105191416D01*
X122298500Y-105182857D01*
X122298500Y-104919143D01*
X122299343Y-104910584D01*
X122300599Y-104906444D01*
X122308535Y-104887284D01*
X122313315Y-104863250D01*
X122313315Y-104838746D01*
X122308534Y-104814713D01*
X122300599Y-104795555D01*
X122299343Y-104791416D01*
X122298500Y-104782857D01*
X122298500Y-104519143D01*
X122299343Y-104510584D01*
X122300599Y-104506444D01*
X122308535Y-104487284D01*
X122313315Y-104463250D01*
X122313315Y-104438746D01*
X122308534Y-104414713D01*
X122300599Y-104395555D01*
X122299343Y-104391416D01*
X122298500Y-104382857D01*
X122298500Y-104119143D01*
X122299343Y-104110584D01*
X122300599Y-104106444D01*
X122308535Y-104087284D01*
X122313315Y-104063250D01*
X122313315Y-104038746D01*
X122308534Y-104014713D01*
X122300599Y-103995555D01*
X122299343Y-103991416D01*
X122298500Y-103982857D01*
X122298500Y-103719143D01*
X122299343Y-103710584D01*
X122300599Y-103706444D01*
X122308535Y-103687284D01*
X122313315Y-103663250D01*
X122313315Y-103638746D01*
X122308534Y-103614713D01*
X122300599Y-103595555D01*
X122299343Y-103591416D01*
X122298500Y-103582857D01*
X122298500Y-103319143D01*
X122299343Y-103310584D01*
X122300599Y-103306444D01*
X122308535Y-103287284D01*
X122313315Y-103263250D01*
X122313315Y-103238746D01*
X122308534Y-103214713D01*
X122300599Y-103195555D01*
X122299343Y-103191416D01*
X122298500Y-103182857D01*
X122298500Y-102919143D01*
X122299343Y-102910584D01*
X122300599Y-102906444D01*
X122308535Y-102887284D01*
X122313315Y-102863250D01*
X122313315Y-102838746D01*
X122308534Y-102814713D01*
X122300599Y-102795555D01*
X122299343Y-102791416D01*
X122298500Y-102782857D01*
X122298500Y-102519143D01*
X122299343Y-102510584D01*
X122300599Y-102506444D01*
X122308535Y-102487284D01*
X122313315Y-102463250D01*
X122313315Y-102438746D01*
X122308534Y-102414713D01*
X122300599Y-102395555D01*
X122299343Y-102391416D01*
X122298500Y-102382857D01*
X122298500Y-102119143D01*
X122299343Y-102110584D01*
X122300599Y-102106444D01*
X122308535Y-102087284D01*
X122313315Y-102063250D01*
X122313315Y-102038746D01*
X122308534Y-102014713D01*
X122300599Y-101995555D01*
X122299343Y-101991416D01*
X122298500Y-101982857D01*
X122298500Y-101719143D01*
X122299343Y-101710584D01*
X122300599Y-101706444D01*
X122308535Y-101687284D01*
X122313315Y-101663250D01*
X122313315Y-101638746D01*
X122308534Y-101614713D01*
X122300599Y-101595555D01*
X122299343Y-101591416D01*
X122298500Y-101582857D01*
X122298500Y-101319143D01*
X122299343Y-101310584D01*
X122300599Y-101306444D01*
X122308535Y-101287284D01*
X122313315Y-101263250D01*
X122313315Y-101238746D01*
X122308534Y-101214713D01*
X122300599Y-101195555D01*
X122299343Y-101191416D01*
X122298500Y-101182857D01*
X122298500Y-100919141D01*
X122299100Y-100913050D01*
X122299100Y-100900600D01*
X122311550Y-100900600D01*
X122317641Y-100900000D01*
X123231357Y-100900000D01*
X123239916Y-100900843D01*
X123239916Y-100900843D01*
G37*
G36*
X94754968Y-104465065D02*
G01*
X94793638Y-104476796D01*
X94829277Y-104495846D01*
X94860517Y-104521483D01*
X94886154Y-104552723D01*
X94905204Y-104588362D01*
X94916935Y-104627032D01*
X94921500Y-104673388D01*
X94921500Y-105324612D01*
X94916935Y-105370968D01*
X94905204Y-105409638D01*
X94886154Y-105445277D01*
X94860517Y-105476517D01*
X94829277Y-105502154D01*
X94793638Y-105521204D01*
X94754968Y-105532935D01*
X94708612Y-105537500D01*
X93632388Y-105537500D01*
X93586032Y-105532935D01*
X93547362Y-105521204D01*
X93511723Y-105502154D01*
X93480483Y-105476517D01*
X93454846Y-105445277D01*
X93435796Y-105409638D01*
X93424065Y-105370968D01*
X93419500Y-105324612D01*
X93419500Y-104673388D01*
X93424065Y-104627032D01*
X93435796Y-104588362D01*
X93454846Y-104552723D01*
X93480483Y-104521483D01*
X93511723Y-104495846D01*
X93547362Y-104476796D01*
X93586032Y-104465065D01*
X93632388Y-104460500D01*
X94708612Y-104460500D01*
X94754968Y-104465065D01*
X94754968Y-104465065D01*
G37*
G36*
X121857903Y-101103397D02*
G01*
X121885166Y-101111667D01*
X121910298Y-101125101D01*
X121932323Y-101143177D01*
X121950399Y-101165202D01*
X121963833Y-101190334D01*
X121972103Y-101217597D01*
X121975500Y-101252092D01*
X121975500Y-105249908D01*
X121972103Y-105284403D01*
X121963833Y-105311666D01*
X121950399Y-105336798D01*
X121932323Y-105358823D01*
X121910298Y-105376899D01*
X121885166Y-105390333D01*
X121857903Y-105398603D01*
X121823408Y-105402000D01*
X117825592Y-105402000D01*
X117791097Y-105398603D01*
X117763834Y-105390333D01*
X117738702Y-105376899D01*
X117716677Y-105358823D01*
X117698601Y-105336798D01*
X117685167Y-105311666D01*
X117676897Y-105284403D01*
X117673500Y-105249908D01*
X117673500Y-101252092D01*
X117676897Y-101217597D01*
X117685167Y-101190334D01*
X117698601Y-101165202D01*
X117716677Y-101143177D01*
X117738702Y-101125101D01*
X117763834Y-101111667D01*
X117791097Y-101103397D01*
X117825592Y-101100000D01*
X121823408Y-101100000D01*
X121857903Y-101103397D01*
X121857903Y-101103397D01*
G37*
G36*
X142958938Y-104597216D02*
G01*
X142979557Y-104603471D01*
X142998553Y-104613624D01*
X143015208Y-104627292D01*
X143028876Y-104643947D01*
X143039029Y-104662943D01*
X143045284Y-104683562D01*
X143048000Y-104711140D01*
X143048000Y-105219860D01*
X143045284Y-105247438D01*
X143039029Y-105268057D01*
X143028876Y-105287053D01*
X143015208Y-105303708D01*
X142998553Y-105317376D01*
X142979557Y-105327529D01*
X142958938Y-105333784D01*
X142931360Y-105336500D01*
X142472640Y-105336500D01*
X142445062Y-105333784D01*
X142424443Y-105327529D01*
X142405447Y-105317376D01*
X142388792Y-105303708D01*
X142375124Y-105287053D01*
X142364971Y-105268057D01*
X142358716Y-105247438D01*
X142356000Y-105219860D01*
X142356000Y-104711140D01*
X142358716Y-104683562D01*
X142364971Y-104662943D01*
X142375124Y-104643947D01*
X142388792Y-104627292D01*
X142405447Y-104613624D01*
X142424443Y-104603471D01*
X142445062Y-104597216D01*
X142472640Y-104594500D01*
X142931360Y-104594500D01*
X142958938Y-104597216D01*
X142958938Y-104597216D01*
G37*
G36*
X100869000Y-104999000D02*
G01*
X99217000Y-104999000D01*
X99217000Y-104297000D01*
X100869000Y-104297000D01*
X100869000Y-104999000D01*
X100869000Y-104999000D01*
G37*
G36*
X106269000Y-104999000D02*
G01*
X104617000Y-104999000D01*
X104617000Y-104297000D01*
X106269000Y-104297000D01*
X106269000Y-104999000D01*
X106269000Y-104999000D01*
G37*
G36*
X96314938Y-104152716D02*
G01*
X96335557Y-104158971D01*
X96354553Y-104169124D01*
X96371208Y-104182792D01*
X96384876Y-104199447D01*
X96395029Y-104218443D01*
X96401284Y-104239062D01*
X96404000Y-104266640D01*
X96404000Y-104775360D01*
X96401284Y-104802938D01*
X96395029Y-104823557D01*
X96384876Y-104842553D01*
X96371208Y-104859208D01*
X96354553Y-104872876D01*
X96335557Y-104883029D01*
X96314938Y-104889284D01*
X96287360Y-104892000D01*
X95828640Y-104892000D01*
X95801062Y-104889284D01*
X95780443Y-104883029D01*
X95761447Y-104872876D01*
X95744792Y-104859208D01*
X95731124Y-104842553D01*
X95720971Y-104823557D01*
X95714716Y-104802938D01*
X95712000Y-104775360D01*
X95712000Y-104266640D01*
X95714716Y-104239062D01*
X95720971Y-104218443D01*
X95731124Y-104199447D01*
X95744792Y-104182792D01*
X95761447Y-104169124D01*
X95780443Y-104158971D01*
X95801062Y-104152716D01*
X95828640Y-104150000D01*
X96287360Y-104150000D01*
X96314938Y-104152716D01*
X96314938Y-104152716D01*
G37*
G36*
X97284938Y-104152716D02*
G01*
X97305557Y-104158971D01*
X97324553Y-104169124D01*
X97341208Y-104182792D01*
X97354876Y-104199447D01*
X97365029Y-104218443D01*
X97371284Y-104239062D01*
X97374000Y-104266640D01*
X97374000Y-104775360D01*
X97371284Y-104802938D01*
X97365029Y-104823557D01*
X97354876Y-104842553D01*
X97341208Y-104859208D01*
X97324553Y-104872876D01*
X97305557Y-104883029D01*
X97284938Y-104889284D01*
X97257360Y-104892000D01*
X96798640Y-104892000D01*
X96771062Y-104889284D01*
X96750443Y-104883029D01*
X96731447Y-104872876D01*
X96714792Y-104859208D01*
X96701124Y-104842553D01*
X96690971Y-104823557D01*
X96684716Y-104802938D01*
X96682000Y-104775360D01*
X96682000Y-104266640D01*
X96684716Y-104239062D01*
X96690971Y-104218443D01*
X96701124Y-104199447D01*
X96714792Y-104182792D01*
X96731447Y-104169124D01*
X96750443Y-104158971D01*
X96771062Y-104152716D01*
X96798640Y-104150000D01*
X97257360Y-104150000D01*
X97284938Y-104152716D01*
X97284938Y-104152716D01*
G37*
G36*
X98325938Y-104114216D02*
G01*
X98346557Y-104120471D01*
X98365553Y-104130624D01*
X98382208Y-104144292D01*
X98395876Y-104160947D01*
X98406029Y-104179943D01*
X98412284Y-104200562D01*
X98415000Y-104228140D01*
X98415000Y-104686860D01*
X98412284Y-104714438D01*
X98406029Y-104735057D01*
X98395876Y-104754053D01*
X98382208Y-104770708D01*
X98365553Y-104784376D01*
X98346557Y-104794529D01*
X98325938Y-104800784D01*
X98298360Y-104803500D01*
X97789640Y-104803500D01*
X97762062Y-104800784D01*
X97741443Y-104794529D01*
X97722447Y-104784376D01*
X97705792Y-104770708D01*
X97692124Y-104754053D01*
X97681971Y-104735057D01*
X97675716Y-104714438D01*
X97673000Y-104686860D01*
X97673000Y-104228140D01*
X97675716Y-104200562D01*
X97681971Y-104179943D01*
X97692124Y-104160947D01*
X97705792Y-104144292D01*
X97722447Y-104130624D01*
X97741443Y-104120471D01*
X97762062Y-104114216D01*
X97789640Y-104111500D01*
X98298360Y-104111500D01*
X98325938Y-104114216D01*
X98325938Y-104114216D01*
G37*
G36*
X124867100Y-103283001D02*
G01*
X124869502Y-103307387D01*
X124876615Y-103330836D01*
X124888166Y-103352447D01*
X124903711Y-103371389D01*
X124922653Y-103386934D01*
X124944264Y-103398485D01*
X124967713Y-103405598D01*
X124992099Y-103408000D01*
X125628880Y-103408000D01*
X125628880Y-104110000D01*
X124992099Y-104110000D01*
X124967713Y-104112402D01*
X124944264Y-104119515D01*
X124922653Y-104131066D01*
X124903711Y-104146611D01*
X124888166Y-104165553D01*
X124876615Y-104187164D01*
X124869502Y-104210613D01*
X124867100Y-104234999D01*
X124867100Y-104528100D01*
X124465100Y-104528100D01*
X124465100Y-104234999D01*
X124462698Y-104210613D01*
X124455585Y-104187164D01*
X124444034Y-104165553D01*
X124428489Y-104146611D01*
X124409547Y-104131066D01*
X124387936Y-104119515D01*
X124364487Y-104112402D01*
X124340101Y-104110000D01*
X123687360Y-104110000D01*
X123687360Y-103408000D01*
X124340101Y-103408000D01*
X124364487Y-103405598D01*
X124387936Y-103398485D01*
X124409547Y-103386934D01*
X124428489Y-103371389D01*
X124444034Y-103352447D01*
X124455585Y-103330836D01*
X124462698Y-103307387D01*
X124465100Y-103283001D01*
X124465100Y-102983000D01*
X124867100Y-102983000D01*
X124867100Y-103283001D01*
X124867100Y-103283001D01*
G37*
G36*
X97284938Y-103136716D02*
G01*
X97305557Y-103142971D01*
X97324553Y-103153124D01*
X97341208Y-103166792D01*
X97354876Y-103183447D01*
X97365029Y-103202443D01*
X97371284Y-103223062D01*
X97374000Y-103250640D01*
X97374000Y-103759360D01*
X97371284Y-103786938D01*
X97365029Y-103807557D01*
X97354876Y-103826553D01*
X97341208Y-103843208D01*
X97324553Y-103856876D01*
X97305557Y-103867029D01*
X97284938Y-103873284D01*
X97257360Y-103876000D01*
X96798640Y-103876000D01*
X96771062Y-103873284D01*
X96750443Y-103867029D01*
X96731447Y-103856876D01*
X96714792Y-103843208D01*
X96701124Y-103826553D01*
X96690971Y-103807557D01*
X96684716Y-103786938D01*
X96682000Y-103759360D01*
X96682000Y-103250640D01*
X96684716Y-103223062D01*
X96690971Y-103202443D01*
X96701124Y-103183447D01*
X96714792Y-103166792D01*
X96731447Y-103153124D01*
X96750443Y-103142971D01*
X96771062Y-103136716D01*
X96798640Y-103134000D01*
X97257360Y-103134000D01*
X97284938Y-103136716D01*
X97284938Y-103136716D01*
G37*
G36*
X96314938Y-103136716D02*
G01*
X96335557Y-103142971D01*
X96354553Y-103153124D01*
X96371208Y-103166792D01*
X96384876Y-103183447D01*
X96395029Y-103202443D01*
X96401284Y-103223062D01*
X96404000Y-103250640D01*
X96404000Y-103759360D01*
X96401284Y-103786938D01*
X96395029Y-103807557D01*
X96384876Y-103826553D01*
X96371208Y-103843208D01*
X96354553Y-103856876D01*
X96335557Y-103867029D01*
X96314938Y-103873284D01*
X96287360Y-103876000D01*
X95828640Y-103876000D01*
X95801062Y-103873284D01*
X95780443Y-103867029D01*
X95761447Y-103856876D01*
X95744792Y-103843208D01*
X95731124Y-103826553D01*
X95720971Y-103807557D01*
X95714716Y-103786938D01*
X95712000Y-103759360D01*
X95712000Y-103250640D01*
X95714716Y-103223062D01*
X95720971Y-103202443D01*
X95731124Y-103183447D01*
X95744792Y-103166792D01*
X95761447Y-103153124D01*
X95780443Y-103142971D01*
X95801062Y-103136716D01*
X95828640Y-103134000D01*
X96287360Y-103134000D01*
X96314938Y-103136716D01*
X96314938Y-103136716D01*
G37*
G36*
X98325938Y-103144216D02*
G01*
X98346557Y-103150471D01*
X98365553Y-103160624D01*
X98382208Y-103174292D01*
X98395876Y-103190947D01*
X98406029Y-103209943D01*
X98412284Y-103230562D01*
X98415000Y-103258140D01*
X98415000Y-103716860D01*
X98412284Y-103744438D01*
X98406029Y-103765057D01*
X98395876Y-103784053D01*
X98382208Y-103800708D01*
X98365553Y-103814376D01*
X98346557Y-103824529D01*
X98325938Y-103830784D01*
X98298360Y-103833500D01*
X97789640Y-103833500D01*
X97762062Y-103830784D01*
X97741443Y-103824529D01*
X97722447Y-103814376D01*
X97705792Y-103800708D01*
X97692124Y-103784053D01*
X97681971Y-103765057D01*
X97675716Y-103744438D01*
X97673000Y-103716860D01*
X97673000Y-103258140D01*
X97675716Y-103230562D01*
X97681971Y-103209943D01*
X97692124Y-103190947D01*
X97705792Y-103174292D01*
X97722447Y-103160624D01*
X97741443Y-103150471D01*
X97762062Y-103144216D01*
X97789640Y-103141500D01*
X98298360Y-103141500D01*
X98325938Y-103144216D01*
X98325938Y-103144216D01*
G37*
G36*
X106269000Y-103729000D02*
G01*
X104617000Y-103729000D01*
X104617000Y-103027000D01*
X106269000Y-103027000D01*
X106269000Y-103729000D01*
X106269000Y-103729000D01*
G37*
G36*
X100869000Y-103729000D02*
G01*
X99217000Y-103729000D01*
X99217000Y-103027000D01*
X100869000Y-103027000D01*
X100869000Y-103729000D01*
X100869000Y-103729000D01*
G37*
G36*
X94754968Y-102590065D02*
G01*
X94793638Y-102601796D01*
X94829277Y-102620846D01*
X94860517Y-102646483D01*
X94886154Y-102677723D01*
X94905204Y-102713362D01*
X94916935Y-102752032D01*
X94921500Y-102798388D01*
X94921500Y-103449612D01*
X94916935Y-103495968D01*
X94905204Y-103534638D01*
X94886154Y-103570277D01*
X94860517Y-103601517D01*
X94829277Y-103627154D01*
X94793638Y-103646204D01*
X94754968Y-103657935D01*
X94708612Y-103662500D01*
X93632388Y-103662500D01*
X93586032Y-103657935D01*
X93547362Y-103646204D01*
X93511723Y-103627154D01*
X93480483Y-103601517D01*
X93454846Y-103570277D01*
X93435796Y-103534638D01*
X93424065Y-103495968D01*
X93419500Y-103449612D01*
X93419500Y-102798388D01*
X93424065Y-102752032D01*
X93435796Y-102713362D01*
X93454846Y-102677723D01*
X93480483Y-102646483D01*
X93511723Y-102620846D01*
X93547362Y-102601796D01*
X93586032Y-102590065D01*
X93632388Y-102585500D01*
X94708612Y-102585500D01*
X94754968Y-102590065D01*
X94754968Y-102590065D01*
G37*
G36*
X108636338Y-102654116D02*
G01*
X108656957Y-102660371D01*
X108675953Y-102670524D01*
X108692608Y-102684192D01*
X108706276Y-102700847D01*
X108716429Y-102719843D01*
X108722684Y-102740462D01*
X108725400Y-102768040D01*
X108725400Y-103276760D01*
X108722684Y-103304338D01*
X108716429Y-103324957D01*
X108706276Y-103343953D01*
X108692608Y-103360608D01*
X108675953Y-103374276D01*
X108656957Y-103384429D01*
X108636338Y-103390684D01*
X108608760Y-103393400D01*
X108150040Y-103393400D01*
X108122462Y-103390684D01*
X108101843Y-103384429D01*
X108082847Y-103374276D01*
X108066192Y-103360608D01*
X108052524Y-103343953D01*
X108042371Y-103324957D01*
X108036116Y-103304338D01*
X108033400Y-103276760D01*
X108033400Y-102768040D01*
X108036116Y-102740462D01*
X108042371Y-102719843D01*
X108052524Y-102700847D01*
X108066192Y-102684192D01*
X108082847Y-102670524D01*
X108101843Y-102660371D01*
X108122462Y-102654116D01*
X108150040Y-102651400D01*
X108608760Y-102651400D01*
X108636338Y-102654116D01*
X108636338Y-102654116D01*
G37*
G36*
X109606338Y-102654116D02*
G01*
X109626957Y-102660371D01*
X109645953Y-102670524D01*
X109662608Y-102684192D01*
X109676276Y-102700847D01*
X109686429Y-102719843D01*
X109692684Y-102740462D01*
X109695400Y-102768040D01*
X109695400Y-103276760D01*
X109692684Y-103304338D01*
X109686429Y-103324957D01*
X109676276Y-103343953D01*
X109662608Y-103360608D01*
X109645953Y-103374276D01*
X109626957Y-103384429D01*
X109606338Y-103390684D01*
X109578760Y-103393400D01*
X109120040Y-103393400D01*
X109092462Y-103390684D01*
X109071843Y-103384429D01*
X109052847Y-103374276D01*
X109036192Y-103360608D01*
X109022524Y-103343953D01*
X109012371Y-103324957D01*
X109006116Y-103304338D01*
X109003400Y-103276760D01*
X109003400Y-102768040D01*
X109006116Y-102740462D01*
X109012371Y-102719843D01*
X109022524Y-102700847D01*
X109036192Y-102684192D01*
X109052847Y-102670524D01*
X109071843Y-102660371D01*
X109092462Y-102654116D01*
X109120040Y-102651400D01*
X109578760Y-102651400D01*
X109606338Y-102654116D01*
X109606338Y-102654116D01*
G37*
G36*
X89533487Y-100348996D02*
G01*
X89694642Y-100415749D01*
X89770255Y-100447069D01*
X89773893Y-100449500D01*
X89983339Y-100589447D01*
X90164553Y-100770661D01*
X90306932Y-100983747D01*
X90405004Y-101220513D01*
X90455000Y-101471861D01*
X90455000Y-101728139D01*
X90405004Y-101979487D01*
X90349815Y-102112724D01*
X90306931Y-102216255D01*
X90164553Y-102429339D01*
X89983339Y-102610553D01*
X89770255Y-102752931D01*
X89770254Y-102752932D01*
X89770253Y-102752932D01*
X89533487Y-102851004D01*
X89282139Y-102901000D01*
X89025861Y-102901000D01*
X88774513Y-102851004D01*
X88537747Y-102752932D01*
X88537746Y-102752932D01*
X88537745Y-102752931D01*
X88324661Y-102610553D01*
X88143447Y-102429339D01*
X88001069Y-102216255D01*
X87958185Y-102112724D01*
X87902996Y-101979487D01*
X87853000Y-101728139D01*
X87853000Y-101471861D01*
X87902996Y-101220513D01*
X88001068Y-100983747D01*
X88143447Y-100770661D01*
X88324661Y-100589447D01*
X88534107Y-100449500D01*
X88537745Y-100447069D01*
X88613358Y-100415749D01*
X88774513Y-100348996D01*
X89025861Y-100299000D01*
X89282139Y-100299000D01*
X89533487Y-100348996D01*
X89533487Y-100348996D01*
G37*
G36*
X127106938Y-101295216D02*
G01*
X127127557Y-101301471D01*
X127146553Y-101311624D01*
X127163208Y-101325292D01*
X127176876Y-101341947D01*
X127187029Y-101360943D01*
X127193284Y-101381562D01*
X127196000Y-101409140D01*
X127196000Y-101917860D01*
X127193284Y-101945438D01*
X127187029Y-101966057D01*
X127176876Y-101985053D01*
X127163208Y-102001708D01*
X127146553Y-102015376D01*
X127127557Y-102025529D01*
X127106938Y-102031784D01*
X127079360Y-102034500D01*
X126620640Y-102034500D01*
X126593062Y-102031784D01*
X126572443Y-102025529D01*
X126553447Y-102015376D01*
X126536792Y-102001708D01*
X126523124Y-101985053D01*
X126512971Y-101966057D01*
X126506716Y-101945438D01*
X126504000Y-101917860D01*
X126504000Y-101409140D01*
X126506716Y-101381562D01*
X126512971Y-101360943D01*
X126523124Y-101341947D01*
X126536792Y-101325292D01*
X126553447Y-101311624D01*
X126572443Y-101301471D01*
X126593062Y-101295216D01*
X126620640Y-101292500D01*
X127079360Y-101292500D01*
X127106938Y-101295216D01*
X127106938Y-101295216D01*
G37*
G36*
X126136938Y-101295216D02*
G01*
X126157557Y-101301471D01*
X126176553Y-101311624D01*
X126193208Y-101325292D01*
X126206876Y-101341947D01*
X126217029Y-101360943D01*
X126223284Y-101381562D01*
X126226000Y-101409140D01*
X126226000Y-101917860D01*
X126223284Y-101945438D01*
X126217029Y-101966057D01*
X126206876Y-101985053D01*
X126193208Y-102001708D01*
X126176553Y-102015376D01*
X126157557Y-102025529D01*
X126136938Y-102031784D01*
X126109360Y-102034500D01*
X125650640Y-102034500D01*
X125623062Y-102031784D01*
X125602443Y-102025529D01*
X125583447Y-102015376D01*
X125566792Y-102001708D01*
X125553124Y-101985053D01*
X125542971Y-101966057D01*
X125536716Y-101945438D01*
X125534000Y-101917860D01*
X125534000Y-101409140D01*
X125536716Y-101381562D01*
X125542971Y-101360943D01*
X125553124Y-101341947D01*
X125566792Y-101325292D01*
X125583447Y-101311624D01*
X125602443Y-101301471D01*
X125623062Y-101295216D01*
X125650640Y-101292500D01*
X126109360Y-101292500D01*
X126136938Y-101295216D01*
X126136938Y-101295216D01*
G37*
G36*
X114556938Y-100723716D02*
G01*
X114577557Y-100729971D01*
X114596553Y-100740124D01*
X114613208Y-100753792D01*
X114626876Y-100770447D01*
X114637029Y-100789443D01*
X114643284Y-100810062D01*
X114646000Y-100837640D01*
X114646000Y-101346360D01*
X114643284Y-101373938D01*
X114637029Y-101394557D01*
X114626876Y-101413553D01*
X114613208Y-101430208D01*
X114596553Y-101443876D01*
X114577557Y-101454029D01*
X114556938Y-101460284D01*
X114529360Y-101463000D01*
X114070640Y-101463000D01*
X114043062Y-101460284D01*
X114022443Y-101454029D01*
X114003447Y-101443876D01*
X113986792Y-101430208D01*
X113973124Y-101413553D01*
X113962971Y-101394557D01*
X113956716Y-101373938D01*
X113954000Y-101346360D01*
X113954000Y-100837640D01*
X113956716Y-100810062D01*
X113962971Y-100789443D01*
X113973124Y-100770447D01*
X113986792Y-100753792D01*
X114003447Y-100740124D01*
X114022443Y-100729971D01*
X114043062Y-100723716D01*
X114070640Y-100721000D01*
X114529360Y-100721000D01*
X114556938Y-100723716D01*
X114556938Y-100723716D01*
G37*
G36*
X115526938Y-100723716D02*
G01*
X115547557Y-100729971D01*
X115566553Y-100740124D01*
X115583208Y-100753792D01*
X115596876Y-100770447D01*
X115607029Y-100789443D01*
X115613284Y-100810062D01*
X115616000Y-100837640D01*
X115616000Y-101346360D01*
X115613284Y-101373938D01*
X115607029Y-101394557D01*
X115596876Y-101413553D01*
X115583208Y-101430208D01*
X115566553Y-101443876D01*
X115547557Y-101454029D01*
X115526938Y-101460284D01*
X115499360Y-101463000D01*
X115040640Y-101463000D01*
X115013062Y-101460284D01*
X114992443Y-101454029D01*
X114973447Y-101443876D01*
X114956792Y-101430208D01*
X114943124Y-101413553D01*
X114932971Y-101394557D01*
X114926716Y-101373938D01*
X114924000Y-101346360D01*
X114924000Y-100837640D01*
X114926716Y-100810062D01*
X114932971Y-100789443D01*
X114943124Y-100770447D01*
X114956792Y-100753792D01*
X114973447Y-100740124D01*
X114992443Y-100729971D01*
X115013062Y-100723716D01*
X115040640Y-100721000D01*
X115499360Y-100721000D01*
X115526938Y-100723716D01*
X115526938Y-100723716D01*
G37*
G36*
X127129938Y-100279216D02*
G01*
X127150557Y-100285471D01*
X127169553Y-100295624D01*
X127186208Y-100309292D01*
X127199876Y-100325947D01*
X127210029Y-100344943D01*
X127216284Y-100365562D01*
X127219000Y-100393140D01*
X127219000Y-100901860D01*
X127216284Y-100929438D01*
X127210029Y-100950057D01*
X127199876Y-100969053D01*
X127186208Y-100985708D01*
X127169553Y-100999376D01*
X127150557Y-101009529D01*
X127129938Y-101015784D01*
X127102360Y-101018500D01*
X126643640Y-101018500D01*
X126616062Y-101015784D01*
X126595443Y-101009529D01*
X126576447Y-100999376D01*
X126559792Y-100985708D01*
X126546124Y-100969053D01*
X126535971Y-100950057D01*
X126529716Y-100929438D01*
X126527000Y-100901860D01*
X126527000Y-100393140D01*
X126529716Y-100365562D01*
X126535971Y-100344943D01*
X126546124Y-100325947D01*
X126559792Y-100309292D01*
X126576447Y-100295624D01*
X126595443Y-100285471D01*
X126616062Y-100279216D01*
X126643640Y-100276500D01*
X127102360Y-100276500D01*
X127129938Y-100279216D01*
X127129938Y-100279216D01*
G37*
G36*
X126159938Y-100279216D02*
G01*
X126180557Y-100285471D01*
X126199553Y-100295624D01*
X126216208Y-100309292D01*
X126229876Y-100325947D01*
X126240029Y-100344943D01*
X126246284Y-100365562D01*
X126249000Y-100393140D01*
X126249000Y-100901860D01*
X126246284Y-100929438D01*
X126240029Y-100950057D01*
X126229876Y-100969053D01*
X126216208Y-100985708D01*
X126199553Y-100999376D01*
X126180557Y-101009529D01*
X126159938Y-101015784D01*
X126132360Y-101018500D01*
X125673640Y-101018500D01*
X125646062Y-101015784D01*
X125625443Y-101009529D01*
X125606447Y-100999376D01*
X125589792Y-100985708D01*
X125576124Y-100969053D01*
X125565971Y-100950057D01*
X125559716Y-100929438D01*
X125557000Y-100901860D01*
X125557000Y-100393140D01*
X125559716Y-100365562D01*
X125565971Y-100344943D01*
X125576124Y-100325947D01*
X125589792Y-100309292D01*
X125606447Y-100295624D01*
X125625443Y-100285471D01*
X125646062Y-100279216D01*
X125673640Y-100276500D01*
X126132360Y-100276500D01*
X126159938Y-100279216D01*
X126159938Y-100279216D01*
G37*
G36*
X117764916Y-99825843D02*
G01*
X117769056Y-99827099D01*
X117788216Y-99835035D01*
X117812250Y-99839815D01*
X117836754Y-99839815D01*
X117860787Y-99835034D01*
X117879945Y-99827099D01*
X117884084Y-99825843D01*
X117892643Y-99825000D01*
X118156357Y-99825000D01*
X118164916Y-99825843D01*
X118169056Y-99827099D01*
X118188216Y-99835035D01*
X118212250Y-99839815D01*
X118236754Y-99839815D01*
X118260787Y-99835034D01*
X118279945Y-99827099D01*
X118284084Y-99825843D01*
X118292643Y-99825000D01*
X118556357Y-99825000D01*
X118564916Y-99825843D01*
X118569056Y-99827099D01*
X118588216Y-99835035D01*
X118612250Y-99839815D01*
X118636754Y-99839815D01*
X118660787Y-99835034D01*
X118679945Y-99827099D01*
X118684084Y-99825843D01*
X118692643Y-99825000D01*
X118956357Y-99825000D01*
X118964916Y-99825843D01*
X118969056Y-99827099D01*
X118988216Y-99835035D01*
X119012250Y-99839815D01*
X119036754Y-99839815D01*
X119060787Y-99835034D01*
X119079945Y-99827099D01*
X119084084Y-99825843D01*
X119092643Y-99825000D01*
X119356357Y-99825000D01*
X119364916Y-99825843D01*
X119369056Y-99827099D01*
X119388216Y-99835035D01*
X119412250Y-99839815D01*
X119436754Y-99839815D01*
X119460787Y-99835034D01*
X119479945Y-99827099D01*
X119484084Y-99825843D01*
X119492643Y-99825000D01*
X119756357Y-99825000D01*
X119764916Y-99825843D01*
X119769056Y-99827099D01*
X119788216Y-99835035D01*
X119812250Y-99839815D01*
X119836754Y-99839815D01*
X119860787Y-99835034D01*
X119879945Y-99827099D01*
X119884084Y-99825843D01*
X119892643Y-99825000D01*
X120156357Y-99825000D01*
X120164916Y-99825843D01*
X120169056Y-99827099D01*
X120188216Y-99835035D01*
X120212250Y-99839815D01*
X120236754Y-99839815D01*
X120260787Y-99835034D01*
X120279945Y-99827099D01*
X120284084Y-99825843D01*
X120292643Y-99825000D01*
X120556357Y-99825000D01*
X120564916Y-99825843D01*
X120569056Y-99827099D01*
X120588216Y-99835035D01*
X120612250Y-99839815D01*
X120636754Y-99839815D01*
X120660787Y-99835034D01*
X120679945Y-99827099D01*
X120684084Y-99825843D01*
X120692643Y-99825000D01*
X120956357Y-99825000D01*
X120964916Y-99825843D01*
X120969056Y-99827099D01*
X120988216Y-99835035D01*
X121012250Y-99839815D01*
X121036754Y-99839815D01*
X121060787Y-99835034D01*
X121079945Y-99827099D01*
X121084084Y-99825843D01*
X121092643Y-99825000D01*
X121356357Y-99825000D01*
X121364916Y-99825843D01*
X121369056Y-99827099D01*
X121388216Y-99835035D01*
X121412250Y-99839815D01*
X121436754Y-99839815D01*
X121460787Y-99835034D01*
X121479945Y-99827099D01*
X121484084Y-99825843D01*
X121492643Y-99825000D01*
X121756357Y-99825000D01*
X121764916Y-99825843D01*
X121769056Y-99827099D01*
X121788216Y-99835035D01*
X121812250Y-99839815D01*
X121836754Y-99839815D01*
X121860787Y-99835034D01*
X121879945Y-99827099D01*
X121884084Y-99825843D01*
X121892643Y-99825000D01*
X122156357Y-99825000D01*
X122164916Y-99825843D01*
X122167245Y-99826550D01*
X122169387Y-99827695D01*
X122171265Y-99829235D01*
X122172805Y-99831113D01*
X122173950Y-99833255D01*
X122174657Y-99835584D01*
X122175500Y-99844143D01*
X122175500Y-100757859D01*
X122174900Y-100763950D01*
X122174900Y-100776400D01*
X122162450Y-100776400D01*
X122156359Y-100777000D01*
X121892643Y-100777000D01*
X121884084Y-100776157D01*
X121879944Y-100774901D01*
X121860784Y-100766965D01*
X121836750Y-100762185D01*
X121812246Y-100762185D01*
X121788213Y-100766966D01*
X121769055Y-100774901D01*
X121764916Y-100776157D01*
X121756357Y-100777000D01*
X121492643Y-100777000D01*
X121484084Y-100776157D01*
X121479944Y-100774901D01*
X121460784Y-100766965D01*
X121436750Y-100762185D01*
X121412246Y-100762185D01*
X121388213Y-100766966D01*
X121369055Y-100774901D01*
X121364916Y-100776157D01*
X121356357Y-100777000D01*
X121092643Y-100777000D01*
X121084084Y-100776157D01*
X121079944Y-100774901D01*
X121060784Y-100766965D01*
X121036750Y-100762185D01*
X121012246Y-100762185D01*
X120988213Y-100766966D01*
X120969055Y-100774901D01*
X120964916Y-100776157D01*
X120956357Y-100777000D01*
X120692643Y-100777000D01*
X120684084Y-100776157D01*
X120679944Y-100774901D01*
X120660784Y-100766965D01*
X120636750Y-100762185D01*
X120612246Y-100762185D01*
X120588213Y-100766966D01*
X120569055Y-100774901D01*
X120564916Y-100776157D01*
X120556357Y-100777000D01*
X120292643Y-100777000D01*
X120284084Y-100776157D01*
X120279944Y-100774901D01*
X120260784Y-100766965D01*
X120236750Y-100762185D01*
X120212246Y-100762185D01*
X120188213Y-100766966D01*
X120169055Y-100774901D01*
X120164916Y-100776157D01*
X120156357Y-100777000D01*
X119892643Y-100777000D01*
X119884084Y-100776157D01*
X119879944Y-100774901D01*
X119860784Y-100766965D01*
X119836750Y-100762185D01*
X119812246Y-100762185D01*
X119788213Y-100766966D01*
X119769055Y-100774901D01*
X119764916Y-100776157D01*
X119756357Y-100777000D01*
X119492643Y-100777000D01*
X119484084Y-100776157D01*
X119479944Y-100774901D01*
X119460784Y-100766965D01*
X119436750Y-100762185D01*
X119412246Y-100762185D01*
X119388213Y-100766966D01*
X119369055Y-100774901D01*
X119364916Y-100776157D01*
X119356357Y-100777000D01*
X119092643Y-100777000D01*
X119084084Y-100776157D01*
X119079944Y-100774901D01*
X119060784Y-100766965D01*
X119036750Y-100762185D01*
X119012246Y-100762185D01*
X118988213Y-100766966D01*
X118969055Y-100774901D01*
X118964916Y-100776157D01*
X118956357Y-100777000D01*
X118692643Y-100777000D01*
X118684084Y-100776157D01*
X118679944Y-100774901D01*
X118660784Y-100766965D01*
X118636750Y-100762185D01*
X118612246Y-100762185D01*
X118588213Y-100766966D01*
X118569055Y-100774901D01*
X118564916Y-100776157D01*
X118556357Y-100777000D01*
X118292643Y-100777000D01*
X118284084Y-100776157D01*
X118279944Y-100774901D01*
X118260784Y-100766965D01*
X118236750Y-100762185D01*
X118212246Y-100762185D01*
X118188213Y-100766966D01*
X118169055Y-100774901D01*
X118164916Y-100776157D01*
X118156357Y-100777000D01*
X117892643Y-100777000D01*
X117884084Y-100776157D01*
X117879944Y-100774901D01*
X117860784Y-100766965D01*
X117836750Y-100762185D01*
X117812246Y-100762185D01*
X117788213Y-100766966D01*
X117769055Y-100774901D01*
X117764916Y-100776157D01*
X117756357Y-100777000D01*
X117492641Y-100777000D01*
X117486550Y-100776400D01*
X117474100Y-100776400D01*
X117474100Y-100763950D01*
X117473500Y-100757859D01*
X117473500Y-99844143D01*
X117474343Y-99835584D01*
X117475050Y-99833255D01*
X117476195Y-99831113D01*
X117477735Y-99829235D01*
X117479613Y-99827695D01*
X117481755Y-99826550D01*
X117484084Y-99825843D01*
X117492643Y-99825000D01*
X117756357Y-99825000D01*
X117764916Y-99825843D01*
X117764916Y-99825843D01*
G37*
G36*
X113956091Y-99300085D02*
G01*
X113990069Y-99310393D01*
X114021390Y-99327134D01*
X114048839Y-99349661D01*
X114071366Y-99377110D01*
X114088107Y-99408431D01*
X114098415Y-99442409D01*
X114102500Y-99483890D01*
X114102500Y-100160110D01*
X114098415Y-100201591D01*
X114088107Y-100235569D01*
X114071366Y-100266890D01*
X114048839Y-100294339D01*
X114021390Y-100316866D01*
X113990069Y-100333607D01*
X113956091Y-100343915D01*
X113914610Y-100348000D01*
X113313390Y-100348000D01*
X113271909Y-100343915D01*
X113237931Y-100333607D01*
X113206610Y-100316866D01*
X113179161Y-100294339D01*
X113156634Y-100266890D01*
X113139893Y-100235569D01*
X113129585Y-100201591D01*
X113125500Y-100160110D01*
X113125500Y-99483890D01*
X113129585Y-99442409D01*
X113139893Y-99408431D01*
X113156634Y-99377110D01*
X113179161Y-99349661D01*
X113206610Y-99327134D01*
X113237931Y-99310393D01*
X113271909Y-99300085D01*
X113313390Y-99296000D01*
X113914610Y-99296000D01*
X113956091Y-99300085D01*
X113956091Y-99300085D01*
G37*
G36*
X115531091Y-99300085D02*
G01*
X115565069Y-99310393D01*
X115596390Y-99327134D01*
X115623839Y-99349661D01*
X115646366Y-99377110D01*
X115663107Y-99408431D01*
X115673415Y-99442409D01*
X115677500Y-99483890D01*
X115677500Y-100160110D01*
X115673415Y-100201591D01*
X115663107Y-100235569D01*
X115646366Y-100266890D01*
X115623839Y-100294339D01*
X115596390Y-100316866D01*
X115565069Y-100333607D01*
X115531091Y-100343915D01*
X115489610Y-100348000D01*
X114888390Y-100348000D01*
X114846909Y-100343915D01*
X114812931Y-100333607D01*
X114781610Y-100316866D01*
X114754161Y-100294339D01*
X114731634Y-100266890D01*
X114714893Y-100235569D01*
X114704585Y-100201591D01*
X114700500Y-100160110D01*
X114700500Y-99483890D01*
X114704585Y-99442409D01*
X114714893Y-99408431D01*
X114731634Y-99377110D01*
X114754161Y-99349661D01*
X114781610Y-99327134D01*
X114812931Y-99310393D01*
X114846909Y-99300085D01*
X114888390Y-99296000D01*
X115489610Y-99296000D01*
X115531091Y-99300085D01*
X115531091Y-99300085D01*
G37*
G36*
X117664091Y-98309085D02*
G01*
X117698069Y-98319393D01*
X117729390Y-98336134D01*
X117756839Y-98358661D01*
X117779366Y-98386110D01*
X117796107Y-98417431D01*
X117806415Y-98451409D01*
X117810500Y-98492890D01*
X117810500Y-99094110D01*
X117806415Y-99135591D01*
X117796107Y-99169569D01*
X117779366Y-99200890D01*
X117756839Y-99228339D01*
X117729390Y-99250866D01*
X117698069Y-99267607D01*
X117664091Y-99277915D01*
X117622610Y-99282000D01*
X116946390Y-99282000D01*
X116904909Y-99277915D01*
X116870931Y-99267607D01*
X116839610Y-99250866D01*
X116812161Y-99228339D01*
X116789634Y-99200890D01*
X116772893Y-99169569D01*
X116762585Y-99135591D01*
X116758500Y-99094110D01*
X116758500Y-98492890D01*
X116762585Y-98451409D01*
X116772893Y-98417431D01*
X116789634Y-98386110D01*
X116812161Y-98358661D01*
X116839610Y-98336134D01*
X116870931Y-98319393D01*
X116904909Y-98309085D01*
X116946390Y-98305000D01*
X117622610Y-98305000D01*
X117664091Y-98309085D01*
X117664091Y-98309085D01*
G37*
G36*
X128297938Y-97556216D02*
G01*
X128318557Y-97562471D01*
X128337553Y-97572624D01*
X128354208Y-97586292D01*
X128367876Y-97602947D01*
X128378029Y-97621943D01*
X128384284Y-97642562D01*
X128387000Y-97670140D01*
X128387000Y-98128860D01*
X128384284Y-98156438D01*
X128378029Y-98177057D01*
X128367876Y-98196053D01*
X128354208Y-98212708D01*
X128337553Y-98226376D01*
X128318557Y-98236529D01*
X128297938Y-98242784D01*
X128270360Y-98245500D01*
X127761640Y-98245500D01*
X127734062Y-98242784D01*
X127713443Y-98236529D01*
X127694447Y-98226376D01*
X127677792Y-98212708D01*
X127661284Y-98192592D01*
X127652623Y-98179630D01*
X127635295Y-98162304D01*
X127614921Y-98148690D01*
X127592282Y-98139314D01*
X127568248Y-98134534D01*
X127543744Y-98134534D01*
X127519711Y-98139315D01*
X127497072Y-98148693D01*
X127476698Y-98162307D01*
X127459372Y-98179635D01*
X127445758Y-98200009D01*
X127436382Y-98222648D01*
X127431000Y-98258931D01*
X127431000Y-98510069D01*
X127433402Y-98534455D01*
X127440515Y-98557904D01*
X127452066Y-98579515D01*
X127467611Y-98598457D01*
X127486553Y-98614002D01*
X127508164Y-98625553D01*
X127531613Y-98632666D01*
X127555999Y-98635068D01*
X127580385Y-98632666D01*
X127603834Y-98625553D01*
X127625445Y-98614002D01*
X127644387Y-98598457D01*
X127656275Y-98582428D01*
X127656316Y-98582462D01*
X127677792Y-98556292D01*
X127694447Y-98542624D01*
X127713443Y-98532471D01*
X127734062Y-98526216D01*
X127761640Y-98523500D01*
X128270360Y-98523500D01*
X128297938Y-98526216D01*
X128318557Y-98532471D01*
X128337553Y-98542624D01*
X128354208Y-98556292D01*
X128367876Y-98572947D01*
X128378029Y-98591943D01*
X128384284Y-98612562D01*
X128387000Y-98640140D01*
X128387000Y-99098860D01*
X128384284Y-99126438D01*
X128378029Y-99147057D01*
X128367876Y-99166053D01*
X128354208Y-99182708D01*
X128337553Y-99196376D01*
X128318557Y-99206529D01*
X128297938Y-99212784D01*
X128270360Y-99215500D01*
X127761640Y-99215500D01*
X127734062Y-99212784D01*
X127713443Y-99206529D01*
X127694447Y-99196376D01*
X127677792Y-99182708D01*
X127661284Y-99162592D01*
X127652623Y-99149630D01*
X127635295Y-99132304D01*
X127614921Y-99118690D01*
X127592282Y-99109314D01*
X127568248Y-99104534D01*
X127543744Y-99104534D01*
X127519711Y-99109315D01*
X127497072Y-99118693D01*
X127476698Y-99132307D01*
X127459372Y-99149635D01*
X127445758Y-99170009D01*
X127436382Y-99192648D01*
X127431000Y-99228931D01*
X127431000Y-99266500D01*
X126569000Y-99266500D01*
X126569000Y-97964500D01*
X127520001Y-97964500D01*
X127544387Y-97962098D01*
X127567836Y-97954985D01*
X127589447Y-97943434D01*
X127608389Y-97927889D01*
X127623934Y-97908947D01*
X127635485Y-97887336D01*
X127642598Y-97863887D01*
X127645000Y-97839501D01*
X127645000Y-97670140D01*
X127647716Y-97642562D01*
X127653971Y-97621943D01*
X127664124Y-97602947D01*
X127677792Y-97586292D01*
X127694447Y-97572624D01*
X127713443Y-97562471D01*
X127734062Y-97556216D01*
X127761640Y-97553500D01*
X128270360Y-97553500D01*
X128297938Y-97556216D01*
X128297938Y-97556216D01*
G37*
G36*
X125653000Y-99266500D02*
G01*
X124791000Y-99266500D01*
X124791000Y-97964500D01*
X125653000Y-97964500D01*
X125653000Y-99266500D01*
X125653000Y-99266500D01*
G37*
G36*
X124018438Y-98437716D02*
G01*
X124039057Y-98443971D01*
X124058053Y-98454124D01*
X124074708Y-98467792D01*
X124088376Y-98484447D01*
X124098529Y-98503443D01*
X124104784Y-98524062D01*
X124107500Y-98551640D01*
X124107500Y-99060360D01*
X124104784Y-99087938D01*
X124098529Y-99108557D01*
X124088376Y-99127553D01*
X124074708Y-99144208D01*
X124058053Y-99157876D01*
X124039057Y-99168029D01*
X124018438Y-99174284D01*
X123990860Y-99177000D01*
X123532140Y-99177000D01*
X123504562Y-99174284D01*
X123483943Y-99168029D01*
X123464947Y-99157876D01*
X123448292Y-99144208D01*
X123434624Y-99127553D01*
X123424471Y-99108557D01*
X123418216Y-99087938D01*
X123415500Y-99060360D01*
X123415500Y-98551640D01*
X123418216Y-98524062D01*
X123424471Y-98503443D01*
X123434624Y-98484447D01*
X123448292Y-98467792D01*
X123464947Y-98454124D01*
X123483943Y-98443971D01*
X123504562Y-98437716D01*
X123532140Y-98435000D01*
X123990860Y-98435000D01*
X124018438Y-98437716D01*
X124018438Y-98437716D01*
G37*
G36*
X123048438Y-98437716D02*
G01*
X123069057Y-98443971D01*
X123088053Y-98454124D01*
X123104708Y-98467792D01*
X123118376Y-98484447D01*
X123128529Y-98503443D01*
X123134784Y-98524062D01*
X123137500Y-98551640D01*
X123137500Y-99060360D01*
X123134784Y-99087938D01*
X123128529Y-99108557D01*
X123118376Y-99127553D01*
X123104708Y-99144208D01*
X123088053Y-99157876D01*
X123069057Y-99168029D01*
X123048438Y-99174284D01*
X123020860Y-99177000D01*
X122562140Y-99177000D01*
X122534562Y-99174284D01*
X122513943Y-99168029D01*
X122494947Y-99157876D01*
X122478292Y-99144208D01*
X122464624Y-99127553D01*
X122454471Y-99108557D01*
X122448216Y-99087938D01*
X122445500Y-99060360D01*
X122445500Y-98551640D01*
X122448216Y-98524062D01*
X122454471Y-98503443D01*
X122464624Y-98484447D01*
X122478292Y-98467792D01*
X122494947Y-98454124D01*
X122513943Y-98443971D01*
X122534562Y-98437716D01*
X122562140Y-98435000D01*
X123020860Y-98435000D01*
X123048438Y-98437716D01*
X123048438Y-98437716D01*
G37*
G36*
X117664091Y-96734085D02*
G01*
X117698069Y-96744393D01*
X117729390Y-96761134D01*
X117756839Y-96783661D01*
X117779366Y-96811110D01*
X117796107Y-96842431D01*
X117806415Y-96876409D01*
X117810500Y-96917890D01*
X117810500Y-97519110D01*
X117806415Y-97560591D01*
X117796107Y-97594569D01*
X117779366Y-97625890D01*
X117756839Y-97653339D01*
X117729390Y-97675866D01*
X117698069Y-97692607D01*
X117664091Y-97702915D01*
X117622610Y-97707000D01*
X116946390Y-97707000D01*
X116904909Y-97702915D01*
X116870931Y-97692607D01*
X116839610Y-97675866D01*
X116812161Y-97653339D01*
X116789634Y-97625890D01*
X116772893Y-97594569D01*
X116762585Y-97560591D01*
X116758500Y-97519110D01*
X116758500Y-96917890D01*
X116762585Y-96876409D01*
X116772893Y-96842431D01*
X116789634Y-96811110D01*
X116812161Y-96783661D01*
X116839610Y-96761134D01*
X116870931Y-96744393D01*
X116904909Y-96734085D01*
X116946390Y-96730000D01*
X117622610Y-96730000D01*
X117664091Y-96734085D01*
X117664091Y-96734085D01*
G37*
G36*
X118824138Y-96659716D02*
G01*
X118844757Y-96665971D01*
X118863753Y-96676124D01*
X118880408Y-96689792D01*
X118894076Y-96706447D01*
X118904229Y-96725443D01*
X118910484Y-96746062D01*
X118913200Y-96773640D01*
X118913200Y-97282360D01*
X118910484Y-97309938D01*
X118904229Y-97330557D01*
X118894076Y-97349553D01*
X118880408Y-97366208D01*
X118863753Y-97379876D01*
X118844757Y-97390029D01*
X118824138Y-97396284D01*
X118796560Y-97399000D01*
X118337840Y-97399000D01*
X118310262Y-97396284D01*
X118289643Y-97390029D01*
X118270647Y-97379876D01*
X118253992Y-97366208D01*
X118240324Y-97349553D01*
X118230171Y-97330557D01*
X118223916Y-97309938D01*
X118221200Y-97282360D01*
X118221200Y-96773640D01*
X118223916Y-96746062D01*
X118230171Y-96725443D01*
X118240324Y-96706447D01*
X118253992Y-96689792D01*
X118270647Y-96676124D01*
X118289643Y-96665971D01*
X118310262Y-96659716D01*
X118337840Y-96657000D01*
X118796560Y-96657000D01*
X118824138Y-96659716D01*
X118824138Y-96659716D01*
G37*
G36*
X119794138Y-96659716D02*
G01*
X119814757Y-96665971D01*
X119833753Y-96676124D01*
X119850408Y-96689792D01*
X119864076Y-96706447D01*
X119874229Y-96725443D01*
X119880484Y-96746062D01*
X119883200Y-96773640D01*
X119883200Y-97282360D01*
X119880484Y-97309938D01*
X119874229Y-97330557D01*
X119864076Y-97349553D01*
X119850408Y-97366208D01*
X119833753Y-97379876D01*
X119814757Y-97390029D01*
X119794138Y-97396284D01*
X119766560Y-97399000D01*
X119307840Y-97399000D01*
X119280262Y-97396284D01*
X119259643Y-97390029D01*
X119240647Y-97379876D01*
X119223992Y-97366208D01*
X119210324Y-97349553D01*
X119200171Y-97330557D01*
X119193916Y-97309938D01*
X119191200Y-97282360D01*
X119191200Y-96773640D01*
X119193916Y-96746062D01*
X119200171Y-96725443D01*
X119210324Y-96706447D01*
X119223992Y-96689792D01*
X119240647Y-96676124D01*
X119259643Y-96665971D01*
X119280262Y-96659716D01*
X119307840Y-96657000D01*
X119766560Y-96657000D01*
X119794138Y-96659716D01*
X119794138Y-96659716D01*
G37*
G36*
X127431000Y-97234500D02*
G01*
X126569000Y-97234500D01*
X126569000Y-95932500D01*
X127431000Y-95932500D01*
X127431000Y-97234500D01*
X127431000Y-97234500D01*
G37*
G36*
X125653000Y-97234500D02*
G01*
X124791000Y-97234500D01*
X124791000Y-96942931D01*
X124788598Y-96918545D01*
X124781485Y-96895096D01*
X124769934Y-96873485D01*
X124754389Y-96854543D01*
X124735447Y-96838998D01*
X124713836Y-96827447D01*
X124690387Y-96820334D01*
X124666001Y-96817932D01*
X124641615Y-96820334D01*
X124618166Y-96827447D01*
X124596555Y-96838998D01*
X124577613Y-96854543D01*
X124565725Y-96870572D01*
X124565684Y-96870538D01*
X124544208Y-96896708D01*
X124527553Y-96910376D01*
X124508557Y-96920529D01*
X124487938Y-96926784D01*
X124460360Y-96929500D01*
X123951640Y-96929500D01*
X123924062Y-96926784D01*
X123903443Y-96920529D01*
X123884447Y-96910376D01*
X123867792Y-96896708D01*
X123854124Y-96880053D01*
X123843971Y-96861057D01*
X123837716Y-96840438D01*
X123835000Y-96812860D01*
X123835000Y-96354140D01*
X123837716Y-96326562D01*
X123843971Y-96305943D01*
X123854124Y-96286947D01*
X123867792Y-96270292D01*
X123884447Y-96256624D01*
X123903443Y-96246471D01*
X123924062Y-96240216D01*
X123951640Y-96237500D01*
X124460360Y-96237500D01*
X124487938Y-96240216D01*
X124508557Y-96246471D01*
X124527553Y-96256624D01*
X124544208Y-96270292D01*
X124560716Y-96290408D01*
X124569377Y-96303370D01*
X124586705Y-96320696D01*
X124607079Y-96334310D01*
X124629718Y-96343686D01*
X124653752Y-96348466D01*
X124678256Y-96348466D01*
X124702289Y-96343685D01*
X124724928Y-96334307D01*
X124745302Y-96320693D01*
X124762628Y-96303365D01*
X124776242Y-96282991D01*
X124785618Y-96260352D01*
X124791000Y-96224069D01*
X124791000Y-95972931D01*
X124788598Y-95948545D01*
X124783731Y-95932500D01*
X125653000Y-95932500D01*
X125653000Y-97234500D01*
X125653000Y-97234500D01*
G37*
G36*
X117678738Y-95542116D02*
G01*
X117699357Y-95548371D01*
X117718353Y-95558524D01*
X117735008Y-95572192D01*
X117748676Y-95588847D01*
X117758829Y-95607843D01*
X117765084Y-95628462D01*
X117767800Y-95656040D01*
X117767800Y-96164760D01*
X117765084Y-96192338D01*
X117758829Y-96212957D01*
X117748676Y-96231953D01*
X117735008Y-96248608D01*
X117718353Y-96262276D01*
X117699357Y-96272429D01*
X117678738Y-96278684D01*
X117651160Y-96281400D01*
X117192440Y-96281400D01*
X117164862Y-96278684D01*
X117144243Y-96272429D01*
X117125247Y-96262276D01*
X117108592Y-96248608D01*
X117094924Y-96231953D01*
X117084771Y-96212957D01*
X117078516Y-96192338D01*
X117075800Y-96164760D01*
X117075800Y-95656040D01*
X117078516Y-95628462D01*
X117084771Y-95607843D01*
X117094924Y-95588847D01*
X117108592Y-95572192D01*
X117125247Y-95558524D01*
X117144243Y-95548371D01*
X117164862Y-95542116D01*
X117192440Y-95539400D01*
X117651160Y-95539400D01*
X117678738Y-95542116D01*
X117678738Y-95542116D01*
G37*
G36*
X118648738Y-95542116D02*
G01*
X118669357Y-95548371D01*
X118688353Y-95558524D01*
X118705008Y-95572192D01*
X118718676Y-95588847D01*
X118728829Y-95607843D01*
X118735084Y-95628462D01*
X118737800Y-95656040D01*
X118737800Y-96164760D01*
X118735084Y-96192338D01*
X118728829Y-96212957D01*
X118718676Y-96231953D01*
X118705008Y-96248608D01*
X118688353Y-96262276D01*
X118669357Y-96272429D01*
X118648738Y-96278684D01*
X118621160Y-96281400D01*
X118162440Y-96281400D01*
X118134862Y-96278684D01*
X118114243Y-96272429D01*
X118095247Y-96262276D01*
X118078592Y-96248608D01*
X118064924Y-96231953D01*
X118054771Y-96212957D01*
X118048516Y-96192338D01*
X118045800Y-96164760D01*
X118045800Y-95656040D01*
X118048516Y-95628462D01*
X118054771Y-95607843D01*
X118064924Y-95588847D01*
X118078592Y-95572192D01*
X118095247Y-95558524D01*
X118114243Y-95548371D01*
X118134862Y-95542116D01*
X118162440Y-95539400D01*
X118621160Y-95539400D01*
X118648738Y-95542116D01*
X118648738Y-95542116D01*
G37*
G36*
X124487938Y-95270216D02*
G01*
X124508557Y-95276471D01*
X124527553Y-95286624D01*
X124544208Y-95300292D01*
X124557876Y-95316947D01*
X124568029Y-95335943D01*
X124574284Y-95356562D01*
X124577000Y-95384140D01*
X124577000Y-95807501D01*
X124579402Y-95831887D01*
X124586515Y-95855336D01*
X124594652Y-95870560D01*
X124577613Y-95884543D01*
X124565725Y-95900572D01*
X124565684Y-95900538D01*
X124544208Y-95926708D01*
X124527553Y-95940376D01*
X124508557Y-95950529D01*
X124487938Y-95956784D01*
X124460360Y-95959500D01*
X123951640Y-95959500D01*
X123924062Y-95956784D01*
X123903443Y-95950529D01*
X123884447Y-95940376D01*
X123867792Y-95926708D01*
X123854124Y-95910053D01*
X123843971Y-95891057D01*
X123837716Y-95870438D01*
X123835000Y-95842860D01*
X123835000Y-95384140D01*
X123837716Y-95356562D01*
X123843971Y-95335943D01*
X123854124Y-95316947D01*
X123867792Y-95300292D01*
X123884447Y-95286624D01*
X123903443Y-95276471D01*
X123924062Y-95270216D01*
X123951640Y-95267500D01*
X124460360Y-95267500D01*
X124487938Y-95270216D01*
X124487938Y-95270216D01*
G37*
G36*
X87080380Y-89136276D02*
G01*
X87461093Y-89212004D01*
X87870749Y-89381689D01*
X88239429Y-89628034D01*
X88552966Y-89941571D01*
X88799311Y-90310251D01*
X88968996Y-90719907D01*
X89022223Y-90987500D01*
X89051139Y-91132869D01*
X89055500Y-91154796D01*
X89055500Y-91598204D01*
X88968996Y-92033093D01*
X88799311Y-92442749D01*
X88552966Y-92811429D01*
X88239429Y-93124966D01*
X87870749Y-93371311D01*
X87461093Y-93540996D01*
X87080380Y-93616724D01*
X87026205Y-93627500D01*
X86582795Y-93627500D01*
X86528620Y-93616724D01*
X86147907Y-93540996D01*
X85738251Y-93371311D01*
X85369571Y-93124966D01*
X85056034Y-92811429D01*
X84809689Y-92442749D01*
X84640004Y-92033093D01*
X84553500Y-91598204D01*
X84553500Y-91154796D01*
X84557862Y-91132869D01*
X84586777Y-90987500D01*
X84640004Y-90719907D01*
X84809689Y-90310251D01*
X85056034Y-89941571D01*
X85369571Y-89628034D01*
X85738251Y-89381689D01*
X86147907Y-89212004D01*
X86528620Y-89136276D01*
X86582795Y-89125500D01*
X87026205Y-89125500D01*
X87080380Y-89136276D01*
X87080380Y-89136276D01*
G37*
G36*
X140674380Y-89009276D02*
G01*
X141055093Y-89085004D01*
X141464749Y-89254689D01*
X141833429Y-89501034D01*
X142146966Y-89814571D01*
X142393311Y-90183251D01*
X142562996Y-90592907D01*
X142635362Y-90956718D01*
X142641014Y-90985131D01*
X142649500Y-91027796D01*
X142649500Y-91471204D01*
X142562996Y-91906093D01*
X142393311Y-92315749D01*
X142146966Y-92684429D01*
X141833429Y-92997966D01*
X141464749Y-93244311D01*
X141055093Y-93413996D01*
X140674380Y-93489724D01*
X140620205Y-93500500D01*
X140176795Y-93500500D01*
X140122620Y-93489724D01*
X139741907Y-93413996D01*
X139332251Y-93244311D01*
X138963571Y-92997966D01*
X138650034Y-92684429D01*
X138403689Y-92315749D01*
X138234004Y-91906093D01*
X138147500Y-91471204D01*
X138147500Y-91027796D01*
X138155987Y-90985131D01*
X138161638Y-90956718D01*
X138234004Y-90592907D01*
X138403689Y-90183251D01*
X138650034Y-89814571D01*
X138963571Y-89501034D01*
X139332251Y-89254689D01*
X139741907Y-89085004D01*
X140122620Y-89009276D01*
X140176795Y-88998500D01*
X140620205Y-88998500D01*
X140674380Y-89009276D01*
X140674380Y-89009276D01*
G37*
G36*
X125892754Y-88514318D02*
G01*
X126266011Y-88668926D01*
X126266013Y-88668927D01*
X126601936Y-88893384D01*
X126887616Y-89179064D01*
X127086466Y-89476663D01*
X127112074Y-89514989D01*
X127266682Y-89888246D01*
X127345500Y-90284493D01*
X127345500Y-90688507D01*
X127266682Y-91084754D01*
X127186733Y-91277767D01*
X127112073Y-91458013D01*
X126887616Y-91793936D01*
X126601936Y-92079616D01*
X126266013Y-92304073D01*
X126266012Y-92304074D01*
X126266011Y-92304074D01*
X125892754Y-92458682D01*
X125496507Y-92537500D01*
X125092493Y-92537500D01*
X124696246Y-92458682D01*
X124322989Y-92304074D01*
X124322988Y-92304074D01*
X124322987Y-92304073D01*
X123987064Y-92079616D01*
X123701384Y-91793936D01*
X123476927Y-91458013D01*
X123402267Y-91277767D01*
X123322318Y-91084754D01*
X123243500Y-90688507D01*
X123243500Y-90284493D01*
X123322318Y-89888246D01*
X123476926Y-89514989D01*
X123502535Y-89476663D01*
X123701384Y-89179064D01*
X123987064Y-88893384D01*
X124322987Y-88668927D01*
X124322989Y-88668926D01*
X124696246Y-88514318D01*
X125092493Y-88435500D01*
X125496507Y-88435500D01*
X125892754Y-88514318D01*
X125892754Y-88514318D01*
G37*
G36*
X102642754Y-88514318D02*
G01*
X103016011Y-88668926D01*
X103016013Y-88668927D01*
X103351936Y-88893384D01*
X103637616Y-89179064D01*
X103836466Y-89476663D01*
X103862074Y-89514989D01*
X104016682Y-89888246D01*
X104095500Y-90284493D01*
X104095500Y-90688507D01*
X104016682Y-91084754D01*
X103936733Y-91277767D01*
X103862073Y-91458013D01*
X103637616Y-91793936D01*
X103351936Y-92079616D01*
X103016013Y-92304073D01*
X103016012Y-92304074D01*
X103016011Y-92304074D01*
X102642754Y-92458682D01*
X102246507Y-92537500D01*
X101842493Y-92537500D01*
X101446246Y-92458682D01*
X101072989Y-92304074D01*
X101072988Y-92304074D01*
X101072987Y-92304073D01*
X100737064Y-92079616D01*
X100451384Y-91793936D01*
X100226927Y-91458013D01*
X100152267Y-91277767D01*
X100072318Y-91084754D01*
X99993500Y-90688507D01*
X99993500Y-90284493D01*
X100072318Y-89888246D01*
X100226926Y-89514989D01*
X100252535Y-89476663D01*
X100451384Y-89179064D01*
X100737064Y-88893384D01*
X101072987Y-88668927D01*
X101072989Y-88668926D01*
X101446246Y-88514318D01*
X101842493Y-88435500D01*
X102246507Y-88435500D01*
X102642754Y-88514318D01*
X102642754Y-88514318D01*
G37*
G36*
X136934266Y-90337821D02*
G01*
X137070757Y-90394358D01*
X137193597Y-90476437D01*
X137298063Y-90580903D01*
X137380142Y-90703743D01*
X137436679Y-90840234D01*
X137465500Y-90985130D01*
X137465500Y-91132870D01*
X137436679Y-91277766D01*
X137380142Y-91414257D01*
X137298063Y-91537097D01*
X137193597Y-91641563D01*
X137070757Y-91723642D01*
X136934266Y-91780179D01*
X136789370Y-91809000D01*
X136641630Y-91809000D01*
X136496734Y-91780179D01*
X136360243Y-91723642D01*
X136237403Y-91641563D01*
X136132937Y-91537097D01*
X136050858Y-91414257D01*
X135994321Y-91277766D01*
X135965500Y-91132870D01*
X135965500Y-90985130D01*
X135994321Y-90840234D01*
X136050858Y-90703743D01*
X136132937Y-90580903D01*
X136237403Y-90476437D01*
X136360243Y-90394358D01*
X136496734Y-90337821D01*
X136641630Y-90309000D01*
X136789370Y-90309000D01*
X136934266Y-90337821D01*
X136934266Y-90337821D01*
G37*
G36*
X106528142Y-89416281D02*
G01*
X106673914Y-89476662D01*
X106673916Y-89476663D01*
X106805108Y-89564322D01*
X106916678Y-89675892D01*
X107004337Y-89807084D01*
X107004338Y-89807086D01*
X107064719Y-89952858D01*
X107095500Y-90107607D01*
X107095500Y-90265393D01*
X107064719Y-90420142D01*
X107004338Y-90565914D01*
X107004337Y-90565916D01*
X106916678Y-90697108D01*
X106805108Y-90808678D01*
X106673916Y-90896337D01*
X106673915Y-90896338D01*
X106673914Y-90896338D01*
X106528142Y-90956719D01*
X106373393Y-90987500D01*
X106215607Y-90987500D01*
X106060858Y-90956719D01*
X105915086Y-90896338D01*
X105915085Y-90896338D01*
X105915084Y-90896337D01*
X105783892Y-90808678D01*
X105672322Y-90697108D01*
X105584663Y-90565916D01*
X105584662Y-90565914D01*
X105524281Y-90420142D01*
X105493500Y-90265393D01*
X105493500Y-90107607D01*
X105524281Y-89952858D01*
X105584662Y-89807086D01*
X105584663Y-89807084D01*
X105672322Y-89675892D01*
X105783892Y-89564322D01*
X105915084Y-89476663D01*
X105915086Y-89476662D01*
X106060858Y-89416281D01*
X106215607Y-89385500D01*
X106373393Y-89385500D01*
X106528142Y-89416281D01*
X106528142Y-89416281D01*
G37*
G36*
X109028142Y-89416281D02*
G01*
X109173914Y-89476662D01*
X109173916Y-89476663D01*
X109305108Y-89564322D01*
X109416678Y-89675892D01*
X109504337Y-89807084D01*
X109504338Y-89807086D01*
X109564719Y-89952858D01*
X109595500Y-90107607D01*
X109595500Y-90265393D01*
X109564719Y-90420142D01*
X109504338Y-90565914D01*
X109504337Y-90565916D01*
X109416678Y-90697108D01*
X109305108Y-90808678D01*
X109173916Y-90896337D01*
X109173915Y-90896338D01*
X109173914Y-90896338D01*
X109028142Y-90956719D01*
X108873393Y-90987500D01*
X108715607Y-90987500D01*
X108560858Y-90956719D01*
X108415086Y-90896338D01*
X108415085Y-90896338D01*
X108415084Y-90896337D01*
X108283892Y-90808678D01*
X108172322Y-90697108D01*
X108084663Y-90565916D01*
X108084662Y-90565914D01*
X108024281Y-90420142D01*
X107993500Y-90265393D01*
X107993500Y-90107607D01*
X108024281Y-89952858D01*
X108084662Y-89807086D01*
X108084663Y-89807084D01*
X108172322Y-89675892D01*
X108283892Y-89564322D01*
X108415084Y-89476663D01*
X108415086Y-89476662D01*
X108560858Y-89416281D01*
X108715607Y-89385500D01*
X108873393Y-89385500D01*
X109028142Y-89416281D01*
X109028142Y-89416281D01*
G37*
G36*
X111528142Y-89416281D02*
G01*
X111673914Y-89476662D01*
X111673916Y-89476663D01*
X111805108Y-89564322D01*
X111916678Y-89675892D01*
X112004337Y-89807084D01*
X112004338Y-89807086D01*
X112064719Y-89952858D01*
X112095500Y-90107607D01*
X112095500Y-90265393D01*
X112064719Y-90420142D01*
X112004338Y-90565914D01*
X112004337Y-90565916D01*
X111916678Y-90697108D01*
X111805108Y-90808678D01*
X111673916Y-90896337D01*
X111673915Y-90896338D01*
X111673914Y-90896338D01*
X111528142Y-90956719D01*
X111373393Y-90987500D01*
X111215607Y-90987500D01*
X111060858Y-90956719D01*
X110915086Y-90896338D01*
X110915085Y-90896338D01*
X110915084Y-90896337D01*
X110783892Y-90808678D01*
X110672322Y-90697108D01*
X110584663Y-90565916D01*
X110584662Y-90565914D01*
X110524281Y-90420142D01*
X110493500Y-90265393D01*
X110493500Y-90107607D01*
X110524281Y-89952858D01*
X110584662Y-89807086D01*
X110584663Y-89807084D01*
X110672322Y-89675892D01*
X110783892Y-89564322D01*
X110915084Y-89476663D01*
X110915086Y-89476662D01*
X111060858Y-89416281D01*
X111215607Y-89385500D01*
X111373393Y-89385500D01*
X111528142Y-89416281D01*
X111528142Y-89416281D01*
G37*
G36*
X114028142Y-89416281D02*
G01*
X114173914Y-89476662D01*
X114173916Y-89476663D01*
X114305108Y-89564322D01*
X114416678Y-89675892D01*
X114504337Y-89807084D01*
X114504338Y-89807086D01*
X114564719Y-89952858D01*
X114595500Y-90107607D01*
X114595500Y-90265393D01*
X114564719Y-90420142D01*
X114504338Y-90565914D01*
X114504337Y-90565916D01*
X114416678Y-90697108D01*
X114305108Y-90808678D01*
X114173916Y-90896337D01*
X114173915Y-90896338D01*
X114173914Y-90896338D01*
X114028142Y-90956719D01*
X113873393Y-90987500D01*
X113715607Y-90987500D01*
X113560858Y-90956719D01*
X113415086Y-90896338D01*
X113415085Y-90896338D01*
X113415084Y-90896337D01*
X113283892Y-90808678D01*
X113172322Y-90697108D01*
X113084663Y-90565916D01*
X113084662Y-90565914D01*
X113024281Y-90420142D01*
X112993500Y-90265393D01*
X112993500Y-90107607D01*
X113024281Y-89952858D01*
X113084662Y-89807086D01*
X113084663Y-89807084D01*
X113172322Y-89675892D01*
X113283892Y-89564322D01*
X113415084Y-89476663D01*
X113415086Y-89476662D01*
X113560858Y-89416281D01*
X113715607Y-89385500D01*
X113873393Y-89385500D01*
X114028142Y-89416281D01*
X114028142Y-89416281D01*
G37*
G36*
X121528142Y-89416281D02*
G01*
X121673914Y-89476662D01*
X121673916Y-89476663D01*
X121805108Y-89564322D01*
X121916678Y-89675892D01*
X122004337Y-89807084D01*
X122004338Y-89807086D01*
X122064719Y-89952858D01*
X122095500Y-90107607D01*
X122095500Y-90265393D01*
X122064719Y-90420142D01*
X122004338Y-90565914D01*
X122004337Y-90565916D01*
X121916678Y-90697108D01*
X121805108Y-90808678D01*
X121673916Y-90896337D01*
X121673915Y-90896338D01*
X121673914Y-90896338D01*
X121528142Y-90956719D01*
X121373393Y-90987500D01*
X121215607Y-90987500D01*
X121060858Y-90956719D01*
X120915086Y-90896338D01*
X120915085Y-90896338D01*
X120915084Y-90896337D01*
X120783892Y-90808678D01*
X120672322Y-90697108D01*
X120584663Y-90565916D01*
X120584662Y-90565914D01*
X120524281Y-90420142D01*
X120493500Y-90265393D01*
X120493500Y-90107607D01*
X120524281Y-89952858D01*
X120584662Y-89807086D01*
X120584663Y-89807084D01*
X120672322Y-89675892D01*
X120783892Y-89564322D01*
X120915084Y-89476663D01*
X120915086Y-89476662D01*
X121060858Y-89416281D01*
X121215607Y-89385500D01*
X121373393Y-89385500D01*
X121528142Y-89416281D01*
X121528142Y-89416281D01*
G37*
G36*
X119028142Y-89416281D02*
G01*
X119173914Y-89476662D01*
X119173916Y-89476663D01*
X119305108Y-89564322D01*
X119416678Y-89675892D01*
X119504337Y-89807084D01*
X119504338Y-89807086D01*
X119564719Y-89952858D01*
X119595500Y-90107607D01*
X119595500Y-90265393D01*
X119564719Y-90420142D01*
X119504338Y-90565914D01*
X119504337Y-90565916D01*
X119416678Y-90697108D01*
X119305108Y-90808678D01*
X119173916Y-90896337D01*
X119173915Y-90896338D01*
X119173914Y-90896338D01*
X119028142Y-90956719D01*
X118873393Y-90987500D01*
X118715607Y-90987500D01*
X118560858Y-90956719D01*
X118415086Y-90896338D01*
X118415085Y-90896338D01*
X118415084Y-90896337D01*
X118283892Y-90808678D01*
X118172322Y-90697108D01*
X118084663Y-90565916D01*
X118084662Y-90565914D01*
X118024281Y-90420142D01*
X117993500Y-90265393D01*
X117993500Y-90107607D01*
X118024281Y-89952858D01*
X118084662Y-89807086D01*
X118084663Y-89807084D01*
X118172322Y-89675892D01*
X118283892Y-89564322D01*
X118415084Y-89476663D01*
X118415086Y-89476662D01*
X118560858Y-89416281D01*
X118715607Y-89385500D01*
X118873393Y-89385500D01*
X119028142Y-89416281D01*
X119028142Y-89416281D01*
G37*
G36*
X116528142Y-89416281D02*
G01*
X116673914Y-89476662D01*
X116673916Y-89476663D01*
X116805108Y-89564322D01*
X116916678Y-89675892D01*
X117004337Y-89807084D01*
X117004338Y-89807086D01*
X117064719Y-89952858D01*
X117095500Y-90107607D01*
X117095500Y-90265393D01*
X117064719Y-90420142D01*
X117004338Y-90565914D01*
X117004337Y-90565916D01*
X116916678Y-90697108D01*
X116805108Y-90808678D01*
X116673916Y-90896337D01*
X116673915Y-90896338D01*
X116673914Y-90896338D01*
X116528142Y-90956719D01*
X116373393Y-90987500D01*
X116215607Y-90987500D01*
X116060858Y-90956719D01*
X115915086Y-90896338D01*
X115915085Y-90896338D01*
X115915084Y-90896337D01*
X115783892Y-90808678D01*
X115672322Y-90697108D01*
X115584663Y-90565916D01*
X115584662Y-90565914D01*
X115524281Y-90420142D01*
X115493500Y-90265393D01*
X115493500Y-90107607D01*
X115524281Y-89952858D01*
X115584662Y-89807086D01*
X115584663Y-89807084D01*
X115672322Y-89675892D01*
X115783892Y-89564322D01*
X115915084Y-89476663D01*
X115915086Y-89476662D01*
X116060858Y-89416281D01*
X116215607Y-89385500D01*
X116373393Y-89385500D01*
X116528142Y-89416281D01*
X116528142Y-89416281D01*
G37*
M02*
